<svg width="355" height="150" viewBox="0 0 355 150" fill="none" xmlns="http://www.w3.org/2000/svg">
<path d="M92.984 48.568C92.984 48.968 92.88 49.328 92.672 49.648C92.464 49.952 92.224 50.192 91.952 50.368C91.552 50.096 91.112 49.864 90.632 49.672C90.152 49.48 89.6 49.384 88.976 49.384C88.16 49.384 87.464 49.56 86.888 49.912C86.328 50.248 85.896 50.744 85.592 51.4C85.304 52.04 85.16 52.816 85.16 53.728C85.16 55.136 85.512 56.208 86.216 56.944C86.936 57.68 87.928 58.048 89.192 58.048C89.848 58.048 90.4 57.96 90.848 57.784C91.312 57.608 91.752 57.408 92.168 57.184C92.44 57.392 92.648 57.656 92.792 57.976C92.952 58.296 93.032 58.664 93.032 59.08C93.032 59.448 92.936 59.784 92.744 60.088C92.552 60.392 92.224 60.648 91.76 60.856C91.472 60.984 91.064 61.112 90.536 61.24C90.008 61.368 89.368 61.432 88.616 61.432C87.176 61.432 85.864 61.16 84.68 60.616C83.512 60.072 82.576 59.232 81.872 58.096C81.184 56.96 80.84 55.504 80.84 53.728C80.84 52.064 81.176 50.664 81.848 49.528C82.52 48.376 83.424 47.504 84.56 46.912C85.712 46.304 86.976 46 88.352 46C89.328 46 90.16 46.112 90.848 46.336C91.536 46.56 92.064 46.864 92.432 47.248C92.8 47.632 92.984 48.072 92.984 48.568ZM97.2629 46.096C97.2629 45.488 97.4709 44.976 97.8869 44.56C98.3029 44.144 98.8389 43.936 99.4949 43.936C100.151 43.936 100.687 44.144 101.103 44.56C101.519 44.976 101.727 45.488 101.727 46.096C101.727 46.688 101.519 47.2 101.103 47.632C100.687 48.048 100.151 48.256 99.4949 48.256C98.8389 48.256 98.3029 48.048 97.8869 47.632C97.4709 47.2 97.2629 46.688 97.2629 46.096ZM97.4549 54.664H101.535V60.976C101.359 61.024 101.103 61.072 100.767 61.12C100.447 61.168 100.095 61.192 99.7109 61.192C98.9269 61.192 98.3509 61.056 97.9829 60.784C97.6309 60.512 97.4549 60.008 97.4549 59.272V54.664ZM101.535 56.8H97.4549V49.504C97.6309 49.456 97.8789 49.408 98.1989 49.36C98.5349 49.312 98.8949 49.288 99.2789 49.288C100.079 49.288 100.655 49.424 101.007 49.696C101.359 49.952 101.535 50.456 101.535 51.208V56.8ZM110.612 52.768V55.504H106.532V52.144C106.532 51.68 106.652 51.28 106.892 50.944C107.148 50.592 107.476 50.288 107.876 50.032C108.436 49.696 109.092 49.44 109.844 49.264C110.596 49.088 111.372 49 112.172 49C113.916 49 114.788 49.616 114.788 50.848C114.788 51.136 114.748 51.408 114.668 51.664C114.588 51.904 114.492 52.112 114.38 52.288C114.22 52.256 114.028 52.232 113.804 52.216C113.58 52.2 113.332 52.192 113.06 52.192C112.66 52.192 112.236 52.24 111.788 52.336C111.34 52.432 110.948 52.576 110.612 52.768ZM106.532 54.664H110.612V60.976C110.436 61.024 110.18 61.072 109.844 61.12C109.524 61.168 109.172 61.192 108.788 61.192C108.004 61.192 107.428 61.056 107.06 60.784C106.708 60.512 106.532 60.008 106.532 59.272V54.664ZM124.632 56.536L121.656 54.688L127.056 49.168C127.888 49.168 128.552 49.352 129.048 49.72C129.56 50.088 129.816 50.552 129.816 51.112C129.816 51.592 129.648 52.016 129.312 52.384C128.976 52.752 128.456 53.24 127.752 53.848L124.632 56.536ZM121.848 55.264L125.136 53.848L130.2 58.888C130.136 59.624 129.92 60.2 129.552 60.616C129.184 61.016 128.656 61.216 127.968 61.216C127.472 61.216 127.016 61.096 126.6 60.856C126.2 60.6 125.768 60.176 125.304 59.584L121.848 55.264ZM118.848 54.664H122.928V60.976C122.752 61.024 122.496 61.072 122.16 61.12C121.84 61.168 121.488 61.192 121.104 61.192C120.32 61.192 119.744 61.056 119.376 60.784C119.024 60.512 118.848 60.008 118.848 59.272V54.664ZM122.928 56.8H118.848V45.352C119.024 45.304 119.272 45.256 119.592 45.208C119.928 45.16 120.288 45.136 120.672 45.136C121.472 45.136 122.048 45.272 122.4 45.544C122.752 45.8 122.928 46.304 122.928 47.056V56.8ZM135.964 56.992L135.82 54.304L141.364 53.392C141.332 53.072 141.172 52.752 140.884 52.432C140.596 52.112 140.148 51.952 139.54 51.952C138.9 51.952 138.364 52.16 137.932 52.576C137.516 52.992 137.292 53.584 137.26 54.352L137.404 56.368C137.564 57.104 137.924 57.616 138.484 57.904C139.06 58.192 139.7 58.336 140.404 58.336C141.076 58.336 141.716 58.248 142.324 58.072C142.932 57.896 143.42 57.704 143.788 57.496C144.044 57.656 144.26 57.88 144.436 58.168C144.612 58.456 144.7 58.76 144.7 59.08C144.7 59.608 144.5 60.048 144.1 60.4C143.716 60.736 143.18 60.984 142.492 61.144C141.804 61.304 141.012 61.384 140.116 61.384C138.868 61.384 137.74 61.152 136.732 60.688C135.74 60.208 134.948 59.496 134.356 58.552C133.78 57.608 133.492 56.424 133.492 55C133.492 53.944 133.66 53.032 133.996 52.264C134.348 51.496 134.812 50.872 135.388 50.392C135.964 49.912 136.604 49.56 137.308 49.336C138.028 49.096 138.764 48.976 139.516 48.976C140.652 48.976 141.644 49.2 142.492 49.648C143.34 50.08 144.004 50.68 144.484 51.448C144.964 52.2 145.204 53.072 145.204 54.064C145.204 54.608 145.052 55.024 144.748 55.312C144.444 55.6 144.02 55.784 143.476 55.864L135.964 56.992ZM158.739 49.096C159.299 49.096 159.771 49.216 160.155 49.456C160.539 49.696 160.731 50.112 160.731 50.704C160.731 51.008 160.651 51.472 160.491 52.096C160.331 52.72 160.123 53.432 159.867 54.232C159.611 55.016 159.323 55.824 159.003 56.656C158.699 57.472 158.395 58.232 158.091 58.936C157.787 59.64 157.515 60.208 157.275 60.64C157.067 60.8 156.739 60.936 156.291 61.048C155.859 61.176 155.371 61.24 154.827 61.24C154.203 61.24 153.659 61.16 153.195 61C152.747 60.84 152.435 60.584 152.259 60.232C152.083 59.896 151.867 59.424 151.611 58.816C151.371 58.208 151.107 57.52 150.819 56.752C150.547 55.968 150.275 55.168 150.003 54.352C149.731 53.52 149.475 52.72 149.235 51.952C149.011 51.184 148.835 50.512 148.707 49.936C148.931 49.712 149.227 49.52 149.595 49.36C149.979 49.184 150.395 49.096 150.843 49.096C151.403 49.096 151.867 49.216 152.235 49.456C152.603 49.68 152.867 50.112 153.027 50.752L153.963 54.424C154.091 54.888 154.211 55.336 154.323 55.768C154.435 56.184 154.531 56.56 154.611 56.896C154.707 57.232 154.779 57.512 154.827 57.736H154.947C155.251 56.552 155.571 55.24 155.907 53.8C156.243 52.344 156.547 50.928 156.819 49.552C157.395 49.248 158.035 49.096 158.739 49.096ZM176.261 53.488V55.696H172.181V53.608C172.181 53.112 172.029 52.752 171.725 52.528C171.437 52.288 171.053 52.168 170.573 52.168C170.253 52.168 169.949 52.208 169.661 52.288C169.389 52.368 169.125 52.472 168.869 52.6V55.696H164.789V52.048C164.789 51.616 164.877 51.264 165.053 50.992C165.245 50.72 165.501 50.472 165.821 50.248C166.365 49.864 167.053 49.56 167.885 49.336C168.717 49.096 169.629 48.976 170.621 48.976C172.429 48.976 173.821 49.376 174.797 50.176C175.773 50.96 176.261 52.064 176.261 53.488ZM164.789 54.664H168.869V60.976C168.693 61.024 168.437 61.072 168.101 61.12C167.781 61.168 167.429 61.192 167.045 61.192C166.261 61.192 165.685 61.056 165.317 60.784C164.965 60.512 164.789 60.008 164.789 59.272V54.664ZM172.181 54.664H176.261V60.976C176.085 61.024 175.829 61.072 175.493 61.12C175.173 61.168 174.821 61.192 174.437 61.192C173.653 61.192 173.077 61.056 172.709 60.784C172.357 60.512 172.181 60.008 172.181 59.272V54.664ZM186.173 58.408C186.445 58.408 186.741 58.384 187.061 58.336C187.397 58.272 187.645 58.192 187.805 58.096V56.176L186.077 56.32C185.629 56.352 185.261 56.448 184.973 56.608C184.685 56.768 184.541 57.008 184.541 57.328C184.541 57.648 184.661 57.912 184.901 58.12C185.157 58.312 185.581 58.408 186.173 58.408ZM185.981 48.976C187.725 48.976 189.117 49.336 190.157 50.056C191.213 50.76 191.741 51.864 191.741 53.368V58.744C191.741 59.16 191.621 59.504 191.381 59.776C191.157 60.032 190.885 60.256 190.565 60.448C190.053 60.752 189.429 60.984 188.693 61.144C187.957 61.304 187.117 61.384 186.173 61.384C184.493 61.384 183.141 61.064 182.117 60.424C181.109 59.768 180.605 58.784 180.605 57.472C180.605 56.368 180.933 55.52 181.589 54.928C182.261 54.336 183.277 53.968 184.637 53.824L187.781 53.488V53.32C187.781 52.856 187.573 52.528 187.157 52.336C186.757 52.128 186.173 52.024 185.405 52.024C184.813 52.024 184.221 52.088 183.629 52.216C183.053 52.344 182.533 52.504 182.069 52.696C181.861 52.552 181.685 52.336 181.541 52.048C181.397 51.744 181.325 51.432 181.325 51.112C181.325 50.344 181.733 49.8 182.549 49.48C183.013 49.304 183.557 49.176 184.181 49.096C184.821 49.016 185.421 48.976 185.981 48.976ZM185.189 45.568L187.613 42.952C188.445 42.952 189.069 43.128 189.485 43.48C189.901 43.832 190.109 44.232 190.109 44.68C190.109 45.048 190.029 45.36 189.869 45.616C189.709 45.856 189.437 46.136 189.053 46.456L186.773 48.328C186.069 48.328 185.533 48.16 185.165 47.824C184.813 47.488 184.637 47.128 184.637 46.744C184.637 46.552 184.669 46.368 184.733 46.192C184.813 46.016 184.965 45.808 185.189 45.568ZM204.464 56.392L212.888 46.384H214.088C214.792 46.96 215.144 47.728 215.144 48.688C215.144 49.088 215.048 49.488 214.856 49.888C214.68 50.272 214.448 50.64 214.16 50.992L205.808 61H204.344C204.072 60.776 203.848 60.472 203.672 60.088C203.496 59.704 203.408 59.264 203.408 58.768C203.408 58.368 203.512 57.96 203.72 57.544C203.928 57.128 204.176 56.744 204.464 56.392ZM204.824 61L207.032 57.568H214.856C214.968 57.76 215.072 58 215.168 58.288C215.264 58.576 215.312 58.896 215.312 59.248C215.312 59.856 215.176 60.304 214.904 60.592C214.648 60.864 214.288 61 213.824 61H204.824ZM213.32 46.384L211.568 49.816H204.08C203.968 49.624 203.864 49.392 203.768 49.12C203.672 48.832 203.624 48.512 203.624 48.16C203.624 47.552 203.76 47.104 204.032 46.816C204.304 46.528 204.672 46.384 205.136 46.384H213.32ZM224.446 58.024C225.23 58.024 225.782 57.896 226.102 57.64C226.422 57.384 226.582 57.096 226.582 56.776C226.582 56.456 226.454 56.208 226.198 56.032C225.942 55.84 225.582 55.664 225.118 55.504L224.11 55.168C223.182 54.848 222.358 54.512 221.638 54.16C220.934 53.792 220.382 53.32 219.982 52.744C219.582 52.168 219.382 51.416 219.382 50.488C219.382 49.128 219.902 48.04 220.942 47.224C221.998 46.408 223.47 46 225.358 46C226.286 46 227.11 46.088 227.83 46.264C228.55 46.44 229.118 46.712 229.534 47.08C229.95 47.432 230.158 47.888 230.158 48.448C230.158 48.848 230.062 49.2 229.87 49.504C229.678 49.808 229.446 50.064 229.174 50.272C228.822 50.048 228.35 49.856 227.758 49.696C227.166 49.52 226.518 49.432 225.814 49.432C225.094 49.432 224.566 49.536 224.23 49.744C223.894 49.936 223.726 50.184 223.726 50.488C223.726 50.728 223.83 50.928 224.038 51.088C224.262 51.232 224.574 51.368 224.974 51.496L226.246 51.904C227.766 52.384 228.926 53.008 229.726 53.776C230.526 54.528 230.926 55.544 230.926 56.824C230.926 58.184 230.382 59.296 229.294 60.16C228.222 61.008 226.654 61.432 224.59 61.432C223.614 61.432 222.734 61.328 221.95 61.12C221.166 60.912 220.542 60.6 220.078 60.184C219.614 59.768 219.382 59.264 219.382 58.672C219.382 58.208 219.518 57.816 219.79 57.496C220.062 57.16 220.358 56.904 220.678 56.728C221.126 57.08 221.67 57.384 222.31 57.64C222.966 57.896 223.678 58.024 224.446 58.024ZM225.142 42.712C225.542 42.344 225.934 41.984 226.318 41.632C226.702 41.28 227.07 40.96 227.422 40.672C227.934 40.672 228.358 40.816 228.694 41.104C229.03 41.392 229.198 41.76 229.198 42.208C229.198 42.544 229.118 42.84 228.958 43.096C228.798 43.336 228.494 43.624 228.046 43.96L227.374 44.464C226.91 44.816 226.518 45.064 226.198 45.208C225.878 45.336 225.526 45.4 225.142 45.4C224.662 45.4 224.246 45.312 223.894 45.136C223.542 44.944 223.206 44.704 222.886 44.416L220.894 42.616C220.894 42.024 221.03 41.568 221.302 41.248C221.59 40.912 221.99 40.744 222.502 40.744C222.822 40.744 223.118 40.832 223.39 41.008C223.678 41.168 224.046 41.496 224.494 41.992L225.142 42.712ZM252.333 57.52C252.333 58.736 251.869 59.688 250.941 60.376C250.029 61.064 248.693 61.408 246.933 61.408C245.573 61.408 244.453 61.216 243.573 60.832C242.709 60.432 242.277 59.816 242.277 58.984C242.277 58.6 242.357 58.272 242.517 58C242.677 57.728 242.869 57.512 243.093 57.352C243.557 57.608 244.085 57.84 244.677 58.048C245.285 58.24 245.981 58.336 246.765 58.336C247.789 58.336 248.301 58.072 248.301 57.544C248.301 57.32 248.205 57.144 248.013 57.016C247.821 56.888 247.501 56.784 247.053 56.704L246.333 56.56C244.957 56.288 243.925 55.856 243.237 55.264C242.549 54.672 242.205 53.84 242.205 52.768C242.205 51.568 242.693 50.632 243.669 49.96C244.645 49.288 245.917 48.952 247.485 48.952C248.269 48.952 248.981 49.032 249.621 49.192C250.277 49.336 250.797 49.576 251.181 49.912C251.565 50.232 251.757 50.648 251.757 51.16C251.757 51.512 251.685 51.824 251.541 52.096C251.413 52.368 251.245 52.592 251.037 52.768C250.861 52.656 250.581 52.544 250.197 52.432C249.829 52.32 249.429 52.224 248.997 52.144C248.565 52.064 248.181 52.024 247.845 52.024C247.317 52.024 246.909 52.088 246.621 52.216C246.333 52.328 246.189 52.512 246.189 52.768C246.189 52.944 246.269 53.088 246.429 53.2C246.589 53.312 246.893 53.416 247.341 53.512L248.085 53.68C249.621 54.032 250.709 54.52 251.349 55.144C252.005 55.752 252.333 56.544 252.333 57.52ZM274.279 57.424C274.071 57.584 273.799 57.72 273.463 57.832C273.143 57.944 272.767 58 272.335 58C271.759 58 271.279 57.928 270.895 57.784C270.527 57.64 270.287 57.392 270.175 57.04C269.727 55.616 269.359 54.472 269.071 53.608C268.783 52.744 268.559 51.984 268.399 51.328H268.279C268.231 52.272 268.191 53.136 268.159 53.92C268.143 54.688 268.127 55.44 268.111 56.176C268.111 56.896 268.095 57.64 268.063 58.408C268.047 59.16 268.015 59.992 267.967 60.904C267.759 60.968 267.487 61.032 267.151 61.096C266.815 61.16 266.479 61.192 266.143 61.192C265.455 61.192 264.911 61.08 264.511 60.856C264.111 60.632 263.911 60.224 263.911 59.632C263.911 59.232 263.927 58.688 263.959 58C263.991 57.296 264.031 56.512 264.079 55.648C264.143 54.768 264.199 53.848 264.247 52.888C264.311 51.928 264.375 50.976 264.439 50.032C264.503 49.088 264.559 48.208 264.607 47.392C264.735 47.184 265.015 46.96 265.447 46.72C265.879 46.48 266.487 46.36 267.271 46.36C268.119 46.36 268.783 46.496 269.263 46.768C269.759 47.024 270.111 47.448 270.319 48.04C270.511 48.552 270.719 49.16 270.943 49.864C271.167 50.552 271.391 51.256 271.615 51.976C271.839 52.68 272.039 53.312 272.215 53.872H272.335C272.719 52.544 273.103 51.248 273.487 49.984C273.887 48.704 274.239 47.648 274.543 46.816C274.783 46.688 275.095 46.584 275.479 46.504C275.863 46.408 276.279 46.36 276.727 46.36C277.511 46.36 278.151 46.48 278.647 46.72C279.143 46.944 279.431 47.272 279.511 47.704C279.575 48.024 279.639 48.512 279.703 49.168C279.783 49.824 279.863 50.576 279.943 51.424C280.023 52.272 280.103 53.16 280.183 54.088C280.263 55 280.335 55.888 280.399 56.752C280.479 57.616 280.543 58.4 280.591 59.104C280.639 59.792 280.671 60.336 280.687 60.736C280.415 60.896 280.127 61.008 279.823 61.072C279.535 61.152 279.159 61.192 278.695 61.192C278.103 61.192 277.591 61.088 277.159 60.88C276.743 60.672 276.519 60.264 276.487 59.656C276.423 58.488 276.375 57.4 276.343 56.392C276.311 55.384 276.287 54.464 276.271 53.632C276.255 52.8 276.231 52.072 276.199 51.448H276.079C275.919 52.072 275.687 52.856 275.383 53.8C275.079 54.744 274.711 55.952 274.279 57.424ZM290.212 58.024C290.996 58.024 291.548 57.896 291.868 57.64C292.188 57.384 292.348 57.096 292.348 56.776C292.348 56.456 292.22 56.208 291.964 56.032C291.708 55.84 291.348 55.664 290.884 55.504L289.876 55.168C288.948 54.848 288.124 54.512 287.404 54.16C286.7 53.792 286.148 53.32 285.748 52.744C285.348 52.168 285.148 51.416 285.148 50.488C285.148 49.128 285.668 48.04 286.708 47.224C287.764 46.408 289.236 46 291.124 46C292.052 46 292.876 46.088 293.596 46.264C294.316 46.44 294.884 46.712 295.3 47.08C295.716 47.432 295.924 47.888 295.924 48.448C295.924 48.848 295.828 49.2 295.636 49.504C295.444 49.808 295.212 50.064 294.94 50.272C294.588 50.048 294.116 49.856 293.524 49.696C292.932 49.52 292.284 49.432 291.58 49.432C290.86 49.432 290.332 49.536 289.996 49.744C289.66 49.936 289.492 50.184 289.492 50.488C289.492 50.728 289.596 50.928 289.804 51.088C290.028 51.232 290.34 51.368 290.74 51.496L292.012 51.904C293.532 52.384 294.692 53.008 295.492 53.776C296.292 54.528 296.692 55.544 296.692 56.824C296.692 58.184 296.148 59.296 295.06 60.16C293.988 61.008 292.42 61.432 290.355 61.432C289.38 61.432 288.5 61.328 287.715 61.12C286.932 60.912 286.308 60.6 285.844 60.184C285.38 59.768 285.148 59.264 285.148 58.672C285.148 58.208 285.284 57.816 285.556 57.496C285.828 57.16 286.124 56.904 286.444 56.728C286.892 57.08 287.436 57.384 288.076 57.64C288.732 57.896 289.444 58.024 290.212 58.024ZM290.908 42.712C291.308 42.344 291.7 41.984 292.084 41.632C292.468 41.28 292.836 40.96 293.188 40.672C293.7 40.672 294.124 40.816 294.46 41.104C294.796 41.392 294.964 41.76 294.964 42.208C294.964 42.544 294.884 42.84 294.724 43.096C294.564 43.336 294.26 43.624 293.812 43.96L293.14 44.464C292.676 44.816 292.284 45.064 291.964 45.208C291.644 45.336 291.292 45.4 290.908 45.4C290.428 45.4 290.012 45.312 289.66 45.136C289.308 44.944 288.972 44.704 288.652 44.416L286.66 42.616C286.66 42.024 286.796 41.568 287.068 41.248C287.356 40.912 287.756 40.744 288.268 40.744C288.588 40.744 288.884 40.832 289.156 41.008C289.444 41.168 289.812 41.496 290.26 41.992L290.908 42.712ZM318.099 57.52C318.099 58.736 317.635 59.688 316.707 60.376C315.795 61.064 314.459 61.408 312.699 61.408C311.339 61.408 310.219 61.216 309.339 60.832C308.475 60.432 308.043 59.816 308.043 58.984C308.043 58.6 308.123 58.272 308.283 58C308.443 57.728 308.635 57.512 308.859 57.352C309.323 57.608 309.851 57.84 310.443 58.048C311.051 58.24 311.747 58.336 312.531 58.336C313.555 58.336 314.067 58.072 314.067 57.544C314.067 57.32 313.971 57.144 313.779 57.016C313.587 56.888 313.267 56.784 312.819 56.704L312.099 56.56C310.723 56.288 309.691 55.856 309.003 55.264C308.315 54.672 307.971 53.84 307.971 52.768C307.971 51.568 308.459 50.632 309.435 49.96C310.411 49.288 311.683 48.952 313.251 48.952C314.035 48.952 314.747 49.032 315.387 49.192C316.043 49.336 316.563 49.576 316.947 49.912C317.331 50.232 317.523 50.648 317.523 51.16C317.523 51.512 317.451 51.824 317.307 52.096C317.179 52.368 317.011 52.592 316.803 52.768C316.627 52.656 316.347 52.544 315.963 52.432C315.595 52.32 315.195 52.224 314.763 52.144C314.331 52.064 313.947 52.024 313.611 52.024C313.083 52.024 312.675 52.088 312.387 52.216C312.099 52.328 311.955 52.512 311.955 52.768C311.955 52.944 312.035 53.088 312.195 53.2C312.355 53.312 312.659 53.416 313.107 53.512L313.851 53.68C315.387 54.032 316.475 54.52 317.115 55.144C317.771 55.752 318.099 56.544 318.099 57.52ZM331.384 49.096C331.944 49.096 332.416 49.216 332.8 49.456C333.184 49.696 333.376 50.112 333.376 50.704C333.376 51.008 333.296 51.472 333.136 52.096C332.976 52.72 332.768 53.432 332.512 54.232C332.256 55.016 331.968 55.824 331.648 56.656C331.344 57.472 331.04 58.232 330.736 58.936C330.432 59.64 330.16 60.208 329.92 60.64C329.712 60.8 329.384 60.936 328.936 61.048C328.504 61.176 328.016 61.24 327.472 61.24C326.848 61.24 326.304 61.16 325.84 61C325.392 60.84 325.08 60.584 324.904 60.232C324.728 59.896 324.512 59.424 324.256 58.816C324.016 58.208 323.752 57.52 323.464 56.752C323.192 55.968 322.92 55.168 322.648 54.352C322.376 53.52 322.12 52.72 321.88 51.952C321.656 51.184 321.48 50.512 321.352 49.936C321.576 49.712 321.872 49.52 322.24 49.36C322.624 49.184 323.04 49.096 323.488 49.096C324.048 49.096 324.512 49.216 324.88 49.456C325.248 49.68 325.512 50.112 325.672 50.752L326.608 54.424C326.736 54.888 326.856 55.336 326.968 55.768C327.08 56.184 327.176 56.56 327.256 56.896C327.352 57.232 327.424 57.512 327.472 57.736H327.592C327.896 56.552 328.216 55.24 328.552 53.8C328.888 52.344 329.192 50.928 329.464 49.552C330.04 49.248 330.68 49.096 331.384 49.096ZM335.917 59.056C335.917 58.4 336.125 57.848 336.541 57.4C336.973 56.936 337.541 56.704 338.245 56.704C338.949 56.704 339.509 56.936 339.925 57.4C340.357 57.848 340.573 58.4 340.573 59.056C340.573 59.712 340.357 60.272 339.925 60.736C339.509 61.184 338.949 61.408 338.245 61.408C337.541 61.408 336.973 61.184 336.541 60.736C336.125 60.272 335.917 59.712 335.917 59.056ZM94.736 91.728V96.672C94.736 97.168 94.648 97.536 94.472 97.776C94.296 98.016 94.016 98.248 93.632 98.472C93.184 98.728 92.528 98.952 91.664 99.144C90.816 99.336 89.968 99.432 89.12 99.432C87.584 99.432 86.184 99.168 84.92 98.64C83.672 98.112 82.68 97.28 81.944 96.144C81.208 95.008 80.84 93.544 80.84 91.752C80.84 90.072 81.208 88.656 81.944 87.504C82.696 86.352 83.696 85.48 84.944 84.888C86.208 84.296 87.616 84 89.168 84C90.176 84 91.048 84.112 91.784 84.336C92.536 84.544 93.112 84.848 93.512 85.248C93.912 85.632 94.112 86.088 94.112 86.616C94.112 87.016 94.008 87.376 93.8 87.696C93.592 88 93.352 88.24 93.08 88.416C92.68 88.176 92.176 87.944 91.568 87.72C90.96 87.496 90.264 87.384 89.48 87.384C88.632 87.384 87.88 87.568 87.224 87.936C86.568 88.288 86.056 88.792 85.688 89.448C85.336 90.088 85.16 90.848 85.16 91.728C85.16 92.688 85.328 93.496 85.664 94.152C86.016 94.792 86.496 95.272 87.104 95.592C87.712 95.912 88.408 96.072 89.192 96.072C89.544 96.072 89.848 96.04 90.104 95.976C90.376 95.896 90.584 95.824 90.728 95.76V93.456H88.16C88.064 93.28 87.968 93.048 87.872 92.76C87.792 92.472 87.752 92.168 87.752 91.848C87.752 91.272 87.88 90.856 88.136 90.6C88.408 90.344 88.752 90.216 89.168 90.216H93.224C93.704 90.216 94.072 90.352 94.328 90.624C94.6 90.88 94.736 91.248 94.736 91.728ZM111.657 93.168C111.657 94.448 111.393 95.552 110.865 96.48C110.353 97.408 109.625 98.128 108.682 98.64C107.754 99.136 106.65 99.384 105.369 99.384C104.105 99.384 103.001 99.136 102.057 98.64C101.113 98.144 100.377 97.432 99.8495 96.504C99.3375 95.576 99.0815 94.464 99.0815 93.168C99.0815 91.904 99.3455 90.808 99.8735 89.88C100.401 88.952 101.137 88.24 102.081 87.744C103.025 87.232 104.121 86.976 105.369 86.976C106.633 86.976 107.729 87.232 108.657 87.744C109.602 88.256 110.338 88.976 110.865 89.904C111.393 90.832 111.657 91.92 111.657 93.168ZM105.369 90.168C104.713 90.168 104.193 90.432 103.809 90.96C103.441 91.472 103.257 92.208 103.257 93.168C103.257 94.16 103.441 94.912 103.809 95.424C104.178 95.936 104.697 96.192 105.369 96.192C106.041 96.192 106.561 95.936 106.929 95.424C107.297 94.896 107.481 94.144 107.481 93.168C107.481 92.224 107.289 91.488 106.906 90.96C106.538 90.432 106.026 90.168 105.369 90.168ZM120.128 90.768V93.504H116.048V90.144C116.048 89.68 116.168 89.28 116.408 88.944C116.664 88.592 116.992 88.288 117.392 88.032C117.952 87.696 118.608 87.44 119.36 87.264C120.112 87.088 120.888 87 121.688 87C123.432 87 124.304 87.616 124.304 88.848C124.304 89.136 124.264 89.408 124.184 89.664C124.104 89.904 124.008 90.112 123.896 90.288C123.736 90.256 123.544 90.232 123.32 90.216C123.096 90.2 122.848 90.192 122.576 90.192C122.176 90.192 121.752 90.24 121.304 90.336C120.856 90.432 120.464 90.576 120.128 90.768ZM116.048 92.664H120.128V98.976C119.952 99.024 119.696 99.072 119.36 99.12C119.04 99.168 118.688 99.192 118.304 99.192C117.52 99.192 116.944 99.056 116.576 98.784C116.224 98.512 116.048 98.008 116.048 97.272V92.664ZM132.956 96.408C133.228 96.408 133.524 96.384 133.844 96.336C134.18 96.272 134.428 96.192 134.588 96.096V94.176L132.86 94.32C132.412 94.352 132.044 94.448 131.756 94.608C131.468 94.768 131.324 95.008 131.324 95.328C131.324 95.648 131.444 95.912 131.684 96.12C131.94 96.312 132.364 96.408 132.956 96.408ZM132.764 86.976C134.508 86.976 135.9 87.336 136.94 88.056C137.996 88.76 138.524 89.864 138.524 91.368V96.744C138.524 97.16 138.404 97.504 138.164 97.776C137.94 98.032 137.668 98.256 137.348 98.448C136.836 98.752 136.212 98.984 135.476 99.144C134.74 99.304 133.9 99.384 132.956 99.384C131.276 99.384 129.924 99.064 128.9 98.424C127.892 97.768 127.388 96.784 127.388 95.472C127.388 94.368 127.716 93.52 128.372 92.928C129.044 92.336 130.06 91.968 131.42 91.824L134.564 91.488V91.32C134.564 90.856 134.356 90.528 133.94 90.336C133.54 90.128 132.956 90.024 132.188 90.024C131.596 90.024 131.004 90.088 130.412 90.216C129.836 90.344 129.316 90.504 128.852 90.696C128.644 90.552 128.468 90.336 128.324 90.048C128.18 89.744 128.108 89.432 128.108 89.112C128.108 88.344 128.516 87.8 129.332 87.48C129.796 87.304 130.34 87.176 130.964 87.096C131.604 87.016 132.204 86.976 132.764 86.976ZM145.434 99H143.826C143.57 98.776 143.362 98.512 143.202 98.208C143.058 97.904 142.986 97.56 142.986 97.176C142.986 96.856 143.058 96.544 143.202 96.24C143.362 95.92 143.554 95.624 143.778 95.352L150.594 87.36H152.01C152.266 87.584 152.466 87.848 152.61 88.152C152.77 88.456 152.85 88.8 152.85 89.184C152.85 89.504 152.77 89.824 152.61 90.144C152.466 90.448 152.282 90.736 152.058 91.008L145.434 99ZM151.146 87.36V90.504H143.49C143.394 90.328 143.298 90.104 143.202 89.832C143.122 89.544 143.082 89.248 143.082 88.944C143.082 88.384 143.21 87.984 143.466 87.744C143.722 87.488 144.05 87.36 144.45 87.36H151.146ZM145.074 99V95.856H152.73C152.826 96.016 152.914 96.24 152.994 96.528C153.09 96.8 153.138 97.096 153.138 97.416C153.138 97.976 153.01 98.384 152.754 98.64C152.514 98.88 152.186 99 151.77 99H145.074ZM164.603 95.856V88.896H168.659V96.432C168.659 96.832 168.571 97.176 168.395 97.464C168.235 97.752 167.971 98.008 167.603 98.232C167.139 98.536 166.539 98.8 165.803 99.024C165.067 99.264 164.227 99.384 163.283 99.384C161.891 99.384 160.699 99.152 159.707 98.688C158.715 98.224 157.955 97.536 157.427 96.624C156.899 95.696 156.635 94.56 156.635 93.216C156.635 91.808 156.907 90.648 157.451 89.736C157.995 88.808 158.731 88.12 159.659 87.672C160.603 87.208 161.651 86.976 162.803 86.976C163.363 86.976 163.851 87.032 164.267 87.144C164.683 87.256 165.027 87.384 165.299 87.528V90.84C165.091 90.68 164.819 90.528 164.483 90.384C164.163 90.24 163.795 90.168 163.379 90.168C162.835 90.168 162.363 90.28 161.963 90.504C161.579 90.728 161.283 91.064 161.075 91.512C160.867 91.96 160.763 92.528 160.763 93.216C160.763 94.224 160.979 94.968 161.411 95.448C161.859 95.928 162.475 96.168 163.259 96.168C163.547 96.168 163.811 96.136 164.051 96.072C164.291 95.992 164.475 95.92 164.603 95.856ZM168.659 89.664H164.579V83.352C164.755 83.304 165.003 83.256 165.323 83.208C165.659 83.16 166.019 83.136 166.403 83.136C167.203 83.136 167.779 83.272 168.131 83.544C168.483 83.8 168.659 84.304 168.659 85.056V89.664ZM178.593 96.408C178.865 96.408 179.161 96.384 179.481 96.336C179.817 96.272 180.065 96.192 180.225 96.096V94.176L178.497 94.32C178.049 94.352 177.681 94.448 177.393 94.608C177.105 94.768 176.961 95.008 176.961 95.328C176.961 95.648 177.081 95.912 177.321 96.12C177.577 96.312 178.001 96.408 178.593 96.408ZM178.401 86.976C180.145 86.976 181.537 87.336 182.577 88.056C183.633 88.76 184.161 89.864 184.161 91.368V96.744C184.161 97.16 184.041 97.504 183.801 97.776C183.577 98.032 183.305 98.256 182.985 98.448C182.473 98.752 181.849 98.984 181.113 99.144C180.377 99.304 179.537 99.384 178.593 99.384C176.913 99.384 175.561 99.064 174.537 98.424C173.529 97.768 173.025 96.784 173.025 95.472C173.025 94.368 173.353 93.52 174.009 92.928C174.681 92.336 175.697 91.968 177.057 91.824L180.201 91.488V91.32C180.201 90.856 179.993 90.528 179.577 90.336C179.177 90.128 178.593 90.024 177.825 90.024C177.233 90.024 176.641 90.088 176.049 90.216C175.473 90.344 174.953 90.504 174.489 90.696C174.281 90.552 174.105 90.336 173.961 90.048C173.817 89.744 173.745 89.432 173.745 89.112C173.745 88.344 174.153 87.8 174.969 87.48C175.433 87.304 175.977 87.176 176.601 87.096C177.241 87.016 177.841 86.976 178.401 86.976ZM191.384 100.752C190.872 101.424 190.2 101.76 189.368 101.76C188.664 101.76 188.064 101.56 187.568 101.16C187.808 100.504 188.016 99.824 188.192 99.12C188.384 98.432 188.552 97.76 188.696 97.104C188.84 96.432 188.96 95.816 189.056 95.256C189.328 95.112 189.656 94.992 190.04 94.896C190.424 94.784 190.808 94.728 191.192 94.728C191.688 94.728 192.12 94.84 192.488 95.064C192.872 95.288 193.064 95.688 193.064 96.264C193.064 96.696 192.976 97.2 192.8 97.776C192.64 98.336 192.432 98.88 192.176 99.408C191.92 99.952 191.656 100.4 191.384 100.752ZM206.968 91.176L211.864 90.84C213.096 92.2 214.208 93.416 215.2 94.488C216.208 95.56 217.008 96.416 217.6 97.056C217.6 97.744 217.368 98.288 216.904 98.688C216.44 99.072 215.904 99.264 215.296 99.264C214.64 99.264 214.104 99.104 213.688 98.784C213.272 98.448 212.872 98.056 212.488 97.608L206.968 91.176ZM211.888 92.64L206.392 93.048L214 84.312C215.088 84.312 215.864 84.52 216.328 84.936C216.808 85.336 217.048 85.816 217.048 86.376C217.048 86.792 216.944 87.184 216.736 87.552C216.528 87.92 216.192 88.336 215.728 88.8L211.888 92.64ZM204.808 88.392H209.008V98.976C208.832 99.024 208.56 99.072 208.192 99.12C207.824 99.168 207.448 99.192 207.064 99.192C206.232 99.192 205.648 99.048 205.312 98.76C204.976 98.456 204.808 97.936 204.808 97.2V88.392ZM209.008 93.936H204.808V84.408C205 84.376 205.28 84.336 205.648 84.288C206.032 84.224 206.4 84.192 206.752 84.192C207.552 84.192 208.128 84.328 208.48 84.6C208.832 84.872 209.008 85.4 209.008 86.184V93.936ZM233.242 93.168C233.242 94.448 232.978 95.552 232.45 96.48C231.938 97.408 231.21 98.128 230.266 98.64C229.338 99.136 228.234 99.384 226.954 99.384C225.69 99.384 224.586 99.136 223.642 98.64C222.698 98.144 221.962 97.432 221.434 96.504C220.922 95.576 220.666 94.464 220.666 93.168C220.666 91.904 220.93 90.808 221.458 89.88C221.986 88.952 222.722 88.24 223.666 87.744C224.61 87.232 225.706 86.976 226.954 86.976C228.218 86.976 229.314 87.232 230.242 87.744C231.186 88.256 231.922 88.976 232.45 89.904C232.978 90.832 233.242 91.92 233.242 93.168ZM226.954 90.168C226.298 90.168 225.778 90.432 225.394 90.96C225.026 91.472 224.842 92.208 224.842 93.168C224.842 94.16 225.026 94.912 225.394 95.424C225.762 95.936 226.282 96.192 226.954 96.192C227.626 96.192 228.146 95.936 228.514 95.424C228.882 94.896 229.066 94.144 229.066 93.168C229.066 92.224 228.874 91.488 228.49 90.96C228.122 90.432 227.61 90.168 226.954 90.168ZM247.472 95.52C247.472 96.736 247.008 97.688 246.08 98.376C245.168 99.064 243.832 99.408 242.072 99.408C240.712 99.408 239.592 99.216 238.712 98.832C237.848 98.432 237.416 97.816 237.416 96.984C237.416 96.6 237.496 96.272 237.656 96C237.816 95.728 238.008 95.512 238.232 95.352C238.696 95.608 239.224 95.84 239.816 96.048C240.424 96.24 241.12 96.336 241.904 96.336C242.928 96.336 243.44 96.072 243.44 95.544C243.44 95.32 243.344 95.144 243.152 95.016C242.96 94.888 242.64 94.784 242.192 94.704L241.472 94.56C240.096 94.288 239.064 93.856 238.376 93.264C237.688 92.672 237.344 91.84 237.344 90.768C237.344 89.568 237.832 88.632 238.808 87.96C239.784 87.288 241.056 86.952 242.624 86.952C243.408 86.952 244.12 87.032 244.76 87.192C245.416 87.336 245.936 87.576 246.32 87.912C246.704 88.232 246.896 88.648 246.896 89.16C246.896 89.512 246.824 89.824 246.68 90.096C246.552 90.368 246.384 90.592 246.176 90.768C246 90.656 245.72 90.544 245.336 90.432C244.968 90.32 244.568 90.224 244.136 90.144C243.704 90.064 243.32 90.024 242.984 90.024C242.456 90.024 242.048 90.088 241.76 90.216C241.472 90.328 241.328 90.512 241.328 90.768C241.328 90.944 241.408 91.088 241.568 91.2C241.728 91.312 242.032 91.416 242.48 91.512L243.224 91.68C244.76 92.032 245.848 92.52 246.488 93.144C247.144 93.752 247.472 94.544 247.472 95.52ZM241.328 82.416L242.144 83.256L244.304 81.24C244.928 81.24 245.424 81.392 245.792 81.696C246.16 81.984 246.344 82.36 246.344 82.824C246.344 83.176 246.248 83.472 246.056 83.712C245.88 83.936 245.592 84.208 245.192 84.528L244.112 85.416C243.808 85.672 243.496 85.864 243.176 85.992C242.856 86.104 242.536 86.16 242.216 86.16C241.928 86.16 241.664 86.136 241.424 86.088C241.2 86.024 240.952 85.904 240.68 85.728C240.424 85.552 240.088 85.288 239.672 84.936L237.896 83.4C237.832 83.096 237.84 82.784 237.92 82.464C238 82.128 238.16 81.848 238.4 81.624C238.64 81.4 238.968 81.288 239.384 81.288C239.704 81.288 239.992 81.36 240.248 81.504C240.52 81.632 240.88 81.936 241.328 82.416ZM251.749 84.096C251.749 83.488 251.957 82.976 252.373 82.56C252.789 82.144 253.325 81.936 253.981 81.936C254.637 81.936 255.173 82.144 255.589 82.56C256.005 82.976 256.213 83.488 256.213 84.096C256.213 84.688 256.005 85.2 255.589 85.632C255.173 86.048 254.637 86.256 253.981 86.256C253.325 86.256 252.789 86.048 252.373 85.632C251.957 85.2 251.749 84.688 251.749 84.096ZM251.941 92.664H256.021V98.976C255.845 99.024 255.589 99.072 255.253 99.12C254.933 99.168 254.581 99.192 254.197 99.192C253.413 99.192 252.837 99.056 252.469 98.784C252.117 98.512 251.941 98.008 251.941 97.272V92.664ZM256.021 94.8H251.941V87.504C252.117 87.456 252.365 87.408 252.685 87.36C253.021 87.312 253.381 87.288 253.765 87.288C254.565 87.288 255.141 87.424 255.493 87.696C255.845 87.952 256.021 88.456 256.021 89.208V94.8ZM267.594 90.192C266.794 90.192 266.098 90.448 265.506 90.96C264.93 91.472 264.642 92.224 264.642 93.216C264.642 94.208 264.922 94.944 265.482 95.424C266.042 95.904 266.738 96.144 267.57 96.144C268.05 96.144 268.474 96.088 268.842 95.976C269.226 95.848 269.546 95.72 269.802 95.592C270.106 95.816 270.33 96.056 270.474 96.312C270.634 96.568 270.714 96.88 270.714 97.248C270.714 97.888 270.394 98.4 269.754 98.784C269.13 99.168 268.234 99.36 267.066 99.36C265.738 99.36 264.578 99.128 263.586 98.664C262.61 98.2 261.85 97.512 261.306 96.6C260.778 95.672 260.514 94.544 260.514 93.216C260.514 91.808 260.81 90.648 261.402 89.736C261.994 88.808 262.778 88.12 263.754 87.672C264.73 87.208 265.794 86.976 266.946 86.976C268.082 86.976 268.962 87.184 269.586 87.6C270.226 88.016 270.546 88.552 270.546 89.208C270.546 89.512 270.474 89.8 270.33 90.072C270.186 90.328 270.018 90.552 269.826 90.744C269.554 90.616 269.226 90.496 268.842 90.384C268.458 90.256 268.042 90.192 267.594 90.192ZM276.777 94.992L276.633 92.304L282.177 91.392C282.145 91.072 281.985 90.752 281.697 90.432C281.409 90.112 280.961 89.952 280.353 89.952C279.713 89.952 279.177 90.16 278.745 90.576C278.329 90.992 278.105 91.584 278.073 92.352L278.217 94.368C278.377 95.104 278.737 95.616 279.297 95.904C279.873 96.192 280.513 96.336 281.217 96.336C281.889 96.336 282.529 96.248 283.137 96.072C283.745 95.896 284.233 95.704 284.601 95.496C284.857 95.656 285.073 95.88 285.249 96.168C285.425 96.456 285.513 96.76 285.513 97.08C285.513 97.608 285.313 98.048 284.913 98.4C284.529 98.736 283.993 98.984 283.305 99.144C282.617 99.304 281.825 99.384 280.929 99.384C279.681 99.384 278.553 99.152 277.545 98.688C276.553 98.208 275.761 97.496 275.169 96.552C274.593 95.608 274.305 94.424 274.305 93C274.305 91.944 274.473 91.032 274.809 90.264C275.161 89.496 275.625 88.872 276.201 88.392C276.777 87.912 277.417 87.56 278.121 87.336C278.841 87.096 279.577 86.976 280.329 86.976C281.465 86.976 282.457 87.2 283.305 87.648C284.153 88.08 284.817 88.68 285.297 89.448C285.777 90.2 286.017 91.072 286.017 92.064C286.017 92.608 285.865 93.024 285.561 93.312C285.257 93.6 284.833 93.784 284.289 93.864L276.777 94.992Z" fill="black"/>
<g clip-path="url(#clip0_445_352)">
<path d="M25.0864 99.4547L31.9729 94.2119C28.028 72.7132 32.8333 65.0331 35.8941 51.8119C26.2936 72.2769 25.3901 88.2645 25.0864 99.4547Z" fill="#0A0A0A"/>
<path d="M28.2852 52.3255C33.1418 55.0884 38.5357 57.4515 42.78 58.2955L39.2313 61.7602C35.7834 59.2579 31.9782 55.6123 28.2852 52.3255Z" fill="#0A0A0A"/>
<path d="M21.9624 55.3105C30.2261 61.4138 33.8415 65.0118 45.3291 68.1034L40.9057 72.2611C34.2421 67.5363 27.6949 62.9918 21.9624 55.3105Z" fill="#0A0A0A"/>
<path d="M20.3877 69.3027C26.9704 73.6169 33.8479 74.9032 39.181 75.1128L34.8826 79.5904C29.876 77.014 24.3196 74.6775 20.3877 69.3027Z" fill="#0A0A0A"/>
<path d="M43.4368 45.2427C36.6719 45.9697 30.0266 48.0063 21.9345 55.266L21.9899 55.355C28.5661 50.6869 36.022 48.876 40.8869 48.468C46.1422 48.0273 55.3703 47.3908 56.8495 51.4089C58.3286 55.4269 52.6278 66.3905 47.7272 72.2636C42.163 78.9322 33.404 88.1398 19.8101 98.0163L19.8661 98.1044C31.0675 91.8478 46.1004 79.3687 51.9576 72.9647C56.3689 68.1416 66.1368 58.4364 63.0405 49.093C61.6756 44.9742 50.4456 44.4894 43.4368 45.2427Z" fill="#0A0A0A"/>
<path d="M16.9346 46.2643C21.6252 47.9508 26.871 50.9735 28.3404 52.2365L28.2851 52.3255C23.4083 49.9761 22.5 49.018 17.9849 47.7039C12.8994 46.2237 8.9496 47.3463 7.62042 50.3516C5.89371 54.2557 8.1315 68.5796 9.63913 73.8874C12.0657 82.4304 18.2144 96.8186 23.6862 110C21.0068 105.982 12.8035 91.0559 8.59843 79.4364C6.90534 74.758 -4.23772 50.0931 1.75425 45.0241C4.4432 42.7494 10.2595 43.8642 16.9346 46.2643Z" fill="#0A0A0A"/>
</g>
<defs>
<clipPath id="clip0_445_352">
<rect width="63.6363" height="66.2162" fill="white" transform="translate(0 43.7838)"/>
</clipPath>
</defs>
</svg>
