<svg width="450" height="150" viewBox="0 0 450 150" fill="none" xmlns="http://www.w3.org/2000/svg">
<path d="M139.984 48.568C139.984 48.968 139.88 49.328 139.672 49.648C139.464 49.952 139.224 50.192 138.952 50.368C138.552 50.096 138.112 49.864 137.632 49.672C137.152 49.48 136.6 49.384 135.976 49.384C135.16 49.384 134.464 49.56 133.888 49.912C133.328 50.248 132.896 50.744 132.592 51.4C132.304 52.04 132.16 52.816 132.16 53.728C132.16 55.136 132.512 56.208 133.216 56.944C133.936 57.68 134.928 58.048 136.192 58.048C136.848 58.048 137.4 57.96 137.848 57.784C138.312 57.608 138.752 57.408 139.168 57.184C139.44 57.392 139.648 57.656 139.792 57.976C139.952 58.296 140.032 58.664 140.032 59.08C140.032 59.448 139.936 59.784 139.744 60.088C139.552 60.392 139.224 60.648 138.76 60.856C138.472 60.984 138.064 61.112 137.536 61.24C137.008 61.368 136.368 61.432 135.616 61.432C134.176 61.432 132.864 61.16 131.68 60.616C130.512 60.072 129.576 59.232 128.872 58.096C128.184 56.96 127.84 55.504 127.84 53.728C127.84 52.064 128.176 50.664 128.848 49.528C129.52 48.376 130.424 47.504 131.56 46.912C132.712 46.304 133.976 46 135.352 46C136.328 46 137.16 46.112 137.848 46.336C138.536 46.56 139.064 46.864 139.432 47.248C139.8 47.632 139.984 48.072 139.984 48.568ZM144.263 46.096C144.263 45.488 144.471 44.976 144.887 44.56C145.303 44.144 145.839 43.936 146.495 43.936C147.151 43.936 147.687 44.144 148.103 44.56C148.519 44.976 148.727 45.488 148.727 46.096C148.727 46.688 148.519 47.2 148.103 47.632C147.687 48.048 147.151 48.256 146.495 48.256C145.839 48.256 145.303 48.048 144.887 47.632C144.471 47.2 144.263 46.688 144.263 46.096ZM144.455 54.664H148.535V60.976C148.359 61.024 148.103 61.072 147.767 61.12C147.447 61.168 147.095 61.192 146.711 61.192C145.927 61.192 145.351 61.056 144.983 60.784C144.631 60.512 144.455 60.008 144.455 59.272V54.664ZM148.535 56.8H144.455V49.504C144.631 49.456 144.879 49.408 145.199 49.36C145.535 49.312 145.895 49.288 146.279 49.288C147.079 49.288 147.655 49.424 148.007 49.696C148.359 49.952 148.535 50.456 148.535 51.208V56.8ZM157.612 52.768V55.504H153.532V52.144C153.532 51.68 153.652 51.28 153.892 50.944C154.148 50.592 154.476 50.288 154.876 50.032C155.436 49.696 156.092 49.44 156.844 49.264C157.596 49.088 158.372 49 159.172 49C160.916 49 161.788 49.616 161.788 50.848C161.788 51.136 161.748 51.408 161.668 51.664C161.588 51.904 161.492 52.112 161.38 52.288C161.22 52.256 161.028 52.232 160.804 52.216C160.58 52.2 160.332 52.192 160.06 52.192C159.66 52.192 159.236 52.24 158.788 52.336C158.34 52.432 157.948 52.576 157.612 52.768ZM153.532 54.664H157.612V60.976C157.436 61.024 157.18 61.072 156.844 61.12C156.524 61.168 156.172 61.192 155.788 61.192C155.004 61.192 154.428 61.056 154.06 60.784C153.708 60.512 153.532 60.008 153.532 59.272V54.664ZM171.632 56.536L168.656 54.688L174.056 49.168C174.888 49.168 175.552 49.352 176.048 49.72C176.56 50.088 176.816 50.552 176.816 51.112C176.816 51.592 176.648 52.016 176.312 52.384C175.976 52.752 175.456 53.24 174.752 53.848L171.632 56.536ZM168.848 55.264L172.136 53.848L177.2 58.888C177.136 59.624 176.92 60.2 176.552 60.616C176.184 61.016 175.656 61.216 174.968 61.216C174.472 61.216 174.016 61.096 173.6 60.856C173.2 60.6 172.768 60.176 172.304 59.584L168.848 55.264ZM165.848 54.664H169.928V60.976C169.752 61.024 169.496 61.072 169.16 61.12C168.84 61.168 168.488 61.192 168.104 61.192C167.32 61.192 166.744 61.056 166.376 60.784C166.024 60.512 165.848 60.008 165.848 59.272V54.664ZM169.928 56.8H165.848V45.352C166.024 45.304 166.272 45.256 166.592 45.208C166.928 45.16 167.288 45.136 167.672 45.136C168.472 45.136 169.048 45.272 169.4 45.544C169.752 45.8 169.928 46.304 169.928 47.056V56.8ZM182.964 56.992L182.82 54.304L188.364 53.392C188.332 53.072 188.172 52.752 187.884 52.432C187.596 52.112 187.148 51.952 186.54 51.952C185.9 51.952 185.364 52.16 184.932 52.576C184.516 52.992 184.292 53.584 184.26 54.352L184.404 56.368C184.564 57.104 184.924 57.616 185.484 57.904C186.06 58.192 186.7 58.336 187.404 58.336C188.076 58.336 188.716 58.248 189.324 58.072C189.932 57.896 190.42 57.704 190.788 57.496C191.044 57.656 191.26 57.88 191.436 58.168C191.612 58.456 191.7 58.76 191.7 59.08C191.7 59.608 191.5 60.048 191.1 60.4C190.716 60.736 190.18 60.984 189.492 61.144C188.804 61.304 188.012 61.384 187.116 61.384C185.868 61.384 184.74 61.152 183.732 60.688C182.74 60.208 181.948 59.496 181.356 58.552C180.78 57.608 180.492 56.424 180.492 55C180.492 53.944 180.66 53.032 180.996 52.264C181.348 51.496 181.812 50.872 182.388 50.392C182.964 49.912 183.604 49.56 184.308 49.336C185.028 49.096 185.764 48.976 186.516 48.976C187.652 48.976 188.644 49.2 189.492 49.648C190.34 50.08 191.004 50.68 191.484 51.448C191.964 52.2 192.204 53.072 192.204 54.064C192.204 54.608 192.052 55.024 191.748 55.312C191.444 55.6 191.02 55.784 190.476 55.864L182.964 56.992ZM205.739 49.096C206.299 49.096 206.771 49.216 207.155 49.456C207.539 49.696 207.731 50.112 207.731 50.704C207.731 51.008 207.651 51.472 207.491 52.096C207.331 52.72 207.123 53.432 206.867 54.232C206.611 55.016 206.323 55.824 206.003 56.656C205.699 57.472 205.395 58.232 205.091 58.936C204.787 59.64 204.515 60.208 204.275 60.64C204.067 60.8 203.739 60.936 203.291 61.048C202.859 61.176 202.371 61.24 201.827 61.24C201.203 61.24 200.659 61.16 200.195 61C199.747 60.84 199.435 60.584 199.259 60.232C199.083 59.896 198.867 59.424 198.611 58.816C198.371 58.208 198.107 57.52 197.819 56.752C197.547 55.968 197.275 55.168 197.003 54.352C196.731 53.52 196.475 52.72 196.235 51.952C196.011 51.184 195.835 50.512 195.707 49.936C195.931 49.712 196.227 49.52 196.595 49.36C196.979 49.184 197.395 49.096 197.843 49.096C198.403 49.096 198.867 49.216 199.235 49.456C199.603 49.68 199.867 50.112 200.027 50.752L200.963 54.424C201.091 54.888 201.211 55.336 201.323 55.768C201.435 56.184 201.531 56.56 201.611 56.896C201.707 57.232 201.779 57.512 201.827 57.736H201.947C202.251 56.552 202.571 55.24 202.907 53.8C203.243 52.344 203.547 50.928 203.819 49.552C204.395 49.248 205.035 49.096 205.739 49.096ZM223.261 53.488V55.696H219.181V53.608C219.181 53.112 219.029 52.752 218.725 52.528C218.437 52.288 218.053 52.168 217.573 52.168C217.253 52.168 216.949 52.208 216.661 52.288C216.389 52.368 216.125 52.472 215.869 52.6V55.696H211.789V52.048C211.789 51.616 211.877 51.264 212.053 50.992C212.245 50.72 212.501 50.472 212.821 50.248C213.365 49.864 214.053 49.56 214.885 49.336C215.717 49.096 216.629 48.976 217.621 48.976C219.429 48.976 220.821 49.376 221.797 50.176C222.773 50.96 223.261 52.064 223.261 53.488ZM211.789 54.664H215.869V60.976C215.693 61.024 215.437 61.072 215.101 61.12C214.781 61.168 214.429 61.192 214.045 61.192C213.261 61.192 212.685 61.056 212.317 60.784C211.965 60.512 211.789 60.008 211.789 59.272V54.664ZM219.181 54.664H223.261V60.976C223.085 61.024 222.829 61.072 222.493 61.12C222.173 61.168 221.821 61.192 221.437 61.192C220.653 61.192 220.077 61.056 219.709 60.784C219.357 60.512 219.181 60.008 219.181 59.272V54.664ZM233.173 58.408C233.445 58.408 233.741 58.384 234.061 58.336C234.397 58.272 234.645 58.192 234.805 58.096V56.176L233.077 56.32C232.629 56.352 232.261 56.448 231.973 56.608C231.685 56.768 231.541 57.008 231.541 57.328C231.541 57.648 231.661 57.912 231.901 58.12C232.157 58.312 232.581 58.408 233.173 58.408ZM232.981 48.976C234.725 48.976 236.117 49.336 237.157 50.056C238.213 50.76 238.741 51.864 238.741 53.368V58.744C238.741 59.16 238.621 59.504 238.381 59.776C238.157 60.032 237.885 60.256 237.565 60.448C237.053 60.752 236.429 60.984 235.693 61.144C234.957 61.304 234.117 61.384 233.173 61.384C231.493 61.384 230.141 61.064 229.117 60.424C228.109 59.768 227.605 58.784 227.605 57.472C227.605 56.368 227.933 55.52 228.589 54.928C229.261 54.336 230.277 53.968 231.637 53.824L234.781 53.488V53.32C234.781 52.856 234.573 52.528 234.157 52.336C233.757 52.128 233.173 52.024 232.405 52.024C231.813 52.024 231.221 52.088 230.629 52.216C230.053 52.344 229.533 52.504 229.069 52.696C228.861 52.552 228.685 52.336 228.541 52.048C228.397 51.744 228.325 51.432 228.325 51.112C228.325 50.344 228.733 49.8 229.549 49.48C230.013 49.304 230.557 49.176 231.181 49.096C231.821 49.016 232.421 48.976 232.981 48.976ZM232.189 45.568L234.613 42.952C235.445 42.952 236.069 43.128 236.485 43.48C236.901 43.832 237.109 44.232 237.109 44.68C237.109 45.048 237.029 45.36 236.869 45.616C236.709 45.856 236.437 46.136 236.053 46.456L233.773 48.328C233.069 48.328 232.533 48.16 232.165 47.824C231.813 47.488 231.637 47.128 231.637 46.744C231.637 46.552 231.669 46.368 231.733 46.192C231.813 46.016 231.965 45.808 232.189 45.568ZM251.464 56.392L259.888 46.384H261.088C261.792 46.96 262.144 47.728 262.144 48.688C262.144 49.088 262.048 49.488 261.856 49.888C261.68 50.272 261.448 50.64 261.16 50.992L252.808 61H251.344C251.072 60.776 250.848 60.472 250.672 60.088C250.496 59.704 250.408 59.264 250.408 58.768C250.408 58.368 250.512 57.96 250.72 57.544C250.928 57.128 251.176 56.744 251.464 56.392ZM251.824 61L254.032 57.568H261.856C261.968 57.76 262.072 58 262.168 58.288C262.264 58.576 262.312 58.896 262.312 59.248C262.312 59.856 262.176 60.304 261.904 60.592C261.648 60.864 261.288 61 260.824 61H251.824ZM260.32 46.384L258.568 49.816H251.08C250.968 49.624 250.864 49.392 250.768 49.12C250.672 48.832 250.624 48.512 250.624 48.16C250.624 47.552 250.76 47.104 251.032 46.816C251.304 46.528 251.672 46.384 252.136 46.384H260.32ZM271.446 58.024C272.23 58.024 272.782 57.896 273.102 57.64C273.422 57.384 273.582 57.096 273.582 56.776C273.582 56.456 273.454 56.208 273.198 56.032C272.942 55.84 272.582 55.664 272.118 55.504L271.11 55.168C270.182 54.848 269.358 54.512 268.638 54.16C267.934 53.792 267.382 53.32 266.982 52.744C266.582 52.168 266.382 51.416 266.382 50.488C266.382 49.128 266.902 48.04 267.942 47.224C268.998 46.408 270.47 46 272.358 46C273.286 46 274.11 46.088 274.83 46.264C275.55 46.44 276.118 46.712 276.534 47.08C276.95 47.432 277.158 47.888 277.158 48.448C277.158 48.848 277.062 49.2 276.87 49.504C276.678 49.808 276.446 50.064 276.174 50.272C275.822 50.048 275.35 49.856 274.758 49.696C274.166 49.52 273.518 49.432 272.814 49.432C272.094 49.432 271.566 49.536 271.23 49.744C270.894 49.936 270.726 50.184 270.726 50.488C270.726 50.728 270.83 50.928 271.038 51.088C271.262 51.232 271.574 51.368 271.974 51.496L273.246 51.904C274.766 52.384 275.926 53.008 276.726 53.776C277.526 54.528 277.926 55.544 277.926 56.824C277.926 58.184 277.382 59.296 276.294 60.16C275.222 61.008 273.654 61.432 271.59 61.432C270.614 61.432 269.734 61.328 268.95 61.12C268.166 60.912 267.542 60.6 267.078 60.184C266.614 59.768 266.382 59.264 266.382 58.672C266.382 58.208 266.518 57.816 266.79 57.496C267.062 57.16 267.358 56.904 267.678 56.728C268.126 57.08 268.67 57.384 269.31 57.64C269.966 57.896 270.678 58.024 271.446 58.024ZM272.142 42.712C272.542 42.344 272.934 41.984 273.318 41.632C273.702 41.28 274.07 40.96 274.422 40.672C274.934 40.672 275.358 40.816 275.694 41.104C276.03 41.392 276.198 41.76 276.198 42.208C276.198 42.544 276.118 42.84 275.958 43.096C275.798 43.336 275.494 43.624 275.046 43.96L274.374 44.464C273.91 44.816 273.518 45.064 273.198 45.208C272.878 45.336 272.526 45.4 272.142 45.4C271.662 45.4 271.246 45.312 270.894 45.136C270.542 44.944 270.206 44.704 269.886 44.416L267.894 42.616C267.894 42.024 268.03 41.568 268.302 41.248C268.59 40.912 268.99 40.744 269.502 40.744C269.822 40.744 270.118 40.832 270.39 41.008C270.678 41.168 271.046 41.496 271.494 41.992L272.142 42.712ZM299.333 57.52C299.333 58.736 298.869 59.688 297.941 60.376C297.029 61.064 295.693 61.408 293.933 61.408C292.573 61.408 291.453 61.216 290.573 60.832C289.709 60.432 289.277 59.816 289.277 58.984C289.277 58.6 289.357 58.272 289.517 58C289.677 57.728 289.869 57.512 290.093 57.352C290.557 57.608 291.085 57.84 291.677 58.048C292.285 58.24 292.981 58.336 293.765 58.336C294.789 58.336 295.301 58.072 295.301 57.544C295.301 57.32 295.205 57.144 295.013 57.016C294.821 56.888 294.501 56.784 294.053 56.704L293.333 56.56C291.957 56.288 290.925 55.856 290.237 55.264C289.549 54.672 289.205 53.84 289.205 52.768C289.205 51.568 289.693 50.632 290.669 49.96C291.645 49.288 292.917 48.952 294.485 48.952C295.269 48.952 295.981 49.032 296.621 49.192C297.277 49.336 297.797 49.576 298.181 49.912C298.565 50.232 298.757 50.648 298.757 51.16C298.757 51.512 298.685 51.824 298.541 52.096C298.413 52.368 298.245 52.592 298.037 52.768C297.861 52.656 297.581 52.544 297.197 52.432C296.829 52.32 296.429 52.224 295.997 52.144C295.565 52.064 295.181 52.024 294.845 52.024C294.317 52.024 293.909 52.088 293.621 52.216C293.333 52.328 293.189 52.512 293.189 52.768C293.189 52.944 293.269 53.088 293.429 53.2C293.589 53.312 293.893 53.416 294.341 53.512L295.085 53.68C296.621 54.032 297.709 54.52 298.349 55.144C299.005 55.752 299.333 56.544 299.333 57.52ZM321.279 57.424C321.071 57.584 320.799 57.72 320.463 57.832C320.143 57.944 319.767 58 319.335 58C318.759 58 318.279 57.928 317.895 57.784C317.527 57.64 317.287 57.392 317.175 57.04C316.727 55.616 316.359 54.472 316.071 53.608C315.783 52.744 315.559 51.984 315.399 51.328H315.279C315.231 52.272 315.191 53.136 315.159 53.92C315.143 54.688 315.127 55.44 315.111 56.176C315.111 56.896 315.095 57.64 315.063 58.408C315.047 59.16 315.015 59.992 314.967 60.904C314.759 60.968 314.487 61.032 314.151 61.096C313.815 61.16 313.479 61.192 313.143 61.192C312.455 61.192 311.911 61.08 311.511 60.856C311.111 60.632 310.911 60.224 310.911 59.632C310.911 59.232 310.927 58.688 310.959 58C310.991 57.296 311.031 56.512 311.079 55.648C311.143 54.768 311.199 53.848 311.247 52.888C311.311 51.928 311.375 50.976 311.439 50.032C311.503 49.088 311.559 48.208 311.607 47.392C311.735 47.184 312.015 46.96 312.447 46.72C312.879 46.48 313.487 46.36 314.271 46.36C315.119 46.36 315.783 46.496 316.263 46.768C316.759 47.024 317.111 47.448 317.319 48.04C317.511 48.552 317.719 49.16 317.943 49.864C318.167 50.552 318.391 51.256 318.615 51.976C318.839 52.68 319.039 53.312 319.215 53.872H319.335C319.719 52.544 320.103 51.248 320.487 49.984C320.887 48.704 321.239 47.648 321.543 46.816C321.783 46.688 322.095 46.584 322.479 46.504C322.863 46.408 323.279 46.36 323.727 46.36C324.511 46.36 325.151 46.48 325.647 46.72C326.143 46.944 326.431 47.272 326.511 47.704C326.575 48.024 326.639 48.512 326.703 49.168C326.783 49.824 326.863 50.576 326.943 51.424C327.023 52.272 327.103 53.16 327.183 54.088C327.263 55 327.335 55.888 327.399 56.752C327.479 57.616 327.543 58.4 327.591 59.104C327.639 59.792 327.671 60.336 327.687 60.736C327.415 60.896 327.127 61.008 326.823 61.072C326.535 61.152 326.159 61.192 325.695 61.192C325.103 61.192 324.591 61.088 324.159 60.88C323.743 60.672 323.519 60.264 323.487 59.656C323.423 58.488 323.375 57.4 323.343 56.392C323.311 55.384 323.287 54.464 323.271 53.632C323.255 52.8 323.231 52.072 323.199 51.448H323.079C322.919 52.072 322.687 52.856 322.383 53.8C322.079 54.744 321.711 55.952 321.279 57.424ZM337.212 58.024C337.996 58.024 338.548 57.896 338.868 57.64C339.188 57.384 339.348 57.096 339.348 56.776C339.348 56.456 339.22 56.208 338.964 56.032C338.708 55.84 338.348 55.664 337.884 55.504L336.876 55.168C335.948 54.848 335.124 54.512 334.404 54.16C333.7 53.792 333.148 53.32 332.748 52.744C332.348 52.168 332.148 51.416 332.148 50.488C332.148 49.128 332.668 48.04 333.708 47.224C334.764 46.408 336.236 46 338.124 46C339.052 46 339.876 46.088 340.596 46.264C341.316 46.44 341.884 46.712 342.3 47.08C342.716 47.432 342.924 47.888 342.924 48.448C342.924 48.848 342.828 49.2 342.636 49.504C342.444 49.808 342.212 50.064 341.94 50.272C341.588 50.048 341.116 49.856 340.524 49.696C339.932 49.52 339.284 49.432 338.58 49.432C337.86 49.432 337.332 49.536 336.996 49.744C336.66 49.936 336.492 50.184 336.492 50.488C336.492 50.728 336.596 50.928 336.804 51.088C337.028 51.232 337.34 51.368 337.74 51.496L339.012 51.904C340.532 52.384 341.692 53.008 342.492 53.776C343.292 54.528 343.692 55.544 343.692 56.824C343.692 58.184 343.148 59.296 342.06 60.16C340.988 61.008 339.42 61.432 337.355 61.432C336.38 61.432 335.5 61.328 334.715 61.12C333.932 60.912 333.308 60.6 332.844 60.184C332.38 59.768 332.148 59.264 332.148 58.672C332.148 58.208 332.284 57.816 332.556 57.496C332.828 57.16 333.124 56.904 333.444 56.728C333.892 57.08 334.436 57.384 335.076 57.64C335.732 57.896 336.444 58.024 337.212 58.024ZM337.908 42.712C338.308 42.344 338.7 41.984 339.084 41.632C339.468 41.28 339.836 40.96 340.188 40.672C340.7 40.672 341.124 40.816 341.46 41.104C341.796 41.392 341.964 41.76 341.964 42.208C341.964 42.544 341.884 42.84 341.724 43.096C341.564 43.336 341.26 43.624 340.812 43.96L340.14 44.464C339.676 44.816 339.284 45.064 338.964 45.208C338.644 45.336 338.292 45.4 337.908 45.4C337.428 45.4 337.012 45.312 336.66 45.136C336.308 44.944 335.972 44.704 335.652 44.416L333.66 42.616C333.66 42.024 333.796 41.568 334.068 41.248C334.356 40.912 334.756 40.744 335.268 40.744C335.588 40.744 335.884 40.832 336.156 41.008C336.444 41.168 336.812 41.496 337.26 41.992L337.908 42.712ZM365.099 57.52C365.099 58.736 364.635 59.688 363.707 60.376C362.795 61.064 361.459 61.408 359.699 61.408C358.339 61.408 357.219 61.216 356.339 60.832C355.475 60.432 355.043 59.816 355.043 58.984C355.043 58.6 355.123 58.272 355.283 58C355.443 57.728 355.635 57.512 355.859 57.352C356.323 57.608 356.851 57.84 357.443 58.048C358.051 58.24 358.747 58.336 359.531 58.336C360.555 58.336 361.067 58.072 361.067 57.544C361.067 57.32 360.971 57.144 360.779 57.016C360.587 56.888 360.267 56.784 359.819 56.704L359.099 56.56C357.723 56.288 356.691 55.856 356.003 55.264C355.315 54.672 354.971 53.84 354.971 52.768C354.971 51.568 355.459 50.632 356.435 49.96C357.411 49.288 358.683 48.952 360.251 48.952C361.035 48.952 361.747 49.032 362.387 49.192C363.043 49.336 363.563 49.576 363.947 49.912C364.331 50.232 364.523 50.648 364.523 51.16C364.523 51.512 364.451 51.824 364.307 52.096C364.179 52.368 364.011 52.592 363.803 52.768C363.627 52.656 363.347 52.544 362.963 52.432C362.595 52.32 362.195 52.224 361.763 52.144C361.331 52.064 360.947 52.024 360.611 52.024C360.083 52.024 359.675 52.088 359.387 52.216C359.099 52.328 358.955 52.512 358.955 52.768C358.955 52.944 359.035 53.088 359.195 53.2C359.355 53.312 359.659 53.416 360.107 53.512L360.851 53.68C362.387 54.032 363.475 54.52 364.115 55.144C364.771 55.752 365.099 56.544 365.099 57.52ZM378.384 49.096C378.944 49.096 379.416 49.216 379.8 49.456C380.184 49.696 380.376 50.112 380.376 50.704C380.376 51.008 380.296 51.472 380.136 52.096C379.976 52.72 379.768 53.432 379.512 54.232C379.256 55.016 378.968 55.824 378.648 56.656C378.344 57.472 378.04 58.232 377.736 58.936C377.432 59.64 377.16 60.208 376.92 60.64C376.712 60.8 376.384 60.936 375.936 61.048C375.504 61.176 375.016 61.24 374.472 61.24C373.848 61.24 373.304 61.16 372.84 61C372.392 60.84 372.08 60.584 371.904 60.232C371.728 59.896 371.512 59.424 371.256 58.816C371.016 58.208 370.752 57.52 370.464 56.752C370.192 55.968 369.92 55.168 369.648 54.352C369.376 53.52 369.12 52.72 368.88 51.952C368.656 51.184 368.48 50.512 368.352 49.936C368.576 49.712 368.872 49.52 369.24 49.36C369.624 49.184 370.04 49.096 370.488 49.096C371.048 49.096 371.512 49.216 371.88 49.456C372.248 49.68 372.512 50.112 372.672 50.752L373.608 54.424C373.736 54.888 373.856 55.336 373.968 55.768C374.08 56.184 374.176 56.56 374.256 56.896C374.352 57.232 374.424 57.512 374.472 57.736H374.592C374.896 56.552 375.216 55.24 375.552 53.8C375.888 52.344 376.192 50.928 376.464 49.552C377.04 49.248 377.68 49.096 378.384 49.096ZM382.917 59.056C382.917 58.4 383.125 57.848 383.541 57.4C383.973 56.936 384.541 56.704 385.245 56.704C385.949 56.704 386.509 56.936 386.925 57.4C387.357 57.848 387.573 58.4 387.573 59.056C387.573 59.712 387.357 60.272 386.925 60.736C386.509 61.184 385.949 61.408 385.245 61.408C384.541 61.408 383.973 61.184 383.541 60.736C383.125 60.272 382.917 59.712 382.917 59.056ZM141.736 91.728V96.672C141.736 97.168 141.648 97.536 141.472 97.776C141.296 98.016 141.016 98.248 140.632 98.472C140.184 98.728 139.528 98.952 138.664 99.144C137.816 99.336 136.968 99.432 136.12 99.432C134.584 99.432 133.184 99.168 131.92 98.64C130.672 98.112 129.68 97.28 128.944 96.144C128.208 95.008 127.84 93.544 127.84 91.752C127.84 90.072 128.208 88.656 128.944 87.504C129.696 86.352 130.696 85.48 131.944 84.888C133.208 84.296 134.616 84 136.168 84C137.176 84 138.048 84.112 138.784 84.336C139.536 84.544 140.112 84.848 140.512 85.248C140.912 85.632 141.112 86.088 141.112 86.616C141.112 87.016 141.008 87.376 140.8 87.696C140.592 88 140.352 88.24 140.08 88.416C139.68 88.176 139.176 87.944 138.568 87.72C137.96 87.496 137.264 87.384 136.48 87.384C135.632 87.384 134.88 87.568 134.224 87.936C133.568 88.288 133.056 88.792 132.688 89.448C132.336 90.088 132.16 90.848 132.16 91.728C132.16 92.688 132.328 93.496 132.664 94.152C133.016 94.792 133.496 95.272 134.104 95.592C134.712 95.912 135.408 96.072 136.192 96.072C136.544 96.072 136.848 96.04 137.104 95.976C137.376 95.896 137.584 95.824 137.728 95.76V93.456H135.16C135.064 93.28 134.968 93.048 134.872 92.76C134.792 92.472 134.752 92.168 134.752 91.848C134.752 91.272 134.88 90.856 135.136 90.6C135.408 90.344 135.752 90.216 136.168 90.216H140.224C140.704 90.216 141.072 90.352 141.328 90.624C141.6 90.88 141.736 91.248 141.736 91.728ZM158.657 93.168C158.657 94.448 158.393 95.552 157.865 96.48C157.353 97.408 156.625 98.128 155.682 98.64C154.754 99.136 153.65 99.384 152.369 99.384C151.105 99.384 150.001 99.136 149.057 98.64C148.113 98.144 147.377 97.432 146.849 96.504C146.337 95.576 146.081 94.464 146.081 93.168C146.081 91.904 146.345 90.808 146.873 89.88C147.401 88.952 148.137 88.24 149.081 87.744C150.025 87.232 151.121 86.976 152.369 86.976C153.633 86.976 154.729 87.232 155.657 87.744C156.602 88.256 157.338 88.976 157.865 89.904C158.393 90.832 158.657 91.92 158.657 93.168ZM152.369 90.168C151.713 90.168 151.193 90.432 150.809 90.96C150.441 91.472 150.257 92.208 150.257 93.168C150.257 94.16 150.441 94.912 150.809 95.424C151.178 95.936 151.697 96.192 152.369 96.192C153.041 96.192 153.561 95.936 153.929 95.424C154.297 94.896 154.481 94.144 154.481 93.168C154.481 92.224 154.289 91.488 153.906 90.96C153.538 90.432 153.026 90.168 152.369 90.168ZM167.128 90.768V93.504H163.048V90.144C163.048 89.68 163.168 89.28 163.408 88.944C163.664 88.592 163.992 88.288 164.392 88.032C164.952 87.696 165.608 87.44 166.36 87.264C167.112 87.088 167.888 87 168.688 87C170.432 87 171.304 87.616 171.304 88.848C171.304 89.136 171.264 89.408 171.184 89.664C171.104 89.904 171.008 90.112 170.896 90.288C170.736 90.256 170.544 90.232 170.32 90.216C170.096 90.2 169.848 90.192 169.576 90.192C169.176 90.192 168.752 90.24 168.304 90.336C167.856 90.432 167.464 90.576 167.128 90.768ZM163.048 92.664H167.128V98.976C166.952 99.024 166.696 99.072 166.36 99.12C166.04 99.168 165.688 99.192 165.304 99.192C164.52 99.192 163.944 99.056 163.576 98.784C163.224 98.512 163.048 98.008 163.048 97.272V92.664ZM179.956 96.408C180.228 96.408 180.524 96.384 180.844 96.336C181.18 96.272 181.428 96.192 181.588 96.096V94.176L179.86 94.32C179.412 94.352 179.044 94.448 178.756 94.608C178.468 94.768 178.324 95.008 178.324 95.328C178.324 95.648 178.444 95.912 178.684 96.12C178.94 96.312 179.364 96.408 179.956 96.408ZM179.764 86.976C181.508 86.976 182.9 87.336 183.94 88.056C184.996 88.76 185.524 89.864 185.524 91.368V96.744C185.524 97.16 185.404 97.504 185.164 97.776C184.94 98.032 184.668 98.256 184.348 98.448C183.836 98.752 183.212 98.984 182.476 99.144C181.74 99.304 180.9 99.384 179.956 99.384C178.276 99.384 176.924 99.064 175.9 98.424C174.892 97.768 174.388 96.784 174.388 95.472C174.388 94.368 174.716 93.52 175.372 92.928C176.044 92.336 177.06 91.968 178.42 91.824L181.564 91.488V91.32C181.564 90.856 181.356 90.528 180.94 90.336C180.54 90.128 179.956 90.024 179.188 90.024C178.596 90.024 178.004 90.088 177.412 90.216C176.836 90.344 176.316 90.504 175.852 90.696C175.644 90.552 175.468 90.336 175.324 90.048C175.18 89.744 175.108 89.432 175.108 89.112C175.108 88.344 175.516 87.8 176.332 87.48C176.796 87.304 177.34 87.176 177.964 87.096C178.604 87.016 179.204 86.976 179.764 86.976ZM192.434 99H190.826C190.57 98.776 190.362 98.512 190.202 98.208C190.058 97.904 189.986 97.56 189.986 97.176C189.986 96.856 190.058 96.544 190.202 96.24C190.362 95.92 190.554 95.624 190.778 95.352L197.594 87.36H199.01C199.266 87.584 199.466 87.848 199.61 88.152C199.77 88.456 199.85 88.8 199.85 89.184C199.85 89.504 199.77 89.824 199.61 90.144C199.466 90.448 199.282 90.736 199.058 91.008L192.434 99ZM198.146 87.36V90.504H190.49C190.394 90.328 190.298 90.104 190.202 89.832C190.122 89.544 190.082 89.248 190.082 88.944C190.082 88.384 190.21 87.984 190.466 87.744C190.722 87.488 191.05 87.36 191.45 87.36H198.146ZM192.074 99V95.856H199.73C199.826 96.016 199.914 96.24 199.994 96.528C200.09 96.8 200.138 97.096 200.138 97.416C200.138 97.976 200.01 98.384 199.754 98.64C199.514 98.88 199.186 99 198.77 99H192.074ZM211.603 95.856V88.896H215.659V96.432C215.659 96.832 215.571 97.176 215.395 97.464C215.235 97.752 214.971 98.008 214.603 98.232C214.139 98.536 213.539 98.8 212.803 99.024C212.067 99.264 211.227 99.384 210.283 99.384C208.891 99.384 207.699 99.152 206.707 98.688C205.715 98.224 204.955 97.536 204.427 96.624C203.899 95.696 203.635 94.56 203.635 93.216C203.635 91.808 203.907 90.648 204.451 89.736C204.995 88.808 205.731 88.12 206.659 87.672C207.603 87.208 208.651 86.976 209.803 86.976C210.363 86.976 210.851 87.032 211.267 87.144C211.683 87.256 212.027 87.384 212.299 87.528V90.84C212.091 90.68 211.819 90.528 211.483 90.384C211.163 90.24 210.795 90.168 210.379 90.168C209.835 90.168 209.363 90.28 208.963 90.504C208.579 90.728 208.283 91.064 208.075 91.512C207.867 91.96 207.763 92.528 207.763 93.216C207.763 94.224 207.979 94.968 208.411 95.448C208.859 95.928 209.475 96.168 210.259 96.168C210.547 96.168 210.811 96.136 211.051 96.072C211.291 95.992 211.475 95.92 211.603 95.856ZM215.659 89.664H211.579V83.352C211.755 83.304 212.003 83.256 212.323 83.208C212.659 83.16 213.019 83.136 213.403 83.136C214.203 83.136 214.779 83.272 215.131 83.544C215.483 83.8 215.659 84.304 215.659 85.056V89.664ZM225.593 96.408C225.865 96.408 226.161 96.384 226.481 96.336C226.817 96.272 227.065 96.192 227.225 96.096V94.176L225.497 94.32C225.049 94.352 224.681 94.448 224.393 94.608C224.105 94.768 223.961 95.008 223.961 95.328C223.961 95.648 224.081 95.912 224.321 96.12C224.577 96.312 225.001 96.408 225.593 96.408ZM225.401 86.976C227.145 86.976 228.537 87.336 229.577 88.056C230.633 88.76 231.161 89.864 231.161 91.368V96.744C231.161 97.16 231.041 97.504 230.801 97.776C230.577 98.032 230.305 98.256 229.985 98.448C229.473 98.752 228.849 98.984 228.113 99.144C227.377 99.304 226.537 99.384 225.593 99.384C223.913 99.384 222.561 99.064 221.537 98.424C220.529 97.768 220.025 96.784 220.025 95.472C220.025 94.368 220.353 93.52 221.009 92.928C221.681 92.336 222.697 91.968 224.057 91.824L227.201 91.488V91.32C227.201 90.856 226.993 90.528 226.577 90.336C226.177 90.128 225.593 90.024 224.825 90.024C224.233 90.024 223.641 90.088 223.049 90.216C222.473 90.344 221.953 90.504 221.489 90.696C221.281 90.552 221.105 90.336 220.961 90.048C220.817 89.744 220.745 89.432 220.745 89.112C220.745 88.344 221.153 87.8 221.969 87.48C222.433 87.304 222.977 87.176 223.601 87.096C224.241 87.016 224.841 86.976 225.401 86.976ZM238.384 100.752C237.872 101.424 237.2 101.76 236.368 101.76C235.664 101.76 235.064 101.56 234.568 101.16C234.808 100.504 235.016 99.824 235.192 99.12C235.384 98.432 235.552 97.76 235.696 97.104C235.84 96.432 235.96 95.816 236.056 95.256C236.328 95.112 236.656 94.992 237.04 94.896C237.424 94.784 237.808 94.728 238.192 94.728C238.688 94.728 239.12 94.84 239.488 95.064C239.872 95.288 240.064 95.688 240.064 96.264C240.064 96.696 239.976 97.2 239.8 97.776C239.64 98.336 239.432 98.88 239.176 99.408C238.92 99.952 238.656 100.4 238.384 100.752ZM253.968 91.176L258.864 90.84C260.096 92.2 261.208 93.416 262.2 94.488C263.208 95.56 264.008 96.416 264.6 97.056C264.6 97.744 264.368 98.288 263.904 98.688C263.44 99.072 262.904 99.264 262.296 99.264C261.64 99.264 261.104 99.104 260.688 98.784C260.272 98.448 259.872 98.056 259.488 97.608L253.968 91.176ZM258.888 92.64L253.392 93.048L261 84.312C262.088 84.312 262.864 84.52 263.328 84.936C263.808 85.336 264.048 85.816 264.048 86.376C264.048 86.792 263.944 87.184 263.736 87.552C263.528 87.92 263.192 88.336 262.728 88.8L258.888 92.64ZM251.808 88.392H256.008V98.976C255.832 99.024 255.56 99.072 255.192 99.12C254.824 99.168 254.448 99.192 254.064 99.192C253.232 99.192 252.648 99.048 252.312 98.76C251.976 98.456 251.808 97.936 251.808 97.2V88.392ZM256.008 93.936H251.808V84.408C252 84.376 252.28 84.336 252.648 84.288C253.032 84.224 253.4 84.192 253.752 84.192C254.552 84.192 255.128 84.328 255.48 84.6C255.832 84.872 256.008 85.4 256.008 86.184V93.936ZM280.242 93.168C280.242 94.448 279.978 95.552 279.45 96.48C278.938 97.408 278.21 98.128 277.266 98.64C276.338 99.136 275.234 99.384 273.954 99.384C272.69 99.384 271.586 99.136 270.642 98.64C269.698 98.144 268.962 97.432 268.434 96.504C267.922 95.576 267.666 94.464 267.666 93.168C267.666 91.904 267.93 90.808 268.458 89.88C268.986 88.952 269.722 88.24 270.666 87.744C271.61 87.232 272.706 86.976 273.954 86.976C275.218 86.976 276.314 87.232 277.242 87.744C278.186 88.256 278.922 88.976 279.45 89.904C279.978 90.832 280.242 91.92 280.242 93.168ZM273.954 90.168C273.298 90.168 272.778 90.432 272.394 90.96C272.026 91.472 271.842 92.208 271.842 93.168C271.842 94.16 272.026 94.912 272.394 95.424C272.762 95.936 273.282 96.192 273.954 96.192C274.626 96.192 275.146 95.936 275.514 95.424C275.882 94.896 276.066 94.144 276.066 93.168C276.066 92.224 275.874 91.488 275.49 90.96C275.122 90.432 274.61 90.168 273.954 90.168ZM294.472 95.52C294.472 96.736 294.008 97.688 293.08 98.376C292.168 99.064 290.832 99.408 289.072 99.408C287.712 99.408 286.592 99.216 285.712 98.832C284.848 98.432 284.416 97.816 284.416 96.984C284.416 96.6 284.496 96.272 284.656 96C284.816 95.728 285.008 95.512 285.232 95.352C285.696 95.608 286.224 95.84 286.816 96.048C287.424 96.24 288.12 96.336 288.904 96.336C289.928 96.336 290.44 96.072 290.44 95.544C290.44 95.32 290.344 95.144 290.152 95.016C289.96 94.888 289.64 94.784 289.192 94.704L288.472 94.56C287.096 94.288 286.064 93.856 285.376 93.264C284.688 92.672 284.344 91.84 284.344 90.768C284.344 89.568 284.832 88.632 285.808 87.96C286.784 87.288 288.056 86.952 289.624 86.952C290.408 86.952 291.12 87.032 291.76 87.192C292.416 87.336 292.936 87.576 293.32 87.912C293.704 88.232 293.896 88.648 293.896 89.16C293.896 89.512 293.824 89.824 293.68 90.096C293.552 90.368 293.384 90.592 293.176 90.768C293 90.656 292.72 90.544 292.336 90.432C291.968 90.32 291.568 90.224 291.136 90.144C290.704 90.064 290.32 90.024 289.984 90.024C289.456 90.024 289.048 90.088 288.76 90.216C288.472 90.328 288.328 90.512 288.328 90.768C288.328 90.944 288.408 91.088 288.568 91.2C288.728 91.312 289.032 91.416 289.48 91.512L290.224 91.68C291.76 92.032 292.848 92.52 293.488 93.144C294.144 93.752 294.472 94.544 294.472 95.52ZM288.328 82.416L289.144 83.256L291.304 81.24C291.928 81.24 292.424 81.392 292.792 81.696C293.16 81.984 293.344 82.36 293.344 82.824C293.344 83.176 293.248 83.472 293.056 83.712C292.88 83.936 292.592 84.208 292.192 84.528L291.112 85.416C290.808 85.672 290.496 85.864 290.176 85.992C289.856 86.104 289.536 86.16 289.216 86.16C288.928 86.16 288.664 86.136 288.424 86.088C288.2 86.024 287.952 85.904 287.68 85.728C287.424 85.552 287.088 85.288 286.672 84.936L284.896 83.4C284.832 83.096 284.84 82.784 284.92 82.464C285 82.128 285.16 81.848 285.4 81.624C285.64 81.4 285.968 81.288 286.384 81.288C286.704 81.288 286.992 81.36 287.248 81.504C287.52 81.632 287.88 81.936 288.328 82.416ZM298.749 84.096C298.749 83.488 298.957 82.976 299.373 82.56C299.789 82.144 300.325 81.936 300.981 81.936C301.637 81.936 302.173 82.144 302.589 82.56C303.005 82.976 303.213 83.488 303.213 84.096C303.213 84.688 303.005 85.2 302.589 85.632C302.173 86.048 301.637 86.256 300.981 86.256C300.325 86.256 299.789 86.048 299.373 85.632C298.957 85.2 298.749 84.688 298.749 84.096ZM298.941 92.664H303.021V98.976C302.845 99.024 302.589 99.072 302.253 99.12C301.933 99.168 301.581 99.192 301.197 99.192C300.413 99.192 299.837 99.056 299.469 98.784C299.117 98.512 298.941 98.008 298.941 97.272V92.664ZM303.021 94.8H298.941V87.504C299.117 87.456 299.365 87.408 299.685 87.36C300.021 87.312 300.381 87.288 300.765 87.288C301.565 87.288 302.141 87.424 302.493 87.696C302.845 87.952 303.021 88.456 303.021 89.208V94.8ZM314.594 90.192C313.794 90.192 313.098 90.448 312.506 90.96C311.93 91.472 311.642 92.224 311.642 93.216C311.642 94.208 311.922 94.944 312.482 95.424C313.042 95.904 313.738 96.144 314.57 96.144C315.05 96.144 315.474 96.088 315.842 95.976C316.226 95.848 316.546 95.72 316.802 95.592C317.106 95.816 317.33 96.056 317.474 96.312C317.634 96.568 317.714 96.88 317.714 97.248C317.714 97.888 317.394 98.4 316.754 98.784C316.13 99.168 315.234 99.36 314.066 99.36C312.738 99.36 311.578 99.128 310.586 98.664C309.61 98.2 308.85 97.512 308.306 96.6C307.778 95.672 307.514 94.544 307.514 93.216C307.514 91.808 307.81 90.648 308.402 89.736C308.994 88.808 309.778 88.12 310.754 87.672C311.73 87.208 312.794 86.976 313.946 86.976C315.082 86.976 315.962 87.184 316.586 87.6C317.226 88.016 317.546 88.552 317.546 89.208C317.546 89.512 317.474 89.8 317.33 90.072C317.186 90.328 317.018 90.552 316.826 90.744C316.554 90.616 316.226 90.496 315.842 90.384C315.458 90.256 315.042 90.192 314.594 90.192ZM323.777 94.992L323.633 92.304L329.177 91.392C329.145 91.072 328.985 90.752 328.697 90.432C328.409 90.112 327.961 89.952 327.353 89.952C326.713 89.952 326.177 90.16 325.745 90.576C325.329 90.992 325.105 91.584 325.073 92.352L325.217 94.368C325.377 95.104 325.737 95.616 326.297 95.904C326.873 96.192 327.513 96.336 328.217 96.336C328.889 96.336 329.529 96.248 330.137 96.072C330.745 95.896 331.233 95.704 331.601 95.496C331.857 95.656 332.073 95.88 332.249 96.168C332.425 96.456 332.513 96.76 332.513 97.08C332.513 97.608 332.313 98.048 331.913 98.4C331.529 98.736 330.993 98.984 330.305 99.144C329.617 99.304 328.825 99.384 327.929 99.384C326.681 99.384 325.553 99.152 324.545 98.688C323.553 98.208 322.761 97.496 322.169 96.552C321.593 95.608 321.305 94.424 321.305 93C321.305 91.944 321.473 91.032 321.809 90.264C322.161 89.496 322.625 88.872 323.201 88.392C323.777 87.912 324.417 87.56 325.121 87.336C325.841 87.096 326.577 86.976 327.329 86.976C328.465 86.976 329.457 87.2 330.305 87.648C331.153 88.08 331.817 88.68 332.297 89.448C332.777 90.2 333.017 91.072 333.017 92.064C333.017 92.608 332.865 93.024 332.561 93.312C332.257 93.6 331.833 93.784 331.289 93.864L323.777 94.992Z" fill="black"/>
<g clip-path="url(#clip0_235_648)">
<path d="M72.0864 100.852L78.9729 95.3098C75.028 72.5826 79.8333 64.4636 82.8941 50.4868C73.2936 72.1213 72.3901 89.0225 72.0864 100.852Z" fill="#0A0A0A"/>
<path d="M75.2852 51.0298C80.1418 53.9506 85.5357 56.4487 89.78 57.3409L86.2313 61.0037C82.7834 58.3584 78.9782 54.5044 75.2852 51.0298Z" fill="#0A0A0A"/>
<path d="M68.9624 54.1853C77.2261 60.6373 80.8415 64.441 92.3291 67.7092L87.9057 72.1045C81.2421 67.1097 74.6949 62.3056 68.9624 54.1853Z" fill="#0A0A0A"/>
<path d="M67.3877 68.9772C73.9704 73.5379 80.8479 74.8977 86.181 75.1193L81.8826 79.8527C76.876 77.1291 71.3196 74.6591 67.3877 68.9772Z" fill="#0A0A0A"/>
<path d="M90.4368 43.5422C83.6719 44.3108 77.0266 46.4638 68.9345 54.1383L68.9899 54.2323C75.5661 49.2975 83.022 47.3831 87.8869 46.9518C93.1422 46.4859 102.37 45.8131 103.849 50.0608C105.329 54.3084 99.6278 65.8984 94.7272 72.1072C89.163 79.1568 80.404 88.8906 66.8101 99.3315L66.8661 99.4247C78.0675 92.8104 93.1004 79.6183 98.9576 72.8483C103.369 67.7496 113.137 57.4899 110.041 47.6126C108.676 43.2584 97.4456 42.7459 90.4368 43.5422Z" fill="#0A0A0A"/>
<path d="M63.9346 44.6222C68.6252 46.4051 73.871 49.6005 75.3404 50.9358L75.2851 51.0298C70.4083 48.5462 69.5 47.5333 64.9849 46.1441C59.8994 44.5793 55.9496 45.7661 54.6204 48.9431C52.8937 53.0703 55.1315 68.2127 56.6391 73.8238C59.0657 82.855 65.2144 98.0654 70.6862 112C68.0068 107.752 59.8035 91.9734 55.5984 79.6899C53.9053 74.7442 42.7623 48.6699 48.7542 43.3112C51.4432 40.9065 57.2595 42.085 63.9346 44.6222Z" fill="#0A0A0A"/>
</g>
<defs>
<clipPath id="clip0_235_648">
<rect width="63.6363" height="70" fill="white" transform="translate(47 42)"/>
</clipPath>
</defs>
</svg>
