<svg width="241" height="150" viewBox="0 0 241 150" fill="none" xmlns="http://www.w3.org/2000/svg">
<g clip-path="url(#clip0_445_381)">
<path fill-rule="evenodd" clip-rule="evenodd" d="M59.3704 66.1809V92.3625H64.4765H69.5825V66.1809V40H64.4765H59.3704V66.1809ZM79.695 44.7066V49.4132L84.7758 49.3874L89.8566 49.3609L89.8831 44.6808L89.9089 40H84.8016H79.695V44.7066ZM24.1289 40.9029C22.8524 40.9816 21.0244 41.2819 19.7233 41.6267L18.8726 41.852L18.8222 42.9717C18.7687 44.1762 18.5939 44.6195 18.1464 44.6862C17.7583 44.7444 17.6208 44.3624 17.6208 43.2246C17.6208 42.1974 17.6189 42.1896 17.3955 42.2563C16.9437 42.3902 15.2467 43.1345 14.4117 43.564C13.9408 43.8061 13.5281 44.005 13.4944 44.005C13.3851 44.005 12.0714 44.8021 11.7674 45.0532C11.4712 45.2977 11.4706 45.3007 11.604 45.7783C12.1218 47.6267 12.1116 48.3097 11.5674 48.3097C11.2177 48.3097 10.9829 47.9432 10.7101 46.9695C10.5582 46.4282 10.4176 46.1075 10.3323 46.1075C9.82949 46.1075 5.50675 50.3773 5.50675 50.8735C5.50675 50.9564 5.67975 51.2808 5.8906 51.5944C6.80309 52.9484 6.9845 53.4452 6.66192 53.7131C6.33273 53.9858 5.98131 53.7425 5.35897 52.8102C4.66154 51.7656 4.64893 51.7614 4.25486 52.4216C4.08966 52.6991 3.75206 53.2542 3.50397 53.6554C2.40166 55.442 1.22846 58.2209 1.57687 58.2221C1.61832 58.2221 1.8544 58.4053 2.1025 58.6287C2.35059 58.8528 2.74406 59.17 2.97714 59.3334C3.4499 59.665 3.60429 59.8927 3.60429 60.2567C3.60429 60.7781 2.96513 60.7487 2.28151 60.196C0.970754 59.1352 1.02842 59.134 0.721458 60.2242C0.231876 61.9633 0.0822979 62.9713 0.0660786 64.6497L0.0498593 66.2758L1.13595 66.6789C2.39925 67.1481 2.81915 67.4965 2.56925 67.8695C2.36561 68.1735 1.83158 68.1399 0.825982 67.7596L0 67.4466L0.00360429 68.5159C0.00961143 70.5001 0.192229 71.7574 0.808561 74.0653L0.908881 74.4408L1.98116 74.4414C3.24626 74.442 3.74545 74.5579 3.97132 74.9027C4.30592 75.4133 3.91185 75.5971 2.54883 75.5665C1.21945 75.5365 1.24468 75.5106 1.66098 76.4934C1.80094 76.8238 2.00278 77.338 2.10911 77.6354C2.31455 78.2102 3.38022 80.195 3.75326 80.6984C3.87581 80.8636 4.00556 81.0889 4.04221 81.1988C4.07825 81.3093 4.19118 81.507 4.2927 81.6379L4.47652 81.877L5.56742 81.543C7.11906 81.0678 7.70897 81.1141 7.70897 81.7094C7.70897 82.0302 7.36295 82.2392 6.23662 82.6009L5.3001 82.9012L5.78488 83.5638C6.56761 84.6343 9.88355 87.7568 10.2368 87.7568C10.3071 87.7568 10.6741 87.5429 11.0519 87.281C12.2335 86.464 12.6901 86.3085 13.0655 86.5926C13.3719 86.8245 13.1142 87.1915 12.1422 87.907C11.6935 88.2374 11.3241 88.5299 11.3217 88.5575C11.3042 88.7528 13.8014 90.2107 15.0677 90.7453C17.6952 91.8549 17.4507 91.8176 17.9211 91.1833C18.9219 89.8359 19.7052 89.3252 19.9143 89.8845C20.0308 90.1963 19.8987 90.4924 19.2703 91.3274C18.6576 92.1414 18.666 92.1768 19.5232 92.3534C22.2505 92.9151 22.6698 92.9776 24.0868 93.0323L25.5976 93.0905L26.0205 92.0369C26.4765 90.9039 26.7696 90.5237 27.1475 90.5771C27.5073 90.6276 27.5265 91.4428 27.1871 92.2904C27.0472 92.6412 26.9318 92.959 26.9318 92.9956C26.9318 93.3002 31.7694 92.6965 33.2537 92.2063L33.7181 92.0531L33.7553 90.9814C33.798 89.7433 34.0064 89.2087 34.4468 89.2087C34.8727 89.2087 35.0619 89.7457 34.9832 90.7351C34.9387 91.301 34.952 91.5611 35.0258 91.5611C35.3166 91.5611 38.0877 90.3549 38.8458 89.8983C41.349 88.3911 41.1904 88.6146 40.7831 87.1789C40.529 86.2826 40.5242 86.2274 40.6816 85.8982C41.0204 85.1875 41.4823 85.5654 41.8494 86.8533C42.1521 87.9184 42.1569 87.916 44.6295 85.5041C47.084 83.1097 47.1441 82.9793 46.3559 81.7508C45.7065 80.738 45.6417 80.4809 45.9613 80.1914C46.2622 79.9193 46.5902 80.1367 47.1849 81.0018C47.4486 81.3856 47.6967 81.71 47.7358 81.722C47.809 81.7454 48.8579 80.2238 48.8579 80.0941C48.8579 80.0538 49.079 79.6327 49.3487 79.1582C49.9019 78.1838 50.7057 76.357 50.7952 75.8692C50.8517 75.5617 50.8192 75.5196 50.123 75.0048C49.0495 74.2107 48.7299 73.7079 49.0784 73.3595C49.3289 73.1096 49.7205 73.2357 50.4498 73.8028C50.8619 74.123 51.2127 74.3284 51.2614 74.2786C51.5407 73.9926 52.2057 70.4604 52.3198 68.6571L52.3895 67.553L51.5245 67.2892C50.1813 66.8796 49.5181 66.1275 50.2185 65.8085C50.4762 65.6907 50.5934 65.7202 52.2519 66.3143C52.6106 66.4422 51.951 61.696 51.3545 59.8596L51.2523 59.5448L50.162 59.5076C49.1745 59.474 49.0471 59.4475 48.8146 59.2289C48.1977 58.6492 48.6368 58.2623 49.8695 58.2996C50.6877 58.3242 50.7604 58.3104 50.7604 58.1356C50.7604 57.2585 47.9754 52.0089 47.5886 52.1579C45.9294 52.794 45.0037 52.8138 45.0037 52.2113C45.0037 51.8166 45.2734 51.6424 46.2376 51.4154C46.8876 51.2622 46.9572 51.118 46.6148 50.635C45.9336 49.6751 42.5186 46.388 42.1371 46.3249C42.0218 46.3057 41.7202 46.4589 41.4186 46.6896C40.2965 47.5474 39.8436 47.6915 39.491 47.3017C39.217 46.9989 39.4381 46.6667 40.2965 46.0906C40.6798 45.8335 41.0078 45.58 41.0252 45.5272C41.1273 45.222 35.7077 42.4005 35.0246 42.4035C34.9514 42.4035 34.6306 42.7417 34.3122 43.1544C33.0357 44.8081 31.9868 44.533 33.1324 42.845C33.7097 41.9938 33.7241 41.9451 33.4147 41.8724C33.291 41.8436 32.6488 41.6802 31.988 41.5102C29.7708 40.9395 26.9943 40.7046 26.8645 41.0765C26.2927 42.7182 25.9082 43.3436 25.5057 43.2859C25.1038 43.2282 25.0642 42.8192 25.3628 41.8238C25.6799 40.7671 25.6769 40.7965 25.4553 40.8164C25.3592 40.8254 24.762 40.8638 24.1289 40.9029ZM27.547 50.5179C38.355 51.6166 45.3683 62.4553 41.6986 72.3887C41.4955 72.939 41.2649 73.5631 41.1862 73.7746C40.3133 76.1276 36.9535 79.9211 34.7045 81.0937C34.4768 81.212 33.953 81.4943 33.5397 81.7214C32.6494 82.211 31.3831 82.7252 30.744 82.8574C30.4923 82.909 29.8807 83.0436 29.3851 83.1565C23.7721 84.4306 17.1696 82.1017 13.4452 77.5344C8.62866 71.6264 8.34152 63.0446 12.7688 57.3204C13.131 56.8524 13.5521 56.3046 13.7047 56.1027C16.3953 52.5489 22.6607 50.0211 27.547 50.5179ZM79.695 73.3396V92.3625H84.801H89.9071V73.3396V54.3168H84.801H79.695V73.3396Z" fill="#0A0A0A"/>
<path fill-rule="evenodd" clip-rule="evenodd" d="M29.6353 64.1788C29.6353 64.2622 29.7242 64.3289 29.8359 64.3289C29.947 64.3289 30.0359 64.2622 30.0359 64.1788C30.0359 64.0953 29.947 64.0286 29.8359 64.0286C29.7242 64.0286 29.6353 64.0953 29.6353 64.1788ZM176.16 98.1678C175.138 98.4339 174.695 98.569 174.49 98.6772C170.826 100.602 170.955 107.767 174.687 109.604L175.355 109.933H177.159C179.173 109.933 179.262 109.91 180.369 109.083C181.096 108.54 182.362 106.365 182.092 106.122C182.057 106.092 180.567 105.678 180.491 105.678C180.458 105.678 180.375 105.844 180.309 106.046C179.736 107.781 178.856 108.496 177.261 108.521C174.86 108.558 173.601 107 173.609 104.006C173.617 101.085 174.82 99.6209 177.211 99.6209C178.746 99.6209 179.474 100.057 179.962 101.267C180.118 101.656 180.273 101.973 180.305 101.972C180.419 101.968 181.835 101.588 181.872 101.551C181.944 101.479 181.613 100.534 181.369 100.118C180.478 98.5967 178.03 97.68 176.16 98.1678ZM238.784 104.076V109.883H239.535H240.286V104.076V98.2693H239.535H238.784V104.076ZM226.445 98.8982L225.771 99.3205L225.77 100.347L225.768 101.373H225.268H224.768V102.024V102.674H225.263H225.758L225.788 105.853C225.826 109.836 225.9 109.986 227.828 109.981C228.851 109.98 228.917 109.936 228.828 109.318C228.69 108.362 228.703 108.381 228.219 108.447C227.845 108.498 227.752 108.472 227.529 108.248L227.27 107.99V105.332V102.674H227.971H228.672V102.024V101.373H227.971H227.27V99.9212C227.27 99.1229 227.237 98.4711 227.195 98.4729C227.154 98.4747 226.817 98.6664 226.445 98.8982ZM186.372 101.237C184.842 101.483 183.947 102.118 183.582 103.218C183.353 103.91 183.366 103.95 183.844 104.024C184.078 104.06 184.412 104.113 184.586 104.142C184.884 104.192 184.914 104.168 185.115 103.714C185.894 101.954 189.027 102.209 188.902 104.022C188.869 104.504 188.745 104.551 186.703 104.862C185.963 104.974 185.109 105.159 184.803 105.274C183.161 105.888 182.682 107.783 183.794 109.268C184.531 110.253 187.073 110.297 188.552 109.351L189.09 109.007L189.207 109.445L189.324 109.883H190.109C191.061 109.883 191.062 109.883 190.797 109.3C190.601 108.868 190.58 108.601 190.525 105.879C190.46 102.628 190.454 102.594 189.818 101.977C189.209 101.386 187.6 101.041 186.372 101.237ZM194.963 101.368C194.719 101.478 194.416 101.735 194.238 101.981L193.931 102.404V101.889V101.373H193.23H192.529V105.628V109.883H193.324H194.12L194.15 107.055C194.179 104.395 194.194 104.198 194.4 103.753C194.76 102.975 195.655 102.637 196.333 103.025C196.698 103.234 196.693 103.238 196.991 102.459C197.308 101.626 197.287 101.586 196.392 101.32C195.745 101.127 195.471 101.137 194.963 101.368ZM204.787 101.357C204.563 101.461 204.236 101.721 204.061 101.934L203.743 102.32V101.847V101.373H203.042H202.341V105.628V109.883H203.082H203.823L203.871 107.205C203.94 103.244 204.434 102.324 206.114 103.026C206.313 103.11 206.488 103.166 206.502 103.151C206.537 103.117 207.047 101.762 207.047 101.706C207.047 101.369 205.329 101.104 204.787 101.357ZM210.263 101.281C208.237 101.679 207.296 103.074 207.296 105.68V107.333L207.626 108.003C208.332 109.437 209.319 109.983 211.205 109.983C213.278 109.983 214.55 109.134 214.899 107.518L214.966 107.205L214.185 107.104C213.319 106.992 213.199 107.047 213.084 107.61C213.053 107.765 212.884 108 212.709 108.133C211.042 109.405 208.954 108.333 208.852 106.154C208.85 106.112 210.23 106.079 211.917 106.079H214.986L214.923 104.971C214.771 102.304 212.839 100.774 210.263 101.281ZM219.733 101.276C219.227 101.403 218.836 101.613 218.412 101.986L218.059 102.295V101.834V101.373H217.309H216.558V105.628V109.883H217.353H218.148L218.179 107.055L218.21 104.227L218.483 103.67C219.15 102.312 221.178 102.227 221.724 103.536C221.833 103.796 221.864 104.532 221.864 106.876V109.883H222.665H223.466V106.697C223.466 103.128 223.421 102.809 222.822 102.108C222.221 101.406 220.77 101.015 219.733 101.276ZM232.308 101.323C230.965 101.615 230.13 102.276 229.83 103.284C229.623 103.981 229.612 103.949 230.099 104.024C230.333 104.06 230.665 104.113 230.838 104.142C231.136 104.192 231.165 104.167 231.401 103.65C232.165 101.982 235.014 102.177 235.158 103.908L235.202 104.443L234.415 104.609C233.982 104.701 233.178 104.842 232.627 104.923C229.936 105.318 228.758 106.896 229.745 108.782C230.509 110.243 233.151 110.506 234.911 109.295L235.343 108.998L235.461 109.441L235.579 109.883H236.442C237.224 109.883 237.297 109.867 237.229 109.708C236.861 108.839 236.847 108.716 236.79 105.828C236.733 102.994 236.726 102.913 236.485 102.441C235.959 101.412 234.14 100.925 232.308 101.323ZM212.203 102.824C212.728 103.126 212.916 103.344 213.101 103.869C213.405 104.729 213.534 104.677 211.097 104.677H208.939L209.006 104.302C209.261 102.868 210.934 102.095 212.203 102.824ZM188.826 107.068C188.363 108.904 185.191 109.432 184.867 107.727C184.717 106.936 185.353 106.448 186.83 106.22C187.404 106.131 188.099 106.006 188.374 105.942L188.875 105.825L188.907 106.223C188.924 106.441 188.888 106.822 188.826 107.068ZM235.079 107.118C234.625 108.645 232.404 109.326 231.392 108.249C230.572 107.377 231.343 106.485 233.155 106.208C233.691 106.126 234.354 106.006 234.629 105.942L235.13 105.825L235.162 106.277C235.18 106.526 235.143 106.905 235.079 107.118Z" fill="#0A0A0A"/>
<path fill-rule="evenodd" clip-rule="evenodd" d="M146.271 53.9203C146.144 54.0008 146.306 54.0639 146.499 54.0099C146.513 54.0056 146.648 54.0495 146.799 54.1072C146.974 54.1732 147.074 54.1763 147.074 54.1144C147.074 54.0249 147.016 54.0063 146.649 53.9768C146.58 53.9708 146.5 53.9354 146.471 53.8969C146.443 53.8585 146.352 53.8687 146.271 53.9203ZM147.425 54.2411C147.729 54.4207 147.968 54.4358 147.731 54.2604C147.625 54.1817 147.467 54.118 147.381 54.1198C147.263 54.1222 147.274 54.1522 147.425 54.2411ZM101.645 54.3919C102.899 54.4081 104.948 54.4081 106.201 54.3919C107.454 54.3763 106.429 54.3631 103.923 54.3631C101.418 54.3631 100.393 54.3763 101.645 54.3919ZM201.339 54.4796C201.339 54.604 201.371 54.616 201.473 54.5301C201.568 54.452 203.367 54.4111 207.556 54.3919L213.504 54.3655L207.422 54.3414C201.868 54.3192 201.339 54.3312 201.339 54.4796ZM230.348 54.3919C231.96 54.4075 234.595 54.4075 236.205 54.3919C237.817 54.3763 236.499 54.3637 233.277 54.3637C230.056 54.3637 228.738 54.3763 230.348 54.3919ZM108.552 57.0074C108.531 59.2559 108.546 59.5334 108.679 59.4229C108.847 59.2835 108.883 59.1778 108.731 59.2715C108.668 59.3106 108.622 58.4593 108.604 56.8999L108.575 54.467L108.552 57.0074ZM213.894 54.9758C213.927 55.0629 213.954 55.156 213.954 55.1818C213.954 55.2083 213.997 55.2035 214.05 55.1704C214.166 55.0989 214.073 54.8178 213.933 54.8178C213.877 54.8178 213.86 54.8887 213.894 54.9758ZM202.824 56.5827C203.045 56.9864 203.268 57.2057 203.097 56.8512C203.012 56.6758 202.893 56.5016 202.832 56.4638C202.752 56.4145 202.75 56.4488 202.824 56.5827ZM216.257 58.5428C216.257 58.6281 216.336 58.7597 216.432 58.8354C216.594 58.9621 216.596 58.9579 216.457 58.7819C216.375 58.6774 216.322 58.5723 216.34 58.5483C216.358 58.5248 216.348 58.4792 216.315 58.4467C216.283 58.4149 216.257 58.4581 216.257 58.5428ZM130.715 59.0126C130.801 59.1832 130.885 59.3232 130.903 59.3232C130.985 59.3232 130.82 58.9177 130.697 58.8156C130.594 58.7297 130.598 58.7777 130.715 59.0126ZM235.353 59.6235C235.209 59.8434 235.122 60.0236 235.161 60.0236C235.24 60.0236 235.492 59.6656 235.602 59.3983C235.716 59.1189 235.635 59.1922 235.353 59.6235ZM153.754 59.8236C153.783 59.9335 153.846 60.0236 153.894 60.0236C153.999 60.0236 154.002 59.9918 153.922 59.7815C153.834 59.552 153.692 59.5869 153.754 59.8236ZM194.965 60.8382C194.984 60.9625 195.054 61.0749 195.118 61.0875C195.184 61.1001 195.193 61.0881 195.14 61.061C195.087 61.034 195.066 60.9517 195.094 60.8784C195.123 60.8051 195.097 60.715 195.038 60.6784C194.971 60.6369 194.944 60.697 194.965 60.8382ZM217.559 60.7192C217.559 60.7709 217.648 60.876 217.758 60.9529C217.868 61.0304 217.924 61.1301 217.883 61.1752C217.842 61.2202 217.864 61.225 217.933 61.186C218.028 61.1313 218.02 61.0586 217.896 60.8694C217.735 60.6225 217.559 60.5444 217.559 60.7192ZM138.865 61.2148C138.589 61.2647 138.553 61.2935 138.697 61.3512C138.86 61.4173 139.265 61.2893 139.265 61.1716C139.265 61.1463 139.254 61.1313 139.241 61.1385C139.227 61.1457 139.057 61.18 138.865 61.2148ZM143.07 62.4175C143.07 62.5454 143.366 62.7647 143.44 62.6914C143.475 62.6559 143.449 62.6271 143.381 62.6271C143.313 62.6271 143.283 62.5869 143.314 62.537C143.344 62.4877 143.302 62.4217 143.22 62.3904C143.137 62.3586 143.07 62.3712 143.07 62.4175ZM221.63 62.5935C221.534 62.689 221.547 62.8271 221.653 62.8271C221.702 62.8271 221.768 62.7593 221.8 62.677C221.858 62.5244 221.752 62.4721 221.63 62.5935ZM163.697 63.0698C163.548 63.4615 163.578 63.5228 163.756 63.1936C163.841 63.0374 163.885 62.8848 163.855 62.8542C163.825 62.8241 163.754 62.9214 163.697 63.0698ZM184.87 63.0278C184.97 63.1383 185.073 63.208 185.098 63.1828C185.152 63.1287 184.867 62.8271 184.761 62.8271C184.721 62.8271 184.77 62.9172 184.87 63.0278ZM208.452 64.538C208.514 64.6527 208.584 64.7266 208.608 64.702C208.678 64.6323 208.537 64.3289 208.433 64.3289C208.382 64.3289 208.391 64.4226 208.452 64.538ZM231.797 64.5848C231.675 64.6707 231.579 64.7945 231.583 64.86C231.589 64.9459 231.605 64.9441 231.642 64.8539C231.669 64.7849 231.745 64.7584 231.809 64.7951C231.873 64.8317 231.892 64.8251 231.852 64.7807C231.812 64.7356 231.857 64.6401 231.952 64.5674C232.197 64.3818 232.067 64.3962 231.797 64.5848ZM230.717 66.1076C230.612 66.1791 230.445 66.5317 230.515 66.5317C230.535 66.5317 230.625 66.4188 230.715 66.2812C230.889 66.0157 230.889 65.9899 230.717 66.1076ZM122.011 66.5984C121.921 66.6885 121.927 67.0093 122.02 67.067C122.061 67.0922 122.095 66.9823 122.095 66.8225C122.095 66.6627 122.091 66.5317 122.087 66.5317C122.082 66.5317 122.048 66.5618 122.011 66.5984ZM229.79 67.4424C229.605 67.7392 229.687 67.7614 229.903 67.4731C230.002 67.3403 230.046 67.2322 230.002 67.2322C229.957 67.2322 229.862 67.3271 229.79 67.4424ZM155.033 80.0977C155.033 86.7608 155.045 89.5013 155.059 86.1877C155.074 82.8742 155.074 77.4227 155.059 74.0731C155.045 70.7235 155.033 73.4346 155.033 80.0977ZM178.212 69.5263C178.212 69.6278 178.468 69.6128 178.576 69.5047C178.614 69.4662 178.548 69.435 178.429 69.435C178.309 69.435 178.212 69.4758 178.212 69.5263ZM144.92 81.349C144.92 87.3237 144.932 89.768 144.947 86.7806C144.962 83.7933 144.962 78.9053 144.947 75.9179C144.932 72.9306 144.92 75.3743 144.92 81.349ZM213.826 73.4976C213.691 73.6772 213.683 73.7223 213.793 73.6802C213.873 73.6496 213.966 73.5541 213.999 73.4676C214.093 73.2237 214.022 73.2363 213.826 73.4976ZM109.354 82.9258L109.33 92.1618H104.268C100.919 92.1618 99.227 92.1961 99.2678 92.2621C99.3075 92.327 101.104 92.3625 104.328 92.3625H109.326L109.38 92.1372C109.41 92.0128 109.422 87.812 109.407 82.8009L109.379 73.6899L109.354 82.9258ZM132.157 83.0952V92.1618H127.251C124.047 92.1618 122.345 92.1967 122.345 92.2621C122.345 92.452 132.224 92.3943 132.296 92.2039C132.405 91.9215 132.366 74.1578 132.257 74.0905C132.191 74.0497 132.157 77.0761 132.157 83.0952ZM211.982 76.0657C211.83 76.2615 211.739 76.5631 211.853 76.4928C211.907 76.4591 211.952 76.3702 211.952 76.2958C211.952 76.2207 212.008 76.1396 212.077 76.1149C212.146 76.0903 212.174 76.0405 212.141 76.0038C212.108 75.9678 212.036 75.9954 211.982 76.0657ZM175.108 76.9091C174.97 76.9818 174.925 77.0412 175.008 77.0412C175.181 77.0412 175.476 76.8736 175.405 76.816C175.38 76.7949 175.246 76.8364 175.108 76.9091ZM231.693 80.0346C231.821 80.1926 231.94 80.3091 231.958 80.2947C232.017 80.2436 231.73 79.8514 231.595 79.7997C231.521 79.7709 231.565 79.8772 231.693 80.0346ZM207.363 82.7042C207.294 82.855 207.288 82.9511 207.348 82.9511C207.402 82.9511 207.446 82.8874 207.446 82.8093C207.446 82.7312 207.5 82.6495 207.566 82.6273C207.647 82.6002 207.652 82.566 207.581 82.5222C207.523 82.4861 207.425 82.5678 207.363 82.7042ZM218.525 83.1343C218.33 83.3493 218.314 83.4515 218.476 83.4515C218.54 83.4515 218.563 83.4214 218.526 83.3848C218.489 83.3481 218.534 83.2352 218.625 83.1343C218.716 83.0334 218.769 82.9511 218.741 82.9511C218.713 82.9511 218.617 83.0334 218.525 83.1343ZM235.603 85.6543C235.672 85.7642 235.764 85.8543 235.808 85.8543C235.852 85.8543 235.839 85.7642 235.78 85.6543C235.721 85.5444 235.629 85.4542 235.575 85.4542C235.522 85.4542 235.534 85.5431 235.603 85.6543ZM236.581 87.0335C236.581 87.0816 236.694 87.227 236.831 87.3561C236.969 87.4859 237.082 87.5676 237.082 87.5387C237.082 87.5093 236.969 87.3639 236.831 87.2155C236.694 87.0672 236.581 86.9849 236.581 87.0335ZM184.82 89.7151C184.82 89.8076 184.772 89.8419 184.704 89.7998C184.631 89.7542 184.615 89.7722 184.663 89.8485C184.719 89.9404 184.77 89.9416 184.877 89.8527C184.954 89.789 184.993 89.6965 184.963 89.6478C184.879 89.5133 184.82 89.5409 184.82 89.7151ZM165.597 89.9908C165.597 90.0077 165.739 90.1272 165.913 90.2558L166.229 90.4894L166.038 90.2275C165.883 90.0143 165.597 89.8611 165.597 89.9908ZM167.198 91.1526C167.198 91.2541 167.588 91.507 167.648 91.4446C167.665 91.4259 167.571 91.3304 167.439 91.2313C167.307 91.1322 167.198 91.0968 167.198 91.1526ZM240.019 91.9119L240.165 92.2123L234.118 92.1852C230.075 92.1678 228.071 92.1925 228.071 92.2603C228.071 92.3282 230.112 92.3625 234.178 92.3625C240.729 92.3625 240.501 92.3817 240.077 91.8615L239.873 91.6116L240.019 91.9119ZM168.708 91.9305C168.696 92.1168 168.905 92.1985 169.035 92.0585C169.125 91.96 169.114 91.9456 168.982 91.9912C168.889 92.0243 168.791 91.9966 168.765 91.9311C168.727 91.8392 168.715 91.8386 168.708 91.9305ZM187.997 92.2369C188.058 92.3961 197.735 92.4225 197.735 92.2639C197.735 92.2015 195.957 92.1558 192.842 92.139C188.96 92.1174 187.958 92.1378 187.997 92.2369ZM200.772 92.2339C200.772 92.3288 202.102 92.3571 206.684 92.3607C210.59 92.3637 212.562 92.3318 212.496 92.2657C212.339 92.109 200.772 92.0777 200.772 92.2339ZM145.072 92.2621C145.072 92.3276 146.774 92.3625 149.978 92.3625C153.182 92.3625 154.884 92.3276 154.884 92.2621C154.884 92.1967 153.182 92.1618 149.978 92.1618C146.774 92.1618 145.072 92.1967 145.072 92.2621ZM179.714 92.3625C179.591 92.4412 179.604 92.4598 179.783 92.461C179.903 92.4616 180.03 92.4171 180.064 92.3625C180.143 92.2345 179.911 92.2345 179.714 92.3625ZM172.481 93.0341C172.605 93.0575 172.786 93.0569 172.882 93.0317C172.977 93.0064 172.875 92.9872 172.655 92.9884C172.435 92.9896 172.357 93.01 172.481 93.0341Z" fill="#0A0A0A"/>
<path fill-rule="evenodd" clip-rule="evenodd" d="M118.623 53.6332C118.443 53.6699 118.261 53.6789 118.218 53.6524C118.175 53.626 118.14 53.644 118.14 53.6921C118.14 53.7407 117.937 53.7684 117.69 53.754C117.437 53.7389 117.239 53.7714 117.239 53.8278C117.239 53.8831 117.194 53.9005 117.139 53.8663C117.084 53.8326 117.039 53.8615 117.039 53.9306C117.039 54.0267 117.011 54.0291 116.922 53.9402C116.833 53.8513 116.772 53.8645 116.665 53.9948C116.587 54.0898 116.555 54.106 116.594 54.0309C116.647 53.9264 116.609 53.9119 116.426 53.969C116.295 54.0099 116.174 54.0795 116.156 54.1246C116.139 54.169 116.058 54.1799 115.977 54.1486C115.895 54.1174 115.759 54.1763 115.675 54.2796C115.591 54.3829 115.557 54.3997 115.599 54.3168C115.665 54.1877 115.652 54.1859 115.506 54.3042C115.413 54.3799 115.336 54.4021 115.334 54.3541C115.332 54.306 115.276 54.3348 115.208 54.4171C115.142 54.4994 114.996 54.5811 114.886 54.598C114.574 54.646 113.994 54.932 113.905 55.0821C113.861 55.1572 113.737 55.2179 113.63 55.2179C113.523 55.2179 113.434 55.266 113.434 55.3242C113.434 55.3825 113.392 55.4041 113.341 55.3723C113.29 55.341 113.177 55.4167 113.089 55.5417C113.002 55.6666 112.909 55.7573 112.882 55.7435C112.735 55.6672 112.511 55.7429 112.36 55.9189C112.266 56.0289 112.129 56.119 112.055 56.119C111.981 56.119 111.949 56.164 111.983 56.2193C112.017 56.2746 111.973 56.3196 111.886 56.3196C111.798 56.3196 111.7 56.3869 111.669 56.4698C111.637 56.5521 111.56 56.6212 111.497 56.623C111.366 56.6272 110.932 56.969 110.932 57.0687C110.932 57.1834 110.658 57.4141 110.596 57.3516C110.563 57.3186 110.508 57.366 110.473 57.4562C110.438 57.5469 110.344 57.6208 110.265 57.6208C110.185 57.6208 110.147 57.6658 110.181 57.7211C110.215 57.7763 110.176 57.8214 110.096 57.8214C109.922 57.8214 109.43 58.3771 109.43 58.5729C109.43 58.648 109.339 58.7375 109.229 58.7729C109.118 58.8078 108.96 58.9658 108.879 59.1237C108.545 59.7689 108.519 59.5941 108.549 56.954L108.579 54.3673H103.897C100.04 54.3673 99.2246 54.3907 99.2667 54.5006C99.2949 54.5739 99.3177 63.0776 99.3177 73.3979V92.1618H104.316C107.539 92.1618 109.325 92.1973 109.347 92.2615C109.365 92.3162 109.381 87.5519 109.384 81.674C109.386 75.796 109.42 70.7163 109.46 70.3859C109.499 70.0555 109.555 69.4698 109.584 69.0848C109.613 68.6991 109.657 68.3159 109.68 68.2336C109.704 68.1507 109.747 67.9482 109.776 67.783C109.833 67.4587 109.851 67.377 110.064 66.5065C110.141 66.1899 110.179 65.931 110.149 65.931C110.118 65.931 110.18 65.8601 110.287 65.773C110.394 65.6865 110.427 65.6427 110.36 65.6763C110.198 65.758 110.418 65.3297 110.664 65.0828C110.762 64.9855 110.868 64.7759 110.899 64.6173C110.931 64.4587 110.993 64.3289 111.036 64.3289C111.08 64.3289 111.219 64.1601 111.345 63.9535C111.602 63.533 111.782 63.3275 111.893 63.3275C112.061 63.3275 112.316 62.9971 112.267 62.8428C112.23 62.7268 112.241 62.7142 112.304 62.8007C112.419 62.9593 112.872 62.6698 112.769 62.5028C112.725 62.4319 112.761 62.4157 112.867 62.4565C112.959 62.4919 113.034 62.4769 113.034 62.4235C113.034 62.37 113.102 62.3267 113.185 62.3267C113.267 62.3267 113.323 62.2721 113.31 62.206C113.296 62.1399 113.355 62.0835 113.442 62.0811C113.528 62.0787 113.821 61.9783 114.092 61.8588C114.977 61.4689 115.032 61.4557 116.006 61.398C116.347 61.3776 116.704 61.2965 116.802 61.2178C116.899 61.1379 116.946 61.1283 116.905 61.1956C116.852 61.2839 116.952 61.3073 117.285 61.2821C117.534 61.2635 117.713 61.2881 117.683 61.3368C117.653 61.3854 117.721 61.4257 117.834 61.4257C117.948 61.4257 118.04 61.3806 118.04 61.3254C118.04 61.2701 118.088 61.225 118.147 61.225C118.205 61.225 118.222 61.2743 118.185 61.3344C118.141 61.4047 118.218 61.4329 118.404 61.4137C118.562 61.3974 118.843 61.4605 119.028 61.5536C119.214 61.6467 119.401 61.7008 119.443 61.675C119.486 61.6485 119.547 61.6942 119.579 61.7765C119.61 61.8588 119.705 61.9261 119.789 61.9261C119.874 61.9261 119.943 61.9711 119.943 62.0264C119.943 62.0811 120.044 62.1267 120.168 62.1279C120.336 62.1291 120.358 62.1519 120.254 62.2168C120.146 62.2859 120.162 62.3189 120.33 62.3724C120.447 62.4096 120.543 62.5076 120.543 62.5893C120.543 62.6716 120.583 62.7142 120.632 62.6842C120.726 62.6259 120.938 62.8277 120.91 62.9491C120.901 62.9887 120.972 63.1131 121.069 63.2254C121.165 63.3383 121.244 63.4747 121.244 63.5294C121.244 63.5834 121.288 63.6279 121.341 63.6279C121.395 63.6279 121.413 63.6922 121.383 63.7703C121.353 63.849 121.386 64.0178 121.456 64.1457C121.527 64.2743 121.595 64.4419 121.608 64.5194C121.62 64.5962 121.691 64.6972 121.763 64.7428C121.858 64.8035 121.861 64.8269 121.773 64.8281C121.703 64.8287 121.677 64.8972 121.712 64.9879C121.76 65.1147 121.789 65.1201 121.854 65.0143C121.911 64.923 121.931 64.9495 121.92 65.099C121.911 65.2186 121.863 65.2913 121.813 65.2606C121.762 65.2288 121.755 65.3075 121.797 65.4427C121.838 65.5736 121.912 65.6962 121.962 65.7154C122.012 65.7346 122.001 65.8133 121.937 65.8908C121.848 65.9977 121.848 66.0308 121.938 66.0308C122.004 66.0308 122.026 66.0812 121.988 66.1425C121.95 66.2038 121.981 66.2927 122.057 66.3407C122.157 66.4044 122.16 66.429 122.07 66.4296C122.001 66.4308 121.945 66.4789 121.945 66.5378C121.945 66.596 121.978 66.6225 122.02 66.5972C122.061 66.5714 122.095 66.6771 122.095 66.8321C122.095 66.9865 122.061 67.0922 122.02 67.067C121.899 66.9919 121.933 67.1811 122.065 67.3127C122.131 67.3788 122.148 67.4328 122.103 67.4328C122.058 67.4328 122.082 67.5091 122.158 67.6022C122.251 67.717 122.255 67.7476 122.17 67.6959C122.004 67.5968 122 68.0486 122.165 68.2137C122.258 68.3069 122.258 68.3339 122.165 68.3339C122.005 68.3339 122.01 68.9034 122.17 68.9682C122.27 69.0085 122.27 69.0205 122.17 69.0265C122.039 69.0349 121.99 69.435 122.12 69.435C122.161 69.435 122.183 74.5933 122.168 80.8984C122.151 88.605 122.175 92.3625 122.243 92.3625C122.3 92.3625 122.345 92.3174 122.345 92.2621C122.345 92.1967 124.047 92.1618 127.251 92.1618H132.157V83.0952C132.157 77.0761 132.191 74.0497 132.257 74.0905C132.399 74.1782 132.382 74.0064 132.232 73.8454C132.146 73.7523 132.144 73.7313 132.226 73.7776C132.302 73.8208 132.34 73.7722 132.33 73.6424C132.322 73.5307 132.268 73.4394 132.211 73.4382C132.151 73.4376 132.157 73.4045 132.225 73.3619C132.363 73.2736 132.352 72.9215 132.207 72.8158C132.145 72.7702 132.155 72.7413 132.233 72.7407C132.325 72.7395 132.356 72.5263 132.347 71.9628C132.34 71.5363 132.345 71.1645 132.357 71.1368C132.37 71.1098 132.391 70.9518 132.404 70.7866C132.418 70.6214 132.463 70.2892 132.504 70.0483C132.562 69.7065 132.552 69.6272 132.453 69.6879C132.362 69.7438 132.351 69.7263 132.414 69.6254C132.462 69.5485 132.517 69.4176 132.535 69.3347C132.617 68.9676 132.683 68.4552 132.693 68.117C132.699 67.9152 132.746 67.7758 132.797 67.8071C132.851 67.8407 132.862 67.7278 132.823 67.5337C132.784 67.3361 132.803 67.1481 132.872 67.0652C132.935 66.9895 132.96 66.9 132.926 66.8669C132.893 66.8339 132.955 66.6345 133.062 66.423C133.17 66.2116 133.258 65.9635 133.258 65.871C133.258 65.7785 133.393 65.4835 133.558 65.215C133.723 64.9471 133.853 64.6942 133.847 64.6533C133.817 64.4629 133.867 64.3223 133.948 64.3722C134.078 64.4521 134.289 64.1577 134.202 64.0178C134.157 63.9445 134.171 63.9234 134.237 63.9643C134.345 64.0316 134.76 63.5378 134.76 63.3402C134.76 63.2807 134.906 63.1575 135.085 63.0656C135.264 62.9737 135.504 62.8037 135.616 62.6878C135.729 62.5718 135.887 62.4619 135.967 62.4439C136.047 62.4265 136.126 62.37 136.145 62.3189C136.163 62.2679 136.245 62.2264 136.326 62.2264C136.408 62.2264 136.449 62.1862 136.418 62.1369C136.388 62.0877 136.433 62.0204 136.518 61.9879C136.613 61.9513 136.647 61.9699 136.606 62.0354C136.57 62.0943 136.725 62.0264 136.949 61.884C137.175 61.7423 137.422 61.6257 137.5 61.6257C137.577 61.6257 137.766 61.5608 137.919 61.4815C138.077 61.3992 138.331 61.3596 138.506 61.3896C138.72 61.4263 138.773 61.4131 138.678 61.3458C138.579 61.2749 138.636 61.2389 138.897 61.2082C139.092 61.1854 139.232 61.198 139.209 61.2359C139.185 61.2743 139.335 61.3055 139.541 61.3055C139.748 61.3055 139.949 61.2539 139.99 61.1902C140.043 61.1079 140.064 61.1121 140.065 61.2064C140.066 61.2779 140.112 61.3091 140.166 61.2755C140.222 61.2413 140.267 61.2545 140.267 61.3043C140.267 61.3548 140.435 61.3944 140.642 61.3932C141.386 61.389 142.569 61.7897 142.569 62.0456C142.569 62.1081 142.599 62.1303 142.635 62.0943C142.671 62.0588 142.757 62.1075 142.827 62.203C142.897 62.2985 143.002 62.382 143.062 62.3892C143.121 62.3958 143.218 62.4072 143.276 62.4145C143.334 62.4211 143.354 62.4715 143.32 62.5268C143.286 62.5821 143.309 62.6271 143.37 62.6271C143.432 62.6271 143.454 62.6722 143.42 62.728C143.386 62.7833 143.428 62.8554 143.513 62.8884C143.599 62.9215 143.646 62.9857 143.619 63.0308C143.59 63.0764 143.656 63.1762 143.765 63.2518C143.934 63.3708 144.158 63.7715 144.142 63.9283C144.139 63.9559 144.201 64.091 144.278 64.2286C144.404 64.4539 144.443 64.5974 144.49 65.0047C144.499 65.0738 144.533 65.1297 144.568 65.1297C144.635 65.1297 144.661 65.4198 144.681 66.4062C144.688 66.7504 144.723 67.0321 144.758 67.0321C144.794 67.0321 144.807 67.2796 144.788 67.5824C144.766 67.935 144.793 68.1333 144.863 68.1333C144.923 68.1333 144.972 68.1813 144.972 68.2396C144.972 68.2978 144.937 68.3237 144.893 68.2966C144.85 68.2702 144.815 68.3315 144.815 68.4336C144.815 68.5357 144.846 68.6 144.884 68.5766C144.922 68.5532 144.929 68.7141 144.899 68.9346C144.863 69.2073 144.884 69.3347 144.965 69.3347C145.03 69.3347 145.055 69.3809 145.021 69.4368C144.949 69.5545 144.952 92.2748 145.024 92.3474C145.051 92.3739 145.072 92.3432 145.072 92.279C145.072 92.1913 146.307 92.1618 149.978 92.1618C153.182 92.1618 154.884 92.1967 154.884 92.2621C154.884 92.3174 154.918 92.3625 154.959 92.3625C155 92.3625 155.034 86.3745 155.034 79.056C155.034 71.7375 155.01 65.7646 154.98 65.7827C154.951 65.8007 154.934 65.6499 154.943 65.4481C154.95 65.2456 154.907 65.0149 154.845 64.9356C154.759 64.8233 154.764 64.8089 154.866 64.8702C154.967 64.9314 154.987 64.8732 154.95 64.6143C154.924 64.4298 154.895 64.2791 154.886 64.2791C154.877 64.2791 154.859 64.076 154.845 63.8285C154.801 63.0488 154.664 62.2258 154.568 62.1664C154.517 62.1351 154.503 62.0234 154.536 61.9177C154.571 61.8059 154.55 61.726 154.484 61.726C154.422 61.726 154.4 61.681 154.433 61.6257C154.467 61.5704 154.452 61.5254 154.398 61.5254C154.345 61.5254 154.314 61.4467 154.329 61.3506C154.345 61.2539 154.315 61.1217 154.263 61.0562C154.211 60.9902 154.179 60.855 154.192 60.7559C154.23 60.4561 154.071 60.0236 153.922 60.0236C153.845 60.0236 153.779 59.9677 153.774 59.8987C153.745 59.4547 153.699 59.2949 153.58 59.2217C153.507 59.176 153.435 59.0637 153.422 58.9718C153.408 58.8799 153.326 58.7267 153.24 58.6306C153.153 58.5344 153.082 58.4059 153.082 58.3446C153.082 58.2833 153.03 58.201 152.966 58.162C152.89 58.1151 152.876 58.1386 152.924 58.2311C152.964 58.3086 152.927 58.2863 152.842 58.1818C152.757 58.0773 152.706 57.962 152.729 57.9247C152.752 57.8881 152.683 57.7944 152.576 57.7175C152.469 57.64 152.381 57.527 152.381 57.467C152.381 57.3234 151.916 56.9185 151.839 56.9948C151.807 57.0272 151.78 57.005 151.78 56.9449C151.78 56.7653 151.059 56.0192 150.885 56.0192C150.796 56.0192 150.646 55.9291 150.552 55.8186C150.458 55.7087 150.305 55.6186 150.213 55.6186C150.121 55.6186 150.074 55.5891 150.11 55.5531C150.208 55.4558 149.859 55.2251 149.609 55.2215C149.488 55.2197 149.357 55.1662 149.318 55.1026C149.271 55.0263 149.295 55.0118 149.387 55.0599C149.464 55.1002 149.438 55.0599 149.327 54.9704C149.217 54.8809 149.048 54.8286 148.952 54.8533C148.842 54.8821 148.777 54.8424 148.777 54.7475C148.777 54.6568 148.719 54.6184 148.633 54.6508C148.554 54.6815 148.474 54.6616 148.456 54.6076C148.438 54.5529 148.324 54.5006 148.202 54.4916C148.081 54.4826 147.957 54.4117 147.927 54.3348C147.887 54.2309 147.839 54.2225 147.741 54.3042C147.642 54.3865 147.551 54.3589 147.374 54.1943C147.226 54.0567 147.124 54.0183 147.1 54.091C147.072 54.1745 146.987 54.1787 146.793 54.1048C146.645 54.0483 146.513 54.0057 146.499 54.0099C146.3 54.0657 146.143 54.0008 146.274 53.9167C146.407 53.8302 146.407 53.8176 146.274 53.8032C145.923 53.766 144.89 53.6963 144.505 53.6837C144.276 53.6759 144.108 53.6374 144.132 53.5984C144.224 53.4494 140.653 53.5966 140.502 53.7479C140.463 53.787 140.275 53.7894 140.084 53.754C139.837 53.7071 139.757 53.7215 139.808 53.8026C139.849 53.8699 139.812 53.9167 139.716 53.9167C139.613 53.9167 139.581 53.8711 139.629 53.7912C139.689 53.6915 139.673 53.6915 139.551 53.7906C139.466 53.8591 139.369 53.8867 139.334 53.8519C139.3 53.8176 139.152 53.8675 139.006 53.9636C138.831 54.0783 138.767 54.0916 138.819 54.002C138.862 53.9276 138.767 53.9792 138.609 54.1168C138.45 54.2543 138.382 54.2874 138.457 54.1895C138.574 54.0363 138.571 54.0201 138.436 54.0723C138.35 54.1054 138.251 54.2063 138.216 54.297C138.164 54.434 138.139 54.4382 138.066 54.321C137.995 54.2057 137.903 54.2309 137.56 54.458C137.329 54.6106 137.177 54.6754 137.221 54.6016C137.326 54.4274 136.948 54.7115 136.831 54.8947C136.787 54.965 136.707 54.9956 136.655 54.9632C136.527 54.8839 136.146 55.0118 136.209 55.114C136.252 55.1825 136.011 55.3056 135.736 55.3549C135.695 55.3621 135.506 55.4924 135.316 55.6438C135.126 55.7952 134.91 55.9189 134.835 55.9189C134.76 55.9189 134.539 56.0655 134.344 56.2445C134.148 56.4235 133.948 56.5749 133.899 56.5809C133.849 56.5869 133.753 56.6999 133.685 56.8314C133.617 56.963 133.56 57.0254 133.557 56.9702C133.555 56.9149 133.507 56.9492 133.45 57.0453C133.394 57.1414 133.28 57.2207 133.197 57.2207C133.114 57.2207 133.066 57.2543 133.09 57.2958C133.114 57.3366 133.023 57.461 132.887 57.5709C132.332 58.0208 131.908 58.4527 131.934 58.5422C131.949 58.5945 131.921 58.6119 131.872 58.5819C131.824 58.5513 131.703 58.6155 131.604 58.7249C131.506 58.8336 131.464 58.9225 131.513 58.9225C131.561 58.9225 131.5 58.9934 131.377 59.0793C131.253 59.1658 131.176 59.2745 131.205 59.3208C131.233 59.3676 131.18 59.3941 131.085 59.3802C130.99 59.3664 130.831 59.2096 130.732 59.0312C130.632 58.8534 130.604 58.7405 130.667 58.7795C130.73 58.8186 130.678 58.7092 130.55 58.5362C130.422 58.3632 130.273 58.2215 130.219 58.2215C130.166 58.2215 130.151 58.192 130.187 58.156C130.277 58.0659 130.054 57.81 129.944 57.8773C129.896 57.9073 129.886 57.8544 129.922 57.7601C129.967 57.6436 129.951 57.6111 129.871 57.6604C129.805 57.7018 129.754 57.676 129.753 57.6021C129.752 57.53 129.529 57.2723 129.256 57.0303C128.983 56.7882 128.783 56.5521 128.812 56.5058C128.84 56.4596 128.786 56.4518 128.691 56.4878C128.587 56.5281 128.544 56.5136 128.583 56.4518C128.674 56.304 128.096 55.7802 127.945 55.8733C127.859 55.9261 127.846 55.9087 127.903 55.8174C127.962 55.7213 127.939 55.7021 127.819 55.7483C127.707 55.7916 127.599 55.7309 127.49 55.5651C127.401 55.4293 127.268 55.3182 127.194 55.3182C127.121 55.3182 126.94 55.2059 126.791 55.0677C126.537 54.8328 126.411 54.7752 126.219 54.8076C126.175 54.8148 126.071 54.7523 125.986 54.6682C125.902 54.5841 125.792 54.5409 125.741 54.5721C125.691 54.6034 125.649 54.5787 125.649 54.5175C125.649 54.4556 125.604 54.4334 125.549 54.467C125.494 54.5012 125.449 54.4862 125.449 54.434C125.449 54.3811 125.379 54.3114 125.294 54.279C125.189 54.2387 125.162 54.2592 125.211 54.3433C125.251 54.4111 125.188 54.3841 125.072 54.282C124.956 54.1805 124.813 54.127 124.754 54.163C124.696 54.1991 124.648 54.1781 124.648 54.1168C124.648 54.0555 124.607 54.0303 124.557 54.0615C124.506 54.0928 124.45 54.0723 124.431 54.0171C124.413 53.9612 124.207 53.9047 123.973 53.8909C123.739 53.8777 123.548 53.8326 123.548 53.7912C123.547 53.7503 123.4 53.7221 123.221 53.7287C123.042 53.7353 122.67 53.7095 122.395 53.6717C121.717 53.5773 119.03 53.5497 118.623 53.6332ZM177.687 53.5731C177.641 53.6194 176.022 53.7407 175.584 53.7305C175.432 53.7269 175.308 53.7732 175.308 53.8326C175.308 53.9065 175.268 53.9089 175.183 53.8405C175.026 53.7143 174.387 53.8026 174.471 53.9384C174.509 53.9996 174.451 54.0123 174.324 53.972C174.077 53.8933 173.388 54.0057 173.454 54.1138C173.479 54.1552 173.389 54.1763 173.252 54.1612C173.115 54.1462 172.936 54.2009 172.854 54.2826C172.764 54.3721 172.705 54.3865 172.705 54.318C172.705 54.2562 172.66 54.2333 172.604 54.2682C172.547 54.3024 172.527 54.3727 172.559 54.4244C172.591 54.4754 172.569 54.5175 172.511 54.5175C172.452 54.5175 172.405 54.473 172.405 54.4195C172.405 54.3595 172.307 54.3661 172.154 54.4352C172.017 54.4982 171.904 54.5986 171.903 54.6586C171.902 54.7265 171.872 54.7217 171.824 54.646C171.764 54.5517 171.685 54.5559 171.473 54.6664C171.322 54.7445 171.188 54.8064 171.176 54.8034C171.127 54.7938 170.549 55.0677 170.502 55.123C170.428 55.2119 170.022 55.3771 169.809 55.4059C169.757 55.4125 169.656 55.4744 169.583 55.5435C169.318 55.7934 169.064 55.9664 169.135 55.848C169.192 55.7537 169.157 55.7537 168.978 55.848C168.582 56.0559 168.086 56.4391 168.14 56.4938C168.196 56.5491 167.704 56.9702 167.585 56.9702C167.465 56.9702 166.904 57.5655 166.901 57.6958C166.899 57.7649 166.831 57.8214 166.748 57.8214C166.666 57.8214 166.598 57.8833 166.598 57.9596C166.598 58.0358 166.508 58.1217 166.397 58.1506C166.255 58.1878 166.216 58.2539 166.264 58.3789C166.31 58.499 166.294 58.532 166.214 58.4828C166.139 58.4359 166.097 58.4846 166.097 58.6161C166.097 58.7297 166.064 58.8114 166.022 58.7976C165.981 58.7837 165.94 58.8126 165.931 58.8612C165.921 58.9099 165.854 58.9874 165.781 59.033C165.707 59.0781 165.647 59.1508 165.647 59.194C165.647 59.2373 165.542 59.3778 165.414 59.5058C165.285 59.6343 165.206 59.8049 165.238 59.8866C165.269 59.9683 165.25 60.0074 165.197 59.9738C165.085 59.9047 164.68 60.5186 164.757 60.6423C164.785 60.6874 164.767 60.7246 164.717 60.7246C164.569 60.7246 164.398 61.1884 164.507 61.2971C164.57 61.3596 164.54 61.4443 164.424 61.535C164.261 61.6636 164.257 61.6606 164.382 61.5008C164.463 61.398 164.476 61.3254 164.414 61.3254C164.276 61.3254 164.162 61.6912 164.254 61.8402C164.294 61.9044 164.244 62.0168 164.141 62.0913C164.04 62.1658 163.993 62.2264 164.037 62.2264C164.082 62.2264 164.043 62.3406 163.952 62.4793C163.861 62.6187 163.812 62.7749 163.845 62.8271C163.876 62.8788 163.831 63.059 163.744 63.2278C163.657 63.396 163.618 63.5846 163.656 63.6465C163.701 63.7192 163.68 63.7312 163.597 63.6796C163.511 63.6267 163.484 63.6465 163.514 63.7384C163.539 63.8147 163.5 63.9367 163.427 64.01C163.265 64.1721 163.514 64.4905 163.709 64.3698C163.786 64.3223 163.798 64.3421 163.745 64.428C163.684 64.526 163.73 64.5458 163.93 64.5073C164.076 64.4797 164.195 64.4953 164.195 64.5428C164.195 64.5902 164.243 64.6293 164.301 64.6293C164.359 64.6293 164.375 64.5728 164.337 64.5043C164.282 64.4076 164.295 64.4058 164.393 64.4965C164.463 64.5608 164.59 64.5872 164.674 64.5542C164.769 64.5182 164.803 64.5368 164.763 64.6017C164.671 64.7506 165.41 64.8299 165.591 64.6906C165.698 64.6083 165.718 64.6089 165.667 64.6942C165.629 64.7572 165.668 64.8353 165.753 64.8678C165.841 64.902 165.881 64.8852 165.846 64.8281C165.813 64.7741 165.833 64.7296 165.891 64.7296C165.95 64.7296 165.997 64.7795 165.997 64.8401C165.997 64.9014 166.063 64.9254 166.144 64.8948C166.225 64.8636 166.318 64.8816 166.35 64.9338C166.383 64.9867 166.455 65.03 166.509 65.03C166.565 65.03 166.576 64.9735 166.535 64.9044C166.478 64.8113 166.5 64.8125 166.62 64.9098C166.883 65.1231 167.899 65.2672 167.901 65.0918C167.902 65.0125 167.924 65.0131 167.976 65.0954C168.017 65.1591 168.253 65.2378 168.5 65.2696C169.023 65.3381 169.333 65.3928 169.751 65.4913C169.917 65.5298 170.173 65.564 170.32 65.567C170.468 65.57 170.567 65.6066 170.541 65.6487C170.516 65.6907 170.665 65.7268 170.874 65.7286C171.55 65.7358 171.604 65.7418 171.604 65.8121C171.604 65.8499 171.728 65.8842 171.879 65.8878C172.031 65.8914 172.262 65.9304 172.395 65.9743C172.598 66.0416 172.625 66.0271 172.568 65.8794C172.526 65.767 172.594 65.5832 172.759 65.367C172.9 65.1813 172.985 65.03 172.948 65.03C172.911 65.03 172.932 64.9681 172.995 64.8924C173.058 64.8167 173.078 64.6737 173.04 64.5746C172.987 64.4365 173.009 64.4088 173.132 64.4557C173.251 64.5019 173.282 64.4677 173.254 64.3205C173.233 64.2118 173.257 64.1481 173.306 64.1788C173.42 64.2496 173.594 63.9204 173.534 63.7498C173.508 63.6796 173.546 63.6345 173.617 63.6501C173.689 63.6657 173.749 63.6291 173.752 63.5696C173.755 63.5102 173.871 63.3522 174.012 63.2194C174.152 63.0861 174.186 63.0404 174.087 63.1179C173.985 63.1972 173.907 63.2134 173.907 63.1545C173.907 63.0969 174.064 62.9755 174.257 62.8842C174.45 62.7923 174.608 62.6535 174.608 62.5754C174.608 62.4835 174.667 62.4559 174.774 62.4968C174.884 62.5394 174.916 62.522 174.87 62.4469C174.827 62.3766 174.898 62.3075 175.054 62.2685C175.194 62.2336 175.308 62.1646 175.308 62.1153C175.308 62.0666 175.376 62.0264 175.458 62.0264C175.541 62.0264 175.608 61.9849 175.608 61.9339C175.608 61.8834 175.755 61.8107 175.934 61.7723C176.113 61.7338 176.305 61.6672 176.359 61.6239C176.511 61.5038 177.197 61.4059 177.794 61.4191C178.087 61.4257 178.304 61.3944 178.277 61.35C178.249 61.3055 178.473 61.2797 178.774 61.2935C179.075 61.3073 179.3 61.2863 179.276 61.2467C179.252 61.2076 179.336 61.1752 179.463 61.1752C179.591 61.1752 179.676 61.204 179.654 61.2401C179.633 61.2755 179.794 61.3218 180.015 61.3428C180.245 61.3644 180.415 61.3374 180.416 61.2779C180.417 61.2214 180.461 61.2425 180.514 61.3254C180.579 61.4257 180.612 61.4341 180.613 61.3506C180.614 61.2815 180.662 61.225 180.72 61.225C180.779 61.225 180.793 61.2815 180.752 61.3506C180.708 61.4233 180.755 61.4131 180.865 61.3254C180.969 61.2425 181.022 61.2274 180.984 61.2917C180.935 61.3728 181.029 61.4071 181.29 61.4029C181.497 61.3998 181.745 61.4311 181.841 61.4725C181.938 61.5134 182.084 61.5212 182.166 61.4894C182.249 61.4575 182.317 61.4809 182.317 61.5404C182.317 61.6017 182.424 61.6287 182.564 61.6017C182.717 61.5723 182.787 61.5933 182.748 61.657C182.709 61.7188 182.749 61.735 182.845 61.6984C182.932 61.6648 183.019 61.6684 183.036 61.7062C183.096 61.8378 184.129 62.3322 184.223 62.2739C184.274 62.242 184.29 62.2859 184.257 62.3712C184.22 62.4691 184.253 62.5268 184.348 62.5268C184.431 62.5268 184.524 62.5941 184.555 62.677C184.587 62.7593 184.663 62.8271 184.724 62.8271C184.842 62.8271 185.12 63.0722 185.12 63.1762C185.12 63.211 185.064 63.211 184.995 63.1762C184.926 63.1413 184.948 63.1774 185.045 63.2561C185.141 63.3353 185.22 63.4273 185.22 63.4609C185.22 63.4945 185.333 63.7679 185.47 64.0682C185.607 64.3692 185.694 64.6809 185.663 64.762C185.633 64.8431 185.656 64.9399 185.715 64.9765C185.775 65.0131 185.795 65.0906 185.759 65.1477C185.724 65.2054 185.757 65.2919 185.833 65.3399C185.933 65.403 185.937 65.4276 185.846 65.4288C185.776 65.4294 185.721 65.552 185.722 65.7058C185.723 65.9202 185.745 65.9479 185.821 65.8307C185.905 65.701 185.918 65.7034 185.919 65.8475C185.92 65.9394 185.864 66.035 185.796 66.0596C185.696 66.0956 185.696 66.1473 185.796 66.3167C185.951 66.5804 185.955 66.6645 185.807 66.5732C185.726 66.5227 185.706 66.6609 185.74 67.0634C185.765 67.3715 185.753 67.6028 185.712 67.5776C185.671 67.5518 185.509 67.5842 185.354 67.6485C185.198 67.7128 185.036 67.7578 184.995 67.7494C184.954 67.7404 184.919 67.8005 184.919 67.8834C184.919 67.9657 184.872 68.0335 184.814 68.0335C184.756 68.0335 184.736 67.9885 184.769 67.9332C184.847 67.8083 184.768 67.8059 184.543 67.926C184.34 68.0341 183.985 68.1531 183.93 68.1315C183.908 68.123 183.857 68.1711 183.816 68.2378C183.775 68.3045 183.624 68.3585 183.481 68.3585C183.338 68.3585 183.17 68.421 183.106 68.4979C183.019 68.603 182.958 68.609 182.854 68.5231C182.753 68.4396 182.717 68.439 182.717 68.5219C182.717 68.5832 182.593 68.6348 182.442 68.6354C182.069 68.6373 181.708 68.7406 181.763 68.8295C181.788 68.8697 181.606 68.91 181.358 68.919C181.112 68.9286 180.832 68.9785 180.737 69.0301C180.504 69.1569 179.821 69.2812 179.513 69.2524C179.309 69.2332 179.29 69.2494 179.413 69.3401C179.532 69.4278 179.505 69.4386 179.288 69.3911C179.129 69.3563 179.013 69.3737 179.013 69.4332C179.013 69.4891 178.965 69.5353 178.906 69.5353C178.847 69.5353 178.835 69.4801 178.878 69.4098C178.924 69.3359 178.855 69.3503 178.709 69.4452C178.573 69.5335 178.361 69.59 178.237 69.5714C178.113 69.5521 178.011 69.5756 178.011 69.623C178.011 69.6711 177.865 69.7095 177.686 69.7095C176.956 69.7089 176.81 69.7378 176.81 69.8831C176.81 69.9967 176.756 70.0099 176.576 69.942C176.448 69.8927 176.281 69.8909 176.206 69.9378C176.13 69.9847 176.031 69.9991 175.984 69.9702C175.938 69.942 175.789 69.9907 175.654 70.0796C175.473 70.1985 175.408 70.2075 175.407 70.1132C175.406 70.0255 175.382 70.0201 175.332 70.0958C175.291 70.1565 175.18 70.2123 175.083 70.2207C174.662 70.2574 174.608 70.2754 174.606 70.3775C174.605 70.4376 174.561 70.4184 174.507 70.3361C174.432 70.2189 174.41 70.2159 174.409 70.3229C174.408 70.41 174.335 70.4406 174.207 70.407C174.097 70.3781 174.007 70.3883 174.007 70.4292C174.007 70.47 173.841 70.5103 173.639 70.5175C173.436 70.5253 173.224 70.5776 173.168 70.634C173.112 70.6905 172.921 70.7367 172.744 70.7367C172.566 70.7367 172.407 70.7812 172.388 70.8359C172.37 70.8911 172.152 70.9638 171.904 70.9981C171.656 71.0323 171.425 71.1062 171.39 71.1615C171.355 71.2173 171.276 71.2317 171.215 71.1939C171.154 71.156 171.103 71.1717 171.103 71.2281C171.103 71.2846 171.036 71.305 170.953 71.2732C170.871 71.242 170.724 71.2504 170.628 71.293C170.422 71.3837 170.443 71.3771 170.027 71.4762C169.848 71.5189 169.702 71.6174 169.702 71.6955C169.702 71.7736 169.654 71.8379 169.595 71.8379C169.537 71.8379 169.516 71.7946 169.549 71.7417C169.583 71.6859 169.476 71.6919 169.295 71.755C169.058 71.8373 169.014 71.8871 169.117 71.9574C169.209 72.0223 169.181 72.0313 169.025 71.9874C168.867 71.943 168.781 71.9736 168.736 72.0896C168.685 72.2217 168.656 72.2283 168.588 72.1214C168.519 72.0133 168.503 72.0133 168.502 72.119C168.501 72.1911 168.455 72.2223 168.4 72.1887C168.346 72.1544 168.19 72.2463 168.055 72.3917C167.92 72.5377 167.767 72.6308 167.716 72.599C167.664 72.5671 167.567 72.6074 167.499 72.6891C167.432 72.7702 167.343 72.8164 167.302 72.7912C167.262 72.7666 167.134 72.8344 167.018 72.9426C166.902 73.0507 166.742 73.1396 166.664 73.1396C166.499 73.1396 166.272 73.3811 166.357 73.4658C166.416 73.5241 166.056 73.7565 165.986 73.7055C165.965 73.6905 165.744 73.8785 165.497 74.1236C165.249 74.3681 165.103 74.5369 165.171 74.4984C165.473 74.3308 165.261 74.5423 164.933 74.7357C164.734 74.8534 164.597 74.9766 164.63 75.009C164.662 75.0415 164.588 75.1478 164.465 75.2445C164.341 75.3412 164.177 75.5833 164.099 75.7815C164.021 75.9804 163.918 76.1432 163.87 76.1432C163.822 76.1432 163.807 76.1834 163.838 76.2327C163.869 76.2819 163.822 76.3498 163.734 76.3835C163.639 76.4195 163.598 76.5084 163.633 76.5997C163.666 76.6856 163.649 76.7277 163.596 76.6946C163.543 76.6622 163.472 76.7499 163.436 76.8899C163.401 77.0298 163.332 77.144 163.283 77.144C163.234 77.144 163.204 77.1782 163.215 77.2191C163.227 77.2605 163.179 77.3981 163.109 77.5248C162.849 77.994 162.694 78.546 162.823 78.5472C162.897 78.5484 162.886 78.5863 162.793 78.6458C162.71 78.6992 162.688 78.7443 162.744 78.7461C162.798 78.7479 162.777 78.7911 162.697 78.8422C162.602 78.9017 162.556 79.0789 162.566 79.3408C162.575 79.5642 162.55 79.7475 162.509 79.7475C162.41 79.7475 162.403 79.8412 162.355 81.8241C162.332 82.7739 162.346 83.5308 162.386 83.5061C162.425 83.4821 162.454 83.6827 162.45 83.9531C162.444 84.3285 162.49 84.4823 162.643 84.6066C162.783 84.7202 162.795 84.7544 162.684 84.7202C162.56 84.6823 162.535 84.7268 162.572 84.922C162.608 85.1088 162.643 85.1383 162.71 85.038C162.768 84.9515 162.777 85.0019 162.736 85.1785C162.694 85.3569 162.712 85.4542 162.787 85.4542C162.85 85.4542 162.889 85.5101 162.873 85.5792C162.833 85.7558 163.109 86.5554 163.21 86.5554C163.256 86.5554 163.294 86.6226 163.294 86.7055C163.294 86.7878 163.338 86.8557 163.391 86.8557C163.445 86.8557 163.462 86.9236 163.43 87.0059C163.399 87.0888 163.422 87.1561 163.484 87.1561C163.544 87.1561 163.594 87.2167 163.594 87.2906C163.594 87.3645 163.684 87.5057 163.792 87.6042C163.901 87.7027 163.966 87.8229 163.937 87.8703C163.907 87.9178 163.934 87.9568 163.995 87.9568C164.056 87.9568 164.079 88.0019 164.045 88.0571C164.011 88.1124 164.052 88.1575 164.136 88.1575C164.238 88.1575 164.268 88.2133 164.225 88.3251C164.175 88.4536 164.201 88.477 164.334 88.4254C164.475 88.3713 164.496 88.3984 164.443 88.5653C164.393 88.7215 164.429 88.7852 164.587 88.8267C164.716 88.8603 164.796 88.9636 164.797 89.0952C164.799 89.2562 164.82 89.2748 164.886 89.1703C164.954 89.0633 164.991 89.0862 165.047 89.2706C165.148 89.6028 165.495 89.9596 165.719 89.9596C165.841 89.9596 165.895 90.0197 165.876 90.1326C165.86 90.2275 165.903 90.3062 165.97 90.3074C166.038 90.3086 166.166 90.4143 166.256 90.5417C166.35 90.6757 166.48 90.7501 166.563 90.7183C166.645 90.6871 166.681 90.7063 166.647 90.7616C166.613 90.8162 166.651 90.8607 166.73 90.8607C166.809 90.8607 166.929 90.9274 166.997 91.0097C167.066 91.0914 167.154 91.1382 167.195 91.113C167.235 91.0883 167.418 91.2127 167.602 91.3899C167.785 91.5665 167.902 91.644 167.86 91.5611C167.815 91.4704 167.841 91.48 167.927 91.5845C168.005 91.6801 168.099 91.7293 168.134 91.6933C168.17 91.6572 168.2 91.6855 168.2 91.7557C168.2 91.8254 168.263 91.8585 168.342 91.8284C168.42 91.7984 168.512 91.8489 168.548 91.9402C168.602 92.0831 168.624 92.0861 168.704 91.9588C168.764 91.8645 168.798 91.8555 168.799 91.9336C168.8 92.0008 168.868 92.0297 168.952 91.9978C169.065 91.954 169.086 91.9864 169.036 92.1258C168.999 92.2285 169.004 92.2802 169.047 92.2411C169.091 92.2021 169.26 92.2393 169.423 92.3234C169.587 92.4081 169.746 92.4514 169.778 92.4195C169.809 92.3883 169.775 92.3625 169.702 92.3625C169.628 92.3625 169.59 92.3396 169.617 92.3126C169.645 92.2856 169.842 92.348 170.055 92.452C170.269 92.5553 170.502 92.6184 170.573 92.5907C170.645 92.5637 170.703 92.5937 170.703 92.658C170.703 92.7229 170.782 92.7673 170.878 92.7577C170.975 92.7475 171.075 92.7487 171.103 92.7595C171.131 92.7704 171.266 92.795 171.403 92.8148C171.542 92.8346 171.789 92.8743 171.954 92.9031C172.119 92.9319 172.493 92.9638 172.784 92.9746C173.075 92.9854 173.331 93.0226 173.353 93.0581C173.454 93.2209 177.352 93.0629 178 92.8695C178.187 92.8142 178.376 92.7908 178.419 92.8172C178.462 92.8442 178.525 92.822 178.559 92.7685C178.592 92.7151 178.685 92.6965 178.766 92.7277C178.846 92.7589 178.912 92.7439 178.912 92.6947C178.912 92.6454 178.992 92.6027 179.088 92.5991C179.359 92.5895 179.546 92.5241 179.693 92.3871C179.848 92.2441 180.154 92.2159 180.07 92.3529C180.039 92.4027 180.103 92.4201 180.213 92.3919C180.322 92.3631 180.39 92.3036 180.363 92.2603C180.336 92.2165 180.411 92.2063 180.53 92.2369C180.691 92.2796 180.725 92.2603 180.665 92.1624C180.609 92.0729 180.623 92.0549 180.705 92.1066C180.774 92.1486 180.91 92.1066 181.015 92.0116C181.118 91.9185 181.249 91.8705 181.306 91.9053C181.362 91.9408 181.5 91.8771 181.612 91.7654C181.724 91.653 181.816 91.5923 181.816 91.6308C181.816 91.6686 181.882 91.6122 181.963 91.5052C182.05 91.3893 182.111 91.3629 182.113 91.4398C182.116 91.5641 182.472 91.4452 182.617 91.271C182.783 91.0715 183.143 90.8288 183.077 90.9604C183.036 91.0433 183.095 91.0061 183.207 90.8781C183.32 90.7495 183.454 90.6709 183.505 90.7021C183.556 90.7333 183.624 90.6889 183.657 90.603C183.69 90.5177 183.758 90.4726 183.807 90.5033C183.857 90.5339 183.925 90.4888 183.957 90.4029C183.99 90.317 184.063 90.275 184.118 90.3092C184.173 90.3435 184.223 90.29 184.227 90.1909C184.232 90.0755 184.254 90.0575 184.287 90.141C184.328 90.2431 184.381 90.2347 184.527 90.1026C184.631 90.0089 184.686 89.8869 184.652 89.8305C184.616 89.7722 184.638 89.759 184.704 89.7998C184.772 89.8419 184.82 89.8082 184.82 89.7181C184.82 89.6232 184.877 89.5872 184.97 89.6226C185.052 89.6544 185.12 89.628 185.12 89.5637C185.12 89.4995 185.163 89.4736 185.217 89.5067C185.27 89.5397 185.416 89.4076 185.542 89.2135C185.668 89.0195 185.816 88.8603 185.872 88.8591C185.927 88.8585 186.029 88.7678 186.098 88.6579C186.167 88.5479 186.293 88.4578 186.378 88.4578C186.463 88.4578 186.51 88.42 186.482 88.3743C186.454 88.3281 186.496 88.2908 186.576 88.2908C186.656 88.2908 186.699 88.3136 186.672 88.3413C186.644 88.3689 186.695 88.4722 186.784 88.5708C186.873 88.6699 186.922 88.814 186.892 88.8921C186.862 88.9702 186.888 89.0844 186.95 89.1462C187.012 89.2081 187.033 89.2586 186.997 89.2586C186.92 89.2586 187.179 90.1651 187.397 90.66C187.59 91.095 187.638 91.2626 187.636 91.4884C187.635 91.5857 187.666 91.6464 187.704 91.6236C187.742 91.6002 187.778 91.7143 187.784 91.8777C187.79 92.0405 187.853 92.2273 187.924 92.2934C188.025 92.3871 188.042 92.3805 188.001 92.2621C187.955 92.13 188.528 92.115 192.842 92.139C195.957 92.1558 197.735 92.2015 197.735 92.2639C197.735 92.318 197.777 92.3625 197.828 92.3625C197.949 92.3625 197.832 91.9612 197.498 91.2319C197.353 90.9141 197.234 90.5856 197.234 90.5015C197.234 90.4168 197.197 90.3711 197.151 90.3993C197.105 90.4282 197.068 90.314 197.068 90.1464C197.068 89.9788 197.011 89.807 196.942 89.7644C196.873 89.7217 196.823 89.6466 196.831 89.598C196.879 89.3096 196.6 88.6765 196.447 88.7245C196.311 88.7678 196.308 88.7594 196.428 88.6747C196.545 88.5912 196.55 88.5233 196.453 88.31C196.387 88.1659 196.333 87.9568 196.333 87.8463C196.333 87.7177 196.291 87.6709 196.216 87.7171C196.138 87.7652 196.12 87.7358 196.161 87.6288C196.195 87.5405 196.176 87.3189 196.12 87.1369C196.064 86.9548 196 86.6256 195.979 86.4052C195.933 85.9234 195.865 85.5864 195.786 85.4609C195.755 85.4098 195.776 85.3389 195.833 85.3041C195.89 85.2686 195.917 85.2092 195.894 85.1719C195.719 84.886 195.619 74.2834 195.741 68.9346C195.768 67.7686 195.666 64.8906 195.565 63.9787C195.54 63.7582 195.521 63.4489 195.523 63.2903C195.525 63.1323 195.478 62.9124 195.419 62.8025C195.36 62.692 195.315 62.3598 195.318 62.0636C195.321 61.7675 195.282 61.5254 195.231 61.5254C195.18 61.5254 195.166 61.4533 195.2 61.3656C195.233 61.2773 195.201 61.168 195.129 61.1235C195.056 61.0785 194.981 60.9451 194.964 60.8268C194.946 60.709 194.972 60.6375 195.022 60.6688C195.072 60.6994 195.065 60.5673 195.005 60.3744C194.947 60.1816 194.856 60.0236 194.804 60.0236C194.752 60.0236 194.737 59.9539 194.769 59.8686C194.808 59.7671 194.789 59.7377 194.713 59.7845C194.635 59.8326 194.619 59.8013 194.661 59.6896C194.703 59.5791 194.674 59.5232 194.572 59.5232C194.488 59.5232 194.444 59.4824 194.476 59.4319C194.555 59.3034 194.428 59.0126 194.321 59.0787C194.273 59.1087 194.26 59.0631 194.292 58.9778C194.325 58.8919 194.3 58.8222 194.235 58.8222C194.171 58.8222 194.143 58.7831 194.173 58.7351C194.203 58.687 194.115 58.5266 193.979 58.3795C193.842 58.2317 193.73 58.0713 193.73 58.022C193.73 57.9734 193.678 57.9007 193.615 57.8616C193.543 57.8178 193.526 57.834 193.57 57.9049C193.615 57.9776 193.587 57.9986 193.493 57.9626C193.412 57.9313 193.32 57.8394 193.289 57.7583C193.252 57.6628 193.276 57.6328 193.356 57.6736C193.483 57.7391 193.123 57.4123 192.71 57.0891C192.583 56.9894 192.546 56.9407 192.629 56.9804C192.711 57.02 192.671 56.9341 192.539 56.7894C192.407 56.6446 192.261 56.5497 192.214 56.5785C192.167 56.6079 192.128 56.5851 192.128 56.5287C192.128 56.4722 192.06 56.4518 191.977 56.4836C191.864 56.5269 191.843 56.4962 191.894 56.3641C191.938 56.2487 191.924 56.2103 191.854 56.2535C191.793 56.2902 191.73 56.286 191.711 56.2433C191.644 56.0871 191.101 55.7231 191.015 55.776C190.967 55.806 190.927 55.7802 190.927 55.7189C190.927 55.657 190.882 55.6348 190.827 55.6684C190.772 55.7027 190.727 55.6877 190.727 55.6354C190.727 55.5831 190.535 55.4636 190.301 55.3699C190.068 55.2768 189.854 55.1704 189.826 55.1338C189.716 54.9902 189.311 54.8142 189.22 54.8707C189.167 54.9037 188.988 54.834 188.823 54.7169C188.658 54.5992 188.366 54.4946 188.174 54.485C187.981 54.4754 187.824 54.4304 187.823 54.3853C187.823 54.3403 187.733 54.3318 187.623 54.3673C187.513 54.4021 187.423 54.3871 187.423 54.3342C187.423 54.2814 187.353 54.2117 187.267 54.1787C187.163 54.1384 187.136 54.1594 187.184 54.2429C187.224 54.3114 187.17 54.294 187.065 54.2051C186.857 54.0303 186.707 53.9996 186.034 53.9954C185.749 53.9936 185.645 53.9624 185.734 53.9059C185.828 53.8465 185.762 53.8128 185.52 53.7984C184.373 53.7287 184.084 53.7125 183.268 53.6711C182.772 53.6458 182.366 53.6194 182.366 53.6116C182.366 53.5743 177.724 53.5365 177.687 53.5731ZM207.533 54.3931C200.858 54.4219 201.053 54.3997 201.673 55.0575C201.86 55.2557 201.991 55.4185 201.962 55.4185C201.934 55.4185 202.032 55.5309 202.181 55.6684C202.329 55.8066 202.424 55.9189 202.392 55.9189C202.337 55.9189 202.422 56.0367 202.711 56.3611C202.778 56.4349 202.8 56.5311 202.761 56.5737C202.722 56.617 202.745 56.6206 202.812 56.5827C202.915 56.5232 203.195 56.9029 203.264 57.1942C203.273 57.2363 203.373 57.3528 203.486 57.4532C203.599 57.5541 203.627 57.6021 203.547 57.5607C203.463 57.5162 203.497 57.6177 203.63 57.8046C203.755 57.98 203.898 58.0983 203.949 58.0677C203.999 58.0364 204.015 58.0761 203.985 58.1554C203.953 58.2395 204.077 58.4431 204.287 58.6462C204.482 58.8366 204.643 59.0661 204.643 59.1556C204.643 59.2451 204.753 59.3899 204.886 59.4776C205.019 59.5647 205.176 59.7707 205.233 59.9347C205.364 60.3126 205.737 60.8412 205.831 60.7829C205.87 60.7589 205.961 60.8712 206.032 61.0328C206.104 61.1944 206.2 61.3031 206.247 61.2743C206.294 61.2455 206.364 61.2749 206.404 61.3392C206.449 61.4125 206.433 61.4299 206.361 61.3848C206.125 61.2389 206.255 61.5164 206.521 61.7248C206.672 61.8438 206.728 61.9117 206.646 61.8762C206.547 61.8336 206.556 61.8606 206.671 61.9549C206.767 62.0336 206.846 62.1465 206.846 62.2054C206.846 62.2649 206.936 62.3418 207.046 62.3766C207.156 62.4114 207.246 62.4847 207.246 62.5394C207.246 62.5941 207.19 62.6103 207.121 62.5754C207.052 62.5406 207.075 62.5766 207.171 62.6553C207.267 62.7346 207.347 62.8728 207.347 62.9635C207.347 63.0536 207.389 63.1275 207.44 63.1275C207.491 63.1275 207.562 63.2176 207.596 63.3275C207.632 63.4381 207.725 63.5282 207.804 63.5282C207.933 63.5282 207.991 63.6495 207.959 63.8532C207.953 63.8946 207.989 63.9283 208.04 63.9283C208.092 63.9283 208.162 64.0184 208.197 64.1289C208.233 64.2388 208.325 64.3289 208.403 64.3289C208.48 64.3289 208.573 64.4527 208.609 64.6041C208.644 64.7554 208.812 65.0258 208.98 65.2048C209.15 65.3838 209.256 65.5304 209.217 65.5304C209.178 65.5304 209.265 65.71 209.409 65.9292C209.56 66.1557 209.722 66.3005 209.787 66.2638C209.849 66.2284 209.867 66.235 209.828 66.2782C209.722 66.3954 209.941 66.7486 210.07 66.6693C210.139 66.6267 210.152 66.6471 210.104 66.724C210.018 66.8639 210.43 67.3565 210.565 67.2736C210.641 67.2262 210.667 67.3037 210.641 67.4965C210.637 67.5319 210.676 67.5878 210.729 67.6214C210.781 67.6551 210.926 67.8858 211.051 68.1333C211.309 68.6451 211.6 69.0427 211.72 69.0499C211.765 69.0523 211.792 69.0914 211.779 69.137C211.767 69.1821 211.889 69.3599 212.05 69.5323C212.211 69.7047 212.37 69.9324 212.403 70.0375C212.436 70.1432 212.597 70.3553 212.758 70.5079C212.921 70.6611 213.053 70.8659 213.053 70.9638C213.053 71.0653 213.17 71.1867 213.325 71.2456C213.522 71.3206 213.561 71.3711 213.465 71.43C213.368 71.4906 213.431 71.6078 213.716 71.8931C213.926 72.1034 214.108 72.3449 214.121 72.4296C214.133 72.5143 214.21 72.632 214.291 72.6915C214.421 72.7858 214.418 72.8152 214.272 72.9233C214.18 72.9912 214.168 73.0159 214.245 72.9774C214.336 72.9324 214.36 72.9486 214.314 73.0237C214.275 73.0873 214.175 73.1396 214.093 73.1396C214.01 73.1396 213.968 73.1805 213.999 73.2303C214.075 73.3535 213.957 73.64 213.831 73.64C213.775 73.64 213.791 73.5613 213.867 73.4646C213.991 73.306 213.987 73.3024 213.83 73.4261C213.735 73.5012 213.678 73.5986 213.706 73.643C213.733 73.6869 213.72 73.7379 213.675 73.7565C213.631 73.7752 213.462 73.968 213.299 74.1854C213.136 74.4029 213.071 74.5405 213.153 74.4906C213.236 74.4408 213.179 74.5477 213.028 74.7285C212.877 74.9093 212.753 75.1238 212.753 75.2055C212.753 75.2872 212.715 75.3298 212.667 75.301C212.62 75.2721 212.531 75.3592 212.469 75.4956C212.408 75.6314 212.311 75.7425 212.254 75.7425C212.198 75.7425 212.151 75.8212 212.15 75.9179C212.149 76.014 212.054 76.2057 211.941 76.3432C211.827 76.4808 211.768 76.53 211.809 76.4531C211.859 76.357 211.844 76.3366 211.76 76.3877C211.693 76.4297 211.662 76.5258 211.691 76.6027C211.72 76.679 211.712 76.7367 211.673 76.7307C211.477 76.7012 211.418 76.7571 211.552 76.8436C211.682 76.9283 211.68 76.9409 211.538 76.9421C211.449 76.9433 211.314 77.0226 211.238 77.1193C211.111 77.2809 211.115 77.2827 211.292 77.144C211.473 77.0016 211.476 77.0052 211.347 77.2131C211.272 77.3332 211.185 77.4155 211.154 77.3963C211.123 77.377 210.993 77.52 210.866 77.714C210.738 77.9081 210.694 78.0348 210.768 77.9952C210.841 77.9555 210.783 78.0294 210.638 78.1592C210.282 78.4818 209.939 79.0032 210.028 79.0909C210.067 79.1305 210.032 79.148 209.949 79.1299C209.85 79.1077 209.81 79.1594 209.831 79.2819C209.849 79.3852 209.818 79.4399 209.763 79.4051C209.649 79.3348 209.506 79.5234 209.501 79.7475C209.5 79.8298 209.439 79.885 209.366 79.87C209.293 79.855 209.262 79.8886 209.297 79.9451C209.332 80.0016 209.314 80.0478 209.257 80.0478C209.201 80.0478 209.184 80.1223 209.219 80.2142C209.26 80.3211 209.244 80.3566 209.173 80.3127C209.112 80.2755 209.036 80.3278 209.005 80.4287C208.973 80.5296 208.822 80.7446 208.669 80.9056C208.123 81.4859 207.789 81.9929 208.003 81.9172C208.183 81.8542 208.185 81.859 208.024 81.9845C207.928 82.059 207.883 82.1563 207.924 82.2008C207.964 82.2458 207.921 82.2548 207.827 82.2212C207.7 82.1756 207.673 82.2014 207.719 82.3215C207.764 82.4387 207.744 82.4603 207.647 82.4002C207.548 82.3395 207.53 82.3624 207.577 82.4843C207.611 82.5756 207.597 82.6507 207.544 82.6507C207.49 82.6507 207.446 82.718 207.446 82.8009C207.446 82.8832 207.398 82.9511 207.338 82.9511C207.212 82.9511 206.855 83.3523 206.847 83.5019C206.844 83.5566 206.688 83.7789 206.498 83.9951C206.31 84.2114 206.178 84.4258 206.206 84.4709C206.234 84.5159 206.206 84.5532 206.145 84.5532C206.083 84.5532 206.061 84.5982 206.095 84.6529C206.129 84.7082 206.086 84.7532 206.001 84.7532C205.915 84.7532 205.845 84.8097 205.845 84.8794C205.845 84.9484 205.748 85.0656 205.63 85.1395C205.456 85.2482 205.442 85.2909 205.555 85.3623C205.667 85.4338 205.661 85.4512 205.522 85.4524C205.403 85.4536 205.37 85.5053 205.414 85.6206C205.457 85.7324 205.44 85.7636 205.361 85.715C205.291 85.6717 205.244 85.7047 205.244 85.7985C205.244 85.8844 205.209 85.9546 205.165 85.9546C205.122 85.9546 205.007 86.0898 204.909 86.255C204.812 86.4202 204.759 86.5554 204.791 86.5554C204.824 86.5554 204.691 86.7139 204.497 86.908C204.303 87.1026 204.155 87.3165 204.168 87.3837C204.182 87.451 204.136 87.4955 204.067 87.4817C203.999 87.4678 203.942 87.5243 203.942 87.6066C203.942 87.6895 203.89 87.7568 203.826 87.7568C203.761 87.7568 203.739 87.7868 203.775 87.8229C203.811 87.8595 203.75 87.9526 203.64 88.0301C203.529 88.1076 203.461 88.2079 203.489 88.2536C203.518 88.2992 203.471 88.3635 203.385 88.3965C203.299 88.429 203.257 88.5017 203.291 88.5563C203.325 88.6116 203.23 88.7702 203.081 88.909C202.932 89.0471 202.836 89.1871 202.869 89.2195C202.901 89.252 202.794 89.4094 202.63 89.5691C202.467 89.7283 202.369 89.8605 202.412 89.8623C202.455 89.8641 202.419 89.9206 202.332 89.9878C202.156 90.123 201.887 90.5711 201.917 90.6793C201.927 90.7171 201.846 90.7766 201.738 90.8108C201.628 90.8457 201.539 90.961 201.539 91.0673C201.539 91.1737 201.493 91.2608 201.436 91.2608C201.38 91.2608 201.303 91.34 201.266 91.4362C201.229 91.5323 201.12 91.6969 201.022 91.802C200.7 92.1486 200.911 92.1618 206.682 92.1618C211.006 92.1618 212.442 92.1913 212.533 92.282C212.626 92.3757 212.653 92.3667 212.653 92.2429C212.653 92.1552 212.723 92.0561 212.809 92.0231C212.895 91.99 212.94 91.9215 212.909 91.8705C212.877 91.8194 212.917 91.7119 212.997 91.6314C213.078 91.5509 213.116 91.4572 213.082 91.4229C213.048 91.3887 213.068 91.3611 213.127 91.3611C213.252 91.3611 213.682 90.6751 213.685 90.4714C213.686 90.3951 213.77 90.311 213.871 90.2846C213.972 90.2582 214.054 90.1542 214.054 90.0539C214.054 89.953 214.106 89.8389 214.17 89.7998C214.242 89.7554 214.258 89.7722 214.214 89.8437C214.175 89.9073 214.166 89.9596 214.195 89.9596C214.224 89.9596 214.299 89.8623 214.363 89.7439C214.464 89.5535 214.457 89.5367 214.293 89.5998C214.122 89.6653 214.123 89.655 214.306 89.4778C214.415 89.3715 214.538 89.303 214.579 89.3265C214.619 89.3499 214.623 89.2916 214.587 89.1973C214.542 89.0808 214.559 89.0489 214.638 89.0976C214.708 89.1414 214.755 89.1078 214.755 89.0141C214.755 88.7155 214.939 88.4386 215.081 88.5239C215.122 88.5491 215.156 88.4993 215.156 88.4134C215.156 88.3275 215.203 88.2572 215.262 88.2572C215.32 88.2572 215.34 88.2121 215.306 88.1575C215.272 88.1022 215.295 88.0571 215.356 88.0571C215.417 88.0571 215.436 88.0049 215.396 87.9418C215.352 87.8697 215.369 87.8529 215.441 87.8974C215.51 87.94 215.597 87.8751 215.656 87.7376C215.781 87.4474 215.957 87.1741 216.182 86.917C216.305 86.7776 216.323 86.6965 216.244 86.6473C216.172 86.6028 216.209 86.5524 216.344 86.5097C216.491 86.4629 216.558 86.3583 216.559 86.1733C216.56 85.9805 216.585 85.9438 216.648 86.043C216.716 86.1505 216.752 86.1301 216.809 85.9504C216.849 85.8237 216.965 85.6309 217.067 85.5215C217.168 85.4128 217.231 85.2903 217.205 85.25C217.18 85.2092 217.339 84.9905 217.559 84.764C217.779 84.5376 217.959 84.2853 217.959 84.2024C217.959 84.1201 217.997 84.0522 218.042 84.0522C218.143 84.0522 218.406 83.5794 218.408 83.3944C218.409 83.3211 218.59 83.07 218.81 82.8363C219.03 82.6021 219.155 82.4447 219.086 82.4861C219.002 82.5372 218.982 82.5107 219.024 82.4014C219.057 82.3137 219.108 82.2645 219.136 82.2927C219.2 82.3576 219.561 81.9052 219.561 81.7587C219.561 81.6986 219.608 81.6493 219.665 81.6493C219.723 81.6493 219.757 81.5706 219.741 81.4745C219.723 81.3718 219.766 81.3105 219.844 81.3267C219.917 81.3418 219.951 81.3129 219.92 81.2631C219.889 81.2126 219.93 81.1165 220.011 81.0486C220.093 80.9813 220.13 80.8792 220.095 80.8215C220.059 80.7645 220.079 80.7471 220.138 80.7837C220.196 80.8203 220.264 80.7933 220.287 80.7242C220.311 80.6551 220.428 80.7897 220.548 81.024C220.668 81.2577 220.81 81.4493 220.864 81.4493C220.919 81.4493 220.962 81.5202 220.962 81.6067C220.962 81.877 221.46 82.6267 221.677 82.6832C221.791 82.7132 221.857 82.7799 221.825 82.8321C221.793 82.8844 221.878 83.0922 222.015 83.2941C222.152 83.4959 222.264 83.705 222.264 83.7596C222.264 83.8137 222.332 83.8846 222.414 83.9158C222.497 83.9477 222.564 84.0384 222.564 84.1177C222.564 84.1976 222.688 84.3802 222.84 84.5243C222.991 84.6679 223.059 84.7538 222.991 84.7142C222.757 84.579 222.974 84.9364 223.227 85.1022C223.362 85.1905 223.445 85.3059 223.413 85.3581C223.38 85.411 223.409 85.4542 223.476 85.4542C223.544 85.4542 223.57 85.4831 223.535 85.5179C223.46 85.593 223.771 86.1547 223.888 86.1547C223.931 86.1547 223.966 86.2226 223.966 86.3049C223.966 86.3878 224.036 86.455 224.122 86.455C224.208 86.455 224.25 86.5007 224.216 86.556C224.182 86.6112 224.224 86.6839 224.31 86.7169C224.395 86.7494 224.44 86.8173 224.41 86.8671C224.379 86.9164 224.419 86.9825 224.499 87.0131C224.579 87.0437 224.672 87.2041 224.705 87.3693C224.744 87.5664 224.806 87.6445 224.883 87.597C224.961 87.5483 224.981 87.576 224.941 87.6793C224.909 87.7652 224.958 87.9214 225.05 88.0265C225.142 88.1322 225.269 88.3058 225.333 88.4128C225.397 88.5203 225.494 88.5978 225.549 88.5858C225.604 88.5738 225.676 88.6326 225.707 88.7161C225.743 88.8086 225.724 88.8429 225.659 88.8026C225.601 88.7666 225.612 88.8321 225.685 88.948C225.757 89.0633 225.85 89.1583 225.892 89.1583C225.934 89.1583 225.969 89.2273 225.969 89.312C225.969 89.3961 226.036 89.4911 226.118 89.5223C226.201 89.5541 226.244 89.6184 226.214 89.6659C226.186 89.7127 226.332 89.9272 226.541 90.1416C226.749 90.3567 226.906 90.6018 226.889 90.6871C226.872 90.7724 226.913 90.8757 226.98 90.9165C227.063 90.9682 227.076 90.9478 227.021 90.8511C226.963 90.7507 226.972 90.7399 227.052 90.8126C227.114 90.8691 227.183 91.0265 227.206 91.1628C227.228 91.2992 227.29 91.4025 227.342 91.3917C227.394 91.3809 227.438 91.426 227.439 91.492C227.445 91.8212 228.071 92.5829 228.071 92.2603C228.071 92.1925 230.075 92.1678 234.116 92.1853C239.291 92.2081 240.152 92.1919 240.105 92.0705C240.068 91.9726 240.092 91.9546 240.184 92.011C240.273 92.0657 240.293 92.0543 240.244 91.9756C240.204 91.9113 240.134 91.8813 240.089 91.9095C240.043 91.9378 239.979 91.8909 239.947 91.8056C239.908 91.7041 239.93 91.6728 240.012 91.7137C240.079 91.7485 240.029 91.6831 239.899 91.5689C239.769 91.4548 239.692 91.3611 239.727 91.3611C239.763 91.3611 239.744 91.2716 239.685 91.1616C239.627 91.0523 239.524 90.9736 239.457 90.9868C239.389 91 239.332 90.9207 239.33 90.8102C239.327 90.7003 239.275 90.6204 239.213 90.6324C239.152 90.6444 239.052 90.5135 238.992 90.3405C238.932 90.1681 238.853 90.0569 238.817 90.093C238.781 90.129 238.671 89.9788 238.572 89.759C238.474 89.5385 238.346 89.3589 238.288 89.3589C238.23 89.3589 238.183 89.2754 238.183 89.1733C238.183 89.0718 238.051 88.8867 237.889 88.763C237.728 88.6392 237.616 88.4867 237.641 88.423C237.665 88.3593 237.572 88.1857 237.433 88.0367C237.295 87.8877 237.182 87.7382 237.182 87.7045C237.182 87.6709 237.046 87.5291 236.879 87.3892C236.713 87.2492 236.589 87.0612 236.604 86.9705C236.619 86.8797 236.575 86.8167 236.506 86.8305C236.437 86.8443 236.386 86.8221 236.393 86.7806C236.434 86.5175 236.377 86.407 236.275 86.5554C236.189 86.6797 236.176 86.6707 236.196 86.5055C236.229 86.2466 236.013 85.8543 235.837 85.8543C235.709 85.8543 235.582 85.6609 235.523 85.3738C235.479 85.1599 235.178 84.7466 235.024 84.6871C234.945 84.6571 234.905 84.5916 234.936 84.5424C234.966 84.4931 234.918 84.4529 234.829 84.4529C234.74 84.4529 234.69 84.4162 234.717 84.3718C234.779 84.2714 234.435 83.729 234.358 83.8059C234.328 83.8359 234.275 83.7891 234.242 83.7014C234.201 83.5956 234.22 83.5656 234.296 83.6131C234.361 83.6527 234.326 83.5662 234.22 83.4214C234.114 83.2761 233.994 83.1559 233.953 83.1547C233.912 83.1529 233.878 83.0808 233.878 82.9949C233.878 82.9096 233.837 82.864 233.788 82.8946C233.74 82.9246 233.67 82.8357 233.636 82.6958C233.6 82.5564 233.528 82.4693 233.475 82.5023C233.385 82.5576 233.344 82.4357 233.403 82.2867C233.416 82.2518 233.327 82.1858 233.204 82.1401C233.07 82.0909 233.002 82.0013 233.034 81.9184C233.064 81.8391 232.978 81.7082 232.835 81.6139C232.665 81.5028 232.604 81.3946 232.647 81.2817C232.695 81.1573 232.67 81.1297 232.552 81.1754C232.392 81.2366 232.229 81.006 232.324 80.8522C232.351 80.8089 232.272 80.6648 232.149 80.5314C231.615 79.9523 231.378 79.6237 231.43 79.5384C231.462 79.488 231.439 79.4471 231.381 79.4471C231.322 79.4471 231.275 79.3918 231.275 79.3252C231.275 79.2579 231.159 79.1035 231.018 78.9822C230.877 78.8608 230.773 78.7467 230.786 78.7287C230.825 78.6788 230.447 78.1135 230.275 77.9627C230.143 77.8474 230.142 77.8402 230.273 77.9075C230.439 77.9928 230.025 77.4071 229.505 76.8184C229.322 76.6117 229.172 76.3955 229.172 76.3384C229.172 76.2807 229.049 76.1155 228.897 75.9714C228.746 75.8278 228.689 75.7431 228.772 75.784C228.855 75.8248 228.821 75.7683 228.697 75.659C228.573 75.5497 228.471 75.4109 228.471 75.3508C228.471 75.2908 228.427 75.2421 228.373 75.2421C228.319 75.2421 228.247 75.1292 228.212 74.9916C228.178 74.854 228.109 74.7411 228.06 74.7411C228.011 74.7411 227.97 74.6852 227.969 74.6162C227.968 74.5471 227.856 74.3849 227.719 74.2551C227.582 74.1254 227.47 73.9578 227.47 73.8821C227.47 73.8064 227.362 73.6736 227.23 73.5871C227.098 73.5006 226.935 73.2976 226.868 73.136C226.801 72.9738 226.706 72.8663 226.658 72.8963C226.609 72.9264 226.569 72.8633 226.569 72.7557C226.569 72.6482 226.502 72.5341 226.419 72.5022C226.336 72.471 226.27 72.3869 226.27 72.3166C226.271 72.2271 226.301 72.2337 226.369 72.3383C226.473 72.4986 226.518 72.3749 226.475 72.0529C226.464 71.9784 226.504 71.9478 226.563 71.9838C226.621 72.0205 226.669 71.9778 226.669 71.8895C226.669 71.8012 226.771 71.624 226.894 71.4955C227.237 71.141 227.47 70.8431 227.47 70.7596C227.47 70.7181 227.562 70.6274 227.674 70.5571C227.786 70.4869 227.853 70.3889 227.822 70.3391C227.792 70.2892 227.838 70.2081 227.925 70.1595C228.012 70.1108 228.095 69.9955 228.108 69.903C228.122 69.811 228.22 69.6645 228.327 69.578C228.434 69.4909 228.457 69.4536 228.379 69.4939C228.289 69.5413 228.307 69.4746 228.429 69.3119C228.535 69.1707 228.647 69.0704 228.677 69.0884C228.707 69.107 228.789 69.0295 228.859 68.9172C228.964 68.7496 228.963 68.7262 228.855 68.7856C228.781 68.8253 228.846 68.746 228.997 68.609C229.148 68.4727 229.273 68.3141 229.273 68.2576C229.273 68.2011 229.343 68.1278 229.429 68.0948C229.515 68.0618 229.557 67.9891 229.523 67.9338C229.489 67.8785 229.509 67.8329 229.567 67.8329C229.625 67.8329 229.673 67.7704 229.673 67.6935C229.673 67.6166 229.785 67.4478 229.921 67.3181C230.058 67.1883 230.171 66.9919 230.173 66.882C230.176 66.7252 230.196 66.7126 230.266 66.8231C230.332 66.9282 230.388 66.8567 230.48 66.5498C230.55 66.3149 230.682 66.11 230.785 66.0776C230.902 66.0404 230.943 65.9623 230.904 65.8505C230.87 65.7568 230.878 65.7124 230.92 65.7508C231.007 65.8289 231.275 65.6 231.275 65.4481C231.275 65.3952 231.34 65.3267 231.42 65.2961C231.499 65.2654 231.637 65.0918 231.725 64.9098C231.864 64.6245 231.864 64.6059 231.73 64.7735C231.645 64.8804 231.575 64.9122 231.575 64.8437C231.575 64.7759 231.71 64.6431 231.876 64.5494C232.041 64.4557 232.157 64.3265 232.132 64.2622C232.108 64.198 232.154 64.1205 232.233 64.0898C232.313 64.0592 232.432 63.909 232.498 63.7558C232.647 63.411 232.935 63.0188 232.995 63.0788C233.055 63.1383 233.634 62.2114 233.603 62.1075C233.589 62.063 233.612 62.0372 233.652 62.051C233.694 62.0648 233.746 62.0312 233.768 61.9759C233.79 61.9213 233.88 61.8209 233.968 61.7543C234.105 61.6497 234.107 61.6311 233.978 61.6275C233.892 61.6245 233.934 61.5674 234.078 61.4936C234.232 61.4137 234.316 61.2953 234.297 61.1848C234.278 61.0773 234.308 61.0316 234.372 61.0707C234.43 61.1073 234.478 61.0664 234.478 60.9811C234.478 60.8952 234.531 60.825 234.596 60.825C234.66 60.825 234.685 60.7973 234.651 60.7643C234.618 60.7307 234.704 60.5985 234.843 60.4699C234.982 60.3414 235.106 60.1774 235.119 60.1053C235.149 59.9467 235.581 59.2229 235.646 59.2229C235.671 59.2229 235.659 59.2793 235.619 59.3478C235.578 59.4169 235.64 59.3899 235.756 59.2883C235.872 59.1868 235.942 59.0408 235.913 58.9633C235.879 58.8762 235.924 58.8222 236.031 58.8222C236.141 58.8222 236.182 58.7693 236.145 58.6732C236.114 58.5915 236.12 58.535 236.159 58.5483C236.198 58.5615 236.25 58.5272 236.273 58.472C236.297 58.4167 236.376 58.3122 236.449 58.2395C236.521 58.1668 236.581 58.0437 236.581 57.9668C236.581 57.8893 236.694 57.7517 236.831 57.6616C236.969 57.5715 237.082 57.4562 237.082 57.4045C237.082 57.3534 237.195 57.1978 237.334 57.0591C237.472 56.9203 237.561 56.7665 237.53 56.7167C237.499 56.6668 237.562 56.5719 237.669 56.5052C237.775 56.4385 237.842 56.3304 237.817 56.2649C237.792 56.1989 237.868 56.1202 237.987 56.0889C238.106 56.0577 238.174 55.9856 238.139 55.9285C238.104 55.8715 238.189 55.7249 238.329 55.6036C238.469 55.4816 238.583 55.3338 238.582 55.275C238.581 55.2161 238.537 55.2359 238.483 55.3182C238.409 55.4323 238.386 55.436 238.385 55.3338C238.384 55.2599 238.473 55.1758 238.583 55.147C238.743 55.1056 239.184 54.5613 239.184 54.4051C239.184 54.3841 236.508 54.3673 233.237 54.3673C229.965 54.3673 227.307 54.3955 227.329 54.431C227.35 54.4658 227.274 54.5193 227.159 54.5493C227.043 54.5793 226.976 54.6472 227.009 54.7001C227.042 54.7535 227.001 54.8226 226.919 54.8539C226.837 54.8857 226.769 54.995 226.769 55.0972C226.769 55.1999 226.658 55.3879 226.522 55.5158C226.386 55.6432 226.296 55.7814 226.321 55.8228C226.347 55.8643 226.301 55.9237 226.22 55.955C226.128 55.9898 226.097 56.0763 226.138 56.182C226.178 56.289 226.163 56.328 226.097 56.2872C226.039 56.2511 225.936 56.2884 225.867 56.3707C225.799 56.4524 225.781 56.5196 225.825 56.5196C225.87 56.5196 225.819 56.5905 225.712 56.677C225.605 56.7641 225.585 56.8002 225.668 56.7575C225.751 56.7155 225.67 56.8302 225.488 57.014C225.306 57.1972 225.179 57.4075 225.208 57.4808C225.236 57.5547 225.209 57.6454 225.148 57.6832C225.075 57.7277 225.065 57.7061 225.117 57.6208C225.17 57.5361 225.16 57.5138 225.087 57.5589C225.026 57.5967 225.002 57.6934 225.032 57.7745C225.065 57.8604 225.031 57.9211 224.949 57.9211C224.804 57.9211 224.436 58.4575 224.522 58.5441C224.549 58.5711 224.503 58.6504 224.419 58.7201C224.335 58.7897 224.266 58.9117 224.266 58.991C224.266 59.0697 224.227 59.1099 224.177 59.0793C224.068 59.012 223.737 59.495 223.811 59.6145C223.84 59.662 223.763 59.7281 223.64 59.7623C223.465 59.8098 223.446 59.8434 223.554 59.9125C223.663 59.9828 223.645 60.017 223.473 60.0717C223.352 60.1101 223.201 60.2615 223.137 60.4081C222.96 60.816 222.534 61.4611 222.352 61.5975C222.263 61.6642 222.107 61.8894 222.006 62.0979C221.826 62.4667 221.802 62.531 221.776 62.7154C221.769 62.7641 221.662 62.8313 221.538 62.8656C221.368 62.9124 221.346 62.9485 221.447 63.0134C221.548 63.0788 221.527 63.1137 221.361 63.1569C221.241 63.1882 221.17 63.2573 221.202 63.3107C221.235 63.3636 221.19 63.4345 221.102 63.4681C221.012 63.5023 220.967 63.5943 220.998 63.676C221.028 63.7564 221.004 63.8526 220.943 63.8904C220.875 63.9325 220.86 63.9138 220.903 63.8436C220.942 63.7805 220.956 63.7282 220.933 63.7282C220.91 63.7282 220.764 63.9307 220.607 64.1788C220.31 64.6485 220.222 64.7068 220.102 64.5139C220.056 64.4395 220.074 64.4256 220.154 64.4743C220.243 64.5296 220.241 64.4935 220.145 64.3391C220.073 64.2238 219.954 64.1289 219.881 64.1289C219.809 64.1289 219.778 64.0826 219.813 64.0268C219.888 63.9048 219.321 63.1011 219.226 63.1954C219.19 63.2314 219.16 63.2086 219.16 63.1443C219.16 62.9527 219.131 62.8842 218.993 62.7448C218.919 62.6722 218.86 62.5484 218.86 62.4697C218.86 62.391 218.812 62.3267 218.754 62.3267C218.696 62.3267 218.676 62.2817 218.71 62.2264C218.744 62.1712 218.699 62.1261 218.61 62.1261C218.52 62.1261 218.472 62.0865 218.502 62.0378C218.532 61.9891 218.468 61.836 218.358 61.6966C218.249 61.5578 218.159 61.398 218.159 61.3416C218.159 61.2851 218.021 61.1403 217.852 61.0202C217.652 60.8778 217.567 60.7481 217.606 60.6459C217.639 60.5606 217.607 60.4543 217.537 60.4111C217.466 60.3672 217.407 60.2963 217.405 60.2525C217.397 60.0765 217.142 59.7215 217.06 59.7725C217.011 59.8025 216.939 59.7743 216.899 59.7094C216.854 59.6361 216.87 59.6193 216.942 59.6638C217.006 59.7028 217.058 59.6878 217.058 59.6295C217.058 59.5707 216.986 59.5232 216.897 59.5232C216.795 59.5232 216.757 59.4679 216.794 59.373C216.825 59.2901 216.805 59.2229 216.748 59.2229C216.692 59.2229 216.67 59.1826 216.701 59.134C216.731 59.0847 216.644 58.9712 216.506 58.8811C216.369 58.7909 216.257 58.6546 216.257 58.5771C216.257 58.4996 216.187 58.3656 216.1 58.2797C216.014 58.1938 215.964 58.0887 215.99 58.0473C216.052 57.9445 215.795 57.7157 215.712 57.7992C215.675 57.8352 215.675 57.7878 215.712 57.6928C215.75 57.5943 215.731 57.521 215.667 57.521C215.606 57.521 215.556 57.4507 215.556 57.3648C215.556 57.2789 215.516 57.2333 215.466 57.2639C215.417 57.2946 215.35 57.2495 215.317 57.1648C215.278 57.0627 215.301 57.0315 215.382 57.0723C215.45 57.1071 215.428 57.0711 215.332 56.993C215.237 56.9143 215.187 56.8218 215.221 56.7876C215.256 56.7527 215.213 56.6975 215.126 56.6638C215.039 56.6302 214.939 56.4728 214.904 56.3136C214.869 56.1544 214.711 55.8859 214.553 55.7165C214.395 55.5471 214.263 55.3879 214.26 55.3633C214.257 55.3386 214.255 55.2684 214.255 55.2077C214.255 55.1464 214.19 55.1212 214.112 55.1512C213.962 55.2089 213.815 54.9614 213.91 54.8088C213.941 54.7583 213.915 54.7175 213.854 54.7175C213.793 54.7175 213.765 54.6815 213.792 54.6376C213.939 54.3991 213.16 54.3685 207.533 54.3931ZM185.721 75.1778C185.721 75.859 185.763 76.2483 185.846 76.3378C185.947 76.4477 185.943 76.4568 185.821 76.3889C185.691 76.3162 185.69 76.3282 185.808 76.4742C185.897 76.5847 185.906 76.6436 185.833 76.6436C185.771 76.6436 185.721 76.8034 185.721 76.9998C185.721 77.2557 185.756 77.3362 185.846 77.2857C185.946 77.2293 185.946 77.2419 185.846 77.35C185.777 77.4239 185.721 77.5909 185.721 77.7207C185.721 77.8828 185.76 77.9333 185.846 77.8816C185.943 77.8234 185.945 77.8396 185.855 77.9507C185.792 78.0306 185.738 78.4331 185.735 78.8464C185.732 79.2591 185.705 79.7096 185.675 79.8472C185.645 79.9853 185.598 80.2587 185.573 80.4557C185.547 80.6527 185.46 80.9423 185.378 81.0991C185.297 81.2565 185.253 81.4217 185.281 81.4673C185.309 81.5124 185.279 81.5496 185.214 81.5496C185.147 81.5496 185.118 81.6331 185.148 81.746C185.177 81.8548 185.153 81.9335 185.097 81.9215C185.04 81.9094 184.986 81.9899 184.975 82.0999C184.965 82.2104 184.824 82.4369 184.662 82.6039C184.115 83.1703 183.618 83.768 183.618 83.8606C183.618 83.911 183.562 83.9531 183.493 83.9537C183.424 83.9549 183.215 84.09 183.029 84.254C182.842 84.4186 182.631 84.5532 182.558 84.5532C182.486 84.5532 182.381 84.6319 182.324 84.728C182.269 84.8247 182.221 84.8698 182.219 84.8283C182.218 84.7869 182.123 84.8469 182.008 84.9611C181.894 85.0758 181.736 85.1443 181.658 85.1142C181.577 85.083 181.516 85.1203 181.516 85.2014C181.516 85.2885 181.44 85.3275 181.315 85.3041C181.205 85.2824 181.115 85.3065 181.115 85.3563C181.115 85.4068 181.052 85.4236 180.975 85.3942C180.898 85.3647 180.805 85.3894 180.768 85.4488C180.731 85.5083 180.659 85.5317 180.608 85.4999C180.557 85.4681 180.514 85.4885 180.514 85.545C180.514 85.6014 180.439 85.6194 180.348 85.584C180.242 85.5438 180.206 85.56 180.248 85.6279C180.291 85.6975 180.238 85.7156 180.099 85.6795C179.98 85.6483 179.908 85.6639 179.939 85.7138C179.97 85.7642 179.875 85.8117 179.729 85.8201C179.498 85.8327 179.218 85.8735 178.612 85.9829C178.53 85.9979 178.399 86.0496 178.321 86.0982C178.231 86.1541 178.204 86.1487 178.244 86.0832C178.284 86.0183 178.079 85.9721 177.684 85.9564C176.581 85.9138 176.509 85.906 176.509 85.8303C176.509 85.7894 176.409 85.7714 176.284 85.7912C176.16 85.8105 175.953 85.7432 175.822 85.6417C175.692 85.5401 175.545 85.4813 175.497 85.5113C175.448 85.5414 175.408 85.5197 175.408 85.4633C175.408 85.4068 175.341 85.3864 175.258 85.4176C175.17 85.4518 175.108 85.4188 175.108 85.3383C175.108 85.2626 174.88 85.0926 174.602 84.9605C174.293 84.8139 174.038 84.609 173.948 84.436C173.868 84.2805 173.768 84.1525 173.728 84.1525C173.687 84.1525 173.607 84.051 173.551 83.9272C173.495 83.8035 173.395 83.7128 173.331 83.726C173.266 83.7386 173.235 83.6924 173.262 83.6221C173.289 83.5518 173.222 83.3998 173.114 83.2839C173.006 83.1673 172.938 83.0514 172.964 83.0262C172.989 83.0003 172.942 82.9228 172.858 82.8532C172.774 82.7835 172.705 82.6453 172.705 82.5468C172.705 82.2741 172.595 82.0446 172.494 82.1065C172.445 82.1371 172.405 82.1143 172.405 82.056C172.405 81.9977 172.444 81.9497 172.491 81.9497C172.539 81.9497 172.556 81.8379 172.53 81.701C172.503 81.564 172.438 81.4793 172.383 81.5124C172.329 81.546 172.336 81.4775 172.399 81.3598C172.473 81.2228 172.481 81.0871 172.421 80.9807C172.369 80.8876 172.364 80.6906 172.41 80.5296C172.455 80.3728 172.497 80.2112 172.503 80.171C172.595 79.5444 172.912 78.7461 173.067 78.7461C173.141 78.7461 173.23 78.6337 173.264 78.4962C173.299 78.3592 173.362 78.2679 173.403 78.2937C173.445 78.3196 173.564 78.2439 173.668 78.1255C173.789 77.9874 173.803 77.9405 173.707 77.9952C173.61 78.0498 173.623 78.003 173.745 77.8648C173.848 77.7465 173.968 77.6708 174.009 77.6966C174.051 77.7225 174.111 77.6762 174.143 77.5939C174.175 77.5116 174.269 77.4443 174.354 77.4443C174.438 77.4443 174.507 77.4041 174.507 77.3554C174.507 77.3062 174.622 77.2371 174.761 77.2022C174.901 77.1668 174.996 77.1049 174.97 77.0647C174.945 77.0238 175.034 76.9391 175.167 76.8766C175.332 76.7986 175.408 76.7962 175.408 76.8688C175.408 76.9271 175.506 76.8893 175.626 76.7841C175.763 76.6634 175.812 76.6484 175.759 76.7439C175.708 76.8346 175.767 76.8148 175.909 76.6934C176.038 76.5835 176.111 76.5499 176.07 76.6183C175.96 76.8064 176.116 76.7691 176.281 76.5685C176.36 76.4724 176.396 76.4495 176.361 76.5186C176.326 76.5871 176.346 76.6436 176.404 76.6436C176.462 76.6436 176.509 76.5961 176.509 76.5372C176.509 76.479 176.553 76.4586 176.607 76.4916C176.66 76.5246 176.816 76.479 176.952 76.3895C177.089 76.3 177.225 76.2309 177.256 76.2351C177.53 76.2747 177.811 76.2243 177.762 76.1444C177.727 76.0873 177.767 76.0705 177.856 76.1047C177.942 76.1378 178.091 76.13 178.187 76.0879C178.283 76.0459 178.497 75.993 178.662 75.9714C178.828 75.9491 179.014 75.8638 179.078 75.7809C179.155 75.6806 179.216 75.6662 179.26 75.7383C179.297 75.7972 179.38 75.8128 179.445 75.7719C179.606 75.6716 179.819 75.6266 180.095 75.6344C180.221 75.638 180.305 75.6073 180.279 75.5665C180.254 75.5256 180.33 75.4836 180.449 75.4722C181.104 75.4121 181.633 75.2932 181.915 75.1424C182.032 75.0799 182.181 75.0481 182.247 75.0715C182.313 75.0949 182.488 75.0535 182.636 74.9784C182.783 74.9039 182.973 74.8691 183.056 74.9009C183.14 74.9333 183.265 74.9237 183.335 74.8805C183.406 74.8372 183.554 74.7964 183.666 74.7898C184.224 74.7573 184.326 74.7339 184.273 74.648C184.241 74.5969 184.267 74.5237 184.328 74.4852C184.391 74.4468 184.47 74.46 184.506 74.5146C184.604 74.669 185.52 74.3681 185.52 74.1818C185.52 74.0977 185.565 74.0563 185.621 74.0905C185.677 74.1254 185.721 74.6023 185.721 75.1778Z" fill="#0A0A0A"/>
<path fill-rule="evenodd" clip-rule="evenodd" d="M99.2666 73.3396C99.2666 83.7194 99.2786 87.9658 99.293 82.7757C99.3075 77.5861 99.3075 69.0932 99.293 63.9036C99.2786 58.7134 99.2666 62.9599 99.2666 73.3396Z" fill="#0A0A0A"/>
</g>
<defs>
<clipPath id="clip0_445_381">
<rect width="240.286" height="70" fill="white" transform="translate(0 40)"/>
</clipPath>
</defs>
</svg>
