<svg width="450" height="150" viewBox="0 0 450 150" fill="none" xmlns="http://www.w3.org/2000/svg">
<g clip-path="url(#clip0_235_691)">
<path fill-rule="evenodd" clip-rule="evenodd" d="M164.37 70.1809V96.3625H169.476H174.583V70.1809V44H169.476H164.37V70.1809ZM184.695 48.7066V53.4132L189.776 53.3874L194.857 53.3609L194.883 48.6808L194.909 44H189.802H184.695V48.7066ZM129.129 44.9029C127.852 44.9816 126.024 45.2819 124.723 45.6267L123.873 45.852L123.822 46.9717C123.769 48.1762 123.594 48.6195 123.146 48.6862C122.758 48.7444 122.621 48.3624 122.621 47.2246C122.621 46.1974 122.619 46.1896 122.395 46.2563C121.944 46.3902 120.247 47.1345 119.412 47.564C118.941 47.8061 118.528 48.005 118.494 48.005C118.385 48.005 117.071 48.8021 116.767 49.0532C116.471 49.2977 116.471 49.3007 116.604 49.7783C117.122 51.6267 117.112 52.3097 116.567 52.3097C116.218 52.3097 115.983 51.9432 115.71 50.9695C115.558 50.4282 115.418 50.1075 115.332 50.1075C114.829 50.1075 110.507 54.3773 110.507 54.8735C110.507 54.9564 110.68 55.2808 110.891 55.5944C111.803 56.9484 111.985 57.4452 111.662 57.7131C111.333 57.9858 110.981 57.7425 110.359 56.8102C109.662 55.7656 109.649 55.7614 109.255 56.4216C109.09 56.6991 108.752 57.2542 108.504 57.6554C107.402 59.442 106.228 62.2209 106.577 62.2221C106.618 62.2221 106.854 62.4053 107.102 62.6287C107.351 62.8528 107.744 63.17 107.977 63.3334C108.45 63.665 108.604 63.8927 108.604 64.2567C108.604 64.7781 107.965 64.7487 107.282 64.196C105.971 63.1352 106.028 63.134 105.721 64.2242C105.232 65.9633 105.082 66.9713 105.066 68.6497L105.05 70.2758L106.136 70.6789C107.399 71.1481 107.819 71.4965 107.569 71.8695C107.366 72.1735 106.832 72.1399 105.826 71.7596L105 71.4466L105.004 72.5159C105.01 74.5001 105.192 75.7574 105.809 78.0653L105.909 78.4408L106.981 78.4414C108.246 78.442 108.745 78.5579 108.971 78.9027C109.306 79.4133 108.912 79.5971 107.549 79.5665C106.219 79.5365 106.245 79.5106 106.661 80.4934C106.801 80.8238 107.003 81.338 107.109 81.6353C107.315 82.2102 108.38 84.195 108.753 84.6984C108.876 84.8636 109.006 85.0889 109.042 85.1988C109.078 85.3093 109.191 85.507 109.293 85.6379L109.477 85.877L110.567 85.543C112.119 85.0678 112.709 85.1141 112.709 85.7094C112.709 86.0302 112.363 86.2392 111.237 86.6009L110.3 86.9012L110.785 87.5638C111.568 88.6343 114.884 91.7568 115.237 91.7568C115.307 91.7568 115.674 91.5429 116.052 91.281C117.234 90.464 117.69 90.3085 118.066 90.5926C118.372 90.8245 118.114 91.1915 117.142 91.907C116.694 92.2374 116.324 92.5299 116.322 92.5575C116.304 92.7528 118.801 94.2107 120.068 94.7453C122.695 95.8549 122.451 95.8176 122.921 95.1833C123.922 93.8359 124.705 93.3252 124.914 93.8845C125.031 94.1963 124.899 94.4924 124.27 95.3274C123.658 96.1414 123.666 96.1768 124.523 96.3535C127.25 96.9151 127.67 96.9776 129.087 97.0323L130.598 97.0905L131.021 96.0369C131.476 94.9039 131.77 94.5237 132.147 94.5771C132.507 94.6276 132.527 95.4428 132.187 96.2904C132.047 96.6412 131.932 96.959 131.932 96.9956C131.932 97.3002 136.769 96.6965 138.254 96.2063L138.718 96.0531L138.755 94.9814C138.798 93.7433 139.006 93.2087 139.447 93.2087C139.873 93.2087 140.062 93.7458 139.983 94.7351C139.939 95.301 139.952 95.5611 140.026 95.5611C140.317 95.5611 143.088 94.3549 143.846 93.8983C146.349 92.3911 146.19 92.6146 145.783 91.1789C145.529 90.2826 145.524 90.2274 145.682 89.8982C146.02 89.1875 146.482 89.5654 146.849 90.8533C147.152 91.9184 147.157 91.916 149.629 89.5041C152.084 87.1097 152.144 86.9793 151.356 85.7508C150.707 84.738 150.642 84.4809 150.961 84.1914C151.262 83.9193 151.59 84.1367 152.185 85.0018C152.449 85.3856 152.697 85.71 152.736 85.722C152.809 85.7454 153.858 84.2238 153.858 84.0941C153.858 84.0538 154.079 83.6327 154.349 83.1582C154.902 82.1838 155.706 80.357 155.795 79.8692C155.852 79.5617 155.819 79.5196 155.123 79.0048C154.05 78.2107 153.73 77.7079 154.078 77.3595C154.329 77.1096 154.721 77.2357 155.45 77.8028C155.862 78.123 156.213 78.3284 156.261 78.2786C156.541 77.9926 157.206 74.4604 157.32 72.6571L157.389 71.553L156.524 71.2892C155.181 70.8796 154.518 70.1275 155.219 69.8085C155.476 69.6907 155.593 69.7202 157.252 70.3143C157.611 70.4422 156.951 65.696 156.354 63.8596L156.252 63.5448L155.162 63.5076C154.174 63.474 154.047 63.4475 153.815 63.2289C153.198 62.6492 153.637 62.2623 154.869 62.2996C155.688 62.3242 155.76 62.3104 155.76 62.1356C155.76 61.2585 152.975 56.0089 152.589 56.1579C150.929 56.794 150.004 56.8138 150.004 56.2113C150.004 55.8166 150.273 55.6424 151.238 55.4154C151.888 55.2622 151.957 55.118 151.615 54.635C150.934 53.6751 147.519 50.388 147.137 50.3249C147.022 50.3057 146.72 50.4589 146.419 50.6896C145.297 51.5474 144.844 51.6915 144.491 51.3017C144.217 50.9989 144.438 50.6667 145.297 50.0906C145.68 49.8335 146.008 49.58 146.025 49.5272C146.127 49.222 140.708 46.4005 140.025 46.4035C139.951 46.4035 139.631 46.7417 139.312 47.1544C138.036 48.8081 136.987 48.533 138.132 46.845C138.71 45.9938 138.724 45.9451 138.415 45.8724C138.291 45.8436 137.649 45.6802 136.988 45.5102C134.771 44.9395 131.994 44.7046 131.865 45.0765C131.293 46.7182 130.908 47.3436 130.506 47.2859C130.104 47.2282 130.064 46.8192 130.363 45.8238C130.68 44.7671 130.677 44.7965 130.455 44.8164C130.359 44.8254 129.762 44.8638 129.129 44.9029ZM132.547 54.5179C143.355 55.6166 150.368 66.4553 146.699 76.3887C146.496 76.939 146.265 77.5631 146.186 77.7746C145.313 80.1276 141.954 83.9211 139.704 85.0937C139.477 85.212 138.953 85.4943 138.54 85.7214C137.649 86.211 136.383 86.7252 135.744 86.8574C135.492 86.909 134.881 87.0436 134.385 87.1565C128.772 88.4306 122.17 86.1017 118.445 81.5344C113.629 75.6264 113.342 67.0446 117.769 61.3204C118.131 60.8524 118.552 60.3046 118.705 60.1027C121.395 56.5489 127.661 54.0211 132.547 54.5179ZM184.695 77.3396V96.3625H189.801H194.907V77.3396V58.3168H189.801H184.695V77.3396Z" fill="#0A0A0A"/>
<path fill-rule="evenodd" clip-rule="evenodd" d="M134.635 68.1787C134.635 68.2622 134.724 68.3289 134.836 68.3289C134.947 68.3289 135.036 68.2622 135.036 68.1787C135.036 68.0952 134.947 68.0286 134.836 68.0286C134.724 68.0286 134.635 68.0952 134.635 68.1787ZM281.16 102.168C280.138 102.434 279.695 102.569 279.49 102.677C275.826 104.602 275.955 111.767 279.687 113.604L280.355 113.933H282.159C284.173 113.933 284.262 113.91 285.369 113.083C286.096 112.54 287.362 110.365 287.092 110.122C287.057 110.092 285.567 109.678 285.491 109.678C285.458 109.678 285.375 109.844 285.309 110.046C284.736 111.781 283.856 112.496 282.261 112.521C279.86 112.558 278.601 111 278.609 108.006C278.617 105.085 279.82 103.621 282.211 103.621C283.746 103.621 284.474 104.057 284.962 105.267C285.118 105.656 285.273 105.973 285.305 105.972C285.419 105.968 286.835 105.588 286.872 105.551C286.944 105.479 286.613 104.534 286.369 104.118C285.478 102.597 283.03 101.68 281.16 102.168ZM343.784 108.076V113.883H344.535H345.286V108.076V102.269H344.535H343.784V108.076ZM331.445 102.898L330.771 103.321L330.77 104.347L330.768 105.373H330.268H329.768V106.024V106.674H330.263H330.758L330.788 109.853C330.826 113.836 330.9 113.986 332.828 113.981C333.851 113.98 333.917 113.936 333.828 113.318C333.69 112.362 333.703 112.381 333.219 112.447C332.845 112.498 332.752 112.472 332.529 112.248L332.27 111.99V109.332V106.674H332.971H333.672V106.024V105.373H332.971H332.27V103.921C332.27 103.123 332.237 102.471 332.195 102.473C332.154 102.475 331.817 102.666 331.445 102.898ZM291.372 105.237C289.842 105.482 288.947 106.118 288.582 107.218C288.353 107.91 288.366 107.95 288.844 108.024C289.078 108.06 289.412 108.113 289.586 108.142C289.884 108.192 289.914 108.168 290.115 107.714C290.894 105.954 294.027 106.209 293.902 108.022C293.869 108.504 293.745 108.551 291.703 108.862C290.963 108.974 290.109 109.159 289.803 109.274C288.161 109.888 287.682 111.783 288.794 113.268C289.531 114.253 292.073 114.297 293.552 113.351L294.09 113.007L294.207 113.445L294.324 113.883H295.109C296.061 113.883 296.062 113.883 295.797 113.3C295.601 112.868 295.58 112.601 295.525 109.879C295.46 106.628 295.454 106.594 294.818 105.977C294.209 105.386 292.6 105.041 291.372 105.237ZM299.963 105.368C299.719 105.478 299.416 105.735 299.238 105.981L298.931 106.404V105.889V105.373H298.23H297.529V109.628V113.883H298.324H299.12L299.15 111.055C299.179 108.395 299.194 108.198 299.4 107.753C299.76 106.975 300.655 106.637 301.333 107.025C301.698 107.234 301.693 107.238 301.991 106.459C302.308 105.626 302.287 105.586 301.392 105.32C300.745 105.127 300.471 105.137 299.963 105.368ZM309.787 105.357C309.563 105.461 309.236 105.721 309.061 105.934L308.743 106.32V105.847V105.373H308.042H307.341V109.628V113.883H308.082H308.823L308.871 111.205C308.94 107.244 309.434 106.324 311.114 107.026C311.313 107.11 311.488 107.166 311.502 107.151C311.537 107.117 312.047 105.762 312.047 105.706C312.047 105.369 310.329 105.104 309.787 105.357ZM315.263 105.281C313.237 105.679 312.296 107.074 312.296 109.68V111.333L312.626 112.003C313.332 113.437 314.319 113.983 316.205 113.983C318.278 113.983 319.55 113.134 319.899 111.518L319.966 111.205L319.185 111.104C318.319 110.992 318.199 111.047 318.084 111.61C318.053 111.765 317.884 112 317.709 112.133C316.042 113.405 313.954 112.333 313.852 110.154C313.85 110.112 315.23 110.079 316.917 110.079H319.986L319.923 108.971C319.771 106.304 317.839 104.774 315.263 105.281ZM324.733 105.276C324.227 105.403 323.836 105.613 323.412 105.986L323.059 106.295V105.834V105.373H322.309H321.558V109.628V113.883H322.353H323.148L323.179 111.055L323.21 108.227L323.483 107.67C324.15 106.312 326.178 106.227 326.724 107.536C326.833 107.796 326.864 108.532 326.864 110.876V113.883H327.665H328.466V110.697C328.466 107.128 328.421 106.809 327.822 106.108C327.221 105.406 325.77 105.015 324.733 105.276ZM337.308 105.323C335.965 105.615 335.13 106.276 334.83 107.284C334.623 107.981 334.612 107.949 335.099 108.024C335.333 108.06 335.665 108.113 335.838 108.142C336.136 108.192 336.165 108.167 336.401 107.65C337.165 105.982 340.014 106.177 340.158 107.908L340.202 108.443L339.415 108.609C338.982 108.701 338.178 108.842 337.627 108.923C334.936 109.318 333.758 110.896 334.745 112.782C335.509 114.243 338.151 114.506 339.911 113.295L340.343 112.998L340.461 113.441L340.579 113.883H341.442C342.224 113.883 342.297 113.867 342.229 113.708C341.861 112.839 341.847 112.716 341.79 109.828C341.733 106.994 341.726 106.913 341.485 106.441C340.959 105.412 339.14 104.925 337.308 105.323ZM317.203 106.824C317.728 107.126 317.916 107.344 318.101 107.869C318.405 108.729 318.534 108.677 316.097 108.677H313.939L314.006 108.302C314.261 106.868 315.934 106.095 317.203 106.824ZM293.826 111.068C293.363 112.904 290.191 113.432 289.867 111.727C289.717 110.936 290.353 110.448 291.83 110.22C292.404 110.131 293.099 110.006 293.374 109.942L293.875 109.825L293.907 110.223C293.924 110.441 293.888 110.822 293.826 111.068ZM340.079 111.118C339.625 112.645 337.404 113.326 336.392 112.249C335.572 111.377 336.343 110.485 338.155 110.208C338.691 110.126 339.354 110.006 339.629 109.942L340.13 109.825L340.162 110.277C340.18 110.526 340.143 110.905 340.079 111.118Z" fill="#0A0A0A"/>
<path fill-rule="evenodd" clip-rule="evenodd" d="M251.271 57.9203C251.144 58.0008 251.306 58.0639 251.499 58.0098C251.513 58.0056 251.648 58.0495 251.799 58.1072C251.974 58.1732 252.074 58.1762 252.074 58.1144C252.074 58.0249 252.016 58.0062 251.649 57.9768C251.58 57.9708 251.5 57.9354 251.471 57.8969C251.443 57.8585 251.352 57.8687 251.271 57.9203ZM252.425 58.2411C252.729 58.4207 252.968 58.4357 252.731 58.2603C252.625 58.1816 252.467 58.118 252.381 58.1198C252.263 58.1222 252.274 58.1522 252.425 58.2411ZM206.645 58.3919C207.899 58.4081 209.948 58.4081 211.201 58.3919C212.454 58.3763 211.429 58.3631 208.923 58.3631C206.418 58.3631 205.393 58.3763 206.645 58.3919ZM306.339 58.4796C306.339 58.6039 306.371 58.616 306.473 58.5301C306.568 58.452 308.367 58.4111 312.556 58.3919L318.504 58.3655L312.422 58.3414C306.868 58.3192 306.339 58.3312 306.339 58.4796ZM335.348 58.3919C336.96 58.4075 339.595 58.4075 341.205 58.3919C342.817 58.3763 341.499 58.3637 338.277 58.3637C335.056 58.3637 333.738 58.3763 335.348 58.3919ZM213.552 61.0074C213.531 63.2559 213.546 63.5334 213.679 63.4229C213.847 63.2835 213.883 63.1778 213.731 63.2715C213.668 63.3105 213.622 62.4593 213.604 60.8999L213.575 58.467L213.552 61.0074ZM318.894 58.9758C318.927 59.0629 318.954 59.156 318.954 59.1818C318.954 59.2083 318.997 59.2035 319.05 59.1704C319.166 59.0989 319.073 58.8178 318.933 58.8178C318.877 58.8178 318.86 58.8887 318.894 58.9758ZM307.824 60.5827C308.045 60.9864 308.268 61.2056 308.097 60.8512C308.012 60.6758 307.893 60.5016 307.832 60.4638C307.752 60.4145 307.75 60.4487 307.824 60.5827ZM321.257 62.5428C321.257 62.6281 321.336 62.7597 321.432 62.8354C321.594 62.9621 321.596 62.9579 321.457 62.7819C321.375 62.6774 321.322 62.5723 321.34 62.5482C321.358 62.5248 321.348 62.4792 321.315 62.4467C321.283 62.4149 321.257 62.4581 321.257 62.5428ZM235.715 63.0126C235.801 63.1832 235.885 63.3232 235.903 63.3232C235.985 63.3232 235.82 62.9177 235.697 62.8156C235.594 62.7297 235.598 62.7777 235.715 63.0126ZM340.353 63.6235C340.209 63.8434 340.122 64.0236 340.161 64.0236C340.24 64.0236 340.492 63.6656 340.602 63.3982C340.716 63.1189 340.635 63.1922 340.353 63.6235ZM258.754 63.8236C258.783 63.9335 258.846 64.0236 258.894 64.0236C258.999 64.0236 259.002 63.9918 258.922 63.7815C258.834 63.552 258.692 63.5869 258.754 63.8236ZM299.965 64.8382C299.984 64.9625 300.054 65.0748 300.118 65.0875C300.184 65.1001 300.193 65.0881 300.14 65.061C300.087 65.034 300.066 64.9517 300.094 64.8784C300.123 64.8051 300.097 64.715 300.038 64.6784C299.971 64.6369 299.944 64.697 299.965 64.8382ZM322.559 64.7192C322.559 64.7709 322.648 64.876 322.758 64.9529C322.868 65.0304 322.924 65.1301 322.883 65.1752C322.842 65.2202 322.864 65.225 322.933 65.186C323.028 65.1313 323.02 65.0586 322.896 64.8694C322.735 64.6225 322.559 64.5444 322.559 64.7192ZM243.865 65.2148C243.589 65.2647 243.553 65.2935 243.697 65.3512C243.86 65.4172 244.265 65.2893 244.265 65.1716C244.265 65.1463 244.254 65.1313 244.241 65.1385C244.227 65.1457 244.057 65.18 243.865 65.2148ZM248.07 66.4174C248.07 66.5454 248.366 66.7646 248.44 66.6914C248.475 66.6559 248.449 66.6271 248.381 66.6271C248.313 66.6271 248.283 66.5868 248.314 66.537C248.344 66.4877 248.302 66.4216 248.22 66.3904C248.137 66.3586 248.07 66.3712 248.07 66.4174ZM326.63 66.5934C326.534 66.689 326.547 66.8271 326.653 66.8271C326.702 66.8271 326.768 66.7592 326.8 66.6769C326.858 66.5244 326.752 66.4721 326.63 66.5934ZM268.697 67.0698C268.548 67.4615 268.578 67.5227 268.756 67.1936C268.841 67.0374 268.885 66.8848 268.855 66.8542C268.825 66.8241 268.754 66.9214 268.697 67.0698ZM289.87 67.0278C289.97 67.1383 290.073 67.208 290.098 67.1827C290.152 67.1287 289.867 66.8271 289.761 66.8271C289.721 66.8271 289.77 66.9172 289.87 67.0278ZM313.452 68.538C313.514 68.6527 313.584 68.7266 313.608 68.702C313.678 68.6323 313.537 68.3289 313.433 68.3289C313.382 68.3289 313.391 68.4226 313.452 68.538ZM336.797 68.5848C336.675 68.6707 336.579 68.7945 336.583 68.8599C336.589 68.9458 336.605 68.944 336.642 68.8539C336.669 68.7849 336.745 68.7584 336.809 68.7951C336.873 68.8317 336.892 68.8251 336.852 68.7806C336.812 68.7356 336.857 68.6401 336.952 68.5674C337.197 68.3818 337.067 68.3962 336.797 68.5848ZM335.717 70.1076C335.612 70.1791 335.445 70.5317 335.515 70.5317C335.535 70.5317 335.625 70.4188 335.715 70.2812C335.889 70.0157 335.889 69.9899 335.717 70.1076ZM227.011 70.5984C226.921 70.6885 226.927 71.0093 227.02 71.067C227.061 71.0922 227.095 70.9823 227.095 70.8225C227.095 70.6627 227.091 70.5317 227.087 70.5317C227.082 70.5317 227.048 70.5618 227.011 70.5984ZM334.79 71.4424C334.605 71.7392 334.687 71.7614 334.903 71.473C335.002 71.3403 335.046 71.2322 335.002 71.2322C334.957 71.2322 334.862 71.3271 334.79 71.4424ZM260.033 84.0977C260.033 90.7608 260.045 93.5012 260.059 90.1877C260.074 86.8742 260.074 81.4227 260.059 78.0731C260.045 74.7235 260.033 77.4345 260.033 84.0977ZM283.212 73.5263C283.212 73.6278 283.468 73.6128 283.576 73.5047C283.614 73.4662 283.548 73.435 283.429 73.435C283.309 73.435 283.212 73.4758 283.212 73.5263ZM249.92 85.3489C249.92 91.3237 249.932 93.768 249.947 90.7806C249.962 87.7933 249.962 82.9052 249.947 79.9179C249.932 76.9305 249.92 79.3742 249.92 85.3489ZM318.826 77.4976C318.691 77.6772 318.683 77.7223 318.793 77.6802C318.873 77.6496 318.966 77.5541 318.999 77.4676C319.093 77.2237 319.022 77.2363 318.826 77.4976ZM214.354 86.9258L214.33 96.1618H209.268C205.919 96.1618 204.227 96.196 204.268 96.2621C204.307 96.327 206.104 96.3624 209.328 96.3624H214.326L214.38 96.1372C214.41 96.0128 214.422 91.812 214.407 86.8009L214.379 77.6898L214.354 86.9258ZM237.157 87.0952V96.1618H232.251C229.047 96.1618 227.345 96.1966 227.345 96.2621C227.345 96.452 237.224 96.3943 237.296 96.2039C237.405 95.9215 237.366 78.1578 237.257 78.0905C237.191 78.0497 237.157 81.0761 237.157 87.0952ZM316.982 80.0657C316.83 80.2615 316.739 80.5631 316.853 80.4928C316.907 80.4591 316.952 80.3702 316.952 80.2957C316.952 80.2206 317.008 80.1396 317.077 80.1149C317.146 80.0903 317.174 80.0404 317.141 80.0038C317.108 79.9677 317.036 79.9954 316.982 80.0657ZM280.108 80.9091C279.97 80.9818 279.925 81.0412 280.008 81.0412C280.181 81.0412 280.476 80.8736 280.405 80.816C280.38 80.7949 280.246 80.8364 280.108 80.9091ZM336.693 84.0346C336.821 84.1926 336.94 84.3091 336.958 84.2947C337.017 84.2436 336.73 83.8514 336.595 83.7997C336.521 83.7709 336.565 83.8772 336.693 84.0346ZM312.363 86.7042C312.294 86.8549 312.288 86.9511 312.348 86.9511C312.402 86.9511 312.446 86.8874 312.446 86.8093C312.446 86.7312 312.5 86.6495 312.566 86.6273C312.647 86.6002 312.652 86.566 312.581 86.5221C312.523 86.4861 312.425 86.5678 312.363 86.7042ZM323.525 87.1343C323.33 87.3493 323.314 87.4514 323.476 87.4514C323.54 87.4514 323.563 87.4214 323.526 87.3848C323.489 87.3481 323.534 87.2352 323.625 87.1343C323.716 87.0333 323.769 86.9511 323.741 86.9511C323.713 86.9511 323.617 87.0333 323.525 87.1343ZM340.603 89.6543C340.672 89.7642 340.764 89.8543 340.808 89.8543C340.852 89.8543 340.839 89.7642 340.78 89.6543C340.721 89.5443 340.629 89.4542 340.575 89.4542C340.522 89.4542 340.534 89.5431 340.603 89.6543ZM341.581 91.0335C341.581 91.0816 341.694 91.2269 341.831 91.3561C341.969 91.4858 342.082 91.5675 342.082 91.5387C342.082 91.5093 341.969 91.3639 341.831 91.2155C341.694 91.0671 341.581 90.9848 341.581 91.0335ZM289.82 93.7151C289.82 93.8076 289.772 93.8418 289.704 93.7998C289.631 93.7541 289.616 93.7722 289.663 93.8485C289.719 93.9404 289.77 93.9416 289.877 93.8527C289.954 93.789 289.993 93.6965 289.963 93.6478C289.879 93.5133 289.82 93.5409 289.82 93.7151ZM270.597 93.9908C270.597 94.0076 270.739 94.1272 270.913 94.2557L271.229 94.4894L271.038 94.2275C270.883 94.0142 270.597 93.8611 270.597 93.9908ZM272.198 95.1526C272.198 95.2541 272.588 95.507 272.648 95.4445C272.665 95.4259 272.571 95.3304 272.439 95.2313C272.307 95.1322 272.198 95.0967 272.198 95.1526ZM345.019 95.9119L345.165 96.2123L339.118 96.1852C335.075 96.1678 333.071 96.1924 333.071 96.2603C333.071 96.3282 335.112 96.3624 339.178 96.3624C345.729 96.3624 345.501 96.3817 345.077 95.8614L344.873 95.6115L345.019 95.9119ZM273.708 95.9305C273.696 96.1167 273.905 96.1984 274.035 96.0585C274.125 95.96 274.114 95.9455 273.982 95.9912C273.889 96.0242 273.791 95.9966 273.765 95.9311C273.727 95.8392 273.715 95.8386 273.708 95.9305ZM292.997 96.2369C293.058 96.3961 302.735 96.4225 302.735 96.2639C302.735 96.2015 300.957 96.1558 297.842 96.139C293.96 96.1174 292.958 96.1378 292.997 96.2369ZM305.772 96.2339C305.772 96.3288 307.102 96.357 311.684 96.3606C315.59 96.3636 317.562 96.3318 317.496 96.2657C317.339 96.1089 305.772 96.0777 305.772 96.2339ZM250.072 96.2621C250.072 96.3276 251.774 96.3624 254.978 96.3624C258.182 96.3624 259.884 96.3276 259.884 96.2621C259.884 96.1966 258.182 96.1618 254.978 96.1618C251.774 96.1618 250.072 96.1966 250.072 96.2621ZM284.714 96.3624C284.591 96.4411 284.604 96.4598 284.783 96.461C284.904 96.4616 285.03 96.4171 285.064 96.3624C285.143 96.2345 284.911 96.2345 284.714 96.3624ZM277.481 97.034C277.605 97.0575 277.786 97.0569 277.882 97.0316C277.977 97.0064 277.875 96.9872 277.655 96.9884C277.435 96.9896 277.357 97.01 277.481 97.034Z" fill="#0A0A0A"/>
<path fill-rule="evenodd" clip-rule="evenodd" d="M223.623 57.6332C223.443 57.6699 223.261 57.6789 223.218 57.6525C223.175 57.626 223.14 57.6441 223.14 57.6921C223.14 57.7408 222.937 57.7684 222.69 57.754C222.437 57.739 222.239 57.7714 222.239 57.8279C222.239 57.8831 222.194 57.9006 222.139 57.8663C222.084 57.8327 222.039 57.8615 222.039 57.9306C222.039 58.0267 222.011 58.0291 221.922 57.9402C221.833 57.8513 221.772 57.8645 221.665 57.9949C221.587 58.0898 221.555 58.106 221.594 58.0309C221.647 57.9264 221.609 57.912 221.426 57.969C221.295 58.0099 221.174 58.0796 221.156 58.1246C221.139 58.1691 221.058 58.1799 220.977 58.1487C220.895 58.1174 220.759 58.1763 220.675 58.2796C220.591 58.3829 220.557 58.3998 220.599 58.3169C220.665 58.1877 220.652 58.1859 220.506 58.3042C220.413 58.3799 220.336 58.4022 220.334 58.3541C220.332 58.306 220.276 58.3349 220.208 58.4172C220.142 58.4995 219.996 58.5812 219.886 58.598C219.574 58.646 218.994 58.932 218.905 59.0822C218.861 59.1573 218.737 59.2179 218.63 59.2179C218.523 59.2179 218.434 59.266 218.434 59.3243C218.434 59.3825 218.392 59.4041 218.341 59.3723C218.29 59.3411 218.177 59.4168 218.089 59.5417C218.002 59.6667 217.909 59.7574 217.882 59.7436C217.735 59.6673 217.511 59.7429 217.36 59.919C217.266 60.0289 217.129 60.119 217.055 60.119C216.981 60.119 216.949 60.1641 216.983 60.2193C217.017 60.2746 216.973 60.3196 216.886 60.3196C216.798 60.3196 216.7 60.3869 216.669 60.4698C216.637 60.5521 216.56 60.6212 216.497 60.623C216.366 60.6272 215.932 60.969 215.932 61.0687C215.932 61.1835 215.658 61.4141 215.596 61.3517C215.563 61.3186 215.508 61.3661 215.473 61.4562C215.438 61.5469 215.344 61.6208 215.265 61.6208C215.185 61.6208 215.147 61.6658 215.181 61.7211C215.215 61.7764 215.176 61.8214 215.096 61.8214C214.922 61.8214 214.43 62.3771 214.43 62.5729C214.43 62.648 214.339 62.7375 214.229 62.773C214.118 62.8078 213.96 62.9658 213.879 63.1238C213.545 63.7689 213.519 63.5941 213.549 60.954L213.579 58.3673H208.897C205.04 58.3673 204.225 58.3907 204.267 58.5007C204.295 58.574 204.318 67.0777 204.318 77.3979V96.1619H209.316C212.539 96.1619 214.325 96.1973 214.347 96.2616C214.365 96.3162 214.381 91.552 214.384 85.674C214.386 79.796 214.42 74.7164 214.46 74.386C214.499 74.0556 214.555 73.4699 214.584 73.0848C214.613 72.6992 214.657 72.3159 214.68 72.2336C214.704 72.1507 214.747 71.9483 214.776 71.7831C214.833 71.4587 214.851 71.377 215.064 70.5065C215.141 70.19 215.179 69.9311 215.149 69.9311C215.118 69.9311 215.18 69.8602 215.287 69.7731C215.394 69.6866 215.427 69.6427 215.36 69.6764C215.198 69.7581 215.418 69.3298 215.664 69.0829C215.762 68.9855 215.868 68.7759 215.899 68.6173C215.931 68.4587 215.993 68.329 216.036 68.329C216.08 68.329 216.219 68.1602 216.345 67.9535C216.602 67.533 216.782 67.3276 216.893 67.3276C217.061 67.3276 217.316 66.9972 217.267 66.8428C217.23 66.7269 217.241 66.7142 217.304 66.8007C217.419 66.9593 217.872 66.6698 217.769 66.5028C217.725 66.4319 217.761 66.4157 217.867 66.4565C217.959 66.492 218.034 66.477 218.034 66.4235C218.034 66.37 218.102 66.3268 218.185 66.3268C218.267 66.3268 218.323 66.2721 218.31 66.206C218.296 66.14 218.355 66.0835 218.442 66.0811C218.528 66.0787 218.821 65.9784 219.092 65.8588C219.977 65.469 220.032 65.4557 221.006 65.3981C221.347 65.3776 221.704 65.2966 221.802 65.2179C221.899 65.138 221.946 65.1284 221.905 65.1956C221.852 65.2839 221.952 65.3074 222.285 65.2821C222.534 65.2635 222.713 65.2881 222.683 65.3368C222.653 65.3855 222.721 65.4257 222.834 65.4257C222.948 65.4257 223.04 65.3807 223.04 65.3254C223.04 65.2701 223.088 65.2251 223.147 65.2251C223.205 65.2251 223.222 65.2743 223.185 65.3344C223.141 65.4047 223.218 65.4329 223.404 65.4137C223.562 65.3975 223.843 65.4605 224.028 65.5537C224.214 65.6468 224.401 65.7008 224.443 65.675C224.486 65.6486 224.547 65.6942 224.579 65.7765C224.61 65.8588 224.705 65.9261 224.789 65.9261C224.874 65.9261 224.943 65.9712 224.943 66.0264C224.943 66.0811 225.044 66.1267 225.168 66.1279C225.336 66.1291 225.358 66.152 225.254 66.2168C225.146 66.2859 225.162 66.319 225.33 66.3724C225.447 66.4097 225.543 66.5076 225.543 66.5893C225.543 66.6716 225.583 66.7142 225.632 66.6842C225.726 66.6259 225.938 66.8278 225.91 66.9491C225.901 66.9888 225.972 67.1131 226.069 67.2254C226.165 67.3384 226.244 67.4747 226.244 67.5294C226.244 67.5835 226.288 67.6279 226.341 67.6279C226.395 67.6279 226.413 67.6922 226.383 67.7703C226.353 67.849 226.386 68.0178 226.456 68.1457C226.527 68.2743 226.595 68.4419 226.608 68.5194C226.62 68.5963 226.691 68.6972 226.763 68.7429C226.858 68.8035 226.861 68.827 226.773 68.8282C226.703 68.8288 226.677 68.8972 226.712 68.9879C226.76 69.1147 226.789 69.1201 226.854 69.0144C226.911 68.9231 226.931 68.9495 226.92 69.0991C226.911 69.2186 226.863 69.2913 226.813 69.2607C226.762 69.2288 226.755 69.3075 226.797 69.4427C226.838 69.5736 226.912 69.6962 226.962 69.7154C227.012 69.7346 227.001 69.8133 226.937 69.8908C226.848 69.9977 226.848 70.0308 226.938 70.0308C227.004 70.0308 227.026 70.0812 226.988 70.1425C226.95 70.2038 226.981 70.2927 227.057 70.3408C227.157 70.4044 227.16 70.4291 227.07 70.4297C227.001 70.4309 226.945 70.4789 226.945 70.5378C226.945 70.5961 226.978 70.6225 227.02 70.5973C227.061 70.5714 227.095 70.6772 227.095 70.8321C227.095 70.9865 227.061 71.0922 227.02 71.067C226.899 70.9919 226.933 71.1812 227.065 71.3127C227.131 71.3788 227.148 71.4328 227.103 71.4328C227.058 71.4328 227.082 71.5091 227.158 71.6023C227.251 71.717 227.255 71.7476 227.17 71.696C227.004 71.5968 227 72.0486 227.165 72.2138C227.258 72.3069 227.258 72.3339 227.165 72.3339C227.005 72.3339 227.01 72.9034 227.17 72.9683C227.27 73.0085 227.27 73.0205 227.17 73.0265C227.039 73.035 226.99 73.435 227.12 73.435C227.161 73.435 227.183 78.5934 227.168 84.8985C227.151 92.605 227.175 96.3625 227.243 96.3625C227.3 96.3625 227.345 96.3174 227.345 96.2622C227.345 96.1967 229.047 96.1619 232.251 96.1619H237.157V87.0953C237.157 81.0761 237.191 78.0497 237.257 78.0906C237.399 78.1783 237.382 78.0065 237.232 77.8455C237.146 77.7524 237.144 77.7313 237.226 77.7776C237.302 77.8208 237.34 77.7722 237.33 77.6424C237.322 77.5307 237.268 77.4394 237.211 77.4382C237.151 77.4376 237.157 77.4046 237.225 77.3619C237.363 77.2736 237.352 76.9216 237.207 76.8158C237.145 76.7702 237.155 76.7414 237.233 76.7408C237.325 76.7396 237.356 76.5263 237.347 75.9628C237.34 75.5363 237.345 75.1645 237.357 75.1369C237.37 75.1098 237.391 74.9518 237.404 74.7866C237.418 74.6214 237.463 74.2892 237.504 74.0484C237.562 73.7066 237.552 73.6273 237.453 73.6879C237.362 73.7438 237.351 73.7264 237.414 73.6255C237.462 73.5486 237.517 73.4176 237.535 73.3347C237.617 72.9677 237.683 72.4553 237.693 72.1171C237.699 71.9152 237.746 71.7759 237.797 71.8071C237.851 71.8407 237.862 71.7278 237.823 71.5338C237.784 71.3361 237.803 71.1481 237.872 71.0652C237.935 70.9895 237.96 70.9 237.926 70.867C237.893 70.8339 237.955 70.6345 238.062 70.423C238.17 70.2116 238.258 69.9635 238.258 69.871C238.258 69.7785 238.393 69.4835 238.558 69.215C238.723 68.9471 238.853 68.6942 238.847 68.6533C238.817 68.4629 238.867 68.3224 238.948 68.3722C239.078 68.4521 239.289 68.1578 239.202 68.0178C239.157 67.9445 239.171 67.9235 239.237 67.9643C239.345 68.0316 239.76 67.5378 239.76 67.3402C239.76 67.2807 239.906 67.1576 240.085 67.0657C240.264 66.9737 240.504 66.8037 240.616 66.6878C240.729 66.5719 240.887 66.4619 240.967 66.4439C241.047 66.4265 241.126 66.37 241.145 66.319C241.163 66.2679 241.245 66.2265 241.326 66.2265C241.408 66.2265 241.449 66.1862 241.418 66.137C241.388 66.0877 241.433 66.0204 241.518 65.988C241.613 65.9513 241.647 65.97 241.606 66.0354C241.57 66.0943 241.725 66.0264 241.949 65.8841C242.175 65.7423 242.422 65.6257 242.5 65.6257C242.577 65.6257 242.766 65.5609 242.919 65.4816C243.077 65.3993 243.331 65.3596 243.506 65.3897C243.72 65.4263 243.773 65.4131 243.678 65.3458C243.579 65.2749 243.636 65.2389 243.897 65.2082C244.092 65.1854 244.232 65.198 244.209 65.2359C244.185 65.2743 244.335 65.3056 244.541 65.3056C244.748 65.3056 244.949 65.2539 244.99 65.1902C245.043 65.1079 245.064 65.1121 245.065 65.2064C245.066 65.2779 245.112 65.3092 245.166 65.2755C245.222 65.2413 245.267 65.2545 245.267 65.3044C245.267 65.3548 245.435 65.3945 245.642 65.3933C246.386 65.3891 247.569 65.7897 247.569 66.0456C247.569 66.1081 247.599 66.1303 247.635 66.0943C247.671 66.0589 247.757 66.1075 247.827 66.203C247.897 66.2985 248.002 66.382 248.062 66.3893C248.121 66.3959 248.218 66.4073 248.276 66.4145C248.334 66.4211 248.354 66.4716 248.32 66.5268C248.286 66.5821 248.309 66.6271 248.37 66.6271C248.432 66.6271 248.454 66.6722 248.42 66.7281C248.386 66.7833 248.428 66.8554 248.513 66.8884C248.599 66.9215 248.646 66.9858 248.619 67.0308C248.59 67.0765 248.656 67.1762 248.765 67.2519C248.934 67.3708 249.158 67.7715 249.142 67.9283C249.139 67.9559 249.201 68.0911 249.278 68.2286C249.404 68.4539 249.443 68.5975 249.49 69.0048C249.499 69.0738 249.533 69.1297 249.568 69.1297C249.635 69.1297 249.661 69.4199 249.681 70.4062C249.688 70.7504 249.723 71.0322 249.758 71.0322C249.794 71.0322 249.807 71.2797 249.788 71.5824C249.766 71.935 249.793 72.1333 249.863 72.1333C249.923 72.1333 249.972 72.1813 249.972 72.2396C249.972 72.2979 249.937 72.3237 249.893 72.2967C249.85 72.2702 249.815 72.3315 249.815 72.4336C249.815 72.5358 249.846 72.6 249.884 72.5766C249.922 72.5532 249.929 72.7142 249.899 72.9346C249.863 73.2074 249.884 73.3347 249.965 73.3347C250.03 73.3347 250.055 73.381 250.021 73.4368C249.949 73.5546 249.952 96.2748 250.024 96.3475C250.051 96.3739 250.072 96.3433 250.072 96.279C250.072 96.1913 251.307 96.1619 254.978 96.1619C258.182 96.1619 259.884 96.1967 259.884 96.2622C259.884 96.3174 259.918 96.3625 259.959 96.3625C260 96.3625 260.034 90.3746 260.034 83.0561C260.034 75.7376 260.01 69.7647 259.98 69.7827C259.951 69.8007 259.934 69.6499 259.943 69.4481C259.95 69.2456 259.907 69.015 259.845 68.9357C259.759 68.8233 259.764 68.8089 259.866 68.8702C259.967 68.9315 259.986 68.8732 259.95 68.6143C259.924 68.4299 259.895 68.2791 259.886 68.2791C259.877 68.2791 259.859 68.0761 259.845 67.8286C259.801 67.0488 259.664 66.2259 259.568 66.1664C259.517 66.1352 259.503 66.0234 259.536 65.9177C259.571 65.806 259.55 65.7261 259.484 65.7261C259.422 65.7261 259.4 65.681 259.433 65.6257C259.467 65.5705 259.452 65.5254 259.398 65.5254C259.345 65.5254 259.314 65.4467 259.329 65.3506C259.345 65.2539 259.315 65.1217 259.263 65.0563C259.211 64.9902 259.179 64.855 259.192 64.7559C259.23 64.4562 259.071 64.0236 258.922 64.0236C258.845 64.0236 258.779 63.9678 258.774 63.8987C258.745 63.4548 258.699 63.295 258.58 63.2217C258.507 63.176 258.435 63.0637 258.422 62.9718C258.408 62.8799 258.326 62.7267 258.24 62.6306C258.153 62.5345 258.082 62.4059 258.082 62.3446C258.082 62.2834 258.03 62.2011 257.966 62.162C257.89 62.1152 257.876 62.1386 257.924 62.2311C257.964 62.3086 257.927 62.2864 257.842 62.1818C257.757 62.0773 257.706 61.962 257.729 61.9247C257.752 61.8881 257.683 61.7944 257.576 61.7175C257.469 61.64 257.381 61.5271 257.381 61.467C257.381 61.3234 256.916 60.9185 256.839 60.9948C256.807 61.0273 256.78 61.0051 256.78 60.945C256.78 60.7654 256.059 60.0193 255.885 60.0193C255.796 60.0193 255.646 59.9292 255.552 59.8186C255.458 59.7087 255.305 59.6186 255.213 59.6186C255.121 59.6186 255.074 59.5892 255.11 59.5531C255.208 59.4558 254.859 59.2251 254.609 59.2215C254.488 59.2197 254.357 59.1663 254.318 59.1026C254.271 59.0263 254.295 59.0119 254.387 59.0599C254.464 59.1002 254.438 59.0599 254.327 58.9704C254.217 58.8809 254.048 58.8287 253.952 58.8533C253.842 58.8821 253.777 58.8425 253.777 58.7476C253.777 58.6569 253.719 58.6184 253.633 58.6509C253.554 58.6815 253.474 58.6617 253.456 58.6076C253.438 58.5529 253.324 58.5007 253.202 58.4917C253.081 58.4827 252.957 58.4118 252.927 58.3349C252.887 58.231 252.839 58.2225 252.741 58.3042C252.642 58.3865 252.551 58.3589 252.374 58.1943C252.226 58.0567 252.124 58.0183 252.1 58.091C252.072 58.1745 251.987 58.1787 251.793 58.1048C251.645 58.0483 251.513 58.0057 251.499 58.0099C251.3 58.0658 251.143 58.0009 251.274 57.9168C251.407 57.8303 251.407 57.8177 251.274 57.8032C250.923 57.766 249.89 57.6963 249.505 57.6837C249.276 57.6759 249.108 57.6374 249.132 57.5984C249.224 57.4494 245.653 57.5966 245.502 57.748C245.463 57.787 245.275 57.7894 245.084 57.754C244.837 57.7071 244.757 57.7215 244.808 57.8026C244.849 57.8699 244.812 57.9168 244.716 57.9168C244.613 57.9168 244.581 57.8711 244.629 57.7912C244.689 57.6915 244.673 57.6915 244.551 57.7906C244.466 57.8591 244.369 57.8867 244.334 57.8519C244.3 57.8177 244.152 57.8675 244.006 57.9636C243.831 58.0784 243.767 58.0916 243.819 58.0021C243.862 57.9276 243.767 57.9793 243.609 58.1168C243.45 58.2544 243.382 58.2874 243.457 58.1895C243.574 58.0363 243.571 58.0201 243.436 58.0724C243.35 58.1054 243.251 58.2063 243.216 58.297C243.164 58.434 243.139 58.4382 243.066 58.3211C242.995 58.2057 242.903 58.231 242.56 58.458C242.329 58.6106 242.177 58.6755 242.221 58.6016C242.326 58.4274 241.948 58.7115 241.831 58.8947C241.787 58.965 241.707 58.9957 241.655 58.9632C241.527 58.8839 241.146 59.0119 241.209 59.114C241.252 59.1825 241.011 59.3056 240.736 59.3549C240.695 59.3621 240.506 59.4925 240.316 59.6438C240.126 59.7952 239.91 59.919 239.835 59.919C239.76 59.919 239.539 60.0655 239.344 60.2445C239.148 60.4236 238.948 60.5749 238.899 60.5809C238.849 60.587 238.753 60.6999 238.685 60.8314C238.617 60.963 238.56 61.0255 238.557 60.9702C238.555 60.9149 238.507 60.9492 238.45 61.0453C238.394 61.1414 238.28 61.2207 238.197 61.2207C238.114 61.2207 238.066 61.2543 238.09 61.2958C238.114 61.3366 238.023 61.461 237.887 61.5709C237.332 62.0209 236.908 62.4528 236.934 62.5423C236.949 62.5945 236.921 62.612 236.872 62.5819C236.824 62.5513 236.703 62.6156 236.604 62.7249C236.506 62.8336 236.464 62.9225 236.513 62.9225C236.561 62.9225 236.5 62.9934 236.377 63.0793C236.253 63.1658 236.176 63.2745 236.205 63.3208C236.233 63.3677 236.18 63.3941 236.085 63.3803C235.99 63.3665 235.831 63.2097 235.732 63.0313C235.632 62.8534 235.604 62.7405 235.667 62.7796C235.73 62.8186 235.678 62.7093 235.55 62.5363C235.422 62.3633 235.273 62.2215 235.219 62.2215C235.166 62.2215 235.151 62.1921 235.187 62.156C235.277 62.0659 235.054 61.81 234.944 61.8773C234.896 61.9073 234.886 61.8545 234.922 61.7601C234.967 61.6436 234.951 61.6112 234.871 61.6604C234.805 61.7019 234.754 61.676 234.753 61.6022C234.752 61.5301 234.529 61.2724 234.256 61.0303C233.983 60.7882 233.783 60.5521 233.812 60.5059C233.84 60.4596 233.786 60.4518 233.691 60.4878C233.587 60.5281 233.544 60.5137 233.583 60.4518C233.674 60.304 233.096 59.7802 232.945 59.8733C232.859 59.9262 232.846 59.9087 232.903 59.8174C232.962 59.7213 232.939 59.7021 232.819 59.7484C232.707 59.7916 232.599 59.7309 232.49 59.5651C232.401 59.4294 232.268 59.3182 232.194 59.3182C232.121 59.3182 231.94 59.2059 231.791 59.0677C231.537 58.8329 231.411 58.7752 231.219 58.8076C231.175 58.8148 231.071 58.7524 230.986 58.6683C230.902 58.5842 230.792 58.5409 230.741 58.5722C230.691 58.6034 230.649 58.5788 230.649 58.5175C230.649 58.4556 230.604 58.4334 230.549 58.467C230.494 58.5013 230.449 58.4863 230.449 58.434C230.449 58.3811 230.379 58.3114 230.294 58.279C230.189 58.2388 230.162 58.2592 230.211 58.3433C230.251 58.4112 230.188 58.3841 230.072 58.282C229.956 58.1805 229.813 58.127 229.754 58.1631C229.696 58.1991 229.648 58.1781 229.648 58.1168C229.648 58.0555 229.607 58.0303 229.557 58.0616C229.506 58.0928 229.45 58.0724 229.431 58.0171C229.413 57.9612 229.207 57.9048 228.973 57.8909C228.739 57.8777 228.548 57.8327 228.548 57.7912C228.547 57.7504 228.4 57.7221 228.221 57.7288C228.042 57.7354 227.67 57.7095 227.395 57.6717C226.717 57.5774 224.03 57.5497 223.623 57.6332ZM282.688 57.5732C282.641 57.6194 281.022 57.7408 280.584 57.7306C280.432 57.727 280.308 57.7732 280.308 57.8327C280.308 57.9066 280.268 57.909 280.183 57.8405C280.026 57.7143 279.387 57.8026 279.471 57.9384C279.509 57.9997 279.451 58.0123 279.324 57.972C279.077 57.8934 278.388 58.0057 278.454 58.1138C278.479 58.1553 278.389 58.1763 278.252 58.1613C278.115 58.1463 277.936 58.2009 277.854 58.2826C277.764 58.3721 277.705 58.3865 277.705 58.3181C277.705 58.2562 277.66 58.2334 277.604 58.2682C277.547 58.3024 277.527 58.3727 277.559 58.4244C277.591 58.4754 277.569 58.5175 277.511 58.5175C277.452 58.5175 277.405 58.473 277.405 58.4196C277.405 58.3595 277.307 58.3661 277.154 58.4352C277.017 58.4983 276.904 58.5986 276.903 58.6587C276.902 58.7265 276.872 58.7217 276.824 58.646C276.764 58.5517 276.685 58.5559 276.473 58.6665C276.322 58.7446 276.188 58.8064 276.176 58.8034C276.127 58.7938 275.549 59.0677 275.502 59.123C275.428 59.2119 275.022 59.3771 274.809 59.4059C274.757 59.4126 274.656 59.4744 274.583 59.5435C274.318 59.7934 274.064 59.9664 274.135 59.8481C274.192 59.7538 274.157 59.7538 273.978 59.8481C273.582 60.0559 273.086 60.4392 273.14 60.4938C273.196 60.5491 272.704 60.9702 272.585 60.9702C272.465 60.9702 271.904 61.5655 271.901 61.6959C271.899 61.765 271.831 61.8214 271.748 61.8214C271.666 61.8214 271.598 61.8833 271.598 61.9596C271.598 62.0359 271.508 62.1218 271.397 62.1506C271.255 62.1879 271.216 62.2539 271.264 62.3789C271.31 62.499 271.294 62.5321 271.214 62.4828C271.139 62.436 271.097 62.4846 271.097 62.6162C271.097 62.7297 271.064 62.8114 271.022 62.7976C270.981 62.7838 270.94 62.8126 270.931 62.8613C270.921 62.9099 270.854 62.9874 270.781 63.0331C270.707 63.0781 270.647 63.1508 270.647 63.1941C270.647 63.2373 270.542 63.3779 270.414 63.5058C270.285 63.6344 270.206 63.805 270.238 63.8867C270.269 63.9684 270.25 64.0074 270.197 63.9738C270.085 63.9047 269.68 64.5186 269.757 64.6424C269.785 64.6874 269.767 64.7247 269.717 64.7247C269.569 64.7247 269.398 65.1884 269.507 65.2972C269.57 65.3596 269.54 65.4443 269.424 65.535C269.261 65.6636 269.257 65.6606 269.382 65.5008C269.463 65.3981 269.476 65.3254 269.414 65.3254C269.276 65.3254 269.162 65.6912 269.254 65.8402C269.294 65.9045 269.244 66.0168 269.141 66.0913C269.04 66.1658 268.993 66.2265 269.037 66.2265C269.082 66.2265 269.043 66.3406 268.952 66.4794C268.861 66.6187 268.812 66.7749 268.845 66.8272C268.876 66.8788 268.831 67.059 268.744 67.2278C268.657 67.396 268.618 67.5847 268.656 67.6465C268.701 67.7192 268.68 67.7312 268.597 67.6796C268.511 67.6267 268.484 67.6465 268.514 67.7385C268.539 67.8147 268.5 67.9367 268.427 68.01C268.265 68.1722 268.514 68.4906 268.709 68.3698C268.786 68.3224 268.798 68.3422 268.745 68.4281C268.684 68.526 268.73 68.5458 268.93 68.5074C269.076 68.4797 269.195 68.4954 269.195 68.5428C269.195 68.5903 269.243 68.6293 269.301 68.6293C269.359 68.6293 269.375 68.5728 269.337 68.5044C269.282 68.4077 269.295 68.4059 269.393 68.4966C269.463 68.5608 269.59 68.5873 269.674 68.5542C269.769 68.5182 269.803 68.5368 269.763 68.6017C269.671 68.7507 270.41 68.83 270.591 68.6906C270.698 68.6083 270.718 68.6089 270.667 68.6942C270.629 68.7573 270.668 68.8354 270.753 68.8678C270.841 68.902 270.881 68.8852 270.846 68.8282C270.813 68.7741 270.833 68.7296 270.891 68.7296C270.95 68.7296 270.997 68.7795 270.997 68.8402C270.997 68.9014 271.063 68.9255 271.144 68.8948C271.225 68.8636 271.318 68.8816 271.35 68.9339C271.383 68.9867 271.455 69.03 271.509 69.03C271.565 69.03 271.576 68.9735 271.535 68.9044C271.478 68.8113 271.5 68.8125 271.62 68.9098C271.883 69.1231 272.899 69.2673 272.901 69.0919C272.902 69.0126 272.924 69.0132 272.976 69.0955C273.017 69.1591 273.253 69.2378 273.5 69.2697C274.023 69.3382 274.333 69.3928 274.751 69.4913C274.917 69.5298 275.173 69.564 275.32 69.567C275.468 69.57 275.567 69.6067 275.541 69.6487C275.516 69.6908 275.665 69.7268 275.874 69.7286C276.55 69.7358 276.604 69.7418 276.604 69.8121C276.604 69.85 276.728 69.8842 276.879 69.8878C277.031 69.8914 277.262 69.9305 277.395 69.9743C277.598 70.0416 277.625 70.0272 277.568 69.8794C277.526 69.7671 277.594 69.5833 277.759 69.367C277.9 69.1814 277.985 69.03 277.948 69.03C277.911 69.03 277.932 68.9681 277.995 68.8924C278.058 68.8167 278.078 68.6738 278.04 68.5747C277.987 68.4365 278.009 68.4089 278.132 68.4557C278.251 68.502 278.282 68.4677 278.254 68.3205C278.233 68.2118 278.257 68.1481 278.306 68.1788C278.42 68.2497 278.594 67.9205 278.534 67.7499C278.508 67.6796 278.546 67.6345 278.617 67.6502C278.689 67.6658 278.749 67.6291 278.752 67.5697C278.755 67.5102 278.871 67.3522 279.012 67.2194C279.152 67.0861 279.186 67.0404 279.087 67.1179C278.985 67.1972 278.907 67.2134 278.907 67.1546C278.907 67.0969 279.064 66.9756 279.257 66.8842C279.45 66.7923 279.608 66.6536 279.608 66.5755C279.608 66.4836 279.667 66.4559 279.774 66.4968C279.884 66.5394 279.916 66.522 279.87 66.4469C279.827 66.3766 279.898 66.3076 280.054 66.2685C280.194 66.2337 280.308 66.1646 280.308 66.1153C280.308 66.0667 280.376 66.0264 280.458 66.0264C280.541 66.0264 280.608 65.985 280.608 65.9339C280.608 65.8835 280.755 65.8108 280.934 65.7723C281.113 65.7339 281.305 65.6672 281.359 65.6239C281.511 65.5038 282.197 65.4059 282.794 65.4191C283.087 65.4257 283.304 65.3945 283.277 65.35C283.249 65.3056 283.473 65.2797 283.774 65.2935C284.075 65.3074 284.3 65.2863 284.276 65.2467C284.252 65.2076 284.336 65.1752 284.463 65.1752C284.591 65.1752 284.676 65.204 284.654 65.2401C284.633 65.2755 284.794 65.3218 285.015 65.3428C285.245 65.3644 285.415 65.3374 285.416 65.2779C285.417 65.2215 285.461 65.2425 285.514 65.3254C285.579 65.4257 285.612 65.4341 285.613 65.3506C285.614 65.2815 285.662 65.2251 285.72 65.2251C285.779 65.2251 285.793 65.2815 285.752 65.3506C285.708 65.4233 285.755 65.4131 285.865 65.3254C285.969 65.2425 286.022 65.2275 285.984 65.2917C285.935 65.3728 286.029 65.4071 286.29 65.4029C286.497 65.3999 286.745 65.4311 286.841 65.4726C286.938 65.5134 287.084 65.5212 287.166 65.4894C287.249 65.4575 287.317 65.481 287.317 65.5404C287.317 65.6017 287.424 65.6287 287.564 65.6017C287.717 65.5723 287.787 65.5933 287.748 65.657C287.709 65.7189 287.749 65.7351 287.845 65.6984C287.932 65.6648 288.019 65.6684 288.036 65.7062C288.096 65.8378 289.129 66.3322 289.223 66.2739C289.274 66.2421 289.29 66.2859 289.257 66.3712C289.22 66.4691 289.253 66.5268 289.348 66.5268C289.431 66.5268 289.524 66.5941 289.555 66.677C289.587 66.7593 289.663 66.8272 289.724 66.8272C289.842 66.8272 290.12 67.0723 290.12 67.1762C290.12 67.211 290.064 67.211 289.995 67.1762C289.926 67.1413 289.948 67.1774 290.045 67.2561C290.141 67.3354 290.22 67.4273 290.22 67.4609C290.22 67.4946 290.333 67.7679 290.47 68.0683C290.607 68.3692 290.694 68.681 290.663 68.7621C290.633 68.8432 290.656 68.9399 290.715 68.9765C290.775 69.0132 290.795 69.0907 290.759 69.1477C290.724 69.2054 290.757 69.2919 290.833 69.34C290.933 69.403 290.937 69.4277 290.846 69.4289C290.776 69.4295 290.721 69.552 290.722 69.7058C290.723 69.9203 290.745 69.9479 290.821 69.8307C290.905 69.701 290.918 69.7034 290.919 69.8476C290.92 69.9395 290.864 70.035 290.796 70.0596C290.696 70.0957 290.696 70.1473 290.796 70.3167C290.951 70.5804 290.955 70.6645 290.807 70.5732C290.726 70.5228 290.706 70.6609 290.74 71.0634C290.765 71.3716 290.753 71.6029 290.712 71.5776C290.671 71.5518 290.509 71.5842 290.354 71.6485C290.198 71.7128 290.036 71.7578 289.995 71.7494C289.954 71.7404 289.919 71.8005 289.919 71.8834C289.919 71.9657 289.872 72.0336 289.814 72.0336C289.756 72.0336 289.736 71.9885 289.769 71.9332C289.847 71.8083 289.768 71.8059 289.543 71.926C289.34 72.0342 288.985 72.1531 288.93 72.1315C288.908 72.1231 288.857 72.1711 288.816 72.2378C288.775 72.3045 288.624 72.3586 288.481 72.3586C288.338 72.3586 288.17 72.421 288.106 72.4979C288.019 72.603 287.958 72.609 287.854 72.5231C287.753 72.4396 287.717 72.439 287.717 72.5219C287.717 72.5832 287.593 72.6349 287.442 72.6355C287.069 72.6373 286.708 72.7406 286.763 72.8295C286.788 72.8698 286.606 72.91 286.358 72.919C286.112 72.9286 285.832 72.9785 285.737 73.0301C285.504 73.1569 284.821 73.2812 284.513 73.2524C284.309 73.2332 284.29 73.2494 284.413 73.3401C284.532 73.4278 284.505 73.4386 284.288 73.3912C284.129 73.3563 284.013 73.3738 284.013 73.4332C284.013 73.4891 283.965 73.5353 283.906 73.5353C283.847 73.5353 283.835 73.4801 283.878 73.4098C283.924 73.3359 283.855 73.3503 283.709 73.4452C283.573 73.5335 283.361 73.59 283.237 73.5714C283.113 73.5522 283.011 73.5756 283.011 73.6231C283.011 73.6711 282.865 73.7096 282.686 73.7096C281.956 73.709 281.81 73.7378 281.81 73.8832C281.81 73.9967 281.756 74.0099 281.576 73.942C281.448 73.8928 281.281 73.891 281.206 73.9378C281.13 73.9847 281.031 73.9991 280.984 73.9703C280.938 73.942 280.789 73.9907 280.654 74.0796C280.473 74.1985 280.408 74.2076 280.407 74.1132C280.406 74.0255 280.382 74.0201 280.332 74.0958C280.291 74.1565 280.18 74.2124 280.083 74.2208C279.662 74.2574 279.608 74.2754 279.606 74.3776C279.605 74.4376 279.561 74.4184 279.507 74.3361C279.432 74.219 279.41 74.216 279.409 74.3229C279.408 74.41 279.335 74.4406 279.207 74.407C279.097 74.3782 279.007 74.3884 279.007 74.4292C279.007 74.4701 278.841 74.5103 278.639 74.5175C278.436 74.5253 278.224 74.5776 278.168 74.6341C278.112 74.6905 277.921 74.7368 277.744 74.7368C277.566 74.7368 277.407 74.7812 277.388 74.8359C277.37 74.8912 277.152 74.9639 276.904 74.9981C276.656 75.0323 276.425 75.1062 276.39 75.1615C276.355 75.2174 276.276 75.2318 276.215 75.1939C276.154 75.1561 276.103 75.1717 276.103 75.2282C276.103 75.2846 276.036 75.3051 275.953 75.2732C275.871 75.242 275.724 75.2504 275.628 75.293C275.422 75.3837 275.443 75.3771 275.027 75.4763C274.848 75.5189 274.702 75.6174 274.702 75.6955C274.702 75.7736 274.654 75.8379 274.595 75.8379C274.537 75.8379 274.516 75.7946 274.549 75.7418C274.583 75.6859 274.476 75.6919 274.295 75.755C274.058 75.8373 274.014 75.8871 274.117 75.9574C274.209 76.0223 274.181 76.0313 274.025 75.9875C273.867 75.943 273.781 75.9736 273.736 76.0896C273.685 76.2217 273.656 76.2284 273.588 76.1214C273.519 76.0133 273.503 76.0133 273.502 76.119C273.501 76.1911 273.455 76.2223 273.4 76.1887C273.346 76.1545 273.19 76.2464 273.055 76.3917C272.92 76.5377 272.767 76.6308 272.716 76.599C272.664 76.5672 272.567 76.6074 272.499 76.6891C272.432 76.7702 272.343 76.8165 272.302 76.7912C272.262 76.7666 272.134 76.8345 272.018 76.9426C271.902 77.0507 271.742 77.1396 271.664 77.1396C271.499 77.1396 271.272 77.3811 271.357 77.4658C271.416 77.5241 271.056 77.7566 270.986 77.7055C270.965 77.6905 270.744 77.8785 270.497 78.1236C270.249 78.3681 270.103 78.5369 270.171 78.4985C270.473 78.3309 270.261 78.5423 269.933 78.7357C269.734 78.8535 269.597 78.9766 269.63 79.0091C269.662 79.0415 269.588 79.1478 269.465 79.2445C269.341 79.3413 269.177 79.5833 269.099 79.7816C269.021 79.9804 268.918 80.1432 268.87 80.1432C268.822 80.1432 268.807 80.1835 268.838 80.2327C268.869 80.282 268.822 80.3499 268.734 80.3835C268.639 80.4195 268.598 80.5084 268.633 80.5998C268.666 80.6857 268.649 80.7277 268.596 80.6947C268.543 80.6622 268.472 80.7499 268.436 80.8899C268.401 81.0299 268.332 81.144 268.283 81.144C268.234 81.144 268.204 81.1782 268.215 81.2191C268.227 81.2605 268.179 81.3981 268.109 81.5249C267.849 81.994 267.694 82.5461 267.823 82.5473C267.897 82.5485 267.886 82.5863 267.793 82.6458C267.71 82.6992 267.688 82.7443 267.744 82.7461C267.798 82.7479 267.777 82.7912 267.697 82.8422C267.602 82.9017 267.556 83.0789 267.566 83.3408C267.575 83.5643 267.55 83.7475 267.509 83.7475C267.41 83.7475 267.403 83.8412 267.355 85.8242C267.332 86.7739 267.346 87.5308 267.386 87.5062C267.425 87.4821 267.454 87.6828 267.45 87.9531C267.444 88.3285 267.49 88.4823 267.643 88.6067C267.783 88.7202 267.795 88.7544 267.684 88.7202C267.56 88.6824 267.535 88.7268 267.572 88.922C267.608 89.1089 267.643 89.1383 267.71 89.038C267.768 88.9515 267.777 89.0019 267.736 89.1786C267.694 89.357 267.712 89.4543 267.787 89.4543C267.85 89.4543 267.889 89.5101 267.873 89.5792C267.833 89.7558 268.109 90.5554 268.21 90.5554C268.256 90.5554 268.294 90.6227 268.294 90.7056C268.294 90.7879 268.338 90.8557 268.391 90.8557C268.445 90.8557 268.462 90.9236 268.43 91.0059C268.399 91.0888 268.422 91.1561 268.484 91.1561C268.544 91.1561 268.594 91.2168 268.594 91.2907C268.594 91.3646 268.684 91.5057 268.792 91.6042C268.901 91.7028 268.966 91.8229 268.937 91.8704C268.907 91.9178 268.934 91.9569 268.995 91.9569C269.056 91.9569 269.079 92.0019 269.045 92.0572C269.011 92.1124 269.052 92.1575 269.136 92.1575C269.238 92.1575 269.268 92.2134 269.225 92.3251C269.175 92.4536 269.201 92.4771 269.334 92.4254C269.475 92.3713 269.496 92.3984 269.443 92.5654C269.393 92.7216 269.429 92.7852 269.587 92.8267C269.716 92.8603 269.796 92.9636 269.797 93.0952C269.799 93.2562 269.82 93.2748 269.886 93.1703C269.954 93.0634 269.991 93.0862 270.047 93.2706C270.148 93.6028 270.495 93.9596 270.719 93.9596C270.841 93.9596 270.895 94.0197 270.876 94.1326C270.86 94.2276 270.903 94.3063 270.97 94.3075C271.038 94.3087 271.166 94.4144 271.256 94.5417C271.35 94.6757 271.48 94.7502 271.563 94.7183C271.645 94.6871 271.681 94.7063 271.647 94.7616C271.613 94.8163 271.651 94.8607 271.73 94.8607C271.809 94.8607 271.929 94.9274 271.997 95.0097C272.066 95.0914 272.154 95.1382 272.195 95.113C272.235 95.0884 272.418 95.2127 272.602 95.3899C272.785 95.5665 272.902 95.644 272.86 95.5611C272.815 95.4704 272.841 95.48 272.927 95.5846C273.005 95.6801 273.099 95.7293 273.134 95.6933C273.17 95.6573 273.2 95.6855 273.2 95.7558C273.2 95.8255 273.263 95.8585 273.342 95.8285C273.42 95.7984 273.512 95.8489 273.548 95.9402C273.602 96.0832 273.624 96.0862 273.704 95.9588C273.764 95.8645 273.798 95.8555 273.799 95.9336C273.8 96.0009 273.868 96.0297 273.952 95.9979C274.065 95.954 274.086 95.9865 274.036 96.1258C273.999 96.2285 274.004 96.2802 274.047 96.2411C274.091 96.2021 274.26 96.2393 274.423 96.3234C274.587 96.4081 274.746 96.4514 274.778 96.4196C274.809 96.3883 274.775 96.3625 274.702 96.3625C274.628 96.3625 274.59 96.3397 274.617 96.3126C274.645 96.2856 274.842 96.3481 275.055 96.452C275.269 96.5553 275.502 96.6184 275.573 96.5908C275.645 96.5637 275.703 96.5938 275.703 96.658C275.703 96.7229 275.782 96.7674 275.878 96.7578C275.975 96.7476 276.075 96.7488 276.103 96.7596C276.131 96.7704 276.266 96.795 276.403 96.8148C276.542 96.8347 276.789 96.8743 276.954 96.9031C277.119 96.932 277.493 96.9638 277.784 96.9746C278.075 96.9854 278.331 97.0227 278.353 97.0581C278.454 97.2209 282.352 97.0629 283 96.8695C283.187 96.8142 283.376 96.7908 283.419 96.8172C283.462 96.8443 283.525 96.822 283.559 96.7686C283.592 96.7151 283.685 96.6965 283.766 96.7277C283.846 96.759 283.912 96.7439 283.912 96.6947C283.912 96.6454 283.992 96.6028 284.088 96.5992C284.359 96.5896 284.546 96.5241 284.693 96.3871C284.848 96.2442 285.154 96.2159 285.07 96.3529C285.039 96.4027 285.103 96.4202 285.213 96.3919C285.322 96.3631 285.39 96.3036 285.363 96.2604C285.336 96.2165 285.411 96.2063 285.53 96.2369C285.691 96.2796 285.725 96.2604 285.665 96.1625C285.609 96.0729 285.623 96.0549 285.705 96.1066C285.774 96.1486 285.91 96.1066 286.015 96.0117C286.118 95.9186 286.249 95.8705 286.306 95.9053C286.362 95.9408 286.5 95.8771 286.612 95.7654C286.724 95.653 286.816 95.5924 286.816 95.6308C286.816 95.6687 286.882 95.6122 286.963 95.5053C287.05 95.3893 287.111 95.3629 287.113 95.4398C287.116 95.5641 287.472 95.4452 287.617 95.271C287.783 95.0716 288.143 94.8289 288.077 94.9604C288.036 95.0433 288.095 95.0061 288.207 94.8781C288.32 94.7496 288.454 94.6709 288.505 94.7021C288.556 94.7334 288.624 94.6889 288.657 94.603C288.69 94.5177 288.758 94.4726 288.807 94.5033C288.857 94.5339 288.925 94.4889 288.957 94.403C288.99 94.3171 289.063 94.275 289.118 94.3093C289.173 94.3435 289.223 94.29 289.227 94.1909C289.232 94.0756 289.254 94.0576 289.287 94.1411C289.328 94.2432 289.381 94.2348 289.527 94.1026C289.631 94.0089 289.686 93.887 289.652 93.8305C289.616 93.7722 289.638 93.759 289.704 93.7998C289.772 93.8419 289.82 93.8083 289.82 93.7182C289.82 93.6232 289.877 93.5872 289.97 93.6226C290.052 93.6545 290.12 93.628 290.12 93.5638C290.12 93.4995 290.163 93.4737 290.217 93.5067C290.27 93.5397 290.416 93.4076 290.542 93.2136C290.668 93.0195 290.816 92.8603 290.872 92.8591C290.927 92.8585 291.029 92.7678 291.098 92.6579C291.167 92.548 291.293 92.4579 291.378 92.4579C291.463 92.4579 291.51 92.42 291.482 92.3744C291.454 92.3281 291.496 92.2909 291.576 92.2909C291.656 92.2909 291.699 92.3137 291.672 92.3413C291.644 92.3689 291.695 92.4723 291.784 92.5708C291.873 92.6699 291.922 92.8141 291.892 92.8922C291.862 92.9703 291.888 93.0844 291.95 93.1463C292.012 93.2081 292.033 93.2586 291.997 93.2586C291.92 93.2586 292.179 94.1651 292.397 94.6601C292.59 95.095 292.638 95.2626 292.636 95.4885C292.635 95.5858 292.666 95.6464 292.704 95.6236C292.742 95.6002 292.778 95.7143 292.784 95.8777C292.79 96.0405 292.853 96.2273 292.924 96.2934C293.025 96.3871 293.042 96.3805 293.001 96.2622C292.955 96.13 293.528 96.115 297.842 96.139C300.957 96.1558 302.735 96.2015 302.735 96.264C302.735 96.318 302.777 96.3625 302.828 96.3625C302.949 96.3625 302.832 95.9612 302.498 95.232C302.353 94.9142 302.234 94.5856 302.234 94.5015C302.234 94.4168 302.197 94.3711 302.151 94.3994C302.105 94.4282 302.068 94.3141 302.068 94.1465C302.068 93.9789 302.011 93.8071 301.942 93.7644C301.873 93.7218 301.823 93.6467 301.831 93.598C301.879 93.3097 301.6 92.6765 301.447 92.7246C301.311 92.7678 301.308 92.7594 301.428 92.6747C301.545 92.5912 301.55 92.5233 301.453 92.3101C301.387 92.1659 301.333 91.9569 301.333 91.8463C301.333 91.7178 301.291 91.6709 301.216 91.7172C301.138 91.7652 301.12 91.7358 301.161 91.6289C301.195 91.5406 301.176 91.3189 301.12 91.1369C301.064 90.9549 301 90.6257 300.979 90.4052C300.933 89.9234 300.865 89.5864 300.786 89.4609C300.755 89.4098 300.776 89.3389 300.833 89.3041C300.89 89.2687 300.917 89.2092 300.894 89.1719C300.719 88.886 300.619 78.2834 300.741 72.9346C300.768 71.7686 300.666 68.8906 300.565 67.9787C300.54 67.7583 300.521 67.4489 300.523 67.2903C300.525 67.1323 300.478 66.9125 300.419 66.8025C300.36 66.692 300.315 66.3598 300.318 66.0637C300.321 65.7675 300.282 65.5254 300.231 65.5254C300.18 65.5254 300.166 65.4533 300.2 65.3656C300.233 65.2773 300.201 65.168 300.129 65.1235C300.056 65.0785 299.981 64.9451 299.964 64.8268C299.946 64.7091 299.972 64.6376 300.022 64.6688C300.072 64.6994 300.065 64.5673 300.005 64.3745C299.947 64.1816 299.856 64.0236 299.804 64.0236C299.752 64.0236 299.737 63.954 299.769 63.8687C299.808 63.7671 299.789 63.7377 299.713 63.7846C299.635 63.8326 299.619 63.8014 299.661 63.6896C299.703 63.5791 299.674 63.5232 299.572 63.5232C299.488 63.5232 299.444 63.4824 299.476 63.4319C299.555 63.3034 299.428 63.0126 299.321 63.0787C299.273 63.1088 299.26 63.0631 299.292 62.9778C299.325 62.8919 299.3 62.8222 299.235 62.8222C299.171 62.8222 299.143 62.7832 299.173 62.7351C299.203 62.6871 299.115 62.5267 298.979 62.3795C298.842 62.2317 298.73 62.0713 298.73 62.0221C298.73 61.9734 298.678 61.9007 298.615 61.8617C298.543 61.8178 298.526 61.834 298.57 61.9049C298.615 61.9776 298.587 61.9986 298.493 61.9626C298.412 61.9314 298.32 61.8394 298.289 61.7583C298.252 61.6628 298.276 61.6328 298.356 61.6736C298.483 61.7391 298.123 61.4123 297.71 61.0892C297.583 60.9894 297.546 60.9408 297.629 60.9804C297.711 61.0201 297.671 60.9342 297.539 60.7894C297.407 60.6446 297.261 60.5497 297.214 60.5785C297.167 60.608 297.128 60.5852 297.128 60.5287C297.128 60.4722 297.06 60.4518 296.977 60.4836C296.864 60.5269 296.843 60.4962 296.894 60.3641C296.938 60.2488 296.924 60.2103 296.854 60.2536C296.793 60.2902 296.73 60.286 296.711 60.2433C296.644 60.0872 296.101 59.7231 296.015 59.776C295.967 59.806 295.927 59.7802 295.927 59.7189C295.927 59.657 295.882 59.6348 295.827 59.6685C295.772 59.7027 295.727 59.6877 295.727 59.6354C295.727 59.5832 295.535 59.4636 295.301 59.3699C295.068 59.2768 294.854 59.1705 294.826 59.1338C294.716 58.9903 294.311 58.8142 294.22 58.8707C294.167 58.9038 293.988 58.8341 293.823 58.7169C293.658 58.5992 293.366 58.4947 293.174 58.4851C292.981 58.4754 292.824 58.4304 292.823 58.3853C292.823 58.3403 292.733 58.3319 292.623 58.3673C292.513 58.4022 292.423 58.3871 292.423 58.3343C292.423 58.2814 292.353 58.2117 292.267 58.1787C292.163 58.1384 292.136 58.1595 292.184 58.243C292.224 58.3114 292.17 58.294 292.065 58.2051C291.857 58.0303 291.707 57.9997 291.034 57.9955C290.749 57.9937 290.645 57.9624 290.734 57.906C290.828 57.8465 290.762 57.8129 290.52 57.7984C289.373 57.7288 289.084 57.7125 288.268 57.6711C287.772 57.6459 287.366 57.6194 287.366 57.6116C287.366 57.5744 282.724 57.5365 282.688 57.5732ZM312.533 58.3931C305.858 58.422 306.053 58.3998 306.673 59.0575C306.86 59.2558 306.991 59.4186 306.962 59.4186C306.934 59.4186 307.032 59.5309 307.181 59.6685C307.329 59.8066 307.424 59.919 307.392 59.919C307.337 59.919 307.422 60.0367 307.711 60.3611C307.778 60.435 307.8 60.5311 307.761 60.5737C307.722 60.617 307.745 60.6206 307.812 60.5827C307.915 60.5233 308.195 60.9029 308.264 61.1943C308.273 61.2363 308.373 61.3529 308.486 61.4532C308.599 61.5541 308.627 61.6022 308.547 61.5607C308.463 61.5163 308.497 61.6178 308.63 61.8046C308.755 61.98 308.898 62.0984 308.949 62.0677C308.999 62.0365 309.015 62.0761 308.985 62.1554C308.953 62.2395 309.077 62.4432 309.287 62.6462C309.482 62.8366 309.643 63.0661 309.643 63.1556C309.643 63.2451 309.753 63.3899 309.886 63.4776C310.019 63.5647 310.176 63.7707 310.233 63.9347C310.364 64.3126 310.737 64.8412 310.831 64.7829C310.87 64.7589 310.961 64.8712 311.032 65.0328C311.104 65.1944 311.2 65.3032 311.247 65.2743C311.294 65.2455 311.364 65.2749 311.404 65.3392C311.449 65.4125 311.433 65.4299 311.361 65.3849C311.125 65.2389 311.255 65.5164 311.521 65.7249C311.672 65.8438 311.728 65.9117 311.646 65.8762C311.547 65.8336 311.556 65.8606 311.671 65.9549C311.767 66.0336 311.846 66.1466 311.846 66.2054C311.846 66.2649 311.936 66.3418 312.046 66.3766C312.156 66.4115 312.246 66.4848 312.246 66.5394C312.246 66.5941 312.19 66.6103 312.121 66.5755C312.052 66.5406 312.075 66.5767 312.171 66.6554C312.267 66.7347 312.347 66.8728 312.347 66.9635C312.347 67.0536 312.389 67.1275 312.44 67.1275C312.491 67.1275 312.562 67.2176 312.596 67.3276C312.632 67.4381 312.725 67.5282 312.804 67.5282C312.933 67.5282 312.991 67.6496 312.959 67.8532C312.953 67.8946 312.989 67.9283 313.04 67.9283C313.092 67.9283 313.162 68.0184 313.197 68.1289C313.233 68.2389 313.325 68.329 313.403 68.329C313.48 68.329 313.573 68.4527 313.609 68.6041C313.644 68.7555 313.812 69.0258 313.98 69.2048C314.15 69.3838 314.256 69.5304 314.217 69.5304C314.178 69.5304 314.265 69.71 314.409 69.9293C314.56 70.1557 314.722 70.3005 314.787 70.2639C314.849 70.2284 314.867 70.235 314.828 70.2783C314.722 70.3954 314.941 70.7486 315.07 70.6693C315.139 70.6267 315.152 70.6471 315.104 70.724C315.018 70.864 315.43 71.3566 315.565 71.2737C315.641 71.2262 315.667 71.3037 315.641 71.4965C315.637 71.532 315.676 71.5878 315.729 71.6215C315.781 71.6551 315.926 71.8858 316.051 72.1333C316.309 72.6451 316.6 73.0428 316.72 73.05C316.765 73.0524 316.792 73.0914 316.779 73.1371C316.767 73.1821 316.889 73.3599 317.05 73.5323C317.211 73.7048 317.37 73.9324 317.403 74.0375C317.436 74.1433 317.597 74.3553 317.758 74.5079C317.921 74.6611 318.053 74.8659 318.053 74.9638C318.053 75.0654 318.17 75.1867 318.325 75.2456C318.522 75.3207 318.561 75.3711 318.465 75.43C318.368 75.4907 318.431 75.6078 318.716 75.8932C318.926 76.1034 319.108 76.3449 319.121 76.4296C319.133 76.5143 319.21 76.632 319.291 76.6915C319.421 76.7858 319.418 76.8153 319.272 76.9234C319.18 76.9913 319.168 77.0159 319.245 76.9774C319.336 76.9324 319.36 76.9486 319.314 77.0237C319.275 77.0874 319.175 77.1396 319.093 77.1396C319.01 77.1396 318.968 77.1805 318.999 77.2303C319.075 77.3535 318.957 77.64 318.831 77.64C318.775 77.64 318.791 77.5613 318.867 77.4646C318.991 77.306 318.987 77.3024 318.83 77.4262C318.735 77.5013 318.678 77.5986 318.706 77.643C318.733 77.6869 318.72 77.7379 318.675 77.7566C318.631 77.7752 318.462 77.968 318.299 78.1855C318.136 78.4029 318.071 78.5405 318.153 78.4906C318.236 78.4408 318.179 78.5477 318.028 78.7285C317.877 78.9093 317.753 79.1238 317.753 79.2055C317.753 79.2872 317.715 79.3298 317.667 79.301C317.62 79.2722 317.531 79.3593 317.469 79.4956C317.408 79.6314 317.311 79.7425 317.254 79.7425C317.198 79.7425 317.151 79.8212 317.15 79.9179C317.149 80.0141 317.054 80.2057 316.941 80.3432C316.827 80.4808 316.768 80.5301 316.809 80.4532C316.859 80.3571 316.844 80.3366 316.76 80.3877C316.693 80.4297 316.662 80.5259 316.691 80.6028C316.72 80.679 316.712 80.7367 316.673 80.7307C316.477 80.7013 316.418 80.7571 316.552 80.8436C316.682 80.9283 316.68 80.941 316.538 80.9422C316.449 80.9434 316.314 81.0227 316.238 81.1194C316.111 81.281 316.115 81.2828 316.292 81.144C316.473 81.0016 316.476 81.0052 316.347 81.2131C316.272 81.3332 316.185 81.4155 316.154 81.3963C316.123 81.3771 315.993 81.52 315.866 81.7141C315.738 81.9081 315.694 82.0349 315.768 81.9952C315.841 81.9556 315.783 82.0294 315.638 82.1592C315.282 82.4818 314.939 83.0032 315.028 83.0909C315.067 83.1306 315.032 83.148 314.949 83.13C314.85 83.1077 314.81 83.1594 314.831 83.2819C314.849 83.3853 314.818 83.4399 314.763 83.4051C314.649 83.3348 314.506 83.5234 314.501 83.7475C314.5 83.8298 314.439 83.8851 314.366 83.87C314.293 83.855 314.262 83.8887 314.297 83.9451C314.332 84.0016 314.314 84.0479 314.257 84.0479C314.201 84.0479 314.184 84.1223 314.219 84.2142C314.26 84.3212 314.244 84.3566 314.173 84.3128C314.112 84.2755 314.036 84.3278 314.005 84.4287C313.973 84.5296 313.822 84.7447 313.669 84.9057C313.123 85.486 312.789 85.993 313.003 85.9173C313.183 85.8542 313.185 85.859 313.024 85.9846C312.928 86.059 312.883 86.1564 312.924 86.2008C312.964 86.2459 312.921 86.2549 312.827 86.2212C312.7 86.1756 312.673 86.2014 312.719 86.3216C312.764 86.4387 312.744 86.4603 312.647 86.4002C312.548 86.3396 312.53 86.3624 312.577 86.4843C312.611 86.5757 312.597 86.6507 312.544 86.6507C312.49 86.6507 312.446 86.718 312.446 86.8009C312.446 86.8832 312.398 86.9511 312.338 86.9511C312.212 86.9511 311.855 87.3524 311.847 87.502C311.844 87.5566 311.688 87.7789 311.498 87.9951C311.31 88.2114 311.178 88.4259 311.206 88.4709C311.234 88.516 311.206 88.5532 311.145 88.5532C311.083 88.5532 311.061 88.5983 311.095 88.6529C311.129 88.7082 311.086 88.7532 311.001 88.7532C310.915 88.7532 310.845 88.8097 310.845 88.8794C310.845 88.9485 310.748 89.0656 310.63 89.1395C310.456 89.2482 310.442 89.2909 310.555 89.3624C310.667 89.4339 310.661 89.4513 310.522 89.4525C310.403 89.4537 310.37 89.5053 310.414 89.6207C310.457 89.7324 310.44 89.7636 310.361 89.715C310.291 89.6717 310.244 89.7048 310.244 89.7985C310.244 89.8844 310.209 89.9547 310.165 89.9547C310.122 89.9547 310.007 90.0898 309.909 90.255C309.812 90.4202 309.759 90.5554 309.791 90.5554C309.824 90.5554 309.691 90.714 309.497 90.908C309.303 91.1026 309.155 91.3165 309.168 91.3838C309.182 91.4511 309.136 91.4955 309.067 91.4817C308.999 91.4679 308.942 91.5243 308.942 91.6066C308.942 91.6895 308.89 91.7568 308.826 91.7568C308.761 91.7568 308.739 91.7869 308.775 91.8229C308.811 91.8595 308.75 91.9527 308.64 92.0301C308.529 92.1076 308.461 92.208 308.489 92.2536C308.518 92.2993 308.471 92.3635 308.385 92.3966C308.299 92.429 308.257 92.5017 308.291 92.5564C308.325 92.6116 308.23 92.7702 308.081 92.909C307.932 93.0472 307.836 93.1871 307.869 93.2196C307.901 93.252 307.794 93.4094 307.63 93.5692C307.467 93.7284 307.369 93.8605 307.412 93.8623C307.455 93.8641 307.419 93.9206 307.332 93.9879C307.156 94.123 306.887 94.5712 306.917 94.6793C306.927 94.7171 306.846 94.7766 306.738 94.8108C306.628 94.8457 306.539 94.961 306.539 95.0674C306.539 95.1737 306.493 95.2608 306.436 95.2608C306.38 95.2608 306.303 95.3401 306.266 95.4362C306.229 95.5323 306.12 95.6969 306.022 95.802C305.7 96.1486 305.911 96.1619 311.682 96.1619C316.006 96.1619 317.442 96.1913 317.533 96.282C317.626 96.3757 317.653 96.3667 317.653 96.243C317.653 96.1553 317.723 96.0561 317.809 96.0231C317.895 95.9901 317.94 95.9216 317.909 95.8705C317.877 95.8195 317.917 95.7119 317.997 95.6314C318.078 95.5509 318.116 95.4572 318.082 95.423C318.048 95.3887 318.068 95.3611 318.127 95.3611C318.252 95.3611 318.682 94.6751 318.685 94.4714C318.686 94.3952 318.77 94.3111 318.871 94.2846C318.972 94.2582 319.054 94.1543 319.054 94.0539C319.054 93.953 319.106 93.8389 319.17 93.7998C319.242 93.7554 319.258 93.7722 319.214 93.8437C319.175 93.9074 319.166 93.9596 319.195 93.9596C319.224 93.9596 319.299 93.8623 319.363 93.744C319.464 93.5536 319.457 93.5367 319.293 93.5998C319.122 93.6653 319.123 93.6551 319.306 93.4779C319.415 93.3715 319.538 93.3031 319.579 93.3265C319.619 93.3499 319.623 93.2916 319.587 93.1973C319.542 93.0808 319.559 93.049 319.638 93.0976C319.708 93.1415 319.755 93.1078 319.755 93.0141C319.755 92.7156 319.939 92.4386 320.081 92.5239C320.122 92.5492 320.156 92.4993 320.156 92.4134C320.156 92.3275 320.203 92.2572 320.262 92.2572C320.32 92.2572 320.34 92.2122 320.306 92.1575C320.272 92.1022 320.295 92.0572 320.356 92.0572C320.417 92.0572 320.436 92.0049 320.396 91.9418C320.352 91.8698 320.369 91.8529 320.441 91.8974C320.51 91.94 320.597 91.8752 320.656 91.7376C320.781 91.4475 320.957 91.1741 321.182 90.917C321.305 90.7777 321.323 90.6966 321.244 90.6473C321.172 90.6028 321.209 90.5524 321.344 90.5097C321.491 90.4629 321.558 90.3584 321.559 90.1733C321.56 89.9805 321.585 89.9439 321.648 90.043C321.716 90.1505 321.752 90.1301 321.809 89.9505C321.849 89.8237 321.965 89.6309 322.067 89.5216C322.168 89.4128 322.231 89.2903 322.205 89.25C322.18 89.2092 322.339 88.9905 322.559 88.7641C322.779 88.5376 322.959 88.2853 322.959 88.2024C322.959 88.1201 322.997 88.0522 323.042 88.0522C323.143 88.0522 323.406 87.5795 323.408 87.3944C323.409 87.3211 323.59 87.07 323.81 86.8364C324.03 86.6021 324.155 86.4447 324.086 86.4861C324.002 86.5372 323.982 86.5108 324.024 86.4014C324.057 86.3137 324.108 86.2645 324.136 86.2927C324.2 86.3576 324.561 85.9053 324.561 85.7587C324.561 85.6986 324.608 85.6494 324.665 85.6494C324.723 85.6494 324.757 85.5707 324.741 85.4745C324.723 85.3718 324.766 85.3106 324.844 85.3268C324.917 85.3418 324.951 85.313 324.92 85.2631C324.889 85.2126 324.93 85.1165 325.011 85.0486C325.093 84.9814 325.13 84.8792 325.095 84.8216C325.059 84.7645 325.079 84.7471 325.138 84.7837C325.196 84.8204 325.264 84.7933 325.287 84.7243C325.311 84.6552 325.428 84.7897 325.548 85.024C325.668 85.2577 325.81 85.4493 325.864 85.4493C325.919 85.4493 325.962 85.5202 325.962 85.6067C325.962 85.877 326.46 86.6267 326.677 86.6832C326.791 86.7132 326.857 86.7799 326.825 86.8322C326.793 86.8844 326.878 87.0923 327.015 87.2941C327.152 87.496 327.264 87.705 327.264 87.7597C327.264 87.8137 327.332 87.8846 327.414 87.9159C327.497 87.9477 327.564 88.0384 327.564 88.1177C327.564 88.1976 327.688 88.3802 327.84 88.5244C327.991 88.6679 328.059 88.7538 327.991 88.7142C327.757 88.579 327.974 88.9365 328.227 89.1023C328.362 89.1906 328.445 89.3059 328.413 89.3582C328.38 89.411 328.409 89.4543 328.476 89.4543C328.544 89.4543 328.57 89.4831 328.535 89.518C328.46 89.593 328.771 90.1547 328.888 90.1547C328.931 90.1547 328.966 90.2226 328.966 90.3049C328.966 90.3878 329.036 90.4551 329.122 90.4551C329.208 90.4551 329.25 90.5007 329.216 90.556C329.182 90.6113 329.224 90.6839 329.31 90.717C329.395 90.7494 329.44 90.8173 329.41 90.8672C329.379 90.9164 329.419 90.9825 329.499 91.0131C329.579 91.0438 329.672 91.2042 329.705 91.3694C329.744 91.5664 329.806 91.6445 329.883 91.597C329.961 91.5484 329.981 91.576 329.941 91.6793C329.909 91.7652 329.958 91.9214 330.05 92.0265C330.142 92.1323 330.269 92.3059 330.333 92.4128C330.397 92.5203 330.494 92.5978 330.549 92.5858C330.604 92.5738 330.676 92.6327 330.707 92.7162C330.743 92.8087 330.724 92.8429 330.659 92.8027C330.601 92.7666 330.612 92.8321 330.685 92.948C330.757 93.0634 330.85 93.1583 330.892 93.1583C330.934 93.1583 330.969 93.2274 330.969 93.3121C330.969 93.3962 331.036 93.4911 331.118 93.5223C331.201 93.5542 331.244 93.6184 331.214 93.6659C331.186 93.7127 331.332 93.9272 331.541 94.1417C331.749 94.3567 331.906 94.6018 331.889 94.6871C331.872 94.7724 331.913 94.8757 331.98 94.9166C332.063 94.9682 332.076 94.9478 332.021 94.8511C331.963 94.7508 331.972 94.74 332.052 94.8126C332.114 94.8691 332.183 95.0265 332.206 95.1629C332.228 95.2992 332.29 95.4026 332.342 95.3917C332.394 95.3809 332.438 95.426 332.439 95.4921C332.445 95.8213 333.071 96.583 333.071 96.2604C333.071 96.1925 335.075 96.1679 339.116 96.1853C344.291 96.2081 345.152 96.1919 345.105 96.0705C345.068 95.9726 345.092 95.9546 345.184 96.0111C345.273 96.0657 345.293 96.0543 345.244 95.9756C345.204 95.9114 345.134 95.8813 345.089 95.9096C345.043 95.9378 344.979 95.8909 344.947 95.8056C344.908 95.7041 344.93 95.6729 345.012 95.7137C345.079 95.7486 345.029 95.6831 344.899 95.569C344.769 95.4548 344.692 95.3611 344.727 95.3611C344.763 95.3611 344.744 95.2716 344.685 95.1617C344.627 95.0523 344.524 94.9736 344.457 94.9869C344.389 95.0001 344.332 94.9208 344.33 94.8102C344.327 94.7003 344.275 94.6204 344.213 94.6324C344.152 94.6445 344.052 94.5135 343.992 94.3405C343.932 94.1681 343.853 94.057 343.817 94.093C343.781 94.129 343.671 93.9789 343.572 93.759C343.474 93.5385 343.346 93.3589 343.288 93.3589C343.23 93.3589 343.183 93.2754 343.183 93.1733C343.183 93.0718 343.051 92.8868 342.889 92.763C342.728 92.6393 342.616 92.4867 342.641 92.423C342.665 92.3593 342.572 92.1857 342.433 92.0368C342.295 91.8878 342.182 91.7382 342.182 91.7046C342.182 91.6709 342.046 91.5291 341.879 91.3892C341.713 91.2492 341.589 91.0612 341.604 90.9705C341.619 90.8798 341.575 90.8167 341.506 90.8305C341.437 90.8443 341.386 90.8221 341.393 90.7807C341.434 90.5175 341.377 90.407 341.275 90.5554C341.189 90.6797 341.176 90.6707 341.196 90.5055C341.229 90.2466 341.013 89.8544 340.837 89.8544C340.709 89.8544 340.582 89.6609 340.523 89.3738C340.479 89.1599 340.178 88.7466 340.024 88.6872C339.945 88.6571 339.905 88.5917 339.936 88.5424C339.966 88.4931 339.918 88.4529 339.829 88.4529C339.74 88.4529 339.69 88.4162 339.717 88.3718C339.779 88.2715 339.435 87.729 339.358 87.8059C339.328 87.836 339.275 87.7891 339.242 87.7014C339.201 87.5957 339.22 87.5656 339.296 87.6131C339.361 87.6527 339.326 87.5662 339.22 87.4215C339.114 87.2761 338.994 87.1559 338.953 87.1547C338.912 87.1529 338.878 87.0809 338.878 86.995C338.878 86.9097 338.837 86.864 338.788 86.8946C338.74 86.9247 338.67 86.8358 338.636 86.6958C338.6 86.5564 338.528 86.4693 338.475 86.5024C338.385 86.5576 338.344 86.4357 338.403 86.2867C338.416 86.2519 338.327 86.1858 338.204 86.1401C338.07 86.0909 338.002 86.0014 338.034 85.9185C338.064 85.8392 337.978 85.7082 337.835 85.6139C337.665 85.5028 337.604 85.3947 337.647 85.2817C337.695 85.1574 337.67 85.1297 337.552 85.1754C337.392 85.2367 337.229 85.006 337.324 84.8522C337.351 84.809 337.272 84.6648 337.149 84.5314C336.615 83.9523 336.378 83.6237 336.43 83.5384C336.462 83.488 336.439 83.4471 336.381 83.4471C336.322 83.4471 336.275 83.3919 336.275 83.3252C336.275 83.2579 336.159 83.1035 336.018 82.9822C335.877 82.8608 335.773 82.7467 335.786 82.7287C335.825 82.6788 335.447 82.1136 335.275 81.9628C335.143 81.8474 335.142 81.8402 335.273 81.9075C335.439 81.9928 335.025 81.4071 334.505 80.8184C334.322 80.6118 334.172 80.3955 334.172 80.3384C334.172 80.2808 334.049 80.1156 333.897 79.9714C333.746 79.8278 333.689 79.7431 333.772 79.784C333.855 79.8248 333.821 79.7684 333.697 79.659C333.573 79.5497 333.471 79.4109 333.471 79.3509C333.471 79.2908 333.427 79.2421 333.373 79.2421C333.319 79.2421 333.247 79.1292 333.212 78.9916C333.178 78.8541 333.109 78.7411 333.06 78.7411C333.011 78.7411 332.97 78.6853 332.969 78.6162C332.968 78.5471 332.856 78.3849 332.719 78.2552C332.582 78.1254 332.47 77.9578 332.47 77.8821C332.47 77.8064 332.362 77.6737 332.23 77.5872C332.098 77.5007 331.935 77.2976 331.868 77.136C331.801 76.9738 331.706 76.8663 331.658 76.8963C331.609 76.9264 331.569 76.8633 331.569 76.7558C331.569 76.6483 331.502 76.5341 331.419 76.5023C331.336 76.471 331.27 76.3869 331.27 76.3167C331.271 76.2272 331.301 76.2338 331.369 76.3383C331.473 76.4987 331.518 76.3749 331.475 76.0529C331.464 75.9785 331.504 75.9478 331.563 75.9839C331.621 76.0205 331.669 75.9779 331.669 75.8895C331.669 75.8012 331.771 75.624 331.894 75.4955C332.237 75.1411 332.47 74.8431 332.47 74.7596C332.47 74.7182 332.562 74.6274 332.674 74.5572C332.786 74.4869 332.853 74.389 332.822 74.3391C332.792 74.2892 332.838 74.2082 332.925 74.1595C333.012 74.1108 333.095 73.9955 333.108 73.903C333.122 73.8111 333.22 73.6645 333.327 73.578C333.434 73.4909 333.457 73.4537 333.379 73.4939C333.289 73.5414 333.307 73.4747 333.429 73.3119C333.535 73.1707 333.647 73.0704 333.677 73.0884C333.707 73.107 333.789 73.0295 333.859 72.9172C333.964 72.7496 333.963 72.7262 333.855 72.7857C333.781 72.8253 333.846 72.746 333.997 72.609C334.148 72.4727 334.273 72.3141 334.273 72.2576C334.273 72.2012 334.343 72.1279 334.429 72.0948C334.515 72.0618 334.557 71.9891 334.523 71.9338C334.489 71.8786 334.509 71.8329 334.567 71.8329C334.625 71.8329 334.673 71.7705 334.673 71.6936C334.673 71.6167 334.785 71.4479 334.921 71.3181C335.058 71.1884 335.171 70.9919 335.173 70.882C335.176 70.7252 335.196 70.7126 335.266 70.8231C335.332 70.9283 335.388 70.8568 335.48 70.5498C335.55 70.3149 335.682 70.1101 335.785 70.0776C335.902 70.0404 335.943 69.9623 335.904 69.8506C335.87 69.7569 335.878 69.7124 335.92 69.7509C336.007 69.8289 336.275 69.6001 336.275 69.4481C336.275 69.3952 336.34 69.3267 336.42 69.2961C336.499 69.2655 336.637 69.0919 336.725 68.9098C336.864 68.6245 336.864 68.6059 336.73 68.7735C336.645 68.8804 336.575 68.9123 336.575 68.8438C336.575 68.7759 336.71 68.6431 336.876 68.5494C337.041 68.4557 337.157 68.3266 337.132 68.2623C337.108 68.198 337.154 68.1205 337.233 68.0899C337.313 68.0592 337.432 67.9091 337.498 67.7559C337.647 67.4111 337.935 67.0188 337.995 67.0789C338.055 67.1383 338.634 66.2114 338.603 66.1075C338.589 66.0631 338.612 66.0372 338.652 66.0511C338.694 66.0649 338.746 66.0312 338.768 65.976C338.79 65.9213 338.88 65.821 338.968 65.7543C339.105 65.6498 339.107 65.6312 338.978 65.6275C338.892 65.6245 338.934 65.5675 339.078 65.4936C339.232 65.4137 339.316 65.2954 339.297 65.1848C339.278 65.0773 339.308 65.0316 339.372 65.0707C339.43 65.1073 339.478 65.0665 339.478 64.9812C339.478 64.8953 339.531 64.825 339.596 64.825C339.66 64.825 339.685 64.7974 339.651 64.7643C339.618 64.7307 339.704 64.5985 339.843 64.47C339.982 64.3414 340.106 64.1774 340.119 64.1053C340.149 63.9467 340.581 63.2229 340.646 63.2229C340.671 63.2229 340.659 63.2794 340.619 63.3478C340.578 63.4169 340.64 63.3899 340.756 63.2884C340.872 63.1868 340.942 63.0409 340.913 62.9634C340.879 62.8763 340.924 62.8222 341.031 62.8222C341.141 62.8222 341.182 62.7693 341.145 62.6732C341.114 62.5915 341.12 62.5351 341.159 62.5483C341.198 62.5615 341.25 62.5273 341.273 62.472C341.297 62.4167 341.376 62.3122 341.449 62.2395C341.521 62.1668 341.581 62.0437 341.581 61.9668C341.581 61.8893 341.694 61.7517 341.831 61.6616C341.969 61.5715 342.082 61.4562 342.082 61.4045C342.082 61.3535 342.195 61.1979 342.334 61.0591C342.472 60.9204 342.561 60.7666 342.53 60.7167C342.499 60.6668 342.562 60.5719 342.669 60.5053C342.775 60.4386 342.842 60.3304 342.817 60.265C342.792 60.1989 342.868 60.1202 342.987 60.089C343.106 60.0577 343.174 59.9856 343.139 59.9286C343.104 59.8715 343.189 59.7249 343.329 59.6036C343.469 59.4816 343.583 59.3339 343.582 59.275C343.581 59.2161 343.537 59.2359 343.483 59.3182C343.41 59.4324 343.386 59.436 343.385 59.3339C343.384 59.26 343.473 59.1759 343.583 59.147C343.743 59.1056 344.184 58.5613 344.184 58.4052C344.184 58.3841 341.508 58.3673 338.237 58.3673C334.965 58.3673 332.307 58.3955 332.329 58.431C332.35 58.4658 332.274 58.5193 332.159 58.5493C332.043 58.5794 331.976 58.6472 332.009 58.7001C332.042 58.7536 332.001 58.8227 331.919 58.8539C331.837 58.8857 331.769 58.9951 331.769 59.0972C331.769 59.1999 331.658 59.3879 331.522 59.5159C331.386 59.6432 331.296 59.7814 331.321 59.8228C331.347 59.8643 331.301 59.9238 331.22 59.955C331.128 59.9898 331.097 60.0763 331.137 60.1821C331.178 60.289 331.163 60.328 331.097 60.2872C331.039 60.2512 330.936 60.2884 330.867 60.3707C330.799 60.4524 330.781 60.5197 330.825 60.5197C330.87 60.5197 330.819 60.5906 330.712 60.6771C330.605 60.7642 330.585 60.8002 330.668 60.7576C330.751 60.7155 330.67 60.8302 330.488 61.0141C330.306 61.1973 330.179 61.4075 330.208 61.4808C330.236 61.5547 330.209 61.6454 330.148 61.6833C330.075 61.7277 330.065 61.7061 330.117 61.6208C330.17 61.5361 330.16 61.5139 330.087 61.5589C330.026 61.5968 330.002 61.6935 330.032 61.7746C330.065 61.8605 330.031 61.9211 329.949 61.9211C329.804 61.9211 329.436 62.4576 329.522 62.5441C329.549 62.5711 329.503 62.6504 329.419 62.7201C329.335 62.7898 329.266 62.9117 329.266 62.991C329.266 63.0697 329.227 63.11 329.177 63.0793C329.068 63.012 328.737 63.495 328.811 63.6146C328.84 63.662 328.763 63.7281 328.64 63.7623C328.465 63.8098 328.446 63.8434 328.554 63.9125C328.663 63.9828 328.645 64.017 328.473 64.0717C328.352 64.1101 328.201 64.2615 328.137 64.4081C327.96 64.816 327.534 65.4611 327.352 65.5975C327.263 65.6642 327.107 65.8895 327.006 66.0979C326.826 66.4667 326.802 66.531 326.776 66.7154C326.769 66.7641 326.662 66.8314 326.538 66.8656C326.368 66.9125 326.346 66.9485 326.447 67.0134C326.548 67.0789 326.527 67.1137 326.361 67.157C326.241 67.1882 326.17 67.2573 326.202 67.3107C326.235 67.3636 326.19 67.4345 326.102 67.4681C326.012 67.5024 325.967 67.5943 325.998 67.676C326.028 67.7565 326.004 67.8526 325.943 67.8904C325.875 67.9325 325.86 67.9139 325.903 67.8436C325.942 67.7805 325.956 67.7282 325.933 67.7282C325.91 67.7282 325.764 67.9307 325.607 68.1788C325.31 68.6485 325.222 68.7068 325.102 68.514C325.056 68.4395 325.074 68.4257 325.154 68.4743C325.243 68.5296 325.241 68.4936 325.145 68.3392C325.073 68.2238 324.954 68.1289 324.881 68.1289C324.809 68.1289 324.778 68.0827 324.813 68.0268C324.888 67.9049 324.321 67.1011 324.226 67.1954C324.19 67.2315 324.16 67.2086 324.16 67.1444C324.16 66.9527 324.131 66.8842 323.993 66.7449C323.919 66.6722 323.86 66.5484 323.86 66.4697C323.86 66.3911 323.812 66.3268 323.754 66.3268C323.696 66.3268 323.676 66.2817 323.71 66.2265C323.744 66.1712 323.699 66.1261 323.61 66.1261C323.52 66.1261 323.472 66.0865 323.502 66.0378C323.532 65.9892 323.468 65.836 323.358 65.6966C323.249 65.5579 323.159 65.3981 323.159 65.3416C323.159 65.2851 323.021 65.1404 322.852 65.0202C322.652 64.8779 322.567 64.7481 322.606 64.646C322.639 64.5607 322.607 64.4544 322.537 64.4111C322.466 64.3672 322.407 64.2964 322.405 64.2525C322.397 64.0765 322.142 63.7215 322.06 63.7725C322.011 63.8026 321.939 63.7743 321.899 63.7095C321.854 63.6362 321.87 63.6194 321.942 63.6638C322.006 63.7029 322.058 63.6878 322.058 63.6296C322.058 63.5707 321.986 63.5232 321.897 63.5232C321.795 63.5232 321.757 63.468 321.794 63.3731C321.825 63.2902 321.805 63.2229 321.748 63.2229C321.692 63.2229 321.67 63.1826 321.701 63.134C321.731 63.0847 321.644 62.9712 321.506 62.8811C321.369 62.791 321.257 62.6546 321.257 62.5771C321.257 62.4996 321.187 62.3657 321.1 62.2798C321.014 62.1939 320.964 62.0887 320.99 62.0473C321.052 61.9446 320.795 61.7157 320.712 61.7992C320.675 61.8352 320.675 61.7878 320.712 61.6929C320.75 61.5944 320.731 61.5211 320.667 61.5211C320.606 61.5211 320.556 61.4508 320.556 61.3649C320.556 61.279 320.516 61.2333 320.466 61.264C320.417 61.2946 320.35 61.2495 320.317 61.1648C320.278 61.0627 320.301 61.0315 320.382 61.0723C320.45 61.1072 320.428 61.0711 320.332 60.993C320.237 60.9143 320.187 60.8218 320.221 60.7876C320.256 60.7527 320.213 60.6975 320.126 60.6638C320.039 60.6302 319.939 60.4728 319.904 60.3136C319.869 60.1544 319.711 59.8859 319.553 59.7165C319.395 59.5471 319.263 59.3879 319.26 59.3633C319.257 59.3387 319.255 59.2684 319.255 59.2077C319.255 59.1464 319.19 59.1212 319.112 59.1512C318.962 59.2089 318.815 58.9614 318.91 58.8088C318.941 58.7584 318.915 58.7175 318.854 58.7175C318.793 58.7175 318.765 58.6815 318.792 58.6376C318.939 58.3992 318.16 58.3685 312.533 58.3931ZM290.721 79.1779C290.721 79.8591 290.763 80.2483 290.846 80.3378C290.947 80.4478 290.943 80.4568 290.821 80.3889C290.691 80.3162 290.69 80.3282 290.808 80.4742C290.897 80.5847 290.906 80.6436 290.833 80.6436C290.771 80.6436 290.721 80.8034 290.721 80.9998C290.721 81.2557 290.756 81.3362 290.846 81.2858C290.946 81.2293 290.946 81.2419 290.846 81.35C290.777 81.4239 290.721 81.5909 290.721 81.7207C290.721 81.8829 290.76 81.9333 290.846 81.8817C290.943 81.8234 290.945 81.8396 290.855 81.9508C290.792 82.0307 290.738 82.4331 290.735 82.8464C290.732 83.2591 290.705 83.7096 290.675 83.8472C290.645 83.9854 290.598 84.2587 290.573 84.4557C290.547 84.6528 290.46 84.9423 290.378 85.0991C290.297 85.2565 290.253 85.4217 290.281 85.4673C290.309 85.5124 290.279 85.5496 290.214 85.5496C290.147 85.5496 290.118 85.6331 290.148 85.7461C290.177 85.8548 290.153 85.9335 290.097 85.9215C290.04 85.9095 289.986 85.99 289.975 86.0999C289.965 86.2104 289.824 86.4369 289.662 86.6039C289.115 87.1704 288.618 87.7681 288.618 87.8606C288.618 87.911 288.562 87.9531 288.493 87.9537C288.424 87.9549 288.215 88.0901 288.029 88.2541C287.842 88.4186 287.631 88.5532 287.558 88.5532C287.486 88.5532 287.381 88.6319 287.324 88.728C287.269 88.8247 287.221 88.8698 287.219 88.8283C287.218 88.7869 287.123 88.847 287.008 88.9611C286.894 89.0758 286.736 89.1443 286.658 89.1143C286.577 89.083 286.516 89.1203 286.516 89.2014C286.516 89.2885 286.44 89.3275 286.315 89.3041C286.205 89.2825 286.115 89.3065 286.115 89.3564C286.115 89.4068 286.052 89.4236 285.975 89.3942C285.898 89.3648 285.805 89.3894 285.768 89.4489C285.731 89.5083 285.659 89.5318 285.608 89.4999C285.557 89.4681 285.514 89.4885 285.514 89.545C285.514 89.6015 285.439 89.6195 285.348 89.584C285.242 89.5438 285.206 89.56 285.248 89.6279C285.291 89.6976 285.238 89.7156 285.099 89.6795C284.98 89.6483 284.908 89.6639 284.939 89.7138C284.97 89.7642 284.875 89.8117 284.729 89.8201C284.498 89.8327 284.218 89.8736 283.612 89.9829C283.53 89.9979 283.399 90.0496 283.321 90.0982C283.231 90.1541 283.204 90.1487 283.244 90.0832C283.284 90.0183 283.079 89.9721 282.684 89.9565C281.581 89.9138 281.509 89.906 281.509 89.8303C281.509 89.7895 281.409 89.7715 281.284 89.7913C281.16 89.8105 280.953 89.7432 280.822 89.6417C280.692 89.5402 280.545 89.4813 280.497 89.5113C280.448 89.5414 280.408 89.5198 280.408 89.4633C280.408 89.4068 280.341 89.3864 280.258 89.4176C280.17 89.4519 280.108 89.4188 280.108 89.3383C280.108 89.2627 279.88 89.0927 279.602 88.9605C279.293 88.8139 279.038 88.6091 278.948 88.4361C278.868 88.2805 278.768 88.1525 278.728 88.1525C278.687 88.1525 278.607 88.051 278.551 87.9273C278.495 87.8035 278.395 87.7128 278.331 87.726C278.266 87.7386 278.235 87.6924 278.262 87.6221C278.289 87.5518 278.222 87.3998 278.114 87.2839C278.006 87.1674 277.938 87.0514 277.964 87.0262C277.989 87.0004 277.942 86.9229 277.858 86.8532C277.774 86.7835 277.705 86.6453 277.705 86.5468C277.705 86.2741 277.595 86.0446 277.494 86.1065C277.445 86.1371 277.405 86.1143 277.405 86.056C277.405 85.9978 277.444 85.9497 277.491 85.9497C277.539 85.9497 277.556 85.838 277.53 85.701C277.503 85.5641 277.438 85.4794 277.383 85.5124C277.329 85.546 277.336 85.4776 277.399 85.3598C277.473 85.2228 277.481 85.0871 277.421 84.9808C277.369 84.8876 277.364 84.6906 277.41 84.5296C277.455 84.3728 277.497 84.2112 277.503 84.171C277.595 83.5445 277.912 82.7461 278.067 82.7461C278.141 82.7461 278.23 82.6338 278.264 82.4962C278.299 82.3592 278.362 82.2679 278.403 82.2938C278.445 82.3196 278.564 82.2439 278.668 82.1256C278.789 81.9874 278.803 81.9405 278.707 81.9952C278.61 82.0499 278.623 82.003 278.745 81.8649C278.848 81.7465 278.968 81.6708 279.009 81.6967C279.051 81.7225 279.111 81.6762 279.143 81.5939C279.175 81.5116 279.269 81.4444 279.354 81.4444C279.438 81.4444 279.507 81.4041 279.507 81.3554C279.507 81.3062 279.622 81.2371 279.761 81.2023C279.901 81.1668 279.996 81.105 279.97 81.0647C279.945 81.0239 280.034 80.9392 280.167 80.8767C280.332 80.7986 280.408 80.7962 280.408 80.8689C280.408 80.9271 280.506 80.8893 280.626 80.7842C280.763 80.6634 280.812 80.6484 280.759 80.7439C280.708 80.8346 280.767 80.8148 280.909 80.6935C281.038 80.5835 281.111 80.5499 281.07 80.6184C280.96 80.8064 281.116 80.7692 281.281 80.5685C281.36 80.4724 281.396 80.4496 281.361 80.5187C281.326 80.5871 281.346 80.6436 281.404 80.6436C281.462 80.6436 281.509 80.5961 281.509 80.5373C281.509 80.479 281.553 80.4586 281.607 80.4916C281.66 80.5247 281.816 80.479 281.952 80.3895C282.089 80.3 282.225 80.2309 282.256 80.2351C282.53 80.2748 282.811 80.2243 282.762 80.1444C282.727 80.0873 282.767 80.0705 282.856 80.1048C282.942 80.1378 283.091 80.13 283.187 80.0879C283.283 80.0459 283.497 79.993 283.662 79.9714C283.828 79.9492 284.014 79.8639 284.078 79.781C284.155 79.6807 284.216 79.6662 284.26 79.7383C284.297 79.7972 284.38 79.8128 284.445 79.772C284.606 79.6716 284.819 79.6266 285.095 79.6344C285.221 79.638 285.305 79.6074 285.279 79.5665C285.254 79.5257 285.33 79.4836 285.449 79.4722C286.104 79.4121 286.633 79.2932 286.915 79.1424C287.032 79.0799 287.181 79.0481 287.247 79.0715C287.313 79.095 287.488 79.0535 287.636 78.9784C287.783 78.9039 287.973 78.8691 288.056 78.9009C288.14 78.9334 288.265 78.9238 288.335 78.8805C288.406 78.8373 288.554 78.7964 288.666 78.7898C289.224 78.7574 289.326 78.7339 289.273 78.648C289.241 78.597 289.267 78.5237 289.328 78.4852C289.391 78.4468 289.47 78.46 289.506 78.5147C289.604 78.6691 290.52 78.3681 290.52 78.1819C290.52 78.0978 290.565 78.0563 290.621 78.0906C290.677 78.1254 290.721 78.6024 290.721 79.1779Z" fill="#0A0A0A"/>
<path fill-rule="evenodd" clip-rule="evenodd" d="M204.267 77.3397C204.267 87.7194 204.279 91.9658 204.293 86.7757C204.307 81.5861 204.307 73.0932 204.293 67.9036C204.279 62.7135 204.267 66.9599 204.267 77.3397Z" fill="#0A0A0A"/>
</g>
<defs>
<clipPath id="clip0_235_691">
<rect width="240.286" height="70" fill="white" transform="translate(105 44)"/>
</clipPath>
</defs>
</svg>
