<svg width="330" height="150" viewBox="0 0 330 150" fill="none" xmlns="http://www.w3.org/2000/svg">
<path d="M114.624 102.029V28.0143H165.04L176.289 39.1618V65.6747L167.852 74.1106L179.101 102.029H160.22L150.478 76.8221H133.405V102.029H114.624ZM133.405 62.5614H154.495L158.01 59.0465V45.79L154.495 42.2751H133.405V62.5614ZM189.163 102.029V28.0143H238.575L249.723 39.1618V56.9375L244.701 62.0593L252.635 69.4909V90.882L241.487 102.029H189.163ZM207.943 56.7366H228.231L231.746 53.2217V45.79L228.231 42.2751H207.943V56.7366ZM207.943 87.7688H230.34L233.855 84.2538V73.3072L230.34 69.7922H207.943V87.7688ZM256.083 102.029L277.776 28.0143H308.307L330 102.029H310.115L306.399 87.2666H279.684L275.968 102.029H256.083ZM283.4 72.805H302.683L294.849 42.1746H291.233L283.4 72.805Z" fill="#0A0A0A"/>
<path d="M118.443 109.577C119.242 109.577 119.901 109.673 120.419 109.866C120.941 110.059 121.329 110.35 121.582 110.74C121.834 111.129 121.961 111.621 121.961 112.216C121.961 112.617 121.885 112.969 121.732 113.27C121.58 113.571 121.379 113.826 121.13 114.035C120.881 114.244 120.611 114.415 120.322 114.547L122.913 118.385H120.84L118.738 115.005H117.744V118.385H115.876V109.577H118.443ZM118.31 111.107H117.744V113.487H118.346C118.965 113.487 119.407 113.384 119.672 113.18C119.941 112.971 120.075 112.666 120.075 112.264C120.075 111.846 119.931 111.549 119.642 111.372C119.356 111.196 118.912 111.107 118.31 111.107ZM131.479 115.005C131.479 115.567 131.402 116.066 131.25 116.499C131.101 116.933 130.882 117.3 130.593 117.602C130.308 117.899 129.962 118.124 129.557 118.276C129.155 118.429 128.701 118.505 128.195 118.505C127.721 118.505 127.286 118.429 126.888 118.276C126.494 118.124 126.151 117.899 125.858 117.602C125.568 117.3 125.343 116.933 125.183 116.499C125.026 116.066 124.948 115.567 124.948 115.005C124.948 114.258 125.08 113.625 125.345 113.107C125.611 112.589 125.988 112.196 126.478 111.926C126.968 111.657 127.553 111.523 128.231 111.523C128.862 111.523 129.42 111.657 129.906 111.926C130.396 112.196 130.78 112.589 131.057 113.107C131.338 113.625 131.479 114.258 131.479 115.005ZM126.822 115.005C126.822 115.447 126.87 115.818 126.966 116.119C127.063 116.421 127.213 116.648 127.418 116.8C127.623 116.953 127.89 117.029 128.219 117.029C128.545 117.029 128.808 116.953 129.009 116.8C129.214 116.648 129.362 116.421 129.454 116.119C129.551 115.818 129.599 115.447 129.599 115.005C129.599 114.559 129.551 114.19 129.454 113.897C129.362 113.599 129.214 113.376 129.009 113.228C128.804 113.079 128.537 113.005 128.207 113.005C127.721 113.005 127.368 113.171 127.147 113.505C126.93 113.838 126.822 114.338 126.822 115.005ZM136.315 109.011V111.192C136.315 111.444 136.307 111.695 136.291 111.945C136.279 112.194 136.263 112.386 136.243 112.523H136.315C136.492 112.246 136.733 112.011 137.038 111.818C137.343 111.621 137.739 111.523 138.225 111.523C138.98 111.523 139.593 111.818 140.063 112.409C140.532 112.999 140.767 113.864 140.767 115.005C140.767 115.772 140.659 116.417 140.442 116.939C140.225 117.457 139.922 117.849 139.532 118.114C139.143 118.375 138.691 118.505 138.177 118.505C137.683 118.505 137.293 118.417 137.008 118.24C136.723 118.063 136.492 117.865 136.315 117.644H136.189L135.881 118.385H134.478V109.011H136.315ZM137.635 112.993C137.313 112.993 137.058 113.059 136.87 113.192C136.681 113.324 136.542 113.523 136.454 113.788C136.369 114.053 136.323 114.389 136.315 114.794V114.993C136.315 115.648 136.412 116.15 136.604 116.499C136.797 116.845 137.148 117.017 137.659 117.017C138.036 117.017 138.336 116.843 138.556 116.493C138.781 116.144 138.894 115.64 138.894 114.981C138.894 114.322 138.781 113.826 138.556 113.493C138.332 113.159 138.024 112.993 137.635 112.993ZM149.887 115.005C149.887 115.567 149.811 116.066 149.658 116.499C149.51 116.933 149.291 117.3 149.002 117.602C148.717 117.899 148.371 118.124 147.965 118.276C147.564 118.429 147.11 118.505 146.604 118.505C146.13 118.505 145.694 118.429 145.297 118.276C144.903 118.124 144.56 117.899 144.266 117.602C143.977 117.3 143.752 116.933 143.592 116.499C143.435 116.066 143.356 115.567 143.356 115.005C143.356 114.258 143.489 113.625 143.754 113.107C144.019 112.589 144.397 112.196 144.887 111.926C145.377 111.657 145.961 111.523 146.64 111.523C147.271 111.523 147.829 111.657 148.315 111.926C148.805 112.196 149.189 112.589 149.466 113.107C149.747 113.625 149.887 114.258 149.887 115.005ZM145.23 115.005C145.23 115.447 145.278 115.818 145.375 116.119C145.471 116.421 145.622 116.648 145.827 116.8C146.032 116.953 146.299 117.029 146.628 117.029C146.953 117.029 147.216 116.953 147.417 116.8C147.622 116.648 147.771 116.421 147.863 116.119C147.959 115.818 148.008 115.447 148.008 115.005C148.008 114.559 147.959 114.19 147.863 113.897C147.771 113.599 147.622 113.376 147.417 113.228C147.212 113.079 146.945 113.005 146.616 113.005C146.13 113.005 145.777 113.171 145.556 113.505C145.339 113.838 145.23 114.338 145.23 115.005ZM155.724 117.041C155.925 117.041 156.12 117.021 156.308 116.981C156.501 116.941 156.692 116.891 156.881 116.83V118.198C156.684 118.286 156.439 118.359 156.146 118.415C155.856 118.475 155.539 118.505 155.194 118.505C154.792 118.505 154.431 118.441 154.109 118.313C153.792 118.18 153.541 117.953 153.356 117.632C153.176 117.307 153.085 116.855 153.085 116.276V113.029H152.206V112.252L153.218 111.637L153.748 110.215H154.923V111.649H156.809V113.029H154.923V116.276C154.923 116.533 154.995 116.726 155.14 116.855C155.288 116.979 155.483 117.041 155.724 117.041ZM161.566 111.649V118.385H159.729V111.649H161.566ZM160.651 109.011C160.924 109.011 161.159 109.075 161.356 109.203C161.552 109.328 161.651 109.563 161.651 109.908C161.651 110.25 161.552 110.487 161.356 110.619C161.159 110.748 160.924 110.812 160.651 110.812C160.374 110.812 160.137 110.748 159.94 110.619C159.747 110.487 159.651 110.25 159.651 109.908C159.651 109.563 159.747 109.328 159.94 109.203C160.137 109.075 160.374 109.011 160.651 109.011ZM167.716 118.505C167.05 118.505 166.481 118.385 166.011 118.144C165.541 117.899 165.184 117.521 164.939 117.011C164.694 116.501 164.571 115.849 164.571 115.053C164.571 114.23 164.71 113.559 164.987 113.041C165.268 112.519 165.656 112.135 166.15 111.89C166.648 111.645 167.224 111.523 167.879 111.523C168.345 111.523 168.747 111.569 169.084 111.661C169.425 111.75 169.723 111.856 169.976 111.981L169.433 113.402C169.144 113.286 168.875 113.192 168.626 113.119C168.377 113.043 168.128 113.005 167.879 113.005C167.558 113.005 167.291 113.081 167.078 113.234C166.865 113.382 166.706 113.607 166.602 113.909C166.497 114.21 166.445 114.587 166.445 115.041C166.445 115.487 166.501 115.857 166.614 116.15C166.726 116.443 166.889 116.662 167.102 116.806C167.315 116.947 167.574 117.017 167.879 117.017C168.261 117.017 168.6 116.967 168.897 116.867C169.194 116.762 169.483 116.618 169.765 116.433V118.005C169.483 118.182 169.188 118.308 168.879 118.385C168.574 118.465 168.186 118.505 167.716 118.505ZM174.649 109.011V113.204C174.649 113.457 174.639 113.71 174.619 113.963C174.599 114.216 174.577 114.469 174.553 114.722H174.577C174.702 114.545 174.828 114.371 174.957 114.198C175.089 114.025 175.23 113.858 175.378 113.698L177.264 111.649H179.337L176.662 114.571L179.499 118.385H177.379L175.438 115.656L174.649 116.288V118.385H172.812V109.011H174.649ZM180.98 111.649H182.992L184.264 115.439C184.304 115.559 184.338 115.682 184.366 115.806C184.394 115.931 184.418 116.059 184.438 116.192C184.458 116.324 184.474 116.463 184.486 116.608H184.522C184.546 116.391 184.579 116.188 184.619 115.999C184.663 115.81 184.717 115.624 184.781 115.439L186.029 111.649H187.999L185.149 119.246C184.976 119.712 184.751 120.1 184.474 120.409C184.197 120.722 183.878 120.957 183.516 121.114C183.159 121.271 182.765 121.349 182.336 121.349C182.127 121.349 181.946 121.337 181.793 121.313C181.641 121.293 181.51 121.271 181.402 121.246V119.789C181.486 119.809 181.592 119.827 181.721 119.843C181.849 119.859 181.984 119.867 182.125 119.867C182.382 119.867 182.603 119.813 182.787 119.704C182.972 119.596 183.127 119.449 183.251 119.264C183.376 119.084 183.474 118.885 183.546 118.668L183.655 118.337L180.98 111.649ZM186.86 108.932V109.059C186.744 109.171 186.591 109.31 186.402 109.475C186.213 109.639 186.01 109.812 185.794 109.993C185.577 110.169 185.364 110.34 185.155 110.505C184.946 110.665 184.763 110.8 184.607 110.908H183.384V110.746C183.516 110.593 183.669 110.412 183.842 110.203C184.018 109.991 184.193 109.772 184.366 109.547C184.538 109.322 184.683 109.117 184.8 108.932H186.86ZM195.28 109.577H198.021C199.194 109.577 200.081 109.742 200.684 110.071C201.287 110.4 201.588 110.979 201.588 111.806C201.588 112.139 201.533 112.441 201.425 112.71C201.32 112.979 201.168 113.2 200.967 113.372C200.766 113.545 200.521 113.658 200.232 113.71V113.77C200.525 113.83 200.79 113.935 201.027 114.083C201.264 114.228 201.453 114.441 201.594 114.722C201.738 114.999 201.811 115.369 201.811 115.831C201.811 116.364 201.68 116.822 201.419 117.204C201.158 117.586 200.784 117.879 200.298 118.084C199.816 118.284 199.242 118.385 198.575 118.385H195.28V109.577ZM197.147 113.065H198.232C198.774 113.065 199.15 112.981 199.359 112.812C199.567 112.64 199.672 112.386 199.672 112.053C199.672 111.716 199.547 111.475 199.298 111.33C199.053 111.182 198.664 111.107 198.13 111.107H197.147V113.065ZM197.147 114.547V116.843H198.364C198.927 116.843 199.318 116.734 199.539 116.517C199.76 116.3 199.87 116.009 199.87 115.644C199.87 115.427 199.822 115.236 199.726 115.071C199.63 114.907 199.467 114.778 199.238 114.686C199.013 114.593 198.702 114.547 198.304 114.547H197.147ZM207.665 111.511C208.569 111.511 209.262 111.708 209.744 112.101C210.226 112.495 210.467 113.093 210.467 113.897V118.385H209.183L208.828 117.469H208.78C208.587 117.71 208.39 117.907 208.189 118.059C207.988 118.212 207.757 118.325 207.496 118.397C207.236 118.469 206.918 118.505 206.545 118.505C206.147 118.505 205.79 118.429 205.472 118.276C205.159 118.124 204.912 117.891 204.731 117.578C204.55 117.26 204.46 116.859 204.46 116.373C204.46 115.658 204.711 115.132 205.213 114.794C205.715 114.453 206.468 114.264 207.472 114.228L208.641 114.192V113.897C208.641 113.543 208.549 113.284 208.364 113.119C208.179 112.955 207.922 112.872 207.593 112.872C207.268 112.872 206.948 112.919 206.635 113.011C206.322 113.103 206.008 113.22 205.695 113.36L205.087 112.119C205.444 111.93 205.844 111.782 206.285 111.673C206.731 111.565 207.191 111.511 207.665 111.511ZM208.641 115.264L207.93 115.288C207.336 115.304 206.922 115.411 206.689 115.608C206.46 115.804 206.346 116.064 206.346 116.385C206.346 116.666 206.428 116.867 206.593 116.987C206.757 117.104 206.972 117.162 207.238 117.162C207.631 117.162 207.962 117.045 208.232 116.812C208.505 116.579 208.641 116.248 208.641 115.818V115.264ZM216.683 117.041C216.884 117.041 217.078 117.021 217.267 116.981C217.46 116.941 217.651 116.891 217.84 116.83V118.198C217.643 118.286 217.398 118.359 217.104 118.415C216.815 118.475 216.498 118.505 216.153 118.505C215.751 118.505 215.389 118.441 215.068 118.313C214.751 118.18 214.5 117.953 214.315 117.632C214.134 117.307 214.044 116.855 214.044 116.276V113.029H213.164V112.252L214.176 111.637L214.707 110.215H215.882V111.649H217.767V113.029H215.882V116.276C215.882 116.533 215.954 116.726 216.098 116.855C216.247 116.979 216.442 117.041 216.683 117.041ZM223.525 117.041C223.726 117.041 223.921 117.021 224.11 116.981C224.303 116.941 224.493 116.891 224.682 116.83V118.198C224.485 118.286 224.24 118.359 223.947 118.415C223.658 118.475 223.341 118.505 222.995 118.505C222.594 118.505 222.232 118.441 221.911 118.313C221.593 118.18 221.342 117.953 221.158 117.632C220.977 117.307 220.887 116.855 220.887 116.276V113.029H220.007V112.252L221.019 111.637L221.549 110.215H222.724V111.649H224.61V113.029H222.724V116.276C222.724 116.533 222.796 116.726 222.941 116.855C223.09 116.979 223.284 117.041 223.525 117.041ZM229.368 118.385H227.53V109.011H229.368V118.385ZM235.56 111.523C236.183 111.523 236.719 111.643 237.169 111.884C237.619 112.121 237.966 112.467 238.211 112.921C238.456 113.374 238.578 113.929 238.578 114.583V115.475H234.235C234.255 115.993 234.409 116.401 234.699 116.698C234.992 116.991 235.397 117.138 235.915 117.138C236.345 117.138 236.739 117.094 237.096 117.005C237.454 116.917 237.821 116.784 238.199 116.608V118.029C237.866 118.194 237.516 118.315 237.151 118.391C236.789 118.467 236.349 118.505 235.831 118.505C235.156 118.505 234.558 118.381 234.036 118.132C233.517 117.883 233.11 117.503 232.813 116.993C232.519 116.483 232.373 115.841 232.373 115.065C232.373 114.278 232.505 113.623 232.771 113.101C233.04 112.575 233.413 112.182 233.891 111.92C234.369 111.655 234.925 111.523 235.56 111.523ZM235.572 112.83C235.214 112.83 234.917 112.945 234.68 113.173C234.447 113.402 234.313 113.762 234.277 114.252H236.855C236.851 113.979 236.801 113.736 236.705 113.523C236.612 113.31 236.472 113.141 236.283 113.017C236.098 112.893 235.861 112.83 235.572 112.83ZM250.065 111.523C250.784 111.523 251.362 111.72 251.8 112.113C252.238 112.503 252.456 113.129 252.456 113.993V118.385H250.619V114.451C250.619 113.969 250.531 113.605 250.354 113.36C250.181 113.115 249.908 112.993 249.535 112.993C248.972 112.993 248.589 113.184 248.384 113.565C248.179 113.947 248.077 114.497 248.077 115.216V118.385H246.239V111.649H247.643L247.89 112.511H247.992C248.137 112.278 248.316 112.089 248.528 111.945C248.745 111.8 248.984 111.693 249.245 111.625C249.51 111.557 249.784 111.523 250.065 111.523ZM258.588 111.511C259.492 111.511 260.185 111.708 260.667 112.101C261.149 112.495 261.39 113.093 261.39 113.897V118.385H260.106L259.751 117.469H259.703C259.51 117.71 259.313 117.907 259.112 118.059C258.912 118.212 258.681 118.325 258.42 118.397C258.158 118.469 257.841 118.505 257.468 118.505C257.07 118.505 256.712 118.429 256.395 118.276C256.082 118.124 255.835 117.891 255.654 117.578C255.473 117.26 255.383 116.859 255.383 116.373C255.383 115.658 255.634 115.132 256.136 114.794C256.638 114.453 257.391 114.264 258.395 114.228L259.564 114.192V113.897C259.564 113.543 259.472 113.284 259.287 113.119C259.102 112.955 258.845 112.872 258.516 112.872C258.191 112.872 257.871 112.919 257.558 113.011C257.245 113.103 256.931 113.22 256.618 113.36L256.01 112.119C256.367 111.93 256.767 111.782 257.209 111.673C257.655 111.565 258.114 111.511 258.588 111.511ZM259.564 115.264L258.853 115.288C258.259 115.304 257.845 115.411 257.612 115.608C257.383 115.804 257.269 116.064 257.269 116.385C257.269 116.666 257.351 116.867 257.516 116.987C257.681 117.104 257.895 117.162 258.16 117.162C258.554 117.162 258.886 117.045 259.155 116.812C259.428 116.579 259.564 116.248 259.564 115.818V115.264ZM274.991 118.385L274.352 116.288H271.141L270.502 118.385H268.49L271.599 109.541H273.882L277.003 118.385H274.991ZM273.906 114.722L273.268 112.674C273.227 112.537 273.173 112.362 273.105 112.149C273.041 111.932 272.975 111.714 272.906 111.493C272.842 111.268 272.79 111.073 272.75 110.908C272.709 111.073 272.653 111.278 272.581 111.523C272.513 111.764 272.446 111.993 272.382 112.21C272.318 112.427 272.272 112.581 272.243 112.674L271.611 114.722H273.906ZM281.291 118.385H279.453V109.011H281.291V118.385ZM287.483 111.523C288.106 111.523 288.642 111.643 289.093 111.884C289.541 112.121 289.888 112.467 290.134 112.921C290.378 113.374 290.502 113.929 290.502 114.583V115.475H286.158C286.178 115.993 286.332 116.401 286.622 116.698C286.915 116.991 287.32 117.138 287.839 117.138C288.269 117.138 288.662 117.094 289.018 117.005C289.377 116.917 289.744 116.784 290.123 116.608V118.029C289.787 118.194 289.44 118.315 289.073 118.391C288.711 118.467 288.272 118.505 287.753 118.505C287.079 118.505 286.481 118.381 285.959 118.132C285.441 117.883 285.033 117.503 284.736 116.993C284.443 116.483 284.296 115.841 284.296 115.065C284.296 114.278 284.429 113.623 284.694 113.101C284.963 112.575 285.336 112.182 285.814 111.92C286.292 111.655 286.849 111.523 287.483 111.523ZM287.495 112.83C287.139 112.83 286.841 112.945 286.604 113.173C286.371 113.402 286.236 113.762 286.2 114.252H288.777C288.774 113.979 288.726 113.736 288.628 113.523C288.536 113.31 288.396 113.141 288.206 113.017C288.023 112.893 287.784 112.83 287.495 112.83ZM292.935 121.349C292.726 121.349 292.508 121.333 292.284 121.301C292.06 121.273 291.871 121.238 291.724 121.198V119.752C291.871 119.793 292.011 119.821 292.146 119.837C292.272 119.857 292.419 119.867 292.585 119.867C292.835 119.867 293.044 119.797 293.216 119.656C293.391 119.519 293.477 119.248 293.477 118.843V111.649H295.314V119.114C295.314 119.523 295.236 119.897 295.079 120.234C294.924 120.576 294.668 120.847 294.321 121.048C293.971 121.248 293.509 121.349 292.935 121.349ZM293.397 109.908C293.397 109.563 293.495 109.328 293.687 109.203C293.885 109.075 294.12 109.011 294.399 109.011C294.671 109.011 294.906 109.075 295.104 109.203C295.3 109.328 295.397 109.563 295.397 109.908C295.397 110.25 295.3 110.487 295.104 110.619C294.906 110.748 294.671 110.812 294.399 110.812C294.12 110.812 293.885 110.748 293.687 110.619C293.495 110.487 293.397 110.25 293.397 109.908ZM304.849 115.005C304.849 115.567 304.774 116.066 304.62 116.499C304.473 116.933 304.252 117.3 303.965 117.602C303.678 117.899 303.334 118.124 302.927 118.276C302.525 118.429 302.071 118.505 301.566 118.505C301.093 118.505 300.657 118.429 300.258 118.276C299.865 118.124 299.52 117.899 299.228 117.602C298.938 117.3 298.714 116.933 298.553 116.499C298.396 116.066 298.318 115.567 298.318 115.005C298.318 114.258 298.45 113.625 298.717 113.107C298.981 112.589 299.36 112.196 299.85 111.926C300.338 111.657 300.924 111.523 301.601 111.523C302.232 111.523 302.792 111.657 303.277 111.926C303.767 112.196 304.152 112.589 304.427 113.107C304.708 113.625 304.849 114.258 304.849 115.005ZM300.192 115.005C300.192 115.447 300.241 115.818 300.338 116.119C300.433 116.421 300.585 116.648 300.789 116.8C300.993 116.953 301.262 117.029 301.589 117.029C301.916 117.029 302.178 116.953 302.378 116.8C302.585 116.648 302.734 116.421 302.826 116.119C302.921 115.818 302.97 115.447 302.97 115.005C302.97 114.559 302.921 114.19 302.826 113.897C302.734 113.599 302.585 113.376 302.378 113.228C302.175 113.079 301.908 113.005 301.578 113.005C301.093 113.005 300.74 113.171 300.519 113.505C300.301 113.838 300.192 114.338 300.192 115.005ZM309.452 118.385L306.884 111.649H308.806L310.109 115.487C310.181 115.712 310.235 115.949 310.275 116.198C310.321 116.447 310.35 116.67 310.367 116.867H310.416C310.427 116.654 310.456 116.427 310.499 116.186C310.548 115.945 310.611 115.712 310.686 115.487L311.983 111.649H313.902L311.337 118.385H309.452ZM319.13 111.523C319.753 111.523 320.29 111.643 320.74 111.884C321.191 112.121 321.538 112.467 321.782 112.921C322.029 113.374 322.149 113.929 322.149 114.583V115.475H317.805C317.825 115.993 317.98 116.401 318.27 116.698C318.562 116.991 318.97 117.138 319.486 117.138C319.917 117.138 320.31 117.094 320.668 117.005C321.024 116.917 321.392 116.784 321.77 116.608V118.029C321.437 118.194 321.087 118.315 320.723 118.391C320.361 118.467 319.919 118.505 319.403 118.505C318.729 118.505 318.129 118.381 317.607 118.132C317.09 117.883 316.683 117.503 316.384 116.993C316.092 116.483 315.945 115.841 315.945 115.065C315.945 114.278 316.077 113.623 316.341 113.101C316.611 112.575 316.984 112.182 317.463 111.92C317.94 111.655 318.496 111.523 319.13 111.523ZM319.145 112.83C318.786 112.83 318.488 112.945 318.252 113.173C318.02 113.402 317.885 113.762 317.848 114.252H320.427C320.422 113.979 320.373 113.736 320.275 113.523C320.183 113.31 320.043 113.141 319.853 113.017C319.67 112.893 319.432 112.83 319.145 112.83ZM324.582 121.349C324.373 121.349 324.158 121.333 323.931 121.301C323.707 121.273 323.521 121.238 323.371 121.198V119.752C323.521 119.793 323.661 119.821 323.793 119.837C323.922 119.857 324.069 119.867 324.232 119.867C324.482 119.867 324.691 119.797 324.866 119.656C325.039 119.519 325.125 119.248 325.125 118.843V111.649H326.961V119.114C326.961 119.523 326.884 119.897 326.726 120.234C326.571 120.576 326.318 120.847 325.968 121.048C325.618 121.248 325.156 121.349 324.582 121.349ZM325.047 109.908C325.047 109.563 325.142 109.328 325.334 109.203C325.532 109.075 325.77 109.011 326.046 109.011C326.318 109.011 326.554 109.075 326.752 109.203C326.947 109.328 327.047 109.563 327.047 109.908C327.047 110.25 326.947 110.487 326.752 110.619C326.554 110.748 326.318 110.812 326.046 110.812C325.77 110.812 325.532 110.748 325.334 110.619C325.142 110.487 325.047 110.25 325.047 109.908Z" fill="#0A0A0A"/>
<path d="M26.232 48.9945L16.1105 53.1913L18.1326 61.7767L12.7687 67.1461L4.19202 65.122L0 75.2532L7.49448 79.8926V87.4867L0 92.1262L4.19202 102.257L12.7687 100.233L18.1326 105.603L16.1105 114.188L26.2315 118.385L30.8666 110.882H38.4523L43.0873 118.385L53.2088 114.188L51.1867 105.603L56.5508 100.233L65.1268 102.257L69.3194 92.1256L61.8249 87.4861V79.8929L69.3194 75.2538L65.1268 65.122L56.5508 67.1461L51.1867 61.7767L53.2088 53.1913L43.0873 48.9945L38.4526 56.4966H30.8663L26.232 48.9945ZM34.6594 71.4562C36.2643 71.4562 37.8534 71.7724 39.3364 72.3873C40.819 73.0022 42.1662 73.9031 43.3011 75.0391C44.436 76.1751 45.3361 77.5237 45.9505 79.008C46.5645 80.4923 46.8808 82.0831 46.8805 83.6897C46.8805 85.2962 46.5645 86.887 45.9502 88.3713C45.3361 89.8553 44.436 91.2039 43.3011 92.3399C42.1662 93.4759 40.819 94.3769 39.3361 94.9918C37.8534 95.6064 36.2643 95.9229 34.6594 95.9229C31.4184 95.9226 28.31 94.634 26.0182 92.3396C23.7264 90.0456 22.4388 86.9341 22.4388 83.6897C22.4387 82.0831 22.7548 80.4923 23.3689 79.0083C23.9831 77.524 24.8832 76.1754 26.018 75.0394C27.1528 73.9034 28.5 73.0022 29.9828 72.3875C31.4655 71.7726 33.0546 71.4562 34.6594 71.4562Z" fill="#0A0A0A"/>
<path d="M59.2585 31.5709L54.9749 35.8588L57.8229 39.8163L56.2177 43.6956L51.4082 44.4783L51.4085 50.5419L56.2177 51.3245L57.8232 55.2041L54.9752 59.1615L59.2585 63.4492L63.212 60.5985L67.0872 62.2051L67.8691 67.0193L73.9269 67.0196L74.7088 62.2048L78.584 60.5979L82.5378 63.4489L86.8213 59.161L83.9734 55.2035L85.5786 51.3242L90.3875 50.5416V44.4775L85.5783 43.6949L83.9731 39.8158L86.8211 35.8583L82.5375 31.5705L78.5843 34.421L74.7088 32.8142L73.9271 28L67.8691 28L67.0872 32.8142L63.2117 34.4212L59.2585 31.5703V31.5709ZM68.3116 41.2607C69.1317 40.9208 70.0103 40.7458 70.8979 40.7458C71.7854 40.7458 72.664 40.9208 73.4838 41.2607C74.3039 41.6007 75.0488 42.099 75.6764 42.7272C76.3039 43.3553 76.8015 44.1011 77.1412 44.9218C77.4807 45.7425 77.6554 46.6221 77.6554 47.5105C77.6554 48.3988 77.4807 49.2784 77.1412 50.0991C76.8015 50.9198 76.3036 51.6655 75.6761 52.2936C75.0485 52.9218 74.3036 53.42 73.4838 53.76C71.8281 54.4464 69.9676 54.4464 68.3119 53.7598C66.6562 53.0733 65.3409 51.7565 64.6548 50.0991C63.969 48.4417 63.969 46.5794 64.6548 44.9219C65.3406 43.2644 66.6562 41.9476 68.3119 41.261L68.3116 41.2607Z" fill="#0A0A0A"/>
</svg>
