<svg width="297" height="150" viewBox="0 0 297 150" fill="none" xmlns="http://www.w3.org/2000/svg">
<path d="M12.032 79.376V71.952H21.568C23.5733 71.952 25.1093 71.44 26.176 70.416C27.2853 69.392 27.84 68.0053 27.84 66.256C27.84 64.6347 27.3067 63.2907 26.24 62.224C25.1733 61.1573 23.6373 60.624 21.632 60.624H12.032V52.816H22.784C25.7707 52.816 28.3947 53.392 30.656 54.544C32.9173 55.6533 34.688 57.2107 35.968 59.216C37.248 61.2213 37.888 63.5253 37.888 66.128C37.888 68.7733 37.248 71.0987 35.968 73.104C34.688 75.0667 32.896 76.6027 30.592 77.712C28.288 78.8213 25.5787 79.376 22.464 79.376H12.032ZM4.352 98V52.816H14.4V98H4.352ZM28.928 98L14.848 78.544L24.064 76.048L40.832 98H28.928ZM50.347 98V52.816H60.395V98H50.347ZM58.027 98V89.296H82.795V98H58.027ZM58.027 79.12V70.736H80.555V79.12H58.027ZM58.027 61.456V52.816H82.475V61.456H58.027ZM108.047 98L90.639 52.816H101.391L114.639 89.36H110.223L123.663 52.816H134.287L116.687 98H108.047ZM144.712 98V52.816H154.76V98H144.712ZM182.662 98L165.254 52.816H176.006L189.254 89.36H184.838L198.278 52.816H208.902L191.302 98H182.662ZM210.185 98L228.105 52.816H237.193L254.921 98H244.297L230.729 60.496H234.377L220.617 98H210.185ZM220.361 89.808V81.616H245.001V89.808H220.361ZM264.822 98V52.816H274.87V98H264.822ZM272.566 98V89.168H294.902V98H272.566Z" fill="#0A0A0A"/>
</svg>
