<svg width="75" height="82" viewBox="0 0 75 82" fill="none" xmlns="http://www.w3.org/2000/svg">
<path d="M25.386 47.647C16.6023 47.9582 7.97594 49.7601 0 52.9496L21.5558 2.4592C22.1793 0.9222 23.2482 0 24.5843 0H50.4157C51.7518 0 52.8207 0.9222 53.4442 2.4592L75 52.9496C75 52.9496 64.6675 47.5701 49.614 47.5701L40.1722 22.2865C39.8159 20.98 38.747 20.1347 37.5891 20.1347C36.4311 20.1347 35.3622 20.98 35.0059 22.2096L25.386 47.647ZM20.6651 53.795C18.8836 58.8671 20.1306 65.9372 24.4062 69.3186C24.4612 69.1383 24.5206 68.9589 24.5843 68.7807C24.7991 67.7705 25.4329 66.8623 26.3673 66.2258C27.3017 65.5894 28.4727 65.2682 29.6615 65.3224C32.1556 65.3993 33.4917 66.4752 33.848 68.9344C34.0261 69.7797 34.0261 70.7019 34.0261 71.6241V71.9315C34.0261 74.0065 34.6496 75.9277 35.9858 77.6184C37.2114 79.2776 38.9777 80.5876 41.0629 81.3841V81.1535L40.8848 80.923C39.2815 76.6194 40.4394 73.6222 44.804 71.0862L46.1401 70.3177C47.1075 69.776 48.0579 69.2123 48.9905 68.627C50.668 67.6257 52.0768 66.3255 53.1217 64.814C54.1667 63.3026 54.8234 61.6153 55.0475 59.8661C55.3147 58.3291 55.1366 56.7921 54.5131 55.2551L53.8005 55.7162L52.3753 56.4847C46.137 58.9517 39.1618 59.6771 32.4228 58.5597C27.9691 58.0217 23.7827 57.0227 20.6651 53.795Z" fill="black"/>
</svg>
