<svg width="120" height="113" viewBox="0 0 120 113" fill="none" xmlns="http://www.w3.org/2000/svg">
<g clip-path="url(#clip0_393_472)">
<path fill-rule="evenodd" clip-rule="evenodd" d="M59.8659 0C35.0562 0 15 20.2041 15 45.1993C15 65.1793 27.8507 82.0919 45.6781 88.0779C47.9069 88.5279 48.7234 87.1053 48.7234 85.9087C48.7234 84.8608 48.6499 81.2691 48.6499 77.5267C36.1693 80.2212 33.5703 72.1387 33.5703 72.1387C31.5646 66.9003 28.5928 65.554 28.5928 65.554C24.5079 62.7851 28.8903 62.7851 28.8903 62.7851C33.4215 63.0845 35.7992 67.4247 35.7992 67.4247C39.8097 74.3088 46.2722 72.3637 48.8721 71.1661C49.2432 68.2476 50.4325 66.2271 51.6952 65.1049C41.741 64.057 31.268 60.1659 31.268 42.8042C31.268 37.8652 33.0496 33.8244 35.8727 30.6817C35.4272 29.5595 33.8669 24.919 36.319 18.7081C36.319 18.7081 40.1072 17.5105 48.649 23.3477C52.306 22.3583 56.0774 21.855 59.8659 21.8507C63.6542 21.8507 67.5159 22.3751 71.0819 23.3477C79.6246 17.5105 83.4129 18.7081 83.4129 18.7081C85.8649 24.919 84.3037 29.5595 83.8583 30.6817C86.7557 33.8244 88.4639 37.8652 88.4639 42.8042C88.4639 60.1659 77.9908 63.9817 67.9622 65.1049C69.5969 66.5265 71.0076 69.2201 71.0076 73.4859C71.0076 79.5471 70.9341 84.4117 70.9341 85.9078C70.9341 87.1053 71.7514 88.5279 73.9794 88.0788C91.8067 82.091 104.657 65.1793 104.657 45.1993C104.731 20.2041 84.6012 0 59.8659 0Z" fill="#24292F"/>
</g>
<path d="M5.852 101.978C4.83467 101.978 4.09733 102.263 3.64 102.832C3.192 103.392 2.968 104.162 2.968 105.142C2.968 105.618 3.024 106.052 3.136 106.444C3.248 106.827 3.416 107.158 3.64 107.438C3.864 107.718 4.144 107.937 4.48 108.096C4.816 108.245 5.208 108.32 5.656 108.32C5.89867 108.32 6.104 108.315 6.272 108.306C6.44933 108.297 6.60333 108.278 6.734 108.25V104.876H8.918V109.678C8.65667 109.781 8.23667 109.888 7.658 110C7.07933 110.121 6.36533 110.182 5.516 110.182C4.788 110.182 4.12533 110.07 3.528 109.846C2.94 109.622 2.436 109.295 2.016 108.866C1.596 108.437 1.26933 107.909 1.036 107.284C0.812 106.659 0.7 105.945 0.7 105.142C0.7 104.33 0.826 103.611 1.078 102.986C1.33 102.361 1.67533 101.833 2.114 101.404C2.55267 100.965 3.066 100.634 3.654 100.41C4.25133 100.186 4.886 100.074 5.558 100.074C6.01533 100.074 6.426 100.107 6.79 100.172C7.16333 100.228 7.48067 100.298 7.742 100.382C8.01267 100.457 8.232 100.536 8.4 100.62C8.57733 100.704 8.70333 100.769 8.778 100.816L8.148 102.566C7.84933 102.407 7.504 102.272 7.112 102.16C6.72933 102.039 6.30933 101.978 5.852 101.978ZM14.2961 110H12.2101V102.636H14.2961V110ZM14.4921 100.508C14.4921 100.891 14.3661 101.194 14.1141 101.418C13.8714 101.633 13.5821 101.74 13.2461 101.74C12.9101 101.74 12.6161 101.633 12.3641 101.418C12.1214 101.194 12.0001 100.891 12.0001 100.508C12.0001 100.125 12.1214 99.8267 12.3641 99.612C12.6161 99.388 12.9101 99.276 13.2461 99.276C13.5821 99.276 13.8714 99.388 14.1141 99.612C14.3661 99.8267 14.4921 100.125 14.4921 100.508ZM17.587 100.802L19.673 100.466V102.636H22.179V104.372H19.673V106.962C19.673 107.401 19.7476 107.751 19.897 108.012C20.0556 108.273 20.3683 108.404 20.835 108.404C21.059 108.404 21.2876 108.385 21.521 108.348C21.7636 108.301 21.983 108.241 22.179 108.166L22.473 109.79C22.221 109.893 21.941 109.981 21.633 110.056C21.325 110.131 20.947 110.168 20.499 110.168C19.9296 110.168 19.4583 110.093 19.085 109.944C18.7116 109.785 18.413 109.571 18.189 109.3C17.965 109.02 17.8063 108.684 17.713 108.292C17.629 107.9 17.587 107.466 17.587 106.99V100.802ZM31.2697 100.298H33.4537V110H31.2697V105.884H27.6017V110H25.4177V100.298H27.6017V104.008H31.2697V100.298ZM43.2449 109.748C42.8902 109.851 42.4329 109.944 41.8729 110.028C41.3129 110.121 40.7249 110.168 40.1089 110.168C39.4836 110.168 38.9609 110.084 38.5409 109.916C38.1302 109.748 37.8036 109.515 37.5609 109.216C37.3182 108.908 37.1456 108.544 37.0429 108.124C36.9402 107.704 36.8889 107.242 36.8889 106.738V102.636H38.9749V106.486C38.9749 107.158 39.0636 107.643 39.2409 107.942C39.4182 108.241 39.7496 108.39 40.2349 108.39C40.3842 108.39 40.5429 108.385 40.7109 108.376C40.8789 108.357 41.0282 108.339 41.1589 108.32V102.636H43.2449V109.748ZM51.321 106.262C51.321 104.918 50.8264 104.246 49.837 104.246C49.6224 104.246 49.4077 104.274 49.193 104.33C48.9877 104.386 48.8197 104.456 48.689 104.54V108.334C48.7917 108.353 48.9224 108.371 49.081 108.39C49.2397 108.399 49.4124 108.404 49.599 108.404C50.1684 108.404 50.5977 108.208 50.887 107.816C51.1764 107.424 51.321 106.906 51.321 106.262ZM53.449 106.318C53.449 106.906 53.3604 107.438 53.183 107.914C53.015 108.39 52.7677 108.796 52.441 109.132C52.1144 109.468 51.713 109.729 51.237 109.916C50.761 110.093 50.2197 110.182 49.613 110.182C49.361 110.182 49.095 110.168 48.815 110.14C48.5444 110.121 48.2737 110.093 48.003 110.056C47.7417 110.019 47.4897 109.977 47.247 109.93C47.0044 109.874 46.7897 109.818 46.603 109.762V99.472L48.689 99.136V102.804C48.9224 102.701 49.165 102.622 49.417 102.566C49.669 102.51 49.9397 102.482 50.229 102.482C50.7517 102.482 51.2137 102.575 51.615 102.762C52.0164 102.939 52.3524 103.196 52.623 103.532C52.8937 103.868 53.099 104.274 53.239 104.75C53.379 105.217 53.449 105.739 53.449 106.318ZM67.8515 110C67.7489 109.664 67.6322 109.319 67.5015 108.964C67.3802 108.609 67.2589 108.255 67.1375 107.9H63.3575C63.2362 108.255 63.1102 108.609 62.9795 108.964C62.8582 109.319 62.7462 109.664 62.6435 110H60.3755C60.7395 108.955 61.0849 107.989 61.4115 107.102C61.7382 106.215 62.0555 105.38 62.3635 104.596C62.6809 103.812 62.9889 103.07 63.2875 102.37C63.5955 101.661 63.9129 100.97 64.2395 100.298H66.3255C66.6429 100.97 66.9555 101.661 67.2635 102.37C67.5715 103.07 67.8795 103.812 68.1875 104.596C68.5049 105.38 68.8269 106.215 69.1535 107.102C69.4802 107.989 69.8255 108.955 70.1895 110H67.8515ZM65.2335 102.496C65.1869 102.636 65.1169 102.827 65.0235 103.07C64.9302 103.313 64.8229 103.593 64.7015 103.91C64.5802 104.227 64.4449 104.577 64.2955 104.96C64.1555 105.343 64.0109 105.744 63.8615 106.164H66.6195C66.4702 105.744 66.3255 105.343 66.1855 104.96C66.0455 104.577 65.9102 104.227 65.7795 103.91C65.6582 103.593 65.5509 103.313 65.4575 103.07C65.3642 102.827 65.2895 102.636 65.2335 102.496ZM72.205 106.318C72.205 105.786 72.289 105.287 72.457 104.82C72.6343 104.344 72.8863 103.933 73.213 103.588C73.5397 103.233 73.9363 102.953 74.403 102.748C74.8697 102.543 75.4017 102.44 75.999 102.44C76.391 102.44 76.7503 102.477 77.077 102.552C77.4037 102.617 77.721 102.715 78.029 102.846L77.595 104.512C77.399 104.437 77.1843 104.372 76.951 104.316C76.7177 104.26 76.4563 104.232 76.167 104.232C75.551 104.232 75.089 104.423 74.781 104.806C74.4823 105.189 74.333 105.693 74.333 106.318C74.333 106.981 74.473 107.494 74.753 107.858C75.0423 108.222 75.5417 108.404 76.251 108.404C76.503 108.404 76.7737 108.381 77.063 108.334C77.3523 108.287 77.6183 108.213 77.861 108.11L78.155 109.818C77.9123 109.921 77.609 110.009 77.245 110.084C76.881 110.159 76.4797 110.196 76.041 110.196C75.369 110.196 74.7903 110.098 74.305 109.902C73.8197 109.697 73.4183 109.421 73.101 109.076C72.793 108.731 72.5643 108.325 72.415 107.858C72.275 107.382 72.205 106.869 72.205 106.318ZM80.885 100.802L82.971 100.466V102.636H85.477V104.372H82.971V106.962C82.971 107.401 83.0457 107.751 83.195 108.012C83.3537 108.273 83.6663 108.404 84.133 108.404C84.357 108.404 84.5857 108.385 84.819 108.348C85.0617 108.301 85.281 108.241 85.477 108.166L85.771 109.79C85.519 109.893 85.239 109.981 84.931 110.056C84.623 110.131 84.245 110.168 83.797 110.168C83.2277 110.168 82.7563 110.093 82.383 109.944C82.0097 109.785 81.711 109.571 81.487 109.3C81.263 109.02 81.1043 108.684 81.011 108.292C80.927 107.9 80.885 107.466 80.885 106.99V100.802ZM90.6617 110H88.5757V102.636H90.6617V110ZM90.8577 100.508C90.8577 100.891 90.7317 101.194 90.4797 101.418C90.237 101.633 89.9477 101.74 89.6117 101.74C89.2757 101.74 88.9817 101.633 88.7297 101.418C88.487 101.194 88.3657 100.891 88.3657 100.508C88.3657 100.125 88.487 99.8267 88.7297 99.612C88.9817 99.388 89.2757 99.276 89.6117 99.276C89.9477 99.276 90.237 99.388 90.4797 99.612C90.7317 99.8267 90.8577 100.125 90.8577 100.508ZM100.911 106.304C100.911 106.883 100.827 107.415 100.659 107.9C100.491 108.376 100.248 108.787 99.9306 109.132C99.6132 109.468 99.2306 109.729 98.7826 109.916C98.3439 110.103 97.8492 110.196 97.2986 110.196C96.7572 110.196 96.2626 110.103 95.8146 109.916C95.3759 109.729 94.9979 109.468 94.6806 109.132C94.3632 108.787 94.1159 108.376 93.9386 107.9C93.7612 107.415 93.6726 106.883 93.6726 106.304C93.6726 105.725 93.7612 105.198 93.9386 104.722C94.1252 104.246 94.3772 103.84 94.6946 103.504C95.0212 103.168 95.4039 102.907 95.8426 102.72C96.2906 102.533 96.7759 102.44 97.2986 102.44C97.8306 102.44 98.3159 102.533 98.7546 102.72C99.2026 102.907 99.5852 103.168 99.9026 103.504C100.22 103.84 100.467 104.246 100.645 104.722C100.822 105.198 100.911 105.725 100.911 106.304ZM98.7826 106.304C98.7826 105.66 98.6519 105.156 98.3906 104.792C98.1386 104.419 97.7746 104.232 97.2986 104.232C96.8226 104.232 96.4539 104.419 96.1926 104.792C95.9312 105.156 95.8006 105.66 95.8006 106.304C95.8006 106.948 95.9312 107.461 96.1926 107.844C96.4539 108.217 96.8226 108.404 97.2986 108.404C97.7746 108.404 98.1386 108.217 98.3906 107.844C98.6519 107.461 98.7826 106.948 98.7826 106.304ZM103.926 102.888C104.281 102.785 104.738 102.692 105.298 102.608C105.858 102.515 106.446 102.468 107.062 102.468C107.688 102.468 108.206 102.552 108.616 102.72C109.036 102.879 109.368 103.107 109.61 103.406C109.853 103.705 110.026 104.059 110.128 104.47C110.231 104.881 110.282 105.338 110.282 105.842V110H108.196V106.094C108.196 105.422 108.108 104.946 107.93 104.666C107.753 104.386 107.422 104.246 106.936 104.246C106.787 104.246 106.628 104.255 106.46 104.274C106.292 104.283 106.143 104.297 106.012 104.316V110H103.926V102.888ZM115.685 108.502C116.067 108.502 116.338 108.465 116.497 108.39C116.655 108.315 116.735 108.171 116.735 107.956C116.735 107.788 116.632 107.643 116.427 107.522C116.221 107.391 115.909 107.247 115.489 107.088C115.162 106.967 114.863 106.841 114.593 106.71C114.331 106.579 114.107 106.425 113.921 106.248C113.734 106.061 113.589 105.842 113.487 105.59C113.384 105.338 113.333 105.035 113.333 104.68C113.333 103.989 113.589 103.443 114.103 103.042C114.616 102.641 115.321 102.44 116.217 102.44C116.665 102.44 117.094 102.482 117.505 102.566C117.915 102.641 118.242 102.725 118.485 102.818L118.121 104.442C117.878 104.358 117.612 104.283 117.323 104.218C117.043 104.153 116.725 104.12 116.371 104.12C115.717 104.12 115.391 104.302 115.391 104.666C115.391 104.75 115.405 104.825 115.433 104.89C115.461 104.955 115.517 105.021 115.601 105.086C115.685 105.142 115.797 105.207 115.937 105.282C116.086 105.347 116.273 105.422 116.497 105.506C116.954 105.674 117.332 105.842 117.631 106.01C117.929 106.169 118.163 106.346 118.331 106.542C118.508 106.729 118.629 106.939 118.695 107.172C118.769 107.405 118.807 107.676 118.807 107.984C118.807 108.712 118.531 109.263 117.981 109.636C117.439 110.009 116.669 110.196 115.671 110.196C115.017 110.196 114.471 110.14 114.033 110.028C113.603 109.916 113.305 109.823 113.137 109.748L113.487 108.054C113.841 108.194 114.205 108.306 114.579 108.39C114.952 108.465 115.321 108.502 115.685 108.502Z" fill="black"/>
<defs>
<clipPath id="clip0_393_472">
<rect width="90" height="88.1633" fill="white" transform="translate(15)"/>
</clipPath>
</defs>
</svg>
