<svg width="113" height="47" viewBox="0 0 113 47" fill="none" xmlns="http://www.w3.org/2000/svg">
<path d="M13.6482 18C13.4722 17.424 13.2722 16.832 13.0482 16.224C12.8402 15.616 12.6322 15.008 12.4242 14.4H5.94419C5.73619 15.008 5.52019 15.616 5.29619 16.224C5.08819 16.832 4.89619 17.424 4.72019 18H0.832186C1.45619 16.208 2.04819 14.552 2.60819 13.032C3.16819 11.512 3.71219 10.08 4.24019 8.736C4.78419 7.392 5.31219 6.12 5.82419 4.92C6.35219 3.704 6.89619 2.52 7.45619 1.368H11.0322C11.5762 2.52 12.1122 3.704 12.6402 4.92C13.1682 6.12 13.6962 7.392 14.2242 8.736C14.7682 10.08 15.3202 11.512 15.8802 13.032C16.4402 14.552 17.0322 16.208 17.6562 18H13.6482ZM9.16019 5.136C9.08019 5.376 8.96019 5.704 8.80019 6.12C8.64019 6.536 8.45619 7.016 8.24819 7.56C8.04019 8.104 7.80819 8.704 7.55219 9.36C7.31219 10.016 7.06419 10.704 6.80819 11.424H11.5362C11.2802 10.704 11.0322 10.016 10.7922 9.36C10.5522 8.704 10.3202 8.104 10.0962 7.56C9.88819 7.016 9.70419 6.536 9.54419 6.12C9.38419 5.704 9.25619 5.376 9.16019 5.136ZM27.1904 15.144C27.7184 15.144 28.1504 15.104 28.4864 15.024C28.8384 14.928 29.1184 14.808 29.3264 14.664C29.5344 14.504 29.6784 14.32 29.7584 14.112C29.8384 13.904 29.8784 13.672 29.8784 13.416C29.8784 12.872 29.6224 12.424 29.1104 12.072C28.5984 11.704 27.7184 11.312 26.4704 10.896C25.9264 10.704 25.3824 10.488 24.8384 10.248C24.2944 9.992 23.8064 9.68 23.3744 9.312C22.9424 8.928 22.5904 8.472 22.3184 7.944C22.0464 7.4 21.9104 6.744 21.9104 5.976C21.9104 5.208 22.0544 4.52 22.3424 3.912C22.6304 3.288 23.0384 2.76 23.5664 2.328C24.0944 1.896 24.7344 1.568 25.4864 1.344C26.2384 1.104 27.0864 0.983999 28.0304 0.983999C29.1504 0.983999 30.1184 1.104 30.9344 1.344C31.7504 1.584 32.4224 1.848 32.9504 2.136L31.8704 5.088C31.4064 4.848 30.8864 4.64 30.3104 4.464C29.7504 4.272 29.0704 4.176 28.2704 4.176C27.3744 4.176 26.7264 4.304 26.3264 4.56C25.9424 4.8 25.7504 5.176 25.7504 5.688C25.7504 5.992 25.8224 6.248 25.9664 6.456C26.1104 6.664 26.3104 6.856 26.5664 7.032C26.8384 7.192 27.1424 7.344 27.4784 7.488C27.8304 7.616 28.2144 7.752 28.6304 7.896C29.4944 8.216 30.2464 8.536 30.8864 8.856C31.5264 9.16 32.0544 9.52 32.4704 9.936C32.9024 10.352 33.2224 10.84 33.4304 11.4C33.6384 11.96 33.7424 12.64 33.7424 13.44C33.7424 14.992 33.1984 16.2 32.1104 17.064C31.0224 17.912 29.3824 18.336 27.1904 18.336C26.4544 18.336 25.7904 18.288 25.1984 18.192C24.6064 18.112 24.0784 18.008 23.6144 17.88C23.1664 17.752 22.7744 17.616 22.4384 17.472C22.1184 17.328 21.8464 17.192 21.6224 17.064L22.6784 14.088C23.1744 14.36 23.7824 14.608 24.5024 14.832C25.2384 15.04 26.1344 15.144 27.1904 15.144ZM44.0151 1.176C46.4951 1.176 48.3991 1.616 49.7271 2.496C51.0551 3.36 51.7191 4.784 51.7191 6.768C51.7191 8.768 51.0471 10.216 49.7031 11.112C48.3591 11.992 46.4391 12.432 43.9431 12.432H42.7671V18H39.0231V1.608C39.8391 1.448 40.7031 1.336 41.6151 1.272C42.5271 1.208 43.3271 1.176 44.0151 1.176ZM44.2551 4.368C43.9831 4.368 43.7111 4.376 43.4391 4.392C43.1831 4.408 42.9591 4.424 42.7671 4.44V9.24H43.9431C45.2391 9.24 46.2151 9.064 46.8711 8.712C47.5271 8.36 47.8551 7.704 47.8551 6.744C47.8551 6.28 47.7671 5.896 47.5911 5.592C47.4311 5.288 47.1911 5.048 46.8711 4.872C46.5671 4.68 46.1911 4.552 45.7431 4.488C45.2951 4.408 44.7991 4.368 44.2551 4.368ZM57.6481 16.104C57.6481 16.824 57.4161 17.376 56.9521 17.76C56.5041 18.128 55.9921 18.312 55.4161 18.312C54.8401 18.312 54.3201 18.128 53.8561 17.76C53.4081 17.376 53.1841 16.824 53.1841 16.104C53.1841 15.384 53.4081 14.84 53.8561 14.472C54.3201 14.088 54.8401 13.896 55.4161 13.896C55.9921 13.896 56.5041 14.088 56.9521 14.472C57.4161 14.84 57.6481 15.384 57.6481 16.104ZM73.8503 18C72.7783 16.096 71.6183 14.216 70.3703 12.36C69.1223 10.504 67.7943 8.752 66.3863 7.104V18H62.6903V1.368H65.7383C66.2663 1.896 66.8503 2.544 67.4903 3.312C68.1303 4.08 68.7783 4.904 69.4343 5.784C70.1063 6.648 70.7703 7.552 71.4263 8.496C72.0823 9.424 72.6983 10.32 73.2743 11.184V1.368H76.9943V18H73.8503ZM83.2309 18V1.368H94.4629V4.512H86.9749V7.776H93.6229V10.848H86.9749V14.856H95.0149V18H83.2309ZM112.522 1.368V4.56H107.506V18H103.762V4.56H98.7456V1.368H112.522ZM37.0212 46.336C34.3172 46.336 32.2532 45.584 30.8292 44.08C29.4212 42.576 28.7172 40.44 28.7172 37.672C28.7172 36.296 28.9332 35.072 29.3652 34C29.7972 32.912 30.3892 32 31.1412 31.264C31.8932 30.512 32.7892 29.944 33.8292 29.56C34.8692 29.176 35.9972 28.984 37.2132 28.984C37.9172 28.984 38.5572 29.04 39.1332 29.152C39.7092 29.248 40.2132 29.368 40.6452 29.512C41.0772 29.64 41.4372 29.776 41.7252 29.92C42.0132 30.064 42.2212 30.176 42.3492 30.256L41.2692 33.28C40.7572 33.008 40.1572 32.776 39.4692 32.584C38.7972 32.392 38.0292 32.296 37.1652 32.296C36.5892 32.296 36.0212 32.392 35.4612 32.584C34.9172 32.776 34.4292 33.088 33.9972 33.52C33.5812 33.936 33.2452 34.48 32.9892 35.152C32.7332 35.824 32.6052 36.64 32.6052 37.6C32.6052 38.368 32.6852 39.088 32.8452 39.76C33.0212 40.416 33.2932 40.984 33.6612 41.464C34.0452 41.944 34.5412 42.328 35.1492 42.616C35.7572 42.888 36.4932 43.024 37.3572 43.024C37.9012 43.024 38.3892 42.992 38.8212 42.928C39.2532 42.864 39.6372 42.792 39.9732 42.712C40.3092 42.616 40.6052 42.512 40.8612 42.4C41.1172 42.288 41.3492 42.184 41.5572 42.088L42.5892 45.088C42.0612 45.408 41.3172 45.696 40.3572 45.952C39.3972 46.208 38.2852 46.336 37.0212 46.336ZM58.6864 39.664C58.6864 40.656 58.5424 41.568 58.2544 42.4C57.9664 43.216 57.5504 43.92 57.0064 44.512C56.4624 45.088 55.8064 45.536 55.0384 45.856C54.2864 46.176 53.4384 46.336 52.4944 46.336C51.5664 46.336 50.7184 46.176 49.9504 45.856C49.1984 45.536 48.5504 45.088 48.0064 44.512C47.4624 43.92 47.0384 43.216 46.7344 42.4C46.4304 41.568 46.2784 40.656 46.2784 39.664C46.2784 38.672 46.4304 37.768 46.7344 36.952C47.0544 36.136 47.4864 35.44 48.0304 34.864C48.5904 34.288 49.2464 33.84 49.9984 33.52C50.7664 33.2 51.5984 33.04 52.4944 33.04C53.4064 33.04 54.2384 33.2 54.9904 33.52C55.7584 33.84 56.4144 34.288 56.9584 34.864C57.5024 35.44 57.9264 36.136 58.2304 36.952C58.5344 37.768 58.6864 38.672 58.6864 39.664ZM55.0384 39.664C55.0384 38.56 54.8144 37.696 54.3664 37.072C53.9344 36.432 53.3104 36.112 52.4944 36.112C51.6784 36.112 51.0464 36.432 50.5984 37.072C50.1504 37.696 49.9264 38.56 49.9264 39.664C49.9264 40.768 50.1504 41.648 50.5984 42.304C51.0464 42.944 51.6784 43.264 52.4944 43.264C53.3104 43.264 53.9344 42.944 54.3664 42.304C54.8144 41.648 55.0384 40.768 55.0384 39.664ZM71.4646 36.544C71.1446 36.464 70.7686 36.384 70.3366 36.304C69.9046 36.208 69.4406 36.16 68.9446 36.16C68.7206 36.16 68.4486 36.184 68.1286 36.232C67.8246 36.264 67.5926 36.304 67.4326 36.352V46H63.8566V34.048C64.4966 33.824 65.2486 33.616 66.1126 33.424C66.9926 33.216 67.9686 33.112 69.0406 33.112C69.2326 33.112 69.4646 33.128 69.7366 33.16C70.0086 33.176 70.2806 33.208 70.5526 33.256C70.8246 33.288 71.0966 33.336 71.3686 33.4C71.6406 33.448 71.8726 33.512 72.0646 33.592L71.4646 36.544ZM75.5472 39.784C75.5472 38.664 75.7152 37.688 76.0512 36.856C76.4032 36.008 76.8592 35.304 77.4192 34.744C77.9792 34.184 78.6192 33.76 79.3392 33.472C80.0752 33.184 80.8272 33.04 81.5952 33.04C83.3872 33.04 84.8032 33.592 85.8432 34.696C86.8832 35.784 87.4032 37.392 87.4032 39.52C87.4032 39.728 87.3952 39.96 87.3792 40.216C87.3632 40.456 87.3472 40.672 87.3312 40.864H79.2192C79.2992 41.6 79.6432 42.184 80.2512 42.616C80.8592 43.048 81.6752 43.264 82.6992 43.264C83.3552 43.264 83.9952 43.208 84.6192 43.096C85.2592 42.968 85.7792 42.816 86.1792 42.64L86.6592 45.544C86.4672 45.64 86.2112 45.736 85.8912 45.832C85.5712 45.928 85.2112 46.008 84.8112 46.072C84.4272 46.152 84.0112 46.216 83.5632 46.264C83.1152 46.312 82.6672 46.336 82.2192 46.336C81.0832 46.336 80.0912 46.168 79.2432 45.832C78.4112 45.496 77.7152 45.04 77.1552 44.464C76.6112 43.872 76.2032 43.176 75.9312 42.376C75.6752 41.576 75.5472 40.712 75.5472 39.784ZM83.9472 38.416C83.9312 38.112 83.8752 37.816 83.7792 37.528C83.6992 37.24 83.5632 36.984 83.3712 36.76C83.1952 36.536 82.9632 36.352 82.6752 36.208C82.4032 36.064 82.0592 35.992 81.6432 35.992C81.2432 35.992 80.8992 36.064 80.6112 36.208C80.3232 36.336 80.0832 36.512 79.8912 36.736C79.6992 36.96 79.5472 37.224 79.4352 37.528C79.3392 37.816 79.2672 38.112 79.2192 38.416H83.9472Z" fill="black"/>
</svg>
