<svg width="180" height="23" viewBox="0 0 180 23" fill="none" xmlns="http://www.w3.org/2000/svg">
<g clip-path="url(#clip0_393_445)">
<mask id="mask0_393_445" style="mask-type:luminance" maskUnits="userSpaceOnUse" x="0" y="0" width="180" height="23">
<path d="M0 0H180V22.2595H0V0Z" fill="white"/>
</mask>
<g mask="url(#mask0_393_445)">
<path fill-rule="evenodd" clip-rule="evenodd" d="M18.5496 0C13.6031 0 10.5114 2.47328 9.27481 7.41985C11.1298 4.94656 13.2939 4.01908 15.7672 4.6374C17.1783 4.98985 18.1869 6.0142 19.3033 7.1471C21.1218 8.99313 23.2269 11.1298 27.8244 11.1298C32.771 11.1298 35.8626 8.65649 37.0992 3.70992C35.2443 6.18321 33.0802 7.11069 30.6069 6.49237C29.1957 6.13992 28.1872 5.11557 27.0708 3.98267C25.2522 2.13664 23.1472 0 18.5496 0ZM9.27481 11.1298C4.32824 11.1298 1.23664 13.6031 0 18.5496C1.85496 16.0763 4.01908 15.1489 6.49237 15.7672C7.90351 16.1203 8.91206 17.144 10.0285 18.2769C11.847 20.1229 13.9521 22.2595 18.5496 22.2595C23.4962 22.2595 26.5878 19.7863 27.8244 14.8397C25.9695 17.313 23.8053 18.2405 21.3321 17.6221C19.9209 17.2697 18.9124 16.2453 17.796 15.1124C15.9774 13.2664 13.8724 11.1298 9.27481 11.1298Z" fill="#38BDF8"/>
<path fill-rule="evenodd" clip-rule="evenodd" d="M55.6461 9.37936H52.4088V15.645C52.4088 17.3159 53.5053 17.2897 55.6461 17.1853V19.7177C51.3124 20.2398 49.5893 19.0389 49.5893 15.645V9.37936H47.1875V6.66425H49.5893V3.15768L52.4088 2.32226V6.66425H55.6461V9.37936ZM67.9864 6.66425H70.8059V19.7177H67.9864V17.838C66.9943 19.2217 65.454 20.0571 63.4177 20.0571C59.8672 20.0571 56.9171 17.0548 56.9171 13.191C56.9171 9.30104 59.8672 6.32486 63.4177 6.32486C65.454 6.32486 66.9943 7.16028 67.9864 8.51784V6.66425ZM63.8615 17.3681C66.2111 17.3681 67.9864 15.6189 67.9864 13.191C67.9864 10.763 66.2111 9.01387 63.8615 9.01387C61.5119 9.01387 59.7366 10.763 59.7366 13.191C59.7366 15.6189 61.5119 17.3681 63.8615 17.3681ZM75.5052 4.70623C74.5131 4.70623 73.7038 3.87081 73.7038 2.90486C73.7047 2.42738 73.8948 1.96972 74.2324 1.6321C74.57 1.29447 75.0277 1.10439 75.5052 1.10348C75.9827 1.10439 76.4403 1.29447 76.7779 1.6321C77.1156 1.96972 77.3056 2.42738 77.3066 2.90486C77.3066 3.87081 76.4972 4.70623 75.5052 4.70623ZM74.0954 19.7177V6.66425H76.915V19.7177H74.0954ZM80.1783 19.7177V0.659668H82.9978V19.7177H80.1783ZM101.299 6.66425H104.275L100.176 19.7177H97.4088L94.6937 10.9197L91.9525 19.7177H89.1852L85.0864 6.66425H88.0626L90.5949 15.6711L93.3362 6.66425H96.0252L98.7403 15.6711L101.299 6.66425ZM107.773 4.70623C106.781 4.70623 105.972 3.87081 105.972 2.90486C105.973 2.42738 106.163 1.96972 106.501 1.6321C106.838 1.29447 107.296 1.10439 107.773 1.10348C108.251 1.10439 108.708 1.29447 109.046 1.6321C109.384 1.96972 109.574 2.42738 109.575 2.90486C109.575 3.87081 108.765 4.70623 107.773 4.70623ZM106.363 19.7177V6.66425H109.183V19.7177H106.363ZM119.313 6.32486C122.236 6.32486 124.325 8.30898 124.325 11.7029V19.7177H121.505V11.99C121.505 10.0059 120.357 8.96165 118.582 8.96165C116.728 8.96165 115.266 10.0581 115.266 12.721V19.7177H112.446V6.66425H115.266V8.33509C116.127 6.97753 117.537 6.32486 119.313 6.32486ZM137.692 1.44287H140.511V19.7177H137.692V17.838C136.7 19.2217 135.159 20.0571 133.123 20.0571C129.573 20.0571 126.622 17.0548 126.622 13.191C126.622 9.30104 129.573 6.32486 133.123 6.32486C135.159 6.32486 136.7 7.16028 137.692 8.51784V1.44287ZM133.567 17.3681C135.916 17.3681 137.692 15.6189 137.692 13.191C137.692 10.763 135.916 9.01387 133.567 9.01387C131.217 9.01387 129.442 10.763 129.442 13.191C129.442 15.6189 131.217 17.3681 133.567 17.3681ZM149.962 20.0571C146.02 20.0571 143.07 17.0548 143.07 13.191C143.07 9.30104 146.02 6.32486 149.962 6.32486C152.52 6.32486 154.74 7.65631 155.784 9.69264L153.356 11.1024C152.782 9.87539 151.502 9.09219 149.936 9.09219C147.638 9.09219 145.889 10.8413 145.889 13.191C145.889 15.5406 147.638 17.2897 149.936 17.2897C151.502 17.2897 152.782 16.4804 153.408 15.2795L155.836 16.6632C154.74 18.7256 152.52 20.0571 149.962 20.0571ZM160.483 10.267C160.483 12.6427 167.506 11.2068 167.506 16.0366C167.506 18.6473 165.234 20.0571 162.415 20.0571C159.804 20.0571 157.925 18.8823 157.089 17.0026L159.517 15.5928C159.935 16.7676 160.979 17.4725 162.415 17.4725C163.668 17.4725 164.634 17.0548 164.634 16.0105C164.634 13.687 157.611 14.9923 157.611 10.3192C157.611 7.86516 159.726 6.32486 162.389 6.32486C164.53 6.32486 166.305 7.31692 167.219 9.03997L164.843 10.3714C164.373 9.35326 163.459 8.88333 162.389 8.88333C161.371 8.88333 160.483 9.32715 160.483 10.267ZM172.518 10.267C172.518 12.6427 179.541 11.2068 179.541 16.0366C179.541 18.6473 177.27 20.0571 174.45 20.0571C171.84 20.0571 169.96 18.8823 169.124 17.0026L171.552 15.5928C171.97 16.7676 173.014 17.4725 174.45 17.4725C175.703 17.4725 176.669 17.0548 176.669 16.0105C176.669 13.687 169.647 14.9923 169.647 10.3192C169.647 7.86516 171.761 6.32486 174.424 6.32486C176.565 6.32486 178.34 7.31692 179.254 9.03997L176.878 10.3714C176.408 9.35326 175.494 8.88333 174.424 8.88333C173.406 8.88333 172.518 9.32715 172.518 10.267Z" fill="#0F172A"/>
</g>
</g>
<defs>
<clipPath id="clip0_393_445">
<rect width="180" height="22.6718" fill="white"/>
</clipPath>
</defs>
</svg>
