<svg width="100" height="99" viewBox="0 0 100 99" fill="none" xmlns="http://www.w3.org/2000/svg">
<path d="M2.51464 76.8774V75.0518H0.861178V76.8688H0V72.5027H0.861178V74.337H2.51464V72.5027H3.37582V76.8774H2.51464ZM6.48467 76.8774H5.81295L5.75267 76.6449C5.45766 76.8269 5.11752 76.9223 4.77093 76.9205C4.1681 76.9205 3.90975 76.5244 3.90975 75.9818C3.90975 75.4393 4.20255 75.1206 4.86566 75.1206H5.65794V74.7934C5.65794 74.4403 5.5546 74.3198 5.02928 74.3198C4.72266 74.322 4.41697 74.3537 4.11643 74.4145L4.01309 73.8117C4.38932 73.7098 4.77729 73.6577 5.16707 73.6566C6.20048 73.6566 6.50189 74.0097 6.50189 74.7934L6.48467 76.8774ZM5.62349 75.689H5.05511C4.78815 75.689 4.71064 75.7579 4.71064 75.999C4.71064 76.2402 4.78815 76.3177 5.03789 76.3177C5.2548 76.3143 5.46762 76.2582 5.65794 76.1541L5.62349 75.689ZM8.20703 76.9463C7.8214 76.9409 7.43856 76.88 7.07027 76.7655L7.18222 76.1627C7.50211 76.251 7.83213 76.2973 8.16397 76.3005C8.52566 76.3005 8.58595 76.223 8.58595 75.9818C8.58595 75.7407 8.58595 75.689 8.00896 75.5685C7.20806 75.379 7.14778 75.1895 7.14778 74.5781C7.14778 73.9667 7.44058 73.6653 8.37926 73.6653C8.70963 73.6664 9.03887 73.7039 9.36101 73.7772L9.2835 74.4059C8.9849 74.3516 8.68263 74.3199 8.37926 74.3111C8.01757 74.3111 7.95728 74.3886 7.95728 74.5867C7.95728 74.7848 7.95728 74.8623 8.42232 74.9656C9.34378 75.1982 9.4299 75.3187 9.4299 75.9646C9.4299 76.6105 9.20599 76.9377 8.21564 76.9377L8.20703 76.9463ZM11.979 76.8774V74.6728C11.979 74.5006 11.9015 74.4231 11.712 74.4231C11.4104 74.4555 11.1179 74.5461 10.8508 74.6901V76.8774H9.98967V72.4424L10.8508 72.5629V73.9581C11.2273 73.7744 11.638 73.6718 12.0565 73.6566C12.599 73.6566 12.7971 74.0269 12.7971 74.5867V76.8774H11.979ZM13.4947 73.2777V72.5027H14.3558V73.2777H13.4947ZM13.4947 76.8774V73.7169H14.3558V76.8774H13.4947ZM14.9759 73.7514C14.9759 72.9591 15.4581 72.5027 16.5777 72.5027C16.9896 72.5037 17.4 72.5528 17.8006 72.6491L17.7058 73.3552C17.3432 73.2739 16.9745 73.2221 16.6035 73.2002C16.0179 73.2002 15.8285 73.3983 15.8285 73.8547V75.5168C15.8285 75.9732 16.0179 76.1713 16.6035 76.1713C16.9734 76.1636 17.342 76.1262 17.7058 76.0593L17.8006 76.7655C17.4 76.8618 16.9896 76.9109 16.5777 76.9119C15.4581 76.9119 14.9759 76.4555 14.9759 75.6632V73.7514ZM19.6176 76.9463C18.4895 76.9463 18.1881 76.3521 18.1881 75.7062V74.9226C18.1881 74.2767 18.4895 73.6825 19.6176 73.6825C20.7458 73.6825 21.0472 74.2767 21.0472 74.9226V75.7235C21.0472 76.3435 20.7458 76.9377 19.6176 76.9377V76.9463ZM19.6176 74.3628C19.1784 74.3628 19.0062 74.5523 19.0062 74.9054V75.7665C19.0062 76.1196 19.1784 76.3091 19.6176 76.3091C20.0568 76.3091 20.2291 76.1196 20.2291 75.7665V74.9054C20.2291 74.5178 20.0568 74.3284 19.6176 74.3284V74.3628ZM23.3638 74.4145C23.0657 74.5449 22.7779 74.6975 22.5026 74.8709V76.9033H21.6414V73.7169H22.3906V74.0614C22.6589 73.8874 22.9483 73.7485 23.2518 73.648L23.3638 74.4145ZM26.6965 75.7838C26.719 75.9326 26.7067 76.0846 26.6606 76.2278C26.6144 76.371 26.5357 76.5016 26.4305 76.6093C26.3253 76.717 26.1966 76.7988 26.0545 76.8483C25.9124 76.8978 25.7607 76.9137 25.6114 76.8947C25.3221 76.8896 25.0338 76.8579 24.7503 76.7999V78.0917L23.8891 78.2123V73.7169H24.5436L24.6211 73.9839C24.9254 73.7679 25.29 73.6534 25.6631 73.6566C26.3262 73.6566 26.6793 74.0356 26.6793 74.7503L26.6965 75.7838ZM24.733 76.1368C24.9737 76.1892 25.2188 76.218 25.465 76.223C25.7578 76.223 25.8784 76.0852 25.8784 75.801V74.7331C25.8784 74.4748 25.7751 74.3284 25.4736 74.3284C25.2045 74.3374 24.9464 74.4376 24.7416 74.6125L24.733 76.1368Z" fill="black"/>
<path d="M5.02067 83.474H0V80.4771H13.443V83.474H8.42232V98.4585H5.02067V83.474Z" fill="black"/>
<path d="M16.5432 96.0214C17.9071 96.0149 19.2624 95.8059 20.5649 95.4013L21.0816 97.8815C19.5339 98.4485 17.8988 98.74 16.2504 98.7427C12.1168 98.7427 10.6872 96.8223 10.6872 93.6704V90.2257C10.6872 87.4441 11.9273 85.0586 16.1385 85.0586C20.3496 85.0586 21.3055 87.513 21.3055 90.3462V93.1537H13.9855V93.8254C13.9855 95.4013 14.5453 96.0214 16.5432 96.0214ZM13.9597 90.484H18.145V89.8381C18.145 88.598 17.7661 87.7369 16.1471 87.7369C14.5281 87.7369 13.9597 88.598 13.9597 89.8381V90.484Z" fill="black"/>
<path d="M30.0982 88.0642C28.9026 88.6155 27.751 89.2575 26.6535 89.9847V98.4587H23.3207V85.3085H26.1023L26.3176 86.7639C27.3855 86.0414 28.5436 85.4624 29.7623 85.0415L30.0982 88.0642Z" fill="black"/>
<path d="M38.1416 88.0642C36.946 88.6155 35.7944 89.2575 34.6969 89.9847V98.4587H31.3641V85.3085H34.1457L34.361 86.7639C35.4289 86.0414 36.587 85.4624 37.8057 85.0415L38.1416 88.0642Z" fill="black"/>
<path d="M49.1474 98.4498H46.4519L46.2108 97.5886C45.0471 98.3454 43.6892 98.7492 42.3011 98.7512C39.8984 98.7512 38.8564 97.1063 38.8564 94.8414C38.8564 92.1718 40.0189 91.147 42.6886 91.147H45.8491V89.7691C45.8491 88.3137 45.4444 87.797 43.3431 87.797C42.1184 87.8101 40.898 87.9457 39.7003 88.2018L39.2956 85.6957C40.7627 85.2901 42.2773 85.0816 43.7995 85.0757C47.9332 85.0757 49.1474 86.5311 49.1474 89.8294V98.4498ZM45.8577 93.4808H43.4292C42.3527 93.4808 42.0513 93.7736 42.0513 94.7726C42.0513 95.7715 42.3441 96.0988 43.3775 96.0988C44.2476 96.0873 45.1008 95.8562 45.8577 95.427V93.4808Z" fill="black"/>
<path d="M59.2749 82.3113C58.6548 82.1778 58.0231 82.1057 57.3889 82.096C56.0972 82.096 55.9077 82.6644 55.9077 83.6633V85.3082H59.2491L59.0596 87.8917H55.8991V98.4153H52.6094V87.9262H50.4995V85.3426H52.6008V83.4739C52.6008 80.7439 53.8667 79.4005 56.7861 79.4005C57.7435 79.3962 58.6968 79.5237 59.6194 79.7794L59.2749 82.3113Z" fill="black"/>
<path d="M65.6993 98.7257C61.1953 98.7257 59.981 96.2455 59.981 93.5586V90.2345C59.981 87.539 61.1953 85.0674 65.6993 85.0674C70.2032 85.0674 71.4261 87.5476 71.4261 90.2345V93.5586C71.4175 96.2369 70.2032 98.7257 65.6993 98.7257ZM65.6993 87.849C63.9769 87.849 63.2707 88.6327 63.2707 90.1139V93.6533C63.2707 95.1346 63.9425 95.9182 65.6993 95.9182C67.4561 95.9182 68.1278 95.1346 68.1278 93.6533V90.1139C68.1278 88.624 67.4475 87.8404 65.6993 87.8404V87.849Z" fill="black"/>
<path d="M79.8915 88.0642C78.6959 88.6155 77.5443 89.2575 76.4468 89.9847V98.4587H73.1227V85.3085H75.9043L76.1195 86.7639C77.1874 86.0414 78.3456 85.4624 79.5643 85.0415L79.8915 88.0642Z" fill="black"/>
<path d="M88.9338 98.4499V89.2784C88.9338 88.5808 88.641 88.2277 87.8832 88.2277C86.672 88.363 85.5005 88.7408 84.4385 89.3386V98.4585H81.166V85.3083H83.672L83.9993 86.4192C85.6382 85.5988 87.4304 85.1294 89.2611 85.0414C89.7683 84.9945 90.2777 85.1038 90.7211 85.3547C91.1644 85.6056 91.5204 85.9861 91.7413 86.4451C93.3834 85.605 95.1864 85.1264 97.0289 85.0414C99.2163 85.0414 100 86.5829 100 88.9253V98.4499H96.7103V89.2784C96.7103 88.5808 96.4175 88.2277 95.6596 88.2277C94.4463 88.3529 93.2728 88.7314 92.2149 89.3386V98.4585L88.9338 98.4499Z" fill="black"/>
<path fill-rule="evenodd" clip-rule="evenodd" d="M40.8887 11.7466L59.1112 22.2702V43.3174L40.8887 32.7938V11.7466Z" fill="#5C4EE5"/>
<path fill-rule="evenodd" clip-rule="evenodd" d="M61.1092 22.2702V43.3174L79.3404 32.7938V11.7466L61.1092 22.2702Z" fill="#4040B2"/>
<path fill-rule="evenodd" clip-rule="evenodd" d="M20.6683 0V21.0472L38.8908 31.5708V10.5236L20.6683 0Z" fill="#5C4EE5"/>
<path fill-rule="evenodd" clip-rule="evenodd" d="M40.8887 56.1401L59.1112 66.6637V45.7629V45.6252L40.8887 35.1016V56.1401Z" fill="#5C4EE5"/>
</svg>
