<svg width="72" height="100" viewBox="0 0 72 100" fill="none" xmlns="http://www.w3.org/2000/svg">
<path d="M7.29999 89.7743V92.384H4.79613V96.0869C4.79613 96.9156 5.09589 97.233 6.17149 97.233C6.54178 97.233 7.00023 97.1977 7.44105 97.1625V99.7369C6.96497 99.8427 6.18912 99.9661 5.21931 99.9661C2.1512 99.9661 1.58695 98.2028 1.58695 96.8451V92.384H0V89.7743H1.58695V88.205L4.6198 86.812H4.79613V89.7743H7.29999Z" fill="#EC4815"/>
<path d="M9.99705 86H13.4531V88.5744H9.99705V86ZM8.42773 92.3831V89.7734H13.4355V99.6478H10.2263V92.3831H8.42773Z" fill="#EC4815"/>
<path d="M18.7624 91.0779H19.0798C19.3972 90.0905 20.0849 89.4204 22.0245 89.4204C24.0523 89.4204 25.5863 90.4078 25.5863 92.8059V99.6474H22.3772V93.7581C22.3772 92.6825 21.7777 92.1888 20.7902 92.1888C19.6793 92.1888 19.0622 92.7354 19.0622 94.0755V99.6474H15.853V89.7731H18.7624V91.0779Z" fill="#EC4815"/>
<path d="M33.9789 98.1487H33.8026C33.2912 99.1008 32.0746 99.8943 30.5758 99.8943C28.3717 99.8943 27.2432 98.8011 27.2432 97.0907C27.2432 95.3979 28.2482 94.4105 30.1173 94.1107L32.9033 93.6699C33.5204 93.5641 33.6791 93.2291 33.6791 92.9293V92.7354C33.6791 92.2946 33.3617 91.7479 32.3038 91.7479C31.4045 91.7479 30.8755 92.1535 30.8226 92.8412H27.7545C27.8779 90.8487 29.2357 89.4204 32.1627 89.4204C35.2308 89.4204 36.7473 90.6547 36.7473 92.6296V97.0731H37.8581V99.6474H33.9789V98.1487ZM33.6791 95.8035V94.9747H33.5028C33.3265 95.1687 33.0796 95.3098 32.6917 95.3979L31.3869 95.7153C30.805 95.8564 30.5229 96.1914 30.5229 96.738C30.5229 97.3904 30.9461 97.7255 31.7924 97.7255C33.0444 97.7255 33.6791 96.8615 33.6791 95.8035Z" fill="#EC4815"/>
<path d="M45.7707 96.4735H47.6221C47.3047 98.9245 45.9646 100 43.5313 100C40.4808 100 39.1055 98.2016 39.1055 94.7103C39.1055 91.695 40.1634 89.4204 43.5313 89.4204C46.3526 89.4204 47.2871 90.9368 47.534 92.947H45.6649C45.4886 91.6598 44.8714 90.8839 43.5313 90.8839C41.768 90.8839 40.9217 92.0477 40.9217 94.7103C40.9217 97.1789 41.627 98.5013 43.5313 98.5013C44.8538 98.5013 45.5767 97.7607 45.7707 96.4735Z" fill="#EC4815"/>
<path d="M56.3348 91.1484H56.5112C56.8286 90.1257 57.5868 89.4204 58.8211 89.4204C60.4609 89.4204 61.131 90.5136 61.131 92.8059V99.6474H59.3677V93.088C59.3677 91.889 59.1208 91.0779 58.0629 91.0779C57.0402 91.0779 56.4759 91.9595 56.4759 93.5994V99.6474H54.7479V93.088C54.7479 91.9066 54.4658 91.0779 53.4607 91.0779C52.244 91.0779 51.8385 92.0477 51.8385 93.7581V99.6474H50.0752V89.7731H51.7327V91.1484H51.9443C52.3146 90.0552 52.9493 89.4204 54.2013 89.4204C55.3827 89.4204 56.0351 90.0199 56.3348 91.1484Z" fill="#EC4815"/>
<path d="M71.502 92.5062H69.5976C69.4742 91.4835 68.9452 90.7958 67.5699 90.7958C66.5119 90.7958 65.5774 91.2366 65.5774 92.224C65.5774 92.8941 65.9124 93.3525 66.8822 93.5818L68.8747 94.0402C70.6909 94.4458 71.6607 95.4156 71.6607 96.932C71.6607 98.66 70.5146 100 67.7462 100C65.2952 100 63.8141 99.0832 63.4614 96.9144H65.4892C65.7713 98.1663 66.5119 98.6247 67.7815 98.6247C68.8394 98.6247 69.8269 98.2368 69.8269 97.1083C69.8269 96.4383 69.4037 95.9269 68.3105 95.6624L65.9829 95.1158C64.6428 94.7984 63.7788 93.9344 63.7788 92.418C63.7788 90.6547 65.1189 89.4204 67.6051 89.4204C70.4264 89.4204 71.3433 90.9897 71.502 92.5062Z" fill="#EC4815"/>
<path d="M43.4775 34.9587C48.8486 31.1049 49.6602 13.3186 51.343 6.48753C53.0262 -0.343525 59.9868 0.00293859 59.9868 0.00293859C59.9868 0.00293859 58.1797 3.14775 58.9166 5.49456C59.6539 7.84137 64.703 9.93911 64.703 9.93911L63.6139 12.8101C63.6139 12.8101 61.3399 12.5193 59.9868 15.2261C56.4521 22.2965 62.6118 42.941 62.6118 42.941C62.6118 42.941 52.7232 56.9799 52.7232 67.5502C52.7232 74.3236 55.929 79.9999 55.929 79.9999H51.4304C51.4304 79.9999 44.8311 72.1463 43.4775 68.2212C42.1241 64.2962 42.6652 60.3714 42.6652 60.3714C42.6652 60.3714 35.4919 59.9653 29.1309 60.3714C22.77 60.7772 18.5279 66.2454 17.7623 69.304C16.9967 72.3626 16.6795 79.9999 16.6795 79.9999H13.1225C10.9575 73.3186 9.23797 70.9241 10.1708 67.5502C12.7546 58.2058 12.247 52.906 11.6488 50.5452C11.0506 48.1847 7 46.1241 7 46.1241C8.98418 42.0817 12.176 40.1123 19.7216 39.9366C28.4337 39.7342 38.1066 38.8122 43.4775 34.9587Z" fill="#EC4815"/>
<path d="M20.9102 67.159C20.9102 67.159 21.8293 75.6653 26.7126 79.9999H30.8974C26.7126 75.2591 26.2562 62.9019 26.2562 62.9019C24.1277 63.5949 21.1809 66.0762 20.9102 67.159Z" fill="#EC4815"/>
</svg>
