<svg width="142" height="24" viewBox="0 0 142 24" fill="none" xmlns="http://www.w3.org/2000/svg">
<path d="M14.256 2.368V5.56H9.24V19H5.496V5.56H0.48V2.368H14.256ZM28.2255 6.376C27.5055 8.808 26.7535 11.088 25.9695 13.216C25.1855 15.344 24.3295 17.408 23.4015 19.408C23.0655 20.128 22.7295 20.736 22.3935 21.232C22.0575 21.744 21.6895 22.16 21.2895 22.48C20.8895 22.816 20.4335 23.056 19.9215 23.2C19.4255 23.36 18.8415 23.44 18.1695 23.44C17.6095 23.44 17.0895 23.384 16.6095 23.272C16.1455 23.176 15.7615 23.064 15.4575 22.936L16.0815 20.08C16.4495 20.208 16.7775 20.296 17.0655 20.344C17.3535 20.392 17.6575 20.416 17.9775 20.416C18.6175 20.416 19.1055 20.24 19.4415 19.888C19.7935 19.552 20.0895 19.08 20.3295 18.472C19.5135 16.872 18.6975 15.08 17.8815 13.096C17.0655 11.096 16.2975 8.856 15.5775 6.376H19.3695C19.5295 7 19.7135 7.68 19.9215 8.416C20.1455 9.136 20.3775 9.872 20.6175 10.624C20.8575 11.36 21.0975 12.08 21.3375 12.784C21.5935 13.488 21.8335 14.128 22.0575 14.704C22.2655 14.128 22.4815 13.488 22.7055 12.784C22.9295 12.08 23.1455 11.36 23.3535 10.624C23.5775 9.872 23.7855 9.136 23.9775 8.416C24.1855 7.68 24.3695 7 24.5295 6.376H28.2255ZM40.6305 12.784C40.6305 11.68 40.3825 10.8 39.8865 10.144C39.3905 9.472 38.6545 9.136 37.6785 9.136C37.3585 9.136 37.0625 9.152 36.7905 9.184C36.5185 9.2 36.2945 9.224 36.1185 9.256V15.712C36.3425 15.856 36.6305 15.976 36.9825 16.072C37.3505 16.168 37.7185 16.216 38.0865 16.216C39.7825 16.216 40.6305 15.072 40.6305 12.784ZM44.2785 12.688C44.2785 13.664 44.1585 14.552 43.9185 15.352C43.6785 16.152 43.3265 16.84 42.8625 17.416C42.3985 17.992 41.8225 18.44 41.1345 18.76C40.4465 19.08 39.6545 19.24 38.7585 19.24C38.2625 19.24 37.7985 19.192 37.3665 19.096C36.9345 19 36.5185 18.864 36.1185 18.688V23.44H32.5425V6.808C32.8625 6.712 33.2305 6.624 33.6465 6.544C34.0625 6.448 34.4945 6.368 34.9425 6.304C35.4065 6.24 35.8705 6.192 36.3345 6.16C36.8145 6.112 37.2705 6.088 37.7025 6.088C38.7425 6.088 39.6705 6.248 40.4865 6.568C41.3025 6.872 41.9905 7.312 42.5505 7.888C43.1105 8.448 43.5345 9.136 43.8225 9.952C44.1265 10.768 44.2785 11.68 44.2785 12.688ZM48.8269 12.784C48.8269 11.664 48.9949 10.688 49.3309 9.856C49.6829 9.008 50.1389 8.304 50.6989 7.744C51.2589 7.184 51.8989 6.76 52.6189 6.472C53.3549 6.184 54.1069 6.04 54.8749 6.04C56.6669 6.04 58.0829 6.592 59.1229 7.696C60.1629 8.784 60.6829 10.392 60.6829 12.52C60.6829 12.728 60.6749 12.96 60.6589 13.216C60.6429 13.456 60.6269 13.672 60.6109 13.864H52.4989C52.5789 14.6 52.9229 15.184 53.5309 15.616C54.1389 16.048 54.9549 16.264 55.9789 16.264C56.6349 16.264 57.2749 16.208 57.8989 16.096C58.5389 15.968 59.0589 15.816 59.4589 15.64L59.9389 18.544C59.7469 18.64 59.4909 18.736 59.1709 18.832C58.8509 18.928 58.4909 19.008 58.0909 19.072C57.7069 19.152 57.2909 19.216 56.8429 19.264C56.3949 19.312 55.9469 19.336 55.4989 19.336C54.3629 19.336 53.3709 19.168 52.5229 18.832C51.6909 18.496 50.9949 18.04 50.4349 17.464C49.8909 16.872 49.4829 16.176 49.2109 15.376C48.9549 14.576 48.8269 13.712 48.8269 12.784ZM57.2269 11.416C57.2109 11.112 57.1549 10.816 57.0589 10.528C56.9789 10.24 56.8429 9.984 56.6509 9.76C56.4749 9.536 56.2429 9.352 55.9549 9.208C55.6829 9.064 55.3389 8.992 54.9229 8.992C54.5229 8.992 54.1789 9.064 53.8909 9.208C53.6029 9.336 53.3629 9.512 53.1709 9.736C52.9789 9.96 52.8269 10.224 52.7149 10.528C52.6189 10.816 52.5469 11.112 52.4989 11.416H57.2269ZM69.4665 16.432C70.1225 16.432 70.5865 16.368 70.8585 16.24C71.1305 16.112 71.2665 15.864 71.2665 15.496C71.2665 15.208 71.0905 14.96 70.7385 14.752C70.3865 14.528 69.8505 14.28 69.1305 14.008C68.5705 13.8 68.0585 13.584 67.5945 13.36C67.1465 13.136 66.7625 12.872 66.4425 12.568C66.1225 12.248 65.8745 11.872 65.6985 11.44C65.5225 11.008 65.4345 10.488 65.4345 9.88C65.4345 8.696 65.8745 7.76 66.7545 7.072C67.6345 6.384 68.8425 6.04 70.3785 6.04C71.1465 6.04 71.8825 6.112 72.5865 6.256C73.2905 6.384 73.8505 6.528 74.2665 6.688L73.6425 9.472C73.2265 9.328 72.7705 9.2 72.2745 9.088C71.7945 8.976 71.2505 8.92 70.6425 8.92C69.5225 8.92 68.9625 9.232 68.9625 9.856C68.9625 10 68.9865 10.128 69.0345 10.24C69.0825 10.352 69.1785 10.464 69.3225 10.576C69.4665 10.672 69.6585 10.784 69.8985 10.912C70.1545 11.024 70.4745 11.152 70.8585 11.296C71.6425 11.584 72.2905 11.872 72.8025 12.16C73.3145 12.432 73.7145 12.736 74.0025 13.072C74.3065 13.392 74.5145 13.752 74.6265 14.152C74.7545 14.552 74.8185 15.016 74.8185 15.544C74.8185 16.792 74.3465 17.736 73.4025 18.376C72.4745 19.016 71.1545 19.336 69.4425 19.336C68.3225 19.336 67.3865 19.24 66.6345 19.048C65.8985 18.856 65.3865 18.696 65.0985 18.568L65.6985 15.664C66.3065 15.904 66.9305 16.096 67.5705 16.24C68.2105 16.368 68.8425 16.432 69.4665 16.432ZM79.2909 12.688C79.2909 11.776 79.4349 10.92 79.7229 10.12C80.0269 9.304 80.4589 8.6 81.0189 8.008C81.5789 7.4 82.2589 6.92 83.0589 6.568C83.8589 6.216 84.7709 6.04 85.7949 6.04C86.4669 6.04 87.0829 6.104 87.6429 6.232C88.2029 6.344 88.7469 6.512 89.2749 6.736L88.5309 9.592C88.1949 9.464 87.8269 9.352 87.4269 9.256C87.0269 9.16 86.5789 9.112 86.0829 9.112C85.0269 9.112 84.2349 9.44 83.7069 10.096C83.1949 10.752 82.9389 11.616 82.9389 12.688C82.9389 13.824 83.1789 14.704 83.6589 15.328C84.1549 15.952 85.0109 16.264 86.2269 16.264C86.6589 16.264 87.1229 16.224 87.6189 16.144C88.1149 16.064 88.5709 15.936 88.9869 15.76L89.4909 18.688C89.0749 18.864 88.5549 19.016 87.9309 19.144C87.3069 19.272 86.6189 19.336 85.8669 19.336C84.7149 19.336 83.7229 19.168 82.8909 18.832C82.0589 18.48 81.3709 18.008 80.8269 17.416C80.2989 16.824 79.9069 16.128 79.6509 15.328C79.4109 14.512 79.2909 13.632 79.2909 12.688ZM101.899 9.544C101.579 9.464 101.203 9.384 100.771 9.304C100.339 9.208 99.8749 9.16 99.3789 9.16C99.1549 9.16 98.8829 9.184 98.5629 9.232C98.2589 9.264 98.0269 9.304 97.8669 9.352V19H94.2909V7.048C94.9309 6.824 95.6829 6.616 96.5469 6.424C97.4269 6.216 98.4029 6.112 99.4749 6.112C99.6669 6.112 99.8989 6.128 100.171 6.16C100.443 6.176 100.715 6.208 100.987 6.256C101.259 6.288 101.531 6.336 101.803 6.4C102.075 6.448 102.307 6.512 102.499 6.592L101.899 9.544ZM110.392 19H106.816V6.376H110.392V19ZM110.728 2.728C110.728 3.384 110.512 3.904 110.08 4.288C109.664 4.656 109.168 4.84 108.592 4.84C108.016 4.84 107.512 4.656 107.08 4.288C106.664 3.904 106.456 3.384 106.456 2.728C106.456 2.072 106.664 1.56 107.08 1.192C107.512 0.807999 108.016 0.615999 108.592 0.615999C109.168 0.615999 109.664 0.807999 110.08 1.192C110.512 1.56 110.728 2.072 110.728 2.728ZM124.241 12.784C124.241 11.68 123.993 10.8 123.497 10.144C123.001 9.472 122.265 9.136 121.289 9.136C120.969 9.136 120.673 9.152 120.401 9.184C120.129 9.2 119.905 9.224 119.729 9.256V15.712C119.953 15.856 120.241 15.976 120.593 16.072C120.961 16.168 121.329 16.216 121.697 16.216C123.393 16.216 124.241 15.072 124.241 12.784ZM127.889 12.688C127.889 13.664 127.769 14.552 127.529 15.352C127.289 16.152 126.937 16.84 126.473 17.416C126.009 17.992 125.433 18.44 124.745 18.76C124.057 19.08 123.265 19.24 122.369 19.24C121.873 19.24 121.409 19.192 120.977 19.096C120.545 19 120.129 18.864 119.729 18.688V23.44H116.153V6.808C116.473 6.712 116.841 6.624 117.257 6.544C117.673 6.448 118.105 6.368 118.553 6.304C119.017 6.24 119.481 6.192 119.945 6.16C120.425 6.112 120.881 6.088 121.313 6.088C122.353 6.088 123.281 6.248 124.097 6.568C124.913 6.872 125.601 7.312 126.161 7.888C126.721 8.448 127.145 9.136 127.433 9.952C127.737 10.768 127.889 11.68 127.889 12.688ZM132.918 3.232L136.494 2.656V6.376H140.79V9.352H136.494V13.792C136.494 14.544 136.622 15.144 136.878 15.592C137.15 16.04 137.686 16.264 138.486 16.264C138.87 16.264 139.262 16.232 139.662 16.168C140.078 16.088 140.454 15.984 140.79 15.856L141.294 18.64C140.862 18.816 140.382 18.968 139.854 19.096C139.326 19.224 138.678 19.288 137.91 19.288C136.934 19.288 136.126 19.16 135.486 18.904C134.846 18.632 134.334 18.264 133.95 17.8C133.566 17.32 133.294 16.744 133.134 16.072C132.99 15.4 132.918 14.656 132.918 13.84V3.232Z" fill="black"/>
</svg>
