<svg width="57" height="17" viewBox="0 0 57 17" fill="none" xmlns="http://www.w3.org/2000/svg">
<path d="M13.08 2.144C13.272 2.8 13.48 3.544 13.704 4.376C13.944 5.192 14.192 6.04 14.448 6.92C14.72 7.8 14.992 8.68 15.264 9.56C15.536 10.44 15.8 11.256 16.056 12.008C16.264 11.192 16.472 10.304 16.68 9.344C16.904 8.384 17.112 7.392 17.304 6.368C17.496 5.344 17.68 4.328 17.856 3.32C18.048 2.296 18.224 1.312 18.384 0.368H22.272C21.712 3.152 21.064 5.976 20.328 8.84C19.608 11.704 18.824 14.424 17.976 17H14.544C13.984 15.464 13.44 13.856 12.912 12.176C12.384 10.48 11.864 8.784 11.352 7.088C10.84 8.784 10.328 10.48 9.816 12.176C9.304 13.856 8.768 15.464 8.208 17H4.776C3.928 14.424 3.136 11.704 2.4 8.84C1.68 5.976 1.04 3.152 0.48 0.368H4.536C4.696 1.312 4.872 2.296 5.064 3.32C5.256 4.328 5.456 5.344 5.664 6.368C5.872 7.392 6.08 8.384 6.288 9.344C6.512 10.304 6.736 11.192 6.96 12.008C7.248 11.224 7.528 10.392 7.8 9.512C8.072 8.632 8.336 7.752 8.592 6.872C8.848 5.992 9.08 5.144 9.288 4.328C9.512 3.512 9.712 2.784 9.888 2.144H13.08ZM32.0698 0.175999C34.5498 0.175999 36.4538 0.615999 37.7818 1.496C39.1098 2.36 39.7738 3.784 39.7738 5.768C39.7738 7.768 39.1018 9.216 37.7578 10.112C36.4138 10.992 34.4938 11.432 31.9978 11.432H30.8218V17H27.0778V0.607999C27.8938 0.447999 28.7578 0.335999 29.6698 0.271999C30.5818 0.207999 31.3818 0.175999 32.0698 0.175999ZM32.3098 3.368C32.0378 3.368 31.7658 3.376 31.4938 3.392C31.2378 3.408 31.0138 3.424 30.8218 3.44V8.24H31.9978C33.2938 8.24 34.2698 8.064 34.9258 7.712C35.5818 7.36 35.9098 6.704 35.9098 5.744C35.9098 5.28 35.8218 4.896 35.6458 4.592C35.4858 4.288 35.2458 4.048 34.9258 3.872C34.6218 3.68 34.2458 3.552 33.7978 3.488C33.3498 3.408 32.8538 3.368 32.3098 3.368ZM44.9231 17V0.368H56.0591V3.512H48.6671V6.992H55.2431V10.136H48.6671V17H44.9231Z" fill="black"/>
</svg>
