<svg xmlns="http://www.w3.org/2000/svg" viewBox="0 0 2500 2500"><defs><style>.cls-1{fill:#fff;}</style></defs><title>bwink_edu_05_single_11 [Converted]</title><g id="Background"><rect class="cls-1" width="2500" height="2500"/></g><g id="Illustration"><g id="Video_tutorial" data-name="Video tutorial"><path d="M610.89,787,604,761.79l-28.57,1.3a108.94,108.94,0,0,0-9.18-15.77l15.12-24.22-18.61-18.41-24.1,15.41a110.52,110.52,0,0,0-15.83-9l1-28.58-25.33-6.64-13.14,25.36a108,108,0,0,0-18.24.13l-13.44-25.25L428.4,683l1.3,28.57a108.25,108.25,0,0,0-15.76,9.17l-24.23-15.12L371.3,724.24l15.41,24.1a110.52,110.52,0,0,0-9,15.83l-28.58-1-6.64,25.33,25.36,13.14a108,108,0,0,0,.13,18.24l-25.24,13.44,6.91,25.25,28.57-1.3a107.5,107.5,0,0,0,9.18,15.77l-15.13,24.22,18.62,18.42L415,900.28a110.46,110.46,0,0,0,15.83,9l-1,28.58,25.33,6.64,13.14-25.35A108,108,0,0,0,486.5,919l13.44,25.25,25.25-6.92L523.9,908.8a109.22,109.22,0,0,0,15.76-9.18l24.23,15.12,18.41-18.61L566.89,872a109.51,109.51,0,0,0,9-15.83l28.59,1,6.63-25.33-25.35-13.14a109,109,0,0,0-.13-18.24ZM494.6,875.19a67.4,67.4,0,1,1,47.2-82.8A67.4,67.4,0,0,1,494.6,875.19Z"/><path class="cls-1" d="M1037.52,530l-11.83-43.22L976.81,489a185.64,185.64,0,0,0-15.71-27L987,420.58l-31.85-31.5-41.24,26.37A187.66,187.66,0,0,0,886.81,400l1.69-48.92-43.34-11.36-22.49,43.39a186.16,186.16,0,0,0-31.22.23l-23-43.2L725.25,352l2.22,48.89a186,186,0,0,0-27,15.7L659,390.69l-31.51,31.86,26.37,41.23a188.6,188.6,0,0,0-15.44,27.08l-48.91-1.68-11.36,43.33L621.58,555a186,186,0,0,0,.22,31.21l-43.19,23,11.83,43.21,48.88-2.22a185.64,185.64,0,0,0,15.71,27l-25.88,41.45L661,750.14l41.24-26.37a187.66,187.66,0,0,0,27.08,15.44l-1.69,48.92L771,799.48l22.49-43.39a185.09,185.09,0,0,0,31.22-.22l23,43.2,43.21-11.84-2.22-48.88a185.53,185.53,0,0,0,27-15.71l41.46,25.88,31.51-31.85-26.37-41.23a189.25,189.25,0,0,0,15.44-27.09l48.91,1.69,11.36-43.34-43.39-22.49a185,185,0,0,0-.22-31.21Zm-199,150.84a115.33,115.33,0,1,1,80.78-141.7A115.33,115.33,0,0,1,838.52,680.85Z"/><path d="M771,801.68a2.2,2.2,0,0,1-.56-.07l-43.33-11.36a2.18,2.18,0,0,1-1.64-2.2l1.63-47.46A192.2,192.2,0,0,1,702.2,726.4l-40,25.59a2.2,2.2,0,0,1-2.73-.29L627.6,720.2a2.2,2.2,0,0,1-.31-2.73l25.11-40.23A188.24,188.24,0,0,1,638,652.46l-47.43,2.16a2.16,2.16,0,0,1-2.22-1.62l-11.83-43.21a2.2,2.2,0,0,1,1.09-2.52L619.49,585a188.17,188.17,0,0,1-.21-28.67l-42.1-21.82a2.21,2.21,0,0,1-1.12-2.51l11.36-43.34a2.15,2.15,0,0,1,2.21-1.64l47.46,1.63a192.13,192.13,0,0,1,14.18-24.87l-25.59-40A2.21,2.21,0,0,1,626,421l31.51-31.85a2.18,2.18,0,0,1,2.72-.32l40.23,25.11a189.35,189.35,0,0,1,24.78-14.43l-2.16-47.43a2.22,2.22,0,0,1,1.62-2.22L767.88,338a2.19,2.19,0,0,1,2.52,1.09L792.71,381a188.17,188.17,0,0,1,28.67-.21l21.83-42.1a2.21,2.21,0,0,1,2.51-1.12L889.05,349a2.19,2.19,0,0,1,1.64,2.21l-1.63,47.46a191.46,191.46,0,0,1,24.87,14.18l40-25.59a2.21,2.21,0,0,1,2.73.29L988.53,419a2.19,2.19,0,0,1,.31,2.73L963.73,462a188.89,188.89,0,0,1,14.43,24.78l47.43-2.15a2.16,2.16,0,0,1,2.22,1.61l11.83,43.22a2.21,2.21,0,0,1-1.08,2.52l-41.92,22.3a188.3,188.3,0,0,1,.21,28.68l42.1,21.82a2.19,2.19,0,0,1,1.12,2.51l-11.36,43.34a2.1,2.1,0,0,1-2.2,1.64L979,650.6a190.8,190.8,0,0,1-14.18,24.87l25.59,40a2.22,2.22,0,0,1-.29,2.74l-31.51,31.85a2.19,2.19,0,0,1-2.72.32L915.7,725.28a188.64,188.64,0,0,1-24.78,14.42l2.16,47.43a2.21,2.21,0,0,1-1.62,2.22l-43.21,11.84a2.22,2.22,0,0,1-2.52-1.09l-22.31-41.91a188.18,188.18,0,0,1-28.67.2l-21.83,42.1A2.17,2.17,0,0,1,771,801.68Zm-41.08-15.24,39.94,10.47,21.68-41.83a2.2,2.2,0,0,1,2.12-1.18,183.93,183.93,0,0,0,30.85-.22,2.21,2.21,0,0,1,2.14,1.16l22.16,41.64,39.82-10.9-2.14-47.13a2.21,2.21,0,0,1,1.25-2.09,184,184,0,0,0,26.66-15.52,2.19,2.19,0,0,1,2.43-.06l40,25,29-29.36-25.43-39.75a2.21,2.21,0,0,1,0-2.43,185.66,185.66,0,0,0,15.26-26.76,2.07,2.07,0,0,1,2.07-1.27l47.16,1.62,10.47-39.94-41.83-21.68a2.18,2.18,0,0,1-1.18-2.12,185,185,0,0,0-.22-30.85,2.18,2.18,0,0,1,1.15-2.13l41.65-22.17L1024,489.07l-47.12,2.14a2.2,2.2,0,0,1-2.09-1.25,183.55,183.55,0,0,0-15.52-26.65,2.21,2.21,0,0,1-.07-2.43l24.95-40-29.35-29L915.08,417.3a2.21,2.21,0,0,1-2.43,0A186.71,186.71,0,0,0,885.88,402a2.2,2.2,0,0,1-1.27-2.07l1.63-47.16L846.3,342.3l-21.68,41.83a2.16,2.16,0,0,1-2.12,1.18,183.94,183.94,0,0,0-30.85.23,2.22,2.22,0,0,1-2.14-1.16l-22.16-41.64-39.82,10.9,2.14,47.13a2.21,2.21,0,0,1-1.25,2.08,184.57,184.57,0,0,0-26.66,15.52,2.21,2.21,0,0,1-2.43.07l-40-24.95-29,29.35,25.43,39.75a2.21,2.21,0,0,1,0,2.43,186.3,186.3,0,0,0-15.26,26.77,2.06,2.06,0,0,1-2.07,1.27l-47.16-1.62-10.47,39.93,41.83,21.68a2.2,2.2,0,0,1,1.18,2.13A184.88,184.88,0,0,0,624,586a2.2,2.2,0,0,1-1.15,2.14l-41.65,22.16,10.91,39.83L639.22,648a2.17,2.17,0,0,1,2.09,1.26,183.55,183.55,0,0,0,15.52,26.65,2.21,2.21,0,0,1,.07,2.43l-24.95,40,29.35,29,39.75-25.42a2.19,2.19,0,0,1,2.43,0,187.26,187.26,0,0,0,26.77,15.26,2.19,2.19,0,0,1,1.27,2.07Zm78-99.25A117.85,117.85,0,1,1,839.11,683,118.47,118.47,0,0,1,807.88,687.19Zm.36-230.77a113.66,113.66,0,0,0-30,4.07,112.43,112.43,0,1,0,30-4.07Z"/><rect class="cls-1" x="569.18" y="738.67" width="1527.69" height="1130.09" rx="70.64"/><path d="M2026.22,1871H639.82A72.93,72.93,0,0,1,567,1798.12V809.32a72.92,72.92,0,0,1,72.84-72.84h1386.4a72.92,72.92,0,0,1,72.85,72.84v988.8A72.93,72.93,0,0,1,2026.22,1871ZM639.82,740.87a68.52,68.52,0,0,0-68.44,68.45v988.8a68.51,68.51,0,0,0,68.44,68.44h1386.4a68.52,68.52,0,0,0,68.45-68.44V809.32a68.53,68.53,0,0,0-68.45-68.45Z"/><rect class="cls-1" x="650.16" y="808.73" width="1359.7" height="920.4" rx="49.89"/><path d="M1960,1731.33H700A52.14,52.14,0,0,1,648,1679.25V858.62A52.14,52.14,0,0,1,700,806.53H1960a52.15,52.15,0,0,1,52.09,52.09v820.63A52.14,52.14,0,0,1,1960,1731.33ZM700,810.93a47.75,47.75,0,0,0-47.69,47.69v820.63A47.75,47.75,0,0,0,700,1726.94H1960a47.75,47.75,0,0,0,47.69-47.69V858.62A47.74,47.74,0,0,0,1960,810.93Z"/><path d="M1258,932c20.6,54.38,41.2,227.31-38.12,334.53s-269.61,164.16-395.69,79.91c-152.06-101.61-130.18-355.07-37.6-461,51.85-59.29,101.31-44.22,172.86-129.27,71.37-84.83,57.38-141.7,119.83-176,75.1-41.21,184.72-8.72,204.17,35.85,17.4,39.87-38.16,72.35-48.78,165.51a191.68,191.68,0,0,0-.33,44.51C1240.81,882,1254.24,922.16,1258,932Z"/><path d="M1045,538c11.73,17.31,21.09,73.2-4.92,90.84s-77.57-9.67-89.3-27-.15-45.64,25.87-63.27S1033.24,520.64,1045,538Z"/><path class="cls-1" d="M979.28,1117S923,975.49,956.14,945.62c1.74-1.56,24.15-3.85,47.1,17.15,21.67,19.82,44,63,44,63l7.37,97.69Z"/><path d="M1054.6,1125.63h-.19l-75.32-6.42a2.2,2.2,0,0,1-1.86-1.37c-2.32-5.84-56.49-143.3-22.56-173.84,3.12-2.82,26.8-4.12,50.06,17.16,21.7,19.86,43.54,61.8,44.46,63.57a2.36,2.36,0,0,1,.24.85l7.36,97.7a2.2,2.2,0,0,1-2.19,2.36Zm-73.77-10.69,71.38,6.08-7.13-94.67c-2.3-4.36-23.29-43.62-43.32-62-21.43-19.61-41.83-18-44.29-17C927.71,974.7,975.39,1100.89,980.83,1114.94ZM957.38,947.42Z"/><path class="cls-1" d="M1407.58,860.12s21.94,4.73,39.19,31.37c34.43,53.15,87.63,149.82,172.75,164.27,127.78,21.68,205.19-133.79,194.21-168.62,0,0-18.35-24.38-48.5-31.73,0,0-.32-24.29,25.89-12.79s36.71,4.48,48.43,1.74c20.6-4.84,64.37-54.32,80.68-60.61s11.21,7.3,11.21,7.3,16-18,27-9l-23.48,31s19-25.1,30-12.49l-49.12,57.48,36-28.26s5,5.51-4.4,15.3-47.69,63.15-84.34,63.15c0,0,19.74,294.41-200.71,306.37-189.4,10.27-266.52-142.52-266.52-142.52Z"/><path d="M1644.53,1217.35c-88.89,0-150.82-36.59-187.87-68.43-42.79-36.77-62.57-75.4-62.77-75.79a2.22,2.22,0,0,1-.23-1.11l11.72-212a2.21,2.21,0,0,1,.86-1.62,2.28,2.28,0,0,1,1.8-.41c.93.21,23,5.23,40.58,32.33,3.25,5,6.66,10.42,10.26,16.1,33.8,53.47,84.87,134.27,161,147.19,70.37,11.94,120.56-31.84,144.22-59,36.67-42.08,52.35-90,47.64-106.42-2.19-2.75-19.8-24-47-30.62a2.19,2.19,0,0,1-1.68-2.11c0-.44-.06-10.87,7.3-15.75,5.17-3.43,12.47-3.12,21.68.92,21.1,9.27,31.26,6.22,41.08,3.26,1.94-.58,3.94-1.18,6-1.66,11-2.58,30-19.45,46.71-34.34,14-12.49,26.16-23.27,33.68-26.17,6.3-2.44,10.57-2.42,13.06,0a6.4,6.4,0,0,1,1.76,3.56c6-5.12,16.82-12.07,25.56-4.92a2.19,2.19,0,0,1,.36,3L1950,796.92a17.61,17.61,0,0,1,7.17-2,11.55,11.55,0,0,1,9.48,4.29,2.19,2.19,0,0,1,0,2.87l-34.74,40.65,18.59-14.59a2.18,2.18,0,0,1,3,.25c.27.29,6.27,7.17-4.44,18.3-1.38,1.44-3.47,3.92-6.11,7.06-15.12,18-46.18,54.94-77.5,56.7.86,19.68,4.26,161.49-69.48,244.76-33.61,38-78.5,58.7-133.42,61.68Q1653.34,1217.36,1644.53,1217.35Zm-246.45-145.69c2.47,4.64,22.05,40.12,61.58,74,38.87,33.35,105.56,72,202.6,66.76,53.7-2.92,97.56-23.17,130.35-60.19C1870.37,1064.5,1861,910,1860.9,908.43a2.21,2.21,0,0,1,2.19-2.34c30,0,61.38-37.28,76.45-55.2,2.69-3.2,4.82-5.73,6.3-7.28,4.66-4.84,5.32-8.27,5.08-10.27l-33.74,26.49a2.2,2.2,0,0,1-3-3.16l47.77-55.9a7,7,0,0,0-4.65-1.49c-7.68.27-17.45,11-20.57,15.16a2.2,2.2,0,0,1-3.51-2.66l22-29.14c-9.21-4.48-22,9.72-22.17,9.88a2.2,2.2,0,0,1-3.7-2.24c.46-1.24,1.11-4.35,0-5.42-.39-.38-2.16-1.46-8.38.94-6.78,2.61-19.19,13.66-32.34,25.36-18,16-36.52,32.49-48.63,35.34-1.88.44-3.74,1-5.7,1.58-10.09,3-21.52,6.47-44.11-3.44-7.75-3.4-13.63-3.83-17.48-1.28s-5,7.73-5.23,10.37c29.5,7.93,47.2,31.09,48,32.09a2.3,2.3,0,0,1,.34.66c6.07,19.25-12.32,69.57-48.41,111-24.27,27.85-75.82,72.73-148.27,60.45-78.07-13.25-129.77-95.05-164-149.18-3.58-5.67-7-11.06-10.23-16.06-13.14-20.3-29.21-27.53-35.31-29.65Z"/><path d="M1890.26,835.24a2.2,2.2,0,0,1-1.57-3.74l41.18-42a2.2,2.2,0,0,1,3.14,3.08l-41.18,42A2.23,2.23,0,0,1,1890.26,835.24Z"/><path d="M1907,843.73a2.2,2.2,0,0,1-1.57-3.74l27.94-28.42a2.2,2.2,0,1,1,3.13,3.08l-27.93,28.42A2.19,2.19,0,0,1,1907,843.73Z"/><path d="M1833.55,889.44a2.22,2.22,0,0,1-.9-.2,2.2,2.2,0,0,1-1.1-2.91c.51-1.13,12.8-27.77,32.88-23.67,17.68,3.62,30.34-.93,30.46-1a2.2,2.2,0,0,1,1.54,4.12c-.56.22-13.89,5.06-32.88,1.16-16.69-3.41-27.88,20.94-28,21.18A2.2,2.2,0,0,1,1833.55,889.44Z"/><path class="cls-1" d="M956.14,945.62S1344,836.9,1422.43,850l27.42,182.76,51.87,139.82c14.91,40.19,6.47,85.53-22.45,117.17-32.33,35.35-86.07,72.73-170.26,76.52-163.44,7.36-243,47.65-251.62-24.58s-19-245.49-19-245.49C1012.3,1027.24,980.5,947.61,956.14,945.62Z"/><path d="M1114.4,1386.26c-18.81,0-33.09-2.82-43.06-10.63-9-7-14.25-18.06-16.13-33.71-8.39-70-18.44-236.65-19-245.28-19.52-51.5-55.7-146.82-80.29-148.82a2.22,2.22,0,0,1-2-2,2.19,2.19,0,0,1,1.6-2.32c15.86-4.45,389.27-108.72,467.24-95.71a2.2,2.2,0,0,1,1.81,1.84L1452,1032.18l51.79,139.61c15.37,41.41,6.59,87.16-22.89,119.41-30.23,33.07-84.58,73.31-171.78,77.24-48,2.16-89.32,7.24-122.55,11.32C1157.62,1383.31,1133.64,1386.25,1114.4,1386.26ZM963.55,945.85c23.7,13.55,50.9,80.88,76.93,149.54a2.1,2.1,0,0,1,.14.65c.1,1.73,10.4,174,19,245.35,1.75,14.64,6.35,24.42,14.47,30.78,18.73,14.67,55.83,10.12,112,3.22,33.31-4.09,74.76-9.18,122.89-11.35,85.7-3.86,139.06-43.35,168.73-75.81,28.37-31,36.81-75.06,22-114.92l-51.87-139.81a2.2,2.2,0,0,1-.12-.44L1420.49,851.9C1346,841.6,1015.38,931.55,963.55,945.85Z"/><path class="cls-1" d="M1219.18,821.18c14,2.24,27.57-.06,34.45-6.27,8.5-7.64,7.78-18.61,8.74-32.15.41-5.66.45-12.16,4.69-18.83a29.22,29.22,0,0,1,7.94-8.19,8.54,8.54,0,0,0,2.54-11l-1.58-2.15c-12.45-17-18.28-47.23-16.27-78.71L1251,647.83c-24.14-3.56-43.37-2.4-45.55,1.81-.8,1.55-2.24,2.78-.69,9,7.45,30-20.29,33.25-44.21,33s-6.09,39.86-6.09,39.86-18.31-14.82-30.2,4.6c-8.52,13.92,17.6,27.26,33.08,33.7,0,0,.19,97.38-19.53,110.39l-54.74,34.85s119.8,29.19,202.32-40.8c0,0-36.68,2-52.82-10.54S1220.82,824.34,1219.18,821.18Z"/><path d="M1142.22,923.15c-34.49,0-59.15-5.8-59.69-5.94a2.2,2.2,0,0,1-.66-4l54.74-34.85c15.06-9.93,18.45-79.26,18.51-107.07-14-5.93-30.67-15-34.1-25.6a12.4,12.4,0,0,1,1.35-10.71c3.78-6.18,8.6-9.81,14.31-10.79a22.92,22.92,0,0,1,13.39,2.16c-2.92-8.34-6.87-23.19-1.59-31.25,2.47-3.78,6.56-5.73,12.07-5.63,14.59.17,32.27-.94,39.65-10.31,3.78-4.79,4.56-11.33,2.41-20-1.46-5.83-.54-8.09.61-10.07.09-.16.18-.31.26-.47,3.31-6.39,27.11-6,47.82-3a2.18,2.18,0,0,1,1.61,1.13l8.71,16.07a2.16,2.16,0,0,1,.26,1.19c-2,31.58,4.06,61.19,15.85,77.26l1.58,2.16a2,2,0,0,1,.17.27,10.72,10.72,0,0,1-3.22,13.8,27.1,27.1,0,0,0-7.35,7.58c-3.55,5.59-3.9,11-4.24,16.23l-.1,1.58c-.14,1.89-.24,3.73-.34,5.52-.62,11.23-1.15,20.93-9.12,28.11-6.86,6.17-19.44,8.86-33.33,7.21,0,.88.07,1.93.1,3.21.2,9.15.57,26.19,12,35,15.3,11.84,51,10.09,51.37,10.08a2.22,2.22,0,0,1,2.16,1.39,2.19,2.19,0,0,1-.63,2.48C1241.42,914.44,1184.46,923.14,1142.22,923.15ZM1088.8,914c23.32,4.4,119.62,18.16,190.26-37.42-11.46-.05-35.28-1.39-47.86-11.12-13.1-10.13-13.5-28.53-13.72-38.41a31.84,31.84,0,0,0-.29-5,2.15,2.15,0,0,1,.18-2.26,2.21,2.21,0,0,1,2.15-.84c13.56,2.17,26.37-.08,32.64-5.73,6.63-6,7.09-14.4,7.68-25.08.1-1.81.2-3.68.34-5.6l.1-1.54c.36-5.52.76-11.77,4.92-18.31a31.42,31.42,0,0,1,8.53-8.81,6.32,6.32,0,0,0,1.94-8l-1.48-2c-12.49-17-18.73-46.71-16.74-79.52l-7.88-14.55c-25.56-3.64-40.81-1.47-42.19.81-.11.22-.23.43-.36.65-.64,1.09-1.29,2.21-.15,6.8,2.48,9.94,1.39,17.95-3.22,23.8-8.56,10.86-27.55,12.1-43.14,12-4-.09-6.73,1.16-8.35,3.64-5.11,7.79,1.37,26.55,4.29,33.12a2.2,2.2,0,0,1-3.39,2.61c-.07-.06-7.69-6.09-15.65-4.72-4.41.77-8.21,3.72-11.29,8.76a8,8,0,0,0-.91,7.05c2.35,7.28,14.06,15.61,33,23.47a2.19,2.19,0,0,1,1.35,2c0,4,0,98.72-20.52,112.22Z"/><path d="M1219.18,823.38H1219c-27.17-2.77-45.72-34.93-46.5-36.3a2.2,2.2,0,0,1,3.83-2.17c.17.32,18.21,31.56,43.12,34.09a2.2,2.2,0,0,1-.22,4.39Z"/><path class="cls-1" d="M1403.54,1123.9c-17.32-13-73.9-50.75-93.92-39-13.32,7.84-26.44,20-37.09,54.31l-226.48,79.87.64-68.91a211.06,211.06,0,0,0-21.63-95l-42.3-86a153.15,153.15,0,0,0-58.55,71.93c-46.53,119.41-33.4,334.38,11.32,345.66C1055.71,1417,1288,1176,1288,1176s63.21-.31,75.6-1.55C1415,1169.26,1415.15,1132.59,1403.54,1123.9Z"/><path d="M958.23,1391.6a95.07,95.07,0,0,1-23.23-2.73c-7.29-1.84-13.9-8.43-19.65-19.58-30.19-58.55-32.31-228.61,6.81-329a154.44,154.44,0,0,1,59.39-73,2.17,2.17,0,0,1,1.79-.29,2.25,2.25,0,0,1,1.39,1.15l42.3,86a214.14,214.14,0,0,1,21.85,96l-.6,65.78,222.48-78.46c11-34.82,24.63-46.78,37.75-54.49,24.45-14.37,93.43,36.91,96.35,39.11,6.18,4.62,8.71,15,6,24.64-2.16,7.76-11.07,26.21-47,29.83-11.68,1.18-66.74,1.52-74.89,1.56-6.6,6.77-62.48,63.53-130.77,116.29C1074.61,1359,1007.52,1391.6,958.23,1391.6ZM981.9,972.37a149.84,149.84,0,0,0-55.64,69.5c-18,46.05-28.51,111.5-29,179.56-.45,62.78,8,118.66,22,145.84,5.15,10,10.81,15.82,16.82,17.33,117.58,29.67,348.07-207.75,350.39-210.15a2.15,2.15,0,0,1,1.57-.67c.63,0,63.25-.32,75.39-1.54,33.26-3.35,41.31-19.75,43.23-26.64,2.49-8.94-.42-16.95-4.43-19.95-19.26-14.43-73.25-49.56-91.48-38.83-12.49,7.34-25.5,18.85-36.11,53.06a2.18,2.18,0,0,1-1.37,1.42l-226.48,79.87a2.19,2.19,0,0,1-2-.28,2.23,2.23,0,0,1-.92-1.81l.64-68.91a209.78,209.78,0,0,0-21.41-94Z"/><path d="M1409.76,1141.34a2.16,2.16,0,0,1-.71-.12l-78.92-27.06a2.2,2.2,0,1,1,1.43-4.16l78.91,27.06a2.2,2.2,0,0,1-.71,4.28Z"/><path d="M1405.29,1156.15a2.27,2.27,0,0,1-.62-.09l-77-22.9a2.2,2.2,0,1,1,1.26-4.21l77,22.89a2.2,2.2,0,0,1-.63,4.31Z"/><path d="M1390.61,1169.21a2,2,0,0,1-.59-.08c-25.14-7-63.55-17.51-66.32-17.8a2.15,2.15,0,0,1-2.14-2.2,2.24,2.24,0,0,1,2.26-2.19c2.57,0,48,12.56,67.38,18a2.19,2.19,0,0,1-.59,4.31Z"/><path d="M983.76,1256.21a2.2,2.2,0,0,1-1.08-4.12l62.3-34.91a2.2,2.2,0,0,1,2.15,3.84l-62.3,34.91A2.19,2.19,0,0,1,983.76,1256.21Z"/><path d="M1451,1286.21a23.31,23.31,0,0,0-21.5-14.43c-87.84,0-177,22-267.63,67.1a42.73,42.73,0,0,0-18.36,17.55c-16.6,30-61,113.57-83.65,189.15-6.24,20.81-32.45,101.91-47.27,151.43a26.46,26.46,0,0,0,25.29,34c85.43.22,474.48,2.15,538.11-7a14.56,14.56,0,0,0,12.09-17.39C1555.32,1549.71,1472.74,1338.72,1451,1286.21Z"/><path d="M1990,1822H665.39a17.27,17.27,0,0,1-17.25-17.25v-4.13a17.27,17.27,0,0,1,17.25-17.25H1990a17.26,17.26,0,0,1,17.24,17.25v4.13A17.26,17.26,0,0,1,1990,1822ZM665.39,1787.74a12.86,12.86,0,0,0-12.85,12.85v4.13a12.87,12.87,0,0,0,12.85,12.85H1990a12.87,12.87,0,0,0,12.85-12.85v-4.13a12.87,12.87,0,0,0-12.85-12.85Z"/><circle class="cls-1" cx="1269.42" cy="1802.05" r="26.85" transform="translate(-712.7 2766.42) rotate(-80.78)"/><path d="M1269.42,1831.09a29,29,0,1,1,29-29A29.07,29.07,0,0,1,1269.42,1831.09Zm0-53.69a24.65,24.65,0,1,0,24.65,24.65A24.68,24.68,0,0,0,1269.42,1777.4Z"/><path class="cls-1" d="M1672.82,495.39h-308.3c-17.45,0-30.8,14.2-30.8,31.66v89.22c0,17.45,13.35,31.55,30.8,31.55h11.15V707.4l40.57-59.58h256.58c17.45,0,32.4-14.1,32.4-31.55V527.05C1705.22,509.59,1690.27,495.39,1672.82,495.39Z"/><path d="M1375.67,709.6a2.14,2.14,0,0,1-.65-.1,2.2,2.2,0,0,1-1.55-2.1V650h-9c-18.5,0-33-14.83-33-33.76V527.05c0-19,14.5-33.86,33-33.86h308.3c18.75,0,34.6,15.5,34.6,33.86v89.21c0,18.3-15.85,33.76-34.6,33.76H1417.4l-39.91,58.62A2.22,2.22,0,0,1,1375.67,709.6Zm-11.15-212c-16,0-28.6,12.94-28.6,29.46v89.21c0,16.47,12.56,29.36,28.6,29.36h11.15a2.19,2.19,0,0,1,2.2,2.2v52.44l36.55-53.68a2.2,2.2,0,0,1,1.82-1h256.58c16.37,0,30.2-13.44,30.2-29.36V527.05c0-16-13.83-29.46-30.2-29.46Z"/><rect x="1535.6" y="536.78" width="117.29" height="22.24" rx="10.21" transform="translate(3188.49 1095.8) rotate(180)"/><rect x="1431.3" y="536.78" width="73.07" height="22.24" rx="10.21" transform="translate(2935.67 1095.8) rotate(180)"/><rect x="1386.05" y="584.82" width="266.84" height="22.24" rx="10.21" transform="translate(3038.94 1191.88) rotate(180)"/><path d="M1943.78,708.92a4.82,4.82,0,0,1,0-5.5,13,13,0,0,0,2.45-7.4c0-12.07-18.7-21.86-41.77-21.86S1862.68,684,1862.68,696a13,13,0,0,0,2.46,7.4,4.82,4.82,0,0,1,0,5.5,13,13,0,0,0-2.46,7.4c0,5.73,4.21,10.94,11.1,14.84a8.79,8.79,0,0,0-.24,2c0,8.94,13.84,16.18,30.92,16.18s30.91-7.24,30.91-16.18a8.79,8.79,0,0,0-.24-2c6.89-3.9,11.1-9.11,11.1-14.84A13,13,0,0,0,1943.78,708.92Z"/><path class="cls-1" d="M2017.84,528.42c0-61.91-51.53-114.73-113.44-114.73s-112.76,51.39-113.17,113.18c-.21,31.46,15,60.73,35.66,81.22A116.56,116.56,0,0,1,1858,661.55l.26,1a44.76,44.76,0,0,0,43.32,33.5h8.36a44.77,44.77,0,0,0,43.33-33.5l.15-.59A114.59,114.59,0,0,1,1984,608.65,111.71,111.71,0,0,0,2017.84,528.42Z"/><path d="M1909.92,698.23h-8.36a47,47,0,0,1-45.45-35.14l-.25-1a114.61,114.61,0,0,0-30.52-52.45c-23.27-23-36.51-53.21-36.31-82.8.42-63.61,52.18-115.36,115.37-115.36,62.69,0,115.64,53.55,115.64,116.93a113.42,113.42,0,0,1-34.48,81.81,112.29,112.29,0,0,0-30,52.26l-.15.6A47,47,0,0,1,1909.92,698.23Zm-5.52-282.34c-60.78,0-110.57,49.79-111,111-.19,28.41,12.58,57.43,35,79.64A119,119,0,0,1,1860.11,661l.26,1a42.55,42.55,0,0,0,41.19,31.85h8.36a42.57,42.57,0,0,0,41.2-31.85l.16-.6a116.63,116.63,0,0,1,31.21-54.3,109.06,109.06,0,0,0,33.16-78.66C2015.65,467.42,1964.7,415.89,1904.4,415.89Z"/><path d="M1910.76,682.18h0a2.19,2.19,0,0,1-2.19-2.21c.24-60.33,35.47-128.44,42.52-141.48,4.21-7.76,5.81-14.11,4.91-19.41-1.33-7.87-5.36-12.93-12-15a23.92,23.92,0,0,0-18.31,1.88c8,8.15,13.33,21.56,10,33.2a12,12,0,0,1-9.83,8.61,15.14,15.14,0,0,1-14.8-6.3c-2.87-4.1-6.31-13.41,2.91-29.68a26.09,26.09,0,0,1,4.69-6.06l-.76-.5a23.28,23.28,0,0,0-20-2.29,21.92,21.92,0,0,0-6.09,3.5c8.53,6,12.79,21.73,11,30.6-1.35,6.69-5.26,11.48-10.72,13.13a13.17,13.17,0,0,1-13.15-3.35c-4.79-4.81-5.93-12.84-3.13-22.06a49.82,49.82,0,0,1,8.39-16.81c-12.72-3.52-21.6,2.57-24,8.52a23.07,23.07,0,0,0,2.68,21.64c10.33,14.76,34.5,57.88,35.68,139.13a2.19,2.19,0,0,1-2.16,2.23h0a2.2,2.2,0,0,1-2.2-2.16c-1.16-80-24.78-122.25-34.88-136.68a27.16,27.16,0,0,1-3.16-25.82c3.77-9.28,16.42-15.52,31.39-10.44a26.8,26.8,0,0,1,8.86-5.55c9.12-3.4,18.34-.84,23.93,2.69.68.42,1.35.89,2,1.39a28.39,28.39,0,0,1,23.09-3c10.32,3.31,13.82,11.88,14.95,18.49,1.08,6.4-.62,13.47-5.38,22.25-7,12.88-41.76,80.12-42,139.4A2.19,2.19,0,0,1,1910.76,682.18Zm-22.19-172.65c-3.57,4.06-6.46,9.6-8.55,16.47-2.32,7.61-1.58,14,2,17.67a8.68,8.68,0,0,0,8.77,2.25c3.86-1.17,6.66-4.73,7.68-9.79C1900,528.54,1896,513.76,1888.57,509.53Zm33.57-1a21.66,21.66,0,0,0-4.29,5.41c-8,14.17-5.41,21.74-3.14,25a10.68,10.68,0,0,0,10.47,4.48,7.61,7.61,0,0,0,6.34-5.48C1934.47,527.56,1929.44,515.56,1922.14,508.51Z"/><path d="M1956.39,601a2.2,2.2,0,0,1-1.17-4.06,89.66,89.66,0,0,0,39.57-56.14,2.2,2.2,0,1,1,4.29,1,94,94,0,0,1-41.52,58.91A2.18,2.18,0,0,1,1956.39,601Z"/><path d="M1834.38,588a2.17,2.17,0,0,1-1.64-.74A93.36,93.36,0,0,1,1861,441.6a2.2,2.2,0,0,1,2,3.94,89,89,0,0,0-27,138.78,2.19,2.19,0,0,1-.18,3.1A2.16,2.16,0,0,1,1834.38,588Z"/><path class="cls-1" d="M1911.6,709.91a2.2,2.2,0,0,1-.37-4.36,106.65,106.65,0,0,0,11-2.47,2.2,2.2,0,0,1,1.19,4.23,109.57,109.57,0,0,1-11.42,2.57Z"/><path class="cls-1" d="M1894,731.39a2.2,2.2,0,0,1,0-4.4c8.59-.07,21.19-1.27,32.44-6.53a2.2,2.2,0,1,1,1.87,4c-12,5.6-25.25,6.87-34.27,6.95Z"/><path d="M1905,388.91h0a2.2,2.2,0,0,1-2.16-2.24l1-49.52a2.21,2.21,0,0,1,2.2-2.15h0a2.2,2.2,0,0,1,2.15,2.24l-1,49.52A2.2,2.2,0,0,1,1905,388.91Z"/><path d="M1761.51,489.78h0l-31.62,0a2.2,2.2,0,0,1,0-4.4h0l31.61,0a2.2,2.2,0,1,1,0,4.4Z"/><path d="M1790.69,423.67a2.08,2.08,0,0,1-1-.27L1754,404.08a2.2,2.2,0,1,1,2.1-3.86l35.66,19.32a2.2,2.2,0,0,1-1,4.13Z"/><path d="M2047.4,489.78a2.2,2.2,0,0,1,0-4.4l31.62,0h0a2.2,2.2,0,0,1,0,4.4l-31.61,0Z"/><path d="M2018.23,423.67a2.2,2.2,0,0,1-1-4.13l35.66-19.32a2.19,2.19,0,1,1,2.09,3.86l-35.65,19.32A2.08,2.08,0,0,1,2018.23,423.67Z"/><path class="cls-1" d="M444.62,1515.84c-70,15-103.89,144.31-105.36,228-2.52,142.41,86.62,278.91,209.64,344.52,163.45,87.17,407.12,60.07,487.38-81.57,47.89-84.52,41.32-216.39-25.3-269.37-66.79-53.11-135.36,19.64-263-12.94C571.54,1679.47,532.13,1497.07,444.62,1515.84Z"/><path d="M756.58,2140.51c-73.72,0-147.15-17.36-208.72-50.2-128.54-68.55-213.25-207.8-210.8-346.5,1.52-86.34,35.76-214.82,107.1-230.12,42-9,72.73,26.32,111.66,71,44.11,50.67,99,113.72,192.68,137.63,60.86,15.53,107.42,7.08,148.49-.37,44.62-8.1,79.87-14.5,115.35,13.72,31.57,25.1,52.14,70.44,56.42,124.4,4.15,52.3-7,106.16-30.57,147.78-37.69,66.52-115.72,113-214.08,127.67A459.35,459.35,0,0,1,756.58,2140.51ZM445.08,1518c-68.23,14.63-102.17,143.45-103.63,225.89C339,1881,422.81,2018.64,549.93,2086.43c79.62,42.46,179.32,58.79,273.53,44.78,97-14.42,173.88-60.16,210.9-125.49,23.16-40.87,34.1-93.82,30-145.26-4.19-52.75-24.16-97-54.77-121.31-33.93-27-68.31-20.74-111.83-12.83-41.52,7.53-88.57,16.07-150.36.3-95-24.25-150.4-87.88-194.91-139C514.53,1544,484.54,1509.52,445.08,1518Z"/><path class="cls-1" d="M845.35,2137.21s63.24,26,108.3,25.59a10.48,10.48,0,0,0,9.32-14.93,117.81,117.81,0,0,0-8.83-15.29c-15.65-23.49-82.63-61.59-82.63-61.59l-10.8,4.68a7,7,0,0,0-3.31,9.81l2.72,4.87-18,0a7.13,7.13,0,0,0-7.14,7.49A106.83,106.83,0,0,0,845.35,2137.21Z"/><path d="M952.65,2165c-44.91,0-107.5-25.5-108.13-25.76a2.22,2.22,0,0,1-1.16-1.1,108.46,108.46,0,0,1-10.53-40.2,9.23,9.23,0,0,1,2.55-6.89,9.35,9.35,0,0,1,6.78-2.92h0l14.2,0-.89-1.6a9.17,9.17,0,0,1,4.36-12.9l10.79-4.68a2.21,2.21,0,0,1,2,.1c2.75,1.57,67.62,38.64,83.37,62.29a121.59,121.59,0,0,1,9,15.58,12.71,12.71,0,0,1-.78,12.19,12.55,12.55,0,0,1-10.51,5.87ZM847,2135.49c7.36,2.94,64.34,25.11,105.66,25.11h1a8.06,8.06,0,0,0,6.83-3.82,8.33,8.33,0,0,0,.52-8,117,117,0,0,0-8.67-15c-14.18-21.29-72.74-55.62-80.94-60.36l-9.78,4.24a4.79,4.79,0,0,0-2.28,6.72l2.73,4.87a2.21,2.21,0,0,1-1.92,3.28h0l-18,0h0a4.94,4.94,0,0,0-4.94,5.18A103.75,103.75,0,0,0,847,2135.49Z"/><path d="M955.93,2153.21h-.15c-49.17-3.27-107.09-25.1-107.67-25.32a2.21,2.21,0,0,1-1.27-2.84,2.18,2.18,0,0,1,2.83-1.27c.58.21,57.89,21.81,106.4,25a2.2,2.2,0,0,1-.14,4.4Z"/><path d="M913.24,2127a2.18,2.18,0,0,1-1.12-.31,2.21,2.21,0,0,1-.78-3l9.69-16.45a2.2,2.2,0,1,1,3.79,2.22L915.13,2126A2.19,2.19,0,0,1,913.24,2127Z"/><path d="M891.49,2120.36a2.14,2.14,0,0,1-1.11-.31,2.19,2.19,0,0,1-.78-3l12.16-20.68a2.2,2.2,0,0,1,3.79,2.23l-12.16,20.68A2.19,2.19,0,0,1,891.49,2120.36Z"/><path d="M647.27,1731.33c1.94-2,140.15-61.75,196.64-74.45s77.55-12.83,96.77,19.46-92.6,208.46-92.6,208.46l-237.89-62Z"/><path class="cls-1" d="M781.15,1800.48a2.26,2.26,0,0,1-.9-.2,2.19,2.19,0,0,1-1.1-2.9c26.66-59.51,70.69-102.05,71.13-102.47a2.2,2.2,0,1,1,3,3.18c-.44.41-43.86,42.39-70.16,101.09A2.22,2.22,0,0,1,781.15,1800.48Z"/><path d="M534.19,1810.24s0,33.7,31.9,65.23c40,39.52,168.77,12.33,168.77,12.33s13.24,21.7,21.9,79.68,18.3,136,32.64,155.09l124.77-26.94S872.79,1847.25,844,1813.47s-237.88-39.09-237.88-39.09Z"/><path class="cls-1" d="M858.47,1846.13a2.18,2.18,0,0,1-2.07-1.47c-5.19-14.91-9.91-24.92-14-29.76-15.11-17.75-113.77-30.68-201.06-36.85a2.2,2.2,0,1,1,.31-4.39c54.85,3.88,184.53,15.39,204.1,38.38,4.54,5.34,9.39,15.54,14.83,31.17a2.2,2.2,0,0,1-1.35,2.8A2.07,2.07,0,0,1,858.47,1846.13Z"/><path d="M692.38,1693.46c.62-2,64.6-99.39,64.6-99.39l15.43,11.27-58.47,91.16Z"/><path class="cls-1" d="M472.09,1797.88s-22.39-31.29-13.22-101.38,31.6-106.47,55.07-114.79,120,6.87,127.53,124.63Z"/><path d="M472.09,1800.08a2.19,2.19,0,0,1-1.79-.92c-.93-1.3-22.78-32.8-13.61-103,8.42-64.34,29-106.83,56.51-116.57,12.76-4.52,45.13-2.29,74.1,16.83,23.5,15.5,52.35,47.13,56.36,109.73a2.19,2.19,0,0,1-1.15,2.08l-169.37,91.54A2.18,2.18,0,0,1,472.09,1800.08ZM528,1582a41.55,41.55,0,0,0-13.37,1.81c-25.5,9-45.54,51.27-53.62,113-7.78,59.53,7.62,90.94,11.82,98.19l166.31-89.89c-4.23-59.87-31.81-90.1-54.3-104.94C564.67,1586.8,543,1582,528,1582Z"/><path d="M539.54,1749.46a2.2,2.2,0,0,1-2.19-2l-4.65-65.73a2.2,2.2,0,0,1,4.39-.31l4.64,65.73a2.19,2.19,0,0,1-2,2.35Z"/><path class="cls-1" d="M463.94,1779.86s8.14,58.86,90.4,39.16,125.16-96.18,125.16-96.18,47.9-10.24,46.27-41.31c0,0-16,4.29-29.67,0s-28.39.09-34.06,5.41C623.14,1723.43,498.89,1734.37,463.94,1779.86Z"/><path d="M523.26,1825.27c-15.53,0-28.61-3.59-39.07-10.73a53.82,53.82,0,0,1-22.43-34.38,2.18,2.18,0,0,1,.44-1.64c19.44-25.31,65.14-39.9,109.35-54,36.83-11.76,71.62-22.87,89-39.16,6.65-6.24,22.4-10.27,36.23-5.91,12.88,4.06,28.29,0,28.44,0a2.21,2.21,0,0,1,2.77,2c1.59,30.45-40,41.67-47.06,43.36-5.08,8.53-48.52,77.82-126.06,96.39A136.46,136.46,0,0,1,523.26,1825.27Zm-57-44.84c.8,3.92,4.94,20,20.45,30.52,15.86,10.8,38.44,12.79,67.1,5.93,80.34-19.24,123.32-94.36,123.75-95.12a2.22,2.22,0,0,1,1.46-1.07c.44-.1,43.25-9.6,44.54-36.42-5.31,1.06-17.33,2.76-28.14-.65-13-4.1-26.89.23-31.9,4.93-18.09,17-53.34,28.22-90.66,40.14C529.78,1742.45,485.23,1756.68,466.28,1780.43Z"/><path d="M696.43,1697q-2,0-4.14-.09a2.19,2.19,0,0,1-2.1-2.28,2.15,2.15,0,0,1,2.28-2.11c23.66,1,31.36-6.65,31.44-6.72a2.2,2.2,0,1,1,3.14,3.07C726.71,1689.23,718.85,1697,696.43,1697Z"/><path d="M694,1708.4l-1.62,0a2.2,2.2,0,0,1-2.16-2.24,2.24,2.24,0,0,1,2.24-2.16c20.14.46,26.84-6.68,26.91-6.74a2.2,2.2,0,0,1,3.3,2.9C722.32,1700.49,715.17,1708.4,694,1708.4Z"/><path class="cls-1" d="M552.66,1535.08c-.55,1-23.87,40.86-23.87,40.86l-16.08,10.8a89,89,0,0,0,66.14,17.3,28.57,28.57,0,0,0-3.61-7.44,29,29,0,0,0-8.77-8.34q7.2-12.36,14.39-24.72Z"/><path d="M566.55,1607.09a91.35,91.35,0,0,1-55.17-18.6,2.2,2.2,0,0,1,.11-3.57l15.66-10.53c8.09-13.83,23.1-39.48,23.58-40.36a2.2,2.2,0,0,1,1.62-1.12,2.26,2.26,0,0,1,1.87.62L582.43,1562a2.21,2.21,0,0,1,.33,2.66l-13.35,22.93a30.71,30.71,0,0,1,11.54,15.8,2.18,2.18,0,0,1-.24,1.83,2.22,2.22,0,0,1-1.56,1A92.11,92.11,0,0,1,566.55,1607.09Zm-50-20.27a86.9,86.9,0,0,0,59.28,15.38,25.67,25.67,0,0,0-2.4-4.36,26.37,26.37,0,0,0-8.1-7.7,2.2,2.2,0,0,1-.75-3l13.55-23.27-25-25.22c-4.9,8.41-20.39,34.9-22.43,38.38a2.27,2.27,0,0,1-.67.71Zm12.25-10.88h0Z"/><path d="M593.68,1473.38c-13.79-1.79-19.66,12.74-36,10.21-7.51-1.16-10.43-4.86-17.73-3.5-4.82.9-12.38,4.16-14.78,10.53-3.06,8.11,5.59,12.38,10.58,30.94,3.52,13,1.88,20.68,6.87,22.9s9.37-4.39,15.07-2.35c7.37,2.64,5,15.49,11.89,21.39,4.77,4.06,17,6.48,37.83-3.18-.87-3.77-2.14-11.51-4.22-18.56-6.51-22.06-13.85-27.47-10.67-32.83,4.88-8.22,20.75-2.17,23.94-9C619.74,1492.88,607.84,1475.22,593.68,1473.38Z"/><path class="cls-1" d="M561.64,1506.18l5.27,4.38s3.77,21.78,6.6,29.13,26.25.31,26.25.31l1.69-4.3,6.46-2.09s-12.1-19-14.94-34.95A33.56,33.56,0,0,0,561.64,1506.18Z"/><path d="M563.84,1506.14a20.85,20.85,0,0,1,4.48,2.73l0,0a2.2,2.2,0,0,1,.73,1.29c.83,4.7,1.73,9.41,2.71,14.07a137.82,137.82,0,0,0,3.44,13.7l.28.79c.1.3.14.26.19.43a2.13,2.13,0,0,0,.63.59,6.65,6.65,0,0,0,2.51.85,26.42,26.42,0,0,0,6.6,0,80.81,80.81,0,0,0,13.69-2.76l-1.41,1.3,1.68-4.29.08-.18a1.84,1.84,0,0,1,1.29-1.11l6.67-1.46-.82,2.28a151.41,151.41,0,0,1-9.37-16.91,83.75,83.75,0,0,1-6.45-18.46l1.47,1.69a29.33,29.33,0,0,0-7.62-1,30.43,30.43,0,0,0-7.79.87,29.34,29.34,0,0,0-7.3,2.78,30.25,30.25,0,0,0-3.35,2c-.69.43-.7.56-1.06.63S564.4,1506.05,563.84,1506.14Zm-4.4.07a19.73,19.73,0,0,1,2-2.51,12.36,12.36,0,0,1,2.27-1.91,33.8,33.8,0,0,1,3.82-2.32,33.18,33.18,0,0,1,8.34-3.18,34.86,34.86,0,0,1,8.86-1,33,33,0,0,1,9,1.28,2.06,2.06,0,0,1,1.45,1.58l0,.12a79.61,79.61,0,0,0,5.53,17.71,148,148,0,0,0,8.54,16.8,1.57,1.57,0,0,1-.54,2.15l-.17.08-.11,0-6.25,2.73,1.37-1.29-1.69,4.29v0a2.15,2.15,0,0,1-1.4,1.27,85.8,85.8,0,0,1-14.53,2.93,30.63,30.63,0,0,1-7.76-.08,10.9,10.9,0,0,1-4.22-1.53,6.5,6.5,0,0,1-1.92-1.92,11.5,11.5,0,0,1-.58-1.2l-.32-.91a141.15,141.15,0,0,1-3.59-14.23c-1-4.74-1.89-9.46-2.73-14.23l.76,1.32A49.5,49.5,0,0,1,559.44,1506.21Z"/><path class="cls-1" d="M564.46,1525.74s-6.18-13.79-11.86-9.65S554.11,1535.23,564.46,1525.74Z"/><path d="M557.85,1531a8.33,8.33,0,0,1-2.81-.48,10.7,10.7,0,0,1-6.53-8.53c-.46-3.21.58-6.09,2.8-7.7a5.86,5.86,0,0,1,5.08-1c5.42,1.44,9.61,10.49,10.07,11.52a2.19,2.19,0,0,1-.52,2.52C562.8,1530.23,560,1531,557.85,1531Zm-3-13.51a1.55,1.55,0,0,0-.94.35,3.61,3.61,0,0,0-1,3.52,6.32,6.32,0,0,0,3.65,5c1.82.64,3.7-.16,5.21-1.26-1.67-3.2-4.36-7-6.46-7.57A1.64,1.64,0,0,0,554.84,1517.51Z"/><path d="M479.88,1943.77a2.1,2.1,0,0,1-.84-.17,2.2,2.2,0,0,1-1.19-2.87c16.67-40.27,70.41-47.79,72.68-48.09a2.19,2.19,0,1,1,.58,4.35c-.53.07-53.5,7.52-69.19,45.42A2.2,2.2,0,0,1,479.88,1943.77Z"/><path d="M554.85,1968.28a2.21,2.21,0,0,1-2.19-2c-4.12-38.79,18.05-63.66,19-64.7a2.2,2.2,0,1,1,3.25,3c-.22.24-21.78,24.52-17.87,61.28a2.21,2.21,0,0,1-2,2.42Z"/><path class="cls-1" d="M1725.32,1420.46c-9-23-6.16-53,2.76-86.53l22,20.45,30.26-24.38c-13.14,39.46-20.8,74.65-4.59,91.25Z"/><path d="M1775.76,1423.45h0l-50.44-.79a2.21,2.21,0,0,1-2-1.4c-8.3-21.15-7.43-49.9,2.67-87.9a2.2,2.2,0,0,1,1.52-1.54,2.16,2.16,0,0,1,2.1.5l20.62,19.15,28.78-23.18a2.18,2.18,0,0,1,2.63-.1,2.22,2.22,0,0,1,.84,2.5c-11.58,34.76-21.23,72.51-5.1,89a2.2,2.2,0,0,1-1.58,3.74Zm-48.91-5.17,44.2.69c-12.48-18-5.63-49.71,4.91-82.61l-24.5,19.73a2.18,2.18,0,0,1-2.87-.1l-19.31-17.94C1720.51,1372.52,1719.72,1398.82,1726.85,1418.28Z"/><path d="M1791.92,1897.72H1690.36a32,32,0,0,1-31.95-31.67l-3.86-432.74a32,32,0,0,1,32-32.24h114.2a32,32,0,0,1,31.94,32.6l-8.78,432.74A32,32,0,0,1,1791.92,1897.72Z"/><path class="cls-1" d="M1789.17,1803.92h-98.34a13.24,13.24,0,0,1,0-26.48h98.34a13.24,13.24,0,0,1,0,26.48Z"/><rect class="cls-1" x="1678.85" y="1817.79" width="124.82" height="51.81" rx="20.98"/><path d="M2122.26,1899H2020.71a31.94,31.94,0,0,1-32-31.67l-3.87-432.74a32,32,0,0,1,32-32.23H2131a32,32,0,0,1,31.95,32.6l-8.78,432.73A32,32,0,0,1,2122.26,1899Z"/><rect class="cls-1" x="2009.84" y="1432.48" width="124.82" height="74.51" rx="26.47"/><rect class="cls-1" x="2012.36" y="1527.08" width="124.82" height="29.12" rx="9.95"/><path class="cls-1" d="M2126.42,1586.42H2020.6a9.5,9.5,0,0,1,0-19h105.82a9.5,9.5,0,0,1,0,19Z"/><path d="M1947.22,1901.5h-82.15c-14.18,0-25.72-14.13-25.84-31.67l-3.13-432.74c-.12-17.76,11.48-32.24,25.85-32.24h92.37c14.48,0,26.13,14.71,25.84,32.61l-7.1,432.73C1972.77,1887.58,1961.29,1901.5,1947.22,1901.5Z"/><rect class="cls-1" x="1852.23" y="1435" width="108.75" height="38.28" rx="12.18"/><path class="cls-1" d="M1948.16,1514.55h-81.23a13.76,13.76,0,0,1,0-27.52h81.23a13.76,13.76,0,0,1,0,27.52Z"/><path d="M1302.72,2088.35a494.44,494.44,0,0,1-142.9-20.62c-8.48-2.55-17-5.37-25.2-8.38a2.2,2.2,0,1,1,1.51-4.13c8.16,3,16.56,5.77,25,8.31,124.74,37.57,266.64,23,399.56-41.06a2.2,2.2,0,0,1,1.91,4C1477.37,2067.48,1388.49,2088.35,1302.72,2088.35Z"/><path d="M1302.72,2130.93c-55.37,0-109.55-8.42-160.76-25.62a453,453,0,0,1-73.47-32.07,2.2,2.2,0,0,1,2.12-3.86,448.42,448.42,0,0,0,72.75,31.76c168.13,56.47,368.83,17.5,536.89-104.23a2.2,2.2,0,0,1,2.58,3.56C1564.75,2086,1430.59,2130.93,1302.72,2130.93Z"/><path d="M1574.27,2018.45c-1.42,0-2.88,0-4.38-.13a2.2,2.2,0,0,1,.25-4.39c11.32.64,19.7-1.27,24.88-5.71a25.19,25.19,0,0,0,5.76-7.9c1.82-3.39,3.7-6.88,8-8s7.61.75,10.35,2.26c2.27,1.26,3.72,2,5,1.5,1.89-.77,2.28-4.27,2.69-8,.57-5,1.2-10.73,6-13.35,4.23-2.32,9-.62,13.12.87,3.4,1.22,6.6,2.37,8.62,1.11,1.76-1.08,1.93-3.55,2-7.48.09-4.24.21-9.5,4.46-12.86,3.91-3.08,9.93-3.6,18.4-1.59a2.2,2.2,0,1,1-1,4.28c-7-1.65-11.92-1.4-14.67.77s-2.7,5.67-2.78,9.49c-.09,4.08-.19,8.71-4.1,11.13s-8.19.8-12.42-.71c-3.62-1.3-7-2.52-9.53-1.15-2.79,1.52-3.26,5.82-3.72,10-.54,4.83-1.09,9.82-5.42,11.57-3.23,1.32-6.16-.29-8.74-1.72-2.36-1.3-4.59-2.53-7.08-1.86s-3.49,2.54-5.27,5.86a29.53,29.53,0,0,1-6.78,9.17C1592.55,2016.14,1584.61,2018.45,1574.27,2018.45Z"/><path d="M1250.44,423.71a2.2,2.2,0,0,1-2.2-2.2V404.45a2.2,2.2,0,0,1,4.4,0v17.06A2.19,2.19,0,0,1,1250.44,423.71Z"/><path d="M1250.44,463.44a2.2,2.2,0,0,1-2.2-2.2V444.19a2.2,2.2,0,0,1,4.4,0v17.05A2.19,2.19,0,0,1,1250.44,463.44Z"/><path d="M1239.1,435.05h-17a2.2,2.2,0,0,1,0-4.4h17a2.2,2.2,0,1,1,0,4.4Z"/><path d="M1278.84,435.05h-17.06a2.2,2.2,0,0,1,0-4.4h17.06a2.2,2.2,0,1,1,0,4.4Z"/><path d="M451.23,1374.15a2.2,2.2,0,0,1-2.2-2.2v-17.06a2.2,2.2,0,1,1,4.4,0V1372A2.19,2.19,0,0,1,451.23,1374.15Z"/><path d="M451.23,1413.88a2.2,2.2,0,0,1-2.2-2.19v-17.06a2.2,2.2,0,1,1,4.4,0v17.06A2.19,2.19,0,0,1,451.23,1413.88Z"/><path d="M439.89,1385.49H422.84a2.2,2.2,0,1,1,0-4.4h17.05a2.2,2.2,0,0,1,0,4.4Z"/><path d="M479.63,1385.49H462.57a2.2,2.2,0,1,1,0-4.4h17.06a2.2,2.2,0,0,1,0,4.4Z"/><path d="M1918.06,1275.85a2.2,2.2,0,0,1-2.2-2.2v-17.06a2.2,2.2,0,0,1,4.4,0v17.06A2.21,2.21,0,0,1,1918.06,1275.85Z"/><path d="M1918.06,1315.58a2.19,2.19,0,0,1-2.2-2.2v-17.06a2.2,2.2,0,1,1,4.4,0v17.06A2.2,2.2,0,0,1,1918.06,1315.58Z"/><path d="M1906.72,1287.18h-17.06a2.2,2.2,0,1,1,0-4.39h17.06a2.2,2.2,0,1,1,0,4.39Z"/><path d="M1946.45,1287.18h-17a2.2,2.2,0,1,1,0-4.39h17a2.2,2.2,0,1,1,0,4.39Z"/></g></g></svg>