<svg width="125" height="100" viewBox="0 0 125 100" fill="none" xmlns="http://www.w3.org/2000/svg">
<path d="M72.5516 38.8378C72.1077 38.6449 71.604 38.6325 71.1509 38.8032C70.6977 38.974 70.3321 39.3139 70.1342 39.7486L51.515 80.7742C51.3176 81.2094 51.3046 81.7037 51.4789 82.1483C51.6532 82.5929 52.0005 82.9514 52.4443 83.145C52.8882 83.3385 53.3923 83.3512 53.8458 83.1803C54.2992 83.0094 54.6648 82.6689 54.8622 82.2337L73.4815 41.2081C73.6784 40.7728 73.6911 40.2787 73.5167 39.8343C73.3424 39.3898 72.9952 39.0314 72.5516 38.8378Z" fill="#0A0A0A" fill-opacity="0.1"/>
<path d="M114.801 0H10.1987C7.4948 0.0029861 4.90248 1.05751 2.99051 2.93223C1.07853 4.80695 0.00304545 7.34875 0 10V88.9744C0.00332238 91.8975 1.1891 94.7001 3.29719 96.7671C5.40527 98.8341 8.26349 99.9967 11.2448 100H113.755C116.737 99.9967 119.595 98.8341 121.703 96.7671C123.811 94.7001 124.997 91.8975 125 88.9744V10C124.997 7.34875 123.921 4.80695 122.009 2.93223C120.098 1.05751 117.505 0.0029861 114.801 0ZM121.339 10V21.9826H50.8766L59.749 3.58974H114.801C116.535 3.59164 118.196 4.26762 119.422 5.46936C120.648 6.67111 121.337 8.30048 121.339 10ZM10.1987 3.58974H55.7008L46.8264 21.9826H3.66109V10C3.66303 8.30048 4.35244 6.67111 5.57806 5.46936C6.80369 4.26762 8.46545 3.59164 10.1987 3.58974ZM113.755 96.4103H11.2448C9.23413 96.4081 7.30648 95.624 5.88474 94.2299C4.46301 92.8359 3.6633 90.9458 3.66109 88.9744V25.5723H121.339V88.9744C121.337 90.9458 120.537 92.8359 119.115 94.2299C117.694 95.624 115.766 96.4081 113.755 96.4103Z" fill="#0A0A0A" fill-opacity="0.1"/>
<path d="M18.1172 18.6831C19.3068 18.6831 20.4696 18.3372 21.4587 17.6892C22.4478 17.0411 23.2188 16.1201 23.674 15.0425C24.1292 13.9649 24.2483 12.7791 24.0163 11.6351C23.7842 10.4911 23.2113 9.44028 22.3702 8.61551C21.529 7.79074 20.4573 7.22906 19.2906 7.0015C18.1239 6.77395 16.9145 6.89074 15.8155 7.3371C14.7164 7.78346 13.7771 8.53935 13.1162 9.50918C12.4553 10.479 12.1025 11.6192 12.1025 12.7856C12.1042 14.3492 12.7384 15.8483 13.866 16.9539C14.9936 18.0596 16.5225 18.6814 18.1172 18.6831ZM18.1172 10.4779C18.5827 10.4779 19.0377 10.6133 19.4247 10.8668C19.8118 11.1204 20.1135 11.4808 20.2916 11.9025C20.4697 12.3242 20.5163 12.7882 20.4255 13.2358C20.3347 13.6835 20.1105 14.0947 19.7814 14.4174C19.4522 14.7401 19.0329 14.9599 18.5763 15.049C18.1198 15.138 17.6466 15.0923 17.2165 14.9177C16.7865 14.743 16.4189 14.4472 16.1603 14.0677C15.9017 13.6882 15.7636 13.242 15.7636 12.7856C15.7645 12.1738 16.0127 11.5873 16.4539 11.1547C16.8951 10.7221 17.4932 10.4787 18.1172 10.4779Z" fill="#0A0A0A" fill-opacity="0.1"/>
<path d="M34.9121 18.6831C36.1017 18.6831 37.2646 18.3372 38.2537 17.6892C39.2428 17.0411 40.0137 16.1201 40.4689 15.0425C40.9241 13.9649 41.0433 12.7791 40.8112 11.6351C40.5791 10.4911 40.0063 9.44028 39.1651 8.61551C38.3239 7.79074 37.2522 7.22906 36.0855 7.0015C34.9188 6.77395 33.7094 6.89074 32.6104 7.3371C31.5114 7.78346 30.572 8.53935 29.9111 9.50918C29.2502 10.479 28.8975 11.6192 28.8975 12.7856C28.8991 14.3492 29.5333 15.8483 30.6609 16.9539C31.7885 18.0596 33.3174 18.6814 34.9121 18.6831ZM34.9121 10.4779C35.3776 10.4779 35.8326 10.6133 36.2197 10.8668C36.6067 11.1204 36.9084 11.4808 37.0865 11.9025C37.2646 12.3242 37.3113 12.7882 37.2204 13.2358C37.1296 13.6835 36.9055 14.0947 36.5763 14.4174C36.2472 14.7401 35.8278 14.9599 35.3713 15.049C34.9147 15.138 34.4415 15.0923 34.0114 14.9177C33.5814 14.743 33.2138 14.4472 32.9552 14.0677C32.6966 13.6882 32.5585 13.242 32.5585 12.7856C32.5594 12.1738 32.8076 11.5873 33.2488 11.1547C33.69 10.7221 34.2882 10.4787 34.9121 10.4779Z" fill="#0A0A0A" fill-opacity="0.1"/>
<path d="M66.1841 14.5805H112.988C113.474 14.5805 113.94 14.3914 114.283 14.0548C114.626 13.7182 114.819 13.2616 114.819 12.7856C114.819 12.3096 114.626 11.853 114.283 11.5164C113.94 11.1798 113.474 10.9907 112.988 10.9907H66.1841C65.6986 10.9907 65.233 11.1798 64.8897 11.5164C64.5464 11.853 64.3535 12.3096 64.3535 12.7856C64.3535 13.2616 64.5464 13.7182 64.8897 14.0548C65.233 14.3914 65.6986 14.5805 66.1841 14.5805Z" fill="#0A0A0A" fill-opacity="0.1"/>
<path d="M43.6714 44.6378C43.525 44.4509 43.3423 44.2941 43.134 44.1765C42.9257 44.0588 42.6957 43.9826 42.4573 43.9521C42.219 43.9216 41.9768 43.9375 41.7446 43.9988C41.5125 44.0602 41.295 44.1658 41.1045 44.3096L24.7729 56.6255C24.5507 56.7932 24.3707 57.0086 24.2469 57.2553C24.123 57.5019 24.0586 57.7732 24.0586 58.0481C24.0586 58.323 24.123 58.5943 24.2469 58.8409C24.3707 59.0876 24.5507 59.303 24.7729 59.4707L41.1045 71.7866C41.4897 72.0718 41.9741 72.1963 42.4525 72.133C42.9308 72.0697 43.3643 71.8238 43.6586 71.4487C43.9529 71.0736 44.0842 70.5996 44.0239 70.1301C43.9636 69.6605 43.7167 69.2333 43.3367 68.9414L28.8922 58.0481L43.3367 47.1548C43.5274 47.0111 43.6872 46.8321 43.8073 46.6278C43.9273 46.4235 44.005 46.1981 44.0361 45.9643C44.0672 45.7306 44.051 45.4931 43.9884 45.2655C43.9258 45.0379 43.8181 44.8246 43.6714 44.6378Z" fill="#0A0A0A" fill-opacity="0.1"/>
<path d="M100.227 56.6255L83.8956 44.3096C83.5104 44.0244 83.026 43.8999 82.5476 43.9631C82.0693 44.0264 81.6358 44.2724 81.3415 44.6475C81.0472 45.0226 80.9159 45.4965 80.9762 45.9661C81.0364 46.4356 81.2834 46.8628 81.6634 47.1547L96.1079 58.0481L81.6634 68.9414C81.4704 69.0843 81.3083 69.2632 81.1863 69.4678C81.0643 69.6725 80.9848 69.8988 80.9525 70.1337C80.9201 70.3686 80.9356 70.6075 80.9979 70.8365C81.0603 71.0656 81.1683 71.2802 81.3157 71.4681C81.4631 71.656 81.647 71.8134 81.8568 71.9312C82.0666 72.049 82.2981 72.1249 82.538 72.1545C82.7778 72.1841 83.0213 72.1668 83.2543 72.1037C83.4873 72.0405 83.7053 71.9327 83.8956 71.7865L100.227 59.4706C100.449 59.303 100.629 59.0875 100.753 58.8409C100.877 58.5942 100.941 58.323 100.941 58.0481C100.941 57.7731 100.877 57.5019 100.753 57.2553C100.629 57.0086 100.449 56.7931 100.227 56.6255Z" fill="#0A0A0A" fill-opacity="0.1"/>
</svg>
