<svg width="125" height="100" viewBox="0 0 125 100" fill="none" xmlns="http://www.w3.org/2000/svg">
<path d="M114.801 0H10.1987C7.4948 0.0029861 4.90248 1.05751 2.99051 2.93223C1.07853 4.80695 0.00304545 7.34875 0 10V88.9744C0.00332238 91.8975 1.1891 94.7001 3.29719 96.7671C5.40527 98.8341 8.26349 99.9967 11.2448 100H113.755C116.737 99.9967 119.595 98.8341 121.703 96.7671C123.811 94.7001 124.997 91.8975 125 88.9744V10C124.997 7.34875 123.921 4.80695 122.009 2.93223C120.098 1.05751 117.505 0.0029861 114.801 0ZM121.339 10V21.9826H50.8766L59.749 3.58974H114.801C116.535 3.59164 118.196 4.26762 119.422 5.46936C120.648 6.67111 121.337 8.30048 121.339 10ZM10.1987 3.58974H55.7008L46.8264 21.9826H3.66109V10C3.66303 8.30048 4.35244 6.67111 5.57806 5.46936C6.80369 4.26762 8.46545 3.59164 10.1987 3.58974ZM113.755 96.4103H11.2448C9.23413 96.4081 7.30648 95.624 5.88474 94.2299C4.46301 92.8359 3.6633 90.9458 3.66109 88.9744V25.5723H121.339V88.9744C121.337 90.9458 120.537 92.8359 119.115 94.2299C117.694 95.624 115.766 96.4081 113.755 96.4103Z" fill="#0A0A0A" fill-opacity="0.1"/>
<path d="M18.1167 18.6831C19.3063 18.6831 20.4691 18.3372 21.4582 17.6892C22.4474 17.0411 23.2183 16.1201 23.6735 15.0425C24.1287 13.9649 24.2478 12.7791 24.0158 11.6351C23.7837 10.4911 23.2109 9.44028 22.3697 8.61551C21.5285 7.79073 20.4568 7.22906 19.2901 7.0015C18.1234 6.77395 16.914 6.89074 15.815 7.3371C14.716 7.78346 13.7766 8.53935 13.1157 9.50918C12.4548 10.479 12.1021 11.6192 12.1021 12.7856C12.1037 14.3492 12.7379 15.8483 13.8655 16.9539C14.9931 18.0596 16.522 18.6814 18.1167 18.6831ZM18.1167 10.4779C18.5822 10.4779 19.0372 10.6133 19.4243 10.8668C19.8113 11.1204 20.113 11.4808 20.2911 11.9025C20.4692 12.3242 20.5158 12.7882 20.425 13.2358C20.3342 13.6835 20.1101 14.0947 19.7809 14.4174C19.4518 14.7401 19.0324 14.9599 18.5758 15.049C18.1193 15.138 17.6461 15.0923 17.216 14.9176C16.786 14.743 16.4184 14.4472 16.1598 14.0677C15.9012 13.6882 15.7631 13.242 15.7631 12.7856C15.764 12.1738 16.0122 11.5873 16.4534 11.1547C16.8946 10.7221 17.4927 10.4787 18.1167 10.4779Z" fill="#0A0A0A" fill-opacity="0.1"/>
<path d="M34.9121 18.6831C36.1017 18.6831 37.2646 18.3372 38.2537 17.6892C39.2428 17.0411 40.0137 16.1201 40.4689 15.0425C40.9241 13.9649 41.0433 12.7791 40.8112 11.6351C40.5791 10.4911 40.0063 9.44028 39.1651 8.61551C38.3239 7.79073 37.2522 7.22906 36.0855 7.0015C34.9188 6.77395 33.7094 6.89074 32.6104 7.3371C31.5114 7.78346 30.572 8.53935 29.9111 9.50918C29.2502 10.479 28.8975 11.6192 28.8975 12.7856C28.8991 14.3492 29.5333 15.8483 30.6609 16.9539C31.7885 18.0596 33.3174 18.6814 34.9121 18.6831ZM34.9121 10.4779C35.3776 10.4779 35.8326 10.6133 36.2197 10.8668C36.6067 11.1204 36.9084 11.4808 37.0865 11.9025C37.2646 12.3242 37.3112 12.7882 37.2204 13.2358C37.1296 13.6835 36.9055 14.0947 36.5763 14.4174C36.2472 14.7401 35.8278 14.9599 35.3713 15.049C34.9147 15.138 34.4415 15.0923 34.0114 14.9176C33.5814 14.743 33.2138 14.4472 32.9552 14.0677C32.6966 13.6882 32.5585 13.242 32.5585 12.7856C32.5594 12.1738 32.8076 11.5873 33.2488 11.1547C33.69 10.7221 34.2882 10.4787 34.9121 10.4779Z" fill="#0A0A0A" fill-opacity="0.1"/>
<path d="M66.1841 14.5807H112.988C113.474 14.5807 113.94 14.3916 114.283 14.055C114.626 13.7184 114.819 13.2619 114.819 12.7858C114.819 12.3098 114.626 11.8533 114.283 11.5167C113.94 11.1801 113.474 10.991 112.988 10.991H66.1841C65.6986 10.991 65.233 11.1801 64.8897 11.5167C64.5464 11.8533 64.3535 12.3098 64.3535 12.7858C64.3535 13.2619 64.5464 13.7184 64.8897 14.055C65.233 14.3916 65.6986 14.5807 66.1841 14.5807Z" fill="#0A0A0A" fill-opacity="0.1"/>
<path d="M110.687 36.6317H62.5703C62.0849 36.632 61.6194 36.8212 61.2762 37.1577C60.933 37.4943 60.74 37.9506 60.7397 38.4266V49.7086C60.7397 50.1847 60.9326 50.6412 61.2759 50.9778C61.6192 51.3144 62.0848 51.5035 62.5703 51.5035H110.687C110.928 51.5036 111.166 51.4573 111.388 51.3672C111.61 51.277 111.812 51.1448 111.982 50.9781C112.152 50.8114 112.287 50.6135 112.379 50.3957C112.471 50.1778 112.518 49.9444 112.518 49.7086V38.4266C112.518 38.1909 112.471 37.9575 112.379 37.7397C112.287 37.522 112.152 37.3241 111.982 37.1574C111.812 36.9907 111.61 36.8585 111.388 36.7683C111.166 36.6781 110.928 36.6317 110.687 36.6317ZM108.857 47.9138H64.4008V40.2215H108.857V47.9138Z" fill="#0A0A0A" fill-opacity="0.1"/>
<path d="M110.687 59.1959H62.5703C62.0848 59.1959 61.6192 59.385 61.2759 59.7216C60.9326 60.0582 60.7397 60.5148 60.7397 60.9908C60.7397 61.4668 60.9326 61.9234 61.2759 62.26C61.6192 62.5966 62.0848 62.7857 62.5703 62.7857H110.687C111.173 62.7857 111.639 62.5966 111.982 62.26C112.325 61.9234 112.518 61.4668 112.518 60.9908C112.518 60.5148 112.325 60.0582 111.982 59.7216C111.639 59.385 111.173 59.1959 110.687 59.1959Z" fill="#0A0A0A" fill-opacity="0.1"/>
<path d="M110.687 70.4783H62.5703C62.0848 70.4783 61.6192 70.6674 61.2759 71.004C60.9326 71.3406 60.7397 71.7971 60.7397 72.2731C60.7397 72.7492 60.9326 73.2057 61.2759 73.5423C61.6192 73.8789 62.0848 74.068 62.5703 74.068H110.687C111.173 74.068 111.639 73.8789 111.982 73.5423C112.325 73.2057 112.518 72.7492 112.518 72.2731C112.518 71.7971 112.325 71.3406 111.982 71.004C111.639 70.6674 111.173 70.4783 110.687 70.4783Z" fill="#0A0A0A" fill-opacity="0.1"/>
<path d="M110.687 81.7604H62.5703C62.0848 81.7604 61.6192 81.9495 61.2759 82.2861C60.9326 82.6227 60.7397 83.0792 60.7397 83.5552C60.7397 84.0313 60.9326 84.4878 61.2759 84.8244C61.6192 85.161 62.0848 85.3501 62.5703 85.3501H110.687C111.173 85.3501 111.639 85.161 111.982 84.8244C112.325 84.4878 112.518 84.0313 112.518 83.5552C112.518 83.0792 112.325 82.6227 111.982 82.2861C111.639 81.9495 111.173 81.7604 110.687 81.7604Z" fill="#0A0A0A" fill-opacity="0.1"/>
<path d="M51.7089 72.2943V38.4266C51.7086 37.9506 51.5156 37.4943 51.1724 37.1577C50.8292 36.8212 50.3637 36.632 49.8783 36.6317H14.3135C13.828 36.6317 13.3624 36.8208 13.0191 37.1574C12.6758 37.494 12.4829 37.9506 12.4829 38.4266V83.5548C12.4828 83.7905 12.53 84.024 12.622 84.2418C12.7139 84.4596 12.8487 84.6576 13.0188 84.8243C13.1888 84.991 13.3906 85.1232 13.6128 85.2133C13.8349 85.3035 14.073 85.3498 14.3135 85.3497H49.8783C50.3638 85.3497 50.8294 85.1606 51.1727 84.824C51.516 84.4874 51.7089 84.0308 51.7089 83.5548V72.2943ZM48.0478 40.2215V68.8974L27.2591 55.0307C26.9148 54.8009 26.5009 54.6931 26.0857 54.7251C25.6705 54.7572 25.2789 54.9272 24.9756 55.2071L16.144 63.3404V40.2215H48.0478ZM16.144 81.7599V68.2645L26.4128 58.8081L48.0478 73.2389V81.7599H16.144Z" fill="#0A0A0A" fill-opacity="0.1"/>
<path d="M38.6786 55.5009C39.8706 55.5009 41.0358 55.1543 42.027 54.505C43.0181 53.8557 43.7906 52.9327 44.2469 51.8529C44.7031 50.7731 44.8225 49.5849 44.59 48.4386C44.3575 47.2922 43.7836 46.2392 42.9408 45.4127C42.098 44.5862 41.0241 44.0232 39.8551 43.7951C38.686 43.5669 37.4741 43.6838 36.3728 44.131C35.2714 44.5781 34.33 45.3354 33.6676 46.3071C33.0052 47.2788 32.6516 48.4213 32.6514 49.5901C32.653 51.1571 33.2885 52.6594 34.4185 53.7675C35.5484 54.8756 37.0805 55.499 38.6786 55.5009ZM38.6786 47.2711C39.1466 47.2711 39.6041 47.4072 39.9932 47.6622C40.3823 47.9172 40.6856 48.2796 40.8647 48.7036C41.0437 49.1275 41.0905 49.5941 40.9991 50.0441C40.9077 50.4942 40.6823 50.9076 40.3513 51.232C40.0203 51.5564 39.5986 51.7773 39.1395 51.8667C38.6805 51.9561 38.2047 51.91 37.7724 51.7343C37.34 51.5585 36.9706 51.261 36.7107 50.8793C36.4508 50.4977 36.3122 50.049 36.3125 49.5901C36.3133 48.9752 36.5629 48.3856 37.0065 47.9509C37.45 47.5161 38.0514 47.2717 38.6786 47.2711Z" fill="#0A0A0A" fill-opacity="0.1"/>
</svg>
