<svg width="125" height="115" viewBox="0 0 125 115" fill="none" xmlns="http://www.w3.org/2000/svg">
<path d="M114.801 0H10.1987C7.4948 0.0030549 4.90248 1.08188 2.99051 2.99978C1.07853 4.91769 0.00304545 7.51806 0 10.2304V91.0242C0.00332238 94.0147 1.1891 96.8818 3.29719 98.9964C5.40527 101.111 8.26349 102.3 11.2448 102.304H30.1349L33.273 108.318C33.4954 108.744 33.875 109.065 34.3306 109.213C34.7861 109.361 35.2814 109.324 35.7103 109.11L48.8441 102.555C49.2259 103.448 49.6098 104.338 50.0262 105.229C50.1736 105.545 50.4078 105.812 50.7013 105.999C50.9948 106.186 51.3354 106.285 51.6831 106.285H52.5628L54.1318 113.554C54.2205 113.964 54.4463 114.331 54.7717 114.594C55.0971 114.857 55.5026 115 55.9205 115H69.0753C69.494 115.001 69.9004 114.858 70.2267 114.595C70.553 114.332 70.7794 113.965 70.8682 113.554L72.4467 106.285H73.3211C73.6688 106.285 74.0094 106.186 74.3029 105.999C74.5963 105.812 74.8306 105.545 74.978 105.229C75.3964 104.34 75.7782 103.445 76.16 102.555L89.2939 109.11C89.7228 109.324 90.218 109.361 90.6736 109.213C91.1292 109.065 91.5088 108.744 91.7312 108.318L94.8693 102.304H113.755C116.737 102.3 119.595 101.111 121.703 98.9964C123.811 96.8818 124.997 94.0147 125 91.0242V10.2304C124.997 7.51806 123.921 4.91769 122.009 2.99978C120.098 1.08188 117.505 0.0030549 114.801 0ZM121.339 10.2304V22.489H50.8766L59.749 3.67245H114.801C116.535 3.67439 118.196 4.36594 119.422 5.59537C120.648 6.8248 121.337 8.49171 121.339 10.2304ZM10.1987 3.67245H55.7008L46.8264 22.489H3.66109V10.2304C3.66303 8.49171 4.35244 6.8248 5.57806 5.59537C6.80369 4.36594 8.46545 3.67439 10.1987 3.67245ZM35.6852 105.02L32.6967 99.2935L43.0366 82.1904C43.8842 87.9891 45.3696 93.6759 47.4655 99.1466L35.6852 105.02ZM67.6004 111.328H57.3996L56.3033 106.285H68.6967L67.6004 111.328ZM72.1454 102.612H52.8546C49.0697 94.4137 46.7838 85.5998 46.1057 76.5904C46.1062 76.5107 46.101 76.4311 46.09 76.3522C45.5468 68.8976 46.5608 61.4112 49.0669 54.3721H75.9331C78.4392 61.4112 79.4532 68.8976 78.91 76.3522C78.899 76.4311 78.8938 76.5107 78.8943 76.5904C78.2162 85.5998 75.9303 94.4137 72.1454 102.612ZM50.5973 50.7018C53.6224 44.36 57.8651 39.7537 62.5 37.8304C67.1349 39.7537 71.3776 44.36 74.4048 50.7018H50.5973ZM89.3169 105.02L77.5366 99.1445C79.6325 93.6738 81.1179 87.987 81.9655 82.1883L92.3055 99.2914L89.3169 105.02ZM113.755 98.6314H96.1255C96.0863 98.5071 96.0337 98.3875 95.9686 98.2746L82.5711 76.1088C83.1472 67.655 81.8209 59.1795 78.6904 51.3093C75.1192 42.6759 69.4446 36.416 63.1193 34.1338C62.7189 33.9901 62.2812 33.9901 61.8808 34.1338C55.5554 36.416 49.8808 42.6759 46.3096 51.3093C46.251 51.451 46.205 51.6 46.1464 51.7427C46.1045 51.8325 46.0695 51.9255 46.0418 52.0207C43.1145 59.6934 41.8819 67.9118 42.4289 76.1088L29.0272 98.2746C28.9621 98.3875 28.9095 98.5071 28.8703 98.6314H11.2448C9.23413 98.6292 7.30648 97.827 5.88474 96.4008C4.46301 94.9747 3.6633 93.0411 3.66109 91.0242V26.1614H121.339V91.0242C121.337 93.0411 120.537 94.9747 119.115 96.4008C117.694 97.827 115.766 98.6292 113.755 98.6314Z" fill="#0A0A0A" fill-opacity="0.1"/>
<path d="M18.1167 19.1145C19.3063 19.1145 20.4691 18.7606 21.4583 18.0977C22.4474 17.4347 23.2183 16.4924 23.6735 15.39C24.1287 14.2876 24.2478 13.0745 24.0158 11.9041C23.7837 10.7338 23.2109 9.65874 22.3697 8.81497C21.5285 7.97119 20.4568 7.39658 19.2901 7.16378C18.1234 6.93099 16.914 7.05047 15.815 7.50711C14.716 7.96376 13.7766 8.73706 13.1157 9.72923C12.4548 10.7214 12.1021 11.8879 12.1021 13.0812C12.104 14.6807 12.7383 16.2142 13.8658 17.3452C14.9934 18.4762 16.5221 19.1125 18.1167 19.1145ZM18.1167 10.7203C18.5822 10.7203 19.0372 10.8588 19.4243 11.1182C19.8113 11.3776 20.113 11.7463 20.2911 12.1777C20.4692 12.6091 20.5158 13.0838 20.425 13.5417C20.3342 13.9997 20.1101 14.4204 19.7809 14.7505C19.4518 15.0807 19.0324 15.3056 18.5759 15.3967C18.1193 15.4877 17.6461 15.441 17.216 15.2623C16.786 15.0836 16.4184 14.781 16.1598 14.3928C15.9012 14.0045 15.7631 13.5481 15.7631 13.0812C15.7637 12.4552 16.0118 11.855 16.4531 11.4124C16.8943 10.9698 17.4927 10.7209 18.1167 10.7203Z" fill="#0A0A0A" fill-opacity="0.1"/>
<path d="M34.9121 19.1145C36.1017 19.1145 37.2646 18.7606 38.2537 18.0977C39.2428 17.4347 40.0137 16.4924 40.4689 15.39C40.9241 14.2876 41.0433 13.0745 40.8112 11.9041C40.5791 10.7338 40.0063 9.65874 39.1651 8.81497C38.3239 7.97119 37.2522 7.39658 36.0855 7.16378C34.9188 6.93099 33.7094 7.05047 32.6104 7.50711C31.5114 7.96376 30.572 8.73706 29.9111 9.72923C29.2502 10.7214 28.8975 11.8879 28.8975 13.0812C28.8994 14.6807 29.5337 16.2142 30.6613 17.3452C31.7888 18.4762 33.3175 19.1125 34.9121 19.1145ZM34.9121 10.7203C35.3776 10.7203 35.8326 10.8588 36.2197 11.1182C36.6067 11.3776 36.9084 11.7463 37.0865 12.1777C37.2646 12.6091 37.3113 13.0838 37.2204 13.5417C37.1296 13.9997 36.9055 14.4204 36.5763 14.7505C36.2472 15.0807 35.8278 15.3056 35.3713 15.3967C34.9147 15.4877 34.4415 15.441 34.0114 15.2623C33.5814 15.0836 33.2138 14.781 32.9552 14.3928C32.6966 14.0045 32.5585 13.5481 32.5585 13.0812C32.5594 12.4553 32.8076 11.8553 33.2488 11.4127C33.69 10.9701 34.2882 10.7211 34.9121 10.7203Z" fill="#0A0A0A" fill-opacity="0.1"/>
<path d="M66.1841 14.9176H112.988C113.474 14.9176 113.94 14.7241 114.283 14.3797C114.626 14.0354 114.819 13.5683 114.819 13.0813C114.819 12.5943 114.626 12.1273 114.283 11.7829C113.94 11.4386 113.474 11.2451 112.988 11.2451H66.1841C65.6986 11.2451 65.233 11.4386 64.8897 11.7829C64.5464 12.1273 64.3535 12.5943 64.3535 13.0813C64.3535 13.5683 64.5464 14.0354 64.8897 14.3797C65.233 14.7241 65.6986 14.9176 66.1841 14.9176Z" fill="#0A0A0A" fill-opacity="0.1"/>
<path d="M62.4998 62.6909C60.793 62.6909 59.1246 63.1986 57.7054 64.1498C56.2863 65.101 55.1802 66.4529 54.527 68.0347C53.8739 69.6165 53.703 71.357 54.0359 73.0362C54.3689 74.7154 55.1908 76.2578 56.3977 77.4685C57.6046 78.6791 59.1423 79.5035 60.8163 79.8375C62.4903 80.1715 64.2254 80.0001 65.8023 79.3449C67.3791 78.6898 68.7269 77.5802 69.6752 76.1567C70.6234 74.7331 71.1295 73.0595 71.1295 71.3474C71.127 69.0523 70.217 66.852 68.5992 65.2291C66.9814 63.6062 64.7878 62.6934 62.4998 62.6909ZM62.4998 76.3314C61.5171 76.3314 60.5565 76.0391 59.7394 75.4915C58.9223 74.9438 58.2855 74.1654 57.9094 73.2547C57.5334 72.344 57.435 71.3419 57.6267 70.3751C57.8184 69.4083 58.2916 68.5202 58.9865 67.8232C59.6814 67.1261 60.5667 66.6514 61.5305 66.4591C62.4943 66.2668 63.4933 66.3655 64.4012 66.7427C65.3091 67.12 66.0851 67.7588 66.6311 68.5784C67.177 69.398 67.4684 70.3616 67.4684 71.3474C67.4668 72.6687 66.9428 73.9355 66.0113 74.8698C65.0799 75.8041 63.8171 76.3298 62.4998 76.3314Z" fill="#0A0A0A" fill-opacity="0.1"/>
</svg>
