<svg width="128" height="128" viewBox="0 0 128 128" fill="none" xmlns="http://www.w3.org/2000/svg">
<path d="M114 15.25H14C11.415 15.2529 8.93677 16.2811 7.10892 18.1089C5.28108 19.9368 4.25291 22.415 4.25 25V102C4.25318 104.85 5.38678 107.583 7.40211 109.598C9.41744 111.613 12.1499 112.747 15 112.75H113C115.85 112.747 118.583 111.613 120.598 109.598C122.613 107.583 123.747 104.85 123.75 102V25C123.747 22.415 122.719 19.9368 120.891 18.1089C119.063 16.2811 116.585 15.2529 114 15.25ZM120.25 25V36.683H52.888L61.37 18.75H114C115.657 18.7519 117.246 19.4109 118.417 20.5826C119.589 21.7543 120.248 23.343 120.25 25ZM14 18.75H57.5L49.016 36.683H7.75V25C7.75185 23.343 8.41093 21.7543 9.58263 20.5826C10.7543 19.4109 12.343 18.7519 14 18.75ZM113 109.25H15C13.0778 109.248 11.235 108.483 9.87581 107.124C8.51663 105.765 7.75212 103.922 7.75 102V40.183H120.25V102C120.248 103.922 119.483 105.765 118.124 107.124C116.765 108.483 114.922 109.248 113 109.25Z" fill="white"/>
<path d="M21.57 33.4659C22.7072 33.4659 23.819 33.1287 24.7645 32.4969C25.7101 31.8651 26.4471 30.967 26.8823 29.9164C27.3175 28.8657 27.4314 27.7096 27.2095 26.5942C26.9877 25.4788 26.44 24.4542 25.6359 23.6501C24.8317 22.8459 23.8072 22.2983 22.6918 22.0764C21.5764 21.8546 20.4203 21.9684 19.3696 22.4036C18.3189 22.8388 17.4209 23.5758 16.7891 24.5214C16.1572 25.467 15.82 26.5787 15.82 27.7159C15.8216 29.2405 16.4279 30.7021 17.5059 31.7801C18.5839 32.858 20.0455 33.4644 21.57 33.4659ZM21.57 25.4659C22.015 25.4659 22.45 25.5979 22.82 25.8451C23.1901 26.0924 23.4784 26.4438 23.6487 26.8549C23.819 27.266 23.8636 27.7184 23.7768 28.1549C23.69 28.5914 23.4757 28.9923 23.161 29.3069C22.8463 29.6216 22.4454 29.8359 22.009 29.9227C21.5725 30.0095 21.1201 29.965 20.709 29.7947C20.2978 29.6244 19.9464 29.336 19.6992 28.966C19.452 28.596 19.32 28.161 19.32 27.7159C19.3208 27.1195 19.5581 26.5476 19.9799 26.1258C20.4017 25.704 20.9735 25.4667 21.57 25.4659Z" fill="white"/>
<path d="M37.626 33.4659C38.7632 33.4659 39.875 33.1287 40.8205 32.4969C41.7661 31.8651 42.5031 30.967 42.9383 29.9164C43.3735 28.8657 43.4874 27.7096 43.2655 26.5942C43.0437 25.4788 42.496 24.4542 41.6919 23.6501C40.8877 22.8459 39.8632 22.2983 38.7478 22.0764C37.6324 21.8546 36.4763 21.9684 35.4256 22.4036C34.3749 22.8388 33.4769 23.5758 32.8451 24.5214C32.2132 25.467 31.876 26.5787 31.876 27.7159C31.8776 29.2405 32.4839 30.7021 33.5619 31.7801C34.6399 32.858 36.1015 33.4644 37.626 33.4659ZM37.626 25.4659C38.071 25.4659 38.506 25.5979 38.876 25.8451C39.2461 26.0924 39.5344 26.4438 39.7047 26.8549C39.875 27.266 39.9196 27.7184 39.8328 28.1549C39.746 28.5914 39.5317 28.9923 39.217 29.3069C38.9023 29.6216 38.5014 29.8359 38.065 29.9227C37.6285 30.0095 37.1761 29.965 36.765 29.7947C36.3538 29.6244 36.0024 29.336 35.7552 28.966C35.508 28.596 35.376 28.161 35.376 27.7159C35.3768 27.1195 35.6141 26.5476 36.0359 26.1258C36.4577 25.704 37.0295 25.4667 37.626 25.4659Z" fill="white"/>
<path d="M67.522 29.4659H112.267C112.731 29.4659 113.176 29.2816 113.504 28.9534C113.833 28.6252 114.017 28.1801 114.017 27.7159C114.017 27.2518 113.833 26.8067 113.504 26.4785C113.176 26.1503 112.731 25.9659 112.267 25.9659H67.522C67.0579 25.9659 66.6127 26.1503 66.2846 26.4785C65.9564 26.8067 65.772 27.2518 65.772 27.7159C65.772 28.1801 65.9564 28.6252 66.2846 28.9534C66.6127 29.2816 67.0579 29.4659 67.522 29.4659Z" fill="white"/>
<path d="M68 96.9659H63.75V68.9999C63.7497 68.5359 63.5653 68.0909 63.2371 67.7628C62.909 67.4347 62.464 67.2502 62 67.2499H50.727C50.2629 67.2499 49.8178 67.4343 49.4896 67.7625C49.1614 68.0907 48.977 68.5358 48.977 68.9999V96.9659H44.463V59.9999C44.4627 59.5359 44.2783 59.0909 43.9501 58.7628C43.622 58.4347 43.177 58.2502 42.713 58.2499H31.439C30.975 58.2502 30.53 58.4347 30.2019 58.7628C29.8737 59.0909 29.6893 59.5359 29.689 59.9999V96.9659H23.528V50.7159C23.528 50.2518 23.3436 49.8067 23.0154 49.4785C22.6872 49.1503 22.2421 48.9659 21.778 48.9659C21.3139 48.9659 20.8688 49.1503 20.5406 49.4785C20.2124 49.8067 20.028 50.2518 20.028 50.7159V96.9659H14.916C14.4519 96.9659 14.0068 97.1503 13.6786 97.4785C13.3504 97.8067 13.166 98.2518 13.166 98.7159C13.166 99.1801 13.3504 99.6252 13.6786 99.9534C14.0068 100.282 14.4519 100.466 14.916 100.466H68C68.4641 100.466 68.9092 100.282 69.2374 99.9534C69.5656 99.6252 69.75 99.1801 69.75 98.7159C69.75 98.2518 69.5656 97.8067 69.2374 97.4785C68.9092 97.1503 68.4641 96.9659 68 96.9659ZM33.189 96.9659V61.7499H40.963V96.9659H33.189ZM52.477 96.9659V70.7499H60.25V96.9659H52.477Z" fill="white"/>
<path d="M109.686 55.7159H80.686C80.2219 55.7159 79.7768 55.9003 79.4486 56.2285C79.1204 56.5567 78.936 57.0018 78.936 57.4659C78.936 57.9301 79.1204 58.3752 79.4486 58.7034C79.7768 59.0316 80.2219 59.2159 80.686 59.2159H109.686C110.15 59.2159 110.595 59.0316 110.923 58.7034C111.252 58.3752 111.436 57.9301 111.436 57.4659C111.436 57.0018 111.252 56.5567 110.923 56.2285C110.595 55.9003 110.15 55.7159 109.686 55.7159Z" fill="white"/>
<path d="M109.686 67.2161H80.686C80.2219 67.2161 79.7768 67.4004 79.4486 67.7286C79.1204 68.0568 78.936 68.5019 78.936 68.9661C78.936 69.4302 79.1204 69.8753 79.4486 70.2035C79.7768 70.5317 80.2219 70.7161 80.686 70.7161H109.686C110.15 70.7161 110.595 70.5317 110.923 70.2035C111.252 69.8753 111.436 69.4302 111.436 68.9661C111.436 68.5019 111.252 68.0568 110.923 67.7286C110.595 67.4004 110.15 67.2161 109.686 67.2161Z" fill="white"/>
<path d="M109.686 78.7161H80.686C80.2219 78.7161 79.7768 78.9004 79.4486 79.2286C79.1204 79.5568 78.936 80.0019 78.936 80.4661C78.936 80.9302 79.1204 81.3753 79.4486 81.7035C79.7768 82.0317 80.2219 82.2161 80.686 82.2161H109.686C110.15 82.2161 110.595 82.0317 110.923 81.7035C111.252 81.3753 111.436 80.9302 111.436 80.4661C111.436 80.0019 111.252 79.5568 110.923 79.2286C110.595 78.9004 110.15 78.7161 109.686 78.7161Z" fill="white"/>
<path d="M109.686 90.2161H80.686C80.2219 90.2161 79.7768 90.4004 79.4486 90.7286C79.1204 91.0568 78.936 91.5019 78.936 91.9661C78.936 92.4302 79.1204 92.8753 79.4486 93.2035C79.7768 93.5317 80.2219 93.7161 80.686 93.7161H109.686C110.15 93.7161 110.595 93.5317 110.923 93.2035C111.252 92.8753 111.436 92.4302 111.436 91.9661C111.436 91.5019 111.252 91.0568 110.923 90.7286C110.595 90.4004 110.15 90.2161 109.686 90.2161Z" fill="white"/>
</svg>
