<svg width="857" height="1626" viewBox="0 0 857 1626" fill="none" xmlns="http://www.w3.org/2000/svg">
<g clip-path="url(#clip0_202_417)">
<path d="M4.11653 87.7281C95.9319 111.878 203.246 301.83 332.447 443.069C461.63 583.917 612.88 675.909 681.16 799.194C749.26 922.622 734.391 1077.34 658.705 1158.43C583.019 1239.51 446.337 1247.1 314.773 1289.56C183.389 1331.89 56.9619 1409.62 -62.3525 1367.64C-181.667 1325.65 -293.868 1163.95 -355.424 1011.76C-417.16 859.718 -428.087 716.649 -400.329 607.651C-372.769 498.406 -306.722 422.984 -235.459 314.179C-163.998 205.622 -87.6989 63.5782 4.11653 87.7281Z" fill="#E9D0FF"/>
</g>
<defs>
<clipPath id="clip0_202_417">
<rect width="991.274" height="1288.03" fill="white" transform="translate(-722 618.221) rotate(-38.5841)"/>
</clipPath>
</defs>
</svg>
