<?xml version="1.0" encoding="UTF-8" standalone="no"?>
<svg
   id="visual"
   viewBox="0 0 599.04296 459.35199"
   width="599.04297"
   height="459.35199"
   version="1.1"
   sodipodi:docname="blob2.svg"
   inkscape:version="1.1.1 (3bf5ae0d25, 2021-09-20)"
   xmlns:inkscape="http://www.inkscape.org/namespaces/inkscape"
   xmlns:sodipodi="http://sodipodi.sourceforge.net/DTD/sodipodi-0.dtd"
   xmlns="http://www.w3.org/2000/svg"
   xmlns:svg="http://www.w3.org/2000/svg">
  <defs
     id="defs11" />
  <sodipodi:namedview
     id="namedview9"
     pagecolor="#505050"
     bordercolor="#eeeeee"
     borderopacity="1"
     inkscape:pageshadow="0"
     inkscape:pageopacity="0"
     inkscape:pagecheckerboard="0"
     showgrid="false"
     inkscape:zoom="0.84734963"
     inkscape:cx="213.01715"
     inkscape:cy="233.0797"
     inkscape:window-width="1920"
     inkscape:window-height="991"
     inkscape:window-x="-9"
     inkscape:window-y="-9"
     inkscape:window-maximized="1"
     inkscape:current-layer="visual"
     fit-margin-top="0"
     fit-margin-left="0"
     fit-margin-right="0"
     fit-margin-bottom="0"
     showguides="true"
     inkscape:guide-bbox="true">
    <sodipodi:guide
       position="-74.349474,459.35199"
       orientation="0,1"
       id="guide852"
       inkscape:label=""
       inkscape:locked="false"
       inkscape:color="rgb(0,0,255)" />
    <sodipodi:guide
       position="0,566.74568"
       orientation="-1,0"
       id="guide854"
       inkscape:label=""
       inkscape:locked="false"
       inkscape:color="rgb(0,0,255)" />
  </sodipodi:namedview>
  <g
     transform="matrix(1.094472,0,0,0.90685766,344.79124,172.82317)"
     id="g6"
     style="fill:#cf056f;fill-opacity:1">
    <path
       d="m 134.1,-159.2 c 47,8.9 97.7,38.1 98.2,75.3 0.6,37.2 -49,82.3 -63.8,141.9 -14.9,59.7 5,133.9 -17.3,184.4 -22.3,50.4 -86.7,77 -148.5,73.2 -61.7,-3.8 -120.6,-37.9 -180.1,-76.3 -59.4,-38.3 -119.3,-80.9 -133.9,-135.8 -14.6,-54.9 16.2,-122.1 48.4,-178.9 32.2,-56.8 65.8,-103.2 109.9,-113 44.1,-9.9 98.5,16.8 147.5,24.3 49,7.6 92.5,-4 139.6,4.9"
       fill="#BB004B"
       id="path4"
       style="fill:#cf056f;fill-opacity:1" />
  </g>
</svg>
