<svg width="1031" height="1043" viewBox="0 0 1031 1043" fill="none" xmlns="http://www.w3.org/2000/svg">
<g clip-path="url(#clip0_202_414)">
<path d="M1158.52 736.624C1046.48 748.571 920.196 674.36 763.08 703.022C606.302 731.479 418.405 862.754 279.322 847.366C139.901 832.184 48.7681 669.969 57.966 524.064C67.164 378.159 176.404 248.508 272.055 121.105C367.655 -6.03786 449.855 -130.356 565.097 -158.966C680.05 -187.631 828.045 -120.587 943.647 -46.8089C1059.54 27.0243 1142.85 107.015 1224.35 204.206C1305.85 301.398 1385.53 415.789 1376.58 521.516C1367.87 627.559 1270.22 724.882 1158.52 736.624Z" fill="#B69EFF" fill-opacity="0.09"/>
</g>
<defs>
<clipPath id="clip0_202_414">
<rect width="1071.08" height="1303.84" fill="white" transform="translate(1482.53 -8.95837) rotate(100.877)"/>
</clipPath>
</defs>
</svg>
