<svg width="1512" height="941" viewBox="0 0 1512 941" fill="none" xmlns="http://www.w3.org/2000/svg">
<path d="M200 212.5C357.544 174.012 504.16 197.553 637.025 135.919C769.496 74.2624 973.325 2.0435 1106.5 1.00003C1240.06 0.189759 1476.19 6.65598 1560 97.5C1643.82 188.134 1623.74 300.753 1665.5 381.5C1707.25 462.456 1637.94 576.3 1598.42 642.489C1558.88 708.887 1441.71 759.055 1325.64 830.53C1209.55 902.215 1106.23 936.455 970.5 940.5C834.788 944.335 666.267 918.162 501.309 856.515C335.957 794.843 208.34 833.275 70 762.5C-68.3404 691.725 -120.891 461.608 -75.0001 381.5C-29.096 301.182 42.4688 250.779 200 212.5Z" fill="#EDEFFF"/>
</svg>
