<svg width="1051" height="1225" viewBox="0 0 1051 1225" fill="none" xmlns="http://www.w3.org/2000/svg">
<g clip-path="url(#clip0_215_580)">
<path d="M236.991 1010.1C131.062 976.09 22.6271 899.129 32.543 822.529C42.2278 745.896 170.234 669.829 222.161 552.324C274.35 434.648 250.46 275.535 317.005 179.237C383.521 83.1454 540.212 50.0411 681.849 78.5279C823.255 106.981 949.175 196.753 1075.2 295.561C1201.03 394.13 1326.73 501.701 1344.12 619.386C1361.51 737.072 1270.36 864.837 1179.06 970.766C1087.77 1076.7 996.343 1160.79 891.549 1166.17C786.724 1171.75 668.998 1098.69 558.032 1066.88C447.096 1034.87 343.151 1044.15 236.991 1010.1Z" fill="#F1F2FF"/>
</g>
<defs>
<clipPath id="clip0_215_580">
<rect width="1277.63" height="1051.6" fill="white" transform="translate(1265.22 1224.85) rotate(-171.758)"/>
</clipPath>
</defs>
</svg>
