<?xml version="1.0" encoding="UTF-8" standalone="no"?>
<!-- Created with Inkscape (http://www.inkscape.org/) -->

<svg
   width="717.04297mm"
   height="35.110909mm"
   viewBox="0 0 717.04297 35.110909"
   version="1.1"
   id="svg1104"
   inkscape:version="1.1.1 (3bf5ae0d25, 2021-09-20)"
   sodipodi:docname="decor-services-bottom.svg"
   xmlns:inkscape="http://www.inkscape.org/namespaces/inkscape"
   xmlns:sodipodi="http://sodipodi.sourceforge.net/DTD/sodipodi-0.dtd"
   xmlns="http://www.w3.org/2000/svg"
   xmlns:svg="http://www.w3.org/2000/svg">
  <sodipodi:namedview
     id="namedview1106"
     pagecolor="#505050"
     bordercolor="#eeeeee"
     borderopacity="1"
     inkscape:pageshadow="0"
     inkscape:pageopacity="0"
     inkscape:pagecheckerboard="0"
     inkscape:document-units="mm"
     showgrid="false"
     fit-margin-top="0"
     fit-margin-left="0"
     fit-margin-right="0"
     fit-margin-bottom="0"
     inkscape:zoom="0.32026164"
     inkscape:cx="1303.6216"
     inkscape:cy="82.744845"
     inkscape:window-width="1920"
     inkscape:window-height="991"
     inkscape:window-x="-9"
     inkscape:window-y="-9"
     inkscape:window-maximized="1"
     inkscape:current-layer="layer1" />
  <defs
     id="defs1101">
    <clipPath
       clipPathUnits="userSpaceOnUse"
       id="clipPath1064">
      <rect
         style="fill:#00084d;fill-rule:evenodd;stroke:#5c5e9e;stroke-width:2;stroke-linecap:round;stroke-linejoin:round"
         id="rect1066"
         width="2251.071"
         height="609.88318"
         x="-128.25868"
         y="444.97916" />
    </clipPath>
  </defs>
  <g
     inkscape:label="Layer 1"
     inkscape:groupmode="layer"
     id="layer1"
     transform="translate(334.17479,-80.089541)">
    <path
       d="m 291.2089,211.55813 c 157.544,-38.488 304.16,-14.947 437.025,-76.581 132.471,-61.656604 336.3,-133.8755039 469.475,-134.91897392 133.56,-0.810271 369.69,5.65595002 453.5,96.49996992 83.82,90.634004 63.74,203.253004 105.5,284.000004 41.75,80.956 -27.56,194.8 -67.08,260.989 -39.54,66.398 -156.71,116.566 -272.78,188.041 -116.09,71.685 -219.41,105.925 -355.14,109.97 -135.712,3.835 -304.233,-22.338 -469.191,-83.985 -165.352,-61.672 -292.969,-23.24 -431.309,-94.015 -138.340404,-70.775 -190.891004,-300.892 -145.000104,-381 45.9041,-80.318 117.468904,-130.721 275.000104,-169 z"
       fill="#edefff"
       id="path2"
       clip-path="url(#clipPath1064)"
       transform="matrix(0.40519177,0,0,0.07093899,-334.17479,48.523169)" />
  </g>
</svg>
