<svg width="128" height="128" viewBox="0 0 128 128" fill="none" xmlns="http://www.w3.org/2000/svg">
<path d="M114 15.25H14C11.415 15.2529 8.93677 16.2811 7.10892 18.1089C5.28108 19.9368 4.25291 22.415 4.25 25V102C4.25318 104.85 5.38678 107.583 7.40211 109.598C9.41744 111.613 12.1499 112.747 15 112.75H113C115.85 112.747 118.583 111.613 120.598 109.598C122.613 107.583 123.747 104.85 123.75 102V25C123.747 22.415 122.719 19.9368 120.891 18.1089C119.063 16.2811 116.585 15.2529 114 15.25ZM120.25 25V36.683H52.888L61.37 18.75H114C115.657 18.7519 117.246 19.4109 118.417 20.5826C119.589 21.7543 120.248 23.343 120.25 25ZM14 18.75H57.5L49.016 36.683H7.75V25C7.75185 23.343 8.41093 21.7543 9.58263 20.5826C10.7543 19.4109 12.343 18.7519 14 18.75ZM113 109.25H15C13.0778 109.248 11.235 108.483 9.87581 107.124C8.51663 105.765 7.75212 103.922 7.75 102V40.183H120.25V102C120.248 103.922 119.483 105.765 118.124 107.124C116.765 108.483 114.922 109.248 113 109.25Z" fill="url(#paint0_linear_210_429)"/>
<path d="M21.57 33.467C22.7072 33.467 23.819 33.1298 24.7645 32.498C25.7101 31.8662 26.4471 30.9681 26.8823 29.9175C27.3175 28.8668 27.4314 27.7107 27.2095 26.5953C26.9877 25.4799 26.44 24.4553 25.6359 23.6512C24.8317 22.847 23.8072 22.2994 22.6918 22.0775C21.5764 21.8557 20.4203 21.9695 19.3696 22.4047C18.3189 22.8399 17.4209 23.5769 16.7891 24.5225C16.1572 25.4681 15.82 26.5798 15.82 27.717C15.8216 29.2416 16.4279 30.7032 17.5059 31.7812C18.5839 32.8591 20.0455 33.4655 21.57 33.467ZM21.57 25.467C22.015 25.467 22.45 25.599 22.82 25.8462C23.1901 26.0935 23.4784 26.4449 23.6487 26.856C23.819 27.2671 23.8636 27.7195 23.7768 28.156C23.69 28.5925 23.4757 28.9934 23.161 29.308C22.8463 29.6227 22.4454 29.837 22.009 29.9238C21.5725 30.0106 21.1201 29.9661 20.709 29.7958C20.2978 29.6255 19.9464 29.3371 19.6992 28.9671C19.452 28.5971 19.32 28.1621 19.32 27.717C19.3208 27.1205 19.5581 26.5487 19.9799 26.1269C20.4017 25.7051 20.9735 25.4678 21.57 25.467Z" fill="url(#paint1_linear_210_429)"/>
<path d="M37.626 33.467C38.7632 33.467 39.875 33.1298 40.8205 32.498C41.7661 31.8662 42.5031 30.9681 42.9383 29.9175C43.3735 28.8668 43.4874 27.7107 43.2655 26.5953C43.0437 25.4799 42.496 24.4553 41.6919 23.6512C40.8877 22.847 39.8632 22.2994 38.7478 22.0775C37.6324 21.8557 36.4763 21.9695 35.4256 22.4047C34.3749 22.8399 33.4769 23.5769 32.8451 24.5225C32.2132 25.4681 31.876 26.5798 31.876 27.717C31.8776 29.2416 32.4839 30.7032 33.5619 31.7812C34.6399 32.8591 36.1015 33.4655 37.626 33.467ZM37.626 25.467C38.071 25.467 38.506 25.599 38.876 25.8462C39.2461 26.0935 39.5344 26.4449 39.7047 26.856C39.875 27.2671 39.9196 27.7195 39.8328 28.156C39.746 28.5925 39.5317 28.9934 39.217 29.308C38.9023 29.6227 38.5014 29.837 38.065 29.9238C37.6285 30.0106 37.1761 29.9661 36.765 29.7958C36.3538 29.6255 36.0024 29.3371 35.7552 28.9671C35.508 28.5971 35.376 28.1621 35.376 27.717C35.3768 27.1205 35.6141 26.5487 36.0359 26.1269C36.4577 25.7051 37.0295 25.4678 37.626 25.467Z" fill="url(#paint2_linear_210_429)"/>
<path d="M67.522 29.467H112.267C112.731 29.467 113.176 29.2827 113.504 28.9545C113.833 28.6263 114.017 28.1812 114.017 27.717C114.017 27.2529 113.833 26.8078 113.504 26.4796C113.176 26.1514 112.731 25.967 112.267 25.967H67.522C67.0579 25.967 66.6127 26.1514 66.2846 26.4796C65.9564 26.8078 65.772 27.2529 65.772 27.717C65.772 28.1812 65.9564 28.6263 66.2846 28.9545C66.6127 29.2827 67.0579 29.467 67.522 29.467Z" fill="url(#paint3_linear_210_429)"/>
<path d="M51.865 50.967H17.933C17.7031 50.9669 17.4755 51.0121 17.2631 51.1C17.0508 51.1879 16.8578 51.3168 16.6953 51.4793C16.5327 51.6418 16.4038 51.8348 16.3159 52.0472C16.228 52.2596 16.1829 52.4872 16.183 52.717V96.717C16.1829 96.9469 16.228 97.1745 16.3159 97.3869C16.4038 97.5993 16.5327 97.7922 16.6953 97.9548C16.8578 98.1173 17.0508 98.2462 17.2631 98.3341C17.4755 98.422 17.7031 98.4672 17.933 98.467H51.865C52.0949 98.4672 52.3225 98.422 52.5349 98.3341C52.7472 98.2462 52.9402 98.1173 53.1027 97.9548C53.2653 97.7922 53.3942 97.5993 53.4821 97.3869C53.57 97.1745 53.6151 96.9469 53.615 96.717V52.717C53.6151 52.4872 53.57 52.2596 53.4821 52.0472C53.3942 51.8348 53.2653 51.6418 53.1027 51.4793C52.9402 51.3168 52.7472 51.1879 52.5349 51.1C52.3225 51.0121 52.0949 50.9669 51.865 50.967ZM50.115 94.967H19.683V54.467H50.115V94.967Z" fill="url(#paint4_linear_210_429)"/>
<path d="M110.067 50.967H64C63.5359 50.967 63.0908 51.1514 62.7626 51.4796C62.4344 51.8078 62.25 52.2529 62.25 52.717V63.717C62.25 64.1812 62.4344 64.6263 62.7626 64.9545C63.0908 65.2827 63.5359 65.467 64 65.467H110.067C110.297 65.4672 110.524 65.422 110.737 65.3341C110.949 65.2462 111.142 65.1173 111.305 64.9548C111.467 64.7922 111.596 64.5993 111.684 64.3869C111.772 64.1745 111.817 63.9469 111.817 63.717V52.717C111.817 52.4872 111.772 52.2596 111.684 52.0472C111.596 51.8348 111.467 51.6418 111.305 51.4793C111.142 51.3168 110.949 51.1879 110.737 51.1C110.524 51.0121 110.297 50.9669 110.067 50.967ZM108.317 61.967H65.75V54.467H108.317V61.967Z" fill="url(#paint5_linear_210_429)"/>
<path d="M110.067 72.967H64C63.5359 72.967 63.0908 73.1514 62.7626 73.4796C62.4344 73.8078 62.25 74.2529 62.25 74.717C62.25 75.1812 62.4344 75.6263 62.7626 75.9545C63.0908 76.2827 63.5359 76.467 64 76.467H110.067C110.531 76.467 110.976 76.2827 111.304 75.9545C111.633 75.6263 111.817 75.1812 111.817 74.717C111.817 74.2529 111.633 73.8078 111.304 73.4796C110.976 73.1514 110.531 72.967 110.067 72.967Z" fill="url(#paint6_linear_210_429)"/>
<path d="M110.067 83.967H64C63.5359 83.967 63.0908 84.1514 62.7626 84.4796C62.4344 84.8078 62.25 85.2529 62.25 85.717C62.25 86.1812 62.4344 86.6263 62.7626 86.9545C63.0908 87.2827 63.5359 87.467 64 87.467H110.067C110.531 87.467 110.976 87.2827 111.304 86.9545C111.633 86.6263 111.817 86.1812 111.817 85.717C111.817 85.2529 111.633 84.8078 111.304 84.4796C110.976 84.1514 110.531 83.967 110.067 83.967Z" fill="url(#paint7_linear_210_429)"/>
<path d="M110.067 94.967H64C63.5359 94.967 63.0908 95.1514 62.7626 95.4796C62.4344 95.8078 62.25 96.2529 62.25 96.717C62.25 97.1812 62.4344 97.6263 62.7626 97.9545C63.0908 98.2827 63.5359 98.467 64 98.467H110.067C110.531 98.467 110.976 98.2827 111.304 97.9545C111.633 97.6263 111.817 97.1812 111.817 96.717C111.817 96.2529 111.633 95.8078 111.304 95.4796C110.976 95.1514 110.531 94.967 110.067 94.967Z" fill="url(#paint8_linear_210_429)"/>
<path d="M34.9 76.4669C37.475 76.4669 39.65 78.0069 39.65 79.8289C39.65 81.6509 37.475 83.1909 34.9 83.1909C34.024 83.2425 33.1499 83.0627 32.3655 82.6695C31.581 82.2763 30.9138 81.6836 30.431 80.9509C30.3279 80.7424 30.1843 80.5565 30.0086 80.4041C29.8328 80.2517 29.6284 80.1359 29.4074 80.0634C29.1863 79.9909 28.9531 79.9632 28.7212 79.982C28.4893 80.0007 28.2635 80.0655 28.057 80.1725C27.8505 80.2795 27.6673 80.4267 27.5183 80.6053C27.3693 80.7839 27.2574 80.9905 27.1892 81.2128C27.1209 81.4352 27.0977 81.669 27.1208 81.9005C27.144 82.1319 27.2131 82.3564 27.324 82.5609C27.931 83.6195 28.7711 84.5259 29.7805 85.2115C30.7899 85.8971 31.9422 86.3439 33.15 86.5179V88.8999C33.15 89.364 33.3344 89.8092 33.6626 90.1373C33.9907 90.4655 34.4359 90.6499 34.9 90.6499C35.3641 90.6499 35.8092 90.4655 36.1374 90.1373C36.4656 89.8092 36.65 89.364 36.65 88.8999V86.5329C40.36 85.8629 43.15 83.1129 43.15 79.8329C43.15 76.0489 39.45 72.9709 34.9 72.9709C32.325 72.9709 30.15 71.4309 30.15 69.6079C30.15 67.7849 32.325 66.2459 34.9 66.2459C35.7682 66.1977 36.6341 66.3749 37.4136 66.7604C38.193 67.1459 38.8594 67.7266 39.348 68.4459C39.5679 68.8547 39.9411 69.1595 40.3857 69.2931C40.8302 69.4267 41.3097 69.3783 41.7185 69.1584C42.1273 68.9385 42.4321 68.5653 42.5657 68.1207C42.6993 67.6762 42.6509 67.1967 42.431 66.7879C41.8158 65.7537 40.9777 64.8697 39.9776 64.2003C38.9775 63.531 37.8407 63.0932 36.65 62.9189V60.5349C36.65 60.0708 36.4656 59.6257 36.1374 59.2975C35.8092 58.9693 35.3641 58.7849 34.9 58.7849C34.4359 58.7849 33.9907 58.9693 33.6626 59.2975C33.3344 59.6257 33.15 60.0708 33.15 60.5349V62.8999C29.439 63.5699 26.65 66.3189 26.65 69.5999C26.649 73.3889 30.35 76.4669 34.9 76.4669Z" fill="url(#paint9_linear_210_429)"/>
<defs>
<linearGradient id="paint0_linear_210_429" x1="64" y1="15.25" x2="64" y2="112.75" gradientUnits="userSpaceOnUse">
<stop offset="0.503125" stop-color="#5D139D"/>
<stop offset="1" stop-color="#8C5FD4"/>
</linearGradient>
<linearGradient id="paint1_linear_210_429" x1="21.57" y1="21.967" x2="21.57" y2="33.467" gradientUnits="userSpaceOnUse">
<stop offset="0.503125" stop-color="#5D139D"/>
<stop offset="1" stop-color="#8C5FD4"/>
</linearGradient>
<linearGradient id="paint2_linear_210_429" x1="37.626" y1="21.967" x2="37.626" y2="33.467" gradientUnits="userSpaceOnUse">
<stop offset="0.503125" stop-color="#5D139D"/>
<stop offset="1" stop-color="#8C5FD4"/>
</linearGradient>
<linearGradient id="paint3_linear_210_429" x1="89.8945" y1="25.967" x2="89.8945" y2="29.467" gradientUnits="userSpaceOnUse">
<stop offset="0.503125" stop-color="#5D139D"/>
<stop offset="1" stop-color="#8C5FD4"/>
</linearGradient>
<linearGradient id="paint4_linear_210_429" x1="34.899" y1="50.967" x2="34.899" y2="98.467" gradientUnits="userSpaceOnUse">
<stop offset="0.503125" stop-color="#5D139D"/>
<stop offset="1" stop-color="#8C5FD4"/>
</linearGradient>
<linearGradient id="paint5_linear_210_429" x1="87.0335" y1="50.967" x2="87.0335" y2="65.467" gradientUnits="userSpaceOnUse">
<stop offset="0.503125" stop-color="#5D139D"/>
<stop offset="1" stop-color="#8C5FD4"/>
</linearGradient>
<linearGradient id="paint6_linear_210_429" x1="87.0335" y1="72.967" x2="87.0335" y2="76.467" gradientUnits="userSpaceOnUse">
<stop offset="0.503125" stop-color="#5D139D"/>
<stop offset="1" stop-color="#8C5FD4"/>
</linearGradient>
<linearGradient id="paint7_linear_210_429" x1="87.0335" y1="83.967" x2="87.0335" y2="87.467" gradientUnits="userSpaceOnUse">
<stop offset="0.503125" stop-color="#5D139D"/>
<stop offset="1" stop-color="#8C5FD4"/>
</linearGradient>
<linearGradient id="paint8_linear_210_429" x1="87.0335" y1="94.967" x2="87.0335" y2="98.467" gradientUnits="userSpaceOnUse">
<stop offset="0.503125" stop-color="#5D139D"/>
<stop offset="1" stop-color="#8C5FD4"/>
</linearGradient>
<linearGradient id="paint9_linear_210_429" x1="34.9" y1="58.7849" x2="34.9" y2="90.6499" gradientUnits="userSpaceOnUse">
<stop offset="0.503125" stop-color="#5D139D"/>
<stop offset="1" stop-color="#8C5FD4"/>
</linearGradient>
</defs>
</svg>
