<?xml version="1.0" encoding="UTF-8" standalone="no"?>
<!-- Generator: Adobe Illustrator 24.3.0, SVG Export Plug-In . SVG Version: 6.00 Build 0)  -->

<svg
   version="1.1"
   id="Layer_1"
   x="0px"
   y="0px"
   viewBox="0 0 39.400429 34.534054"
   enable-background="new 0 0 200 200"
   xml:space="preserve"
   sodipodi:docname="reshot-icon-down-arrow-9F6RXHSYMN.svg"
   width="39.400429"
   height="34.534054"
   inkscape:version="1.1.1 (3bf5ae0d25, 2021-09-20)"
   xmlns:inkscape="http://www.inkscape.org/namespaces/inkscape"
   xmlns:sodipodi="http://sodipodi.sourceforge.net/DTD/sodipodi-0.dtd"
   xmlns="http://www.w3.org/2000/svg"
   xmlns:svg="http://www.w3.org/2000/svg"><defs
   id="defs13" /><sodipodi:namedview
   id="namedview11"
   pagecolor="#505050"
   bordercolor="#eeeeee"
   borderopacity="1"
   inkscape:pageshadow="0"
   inkscape:pageopacity="0"
   inkscape:pagecheckerboard="0"
   showgrid="false"
   fit-margin-top="0"
   fit-margin-left="0"
   fit-margin-right="0"
   fit-margin-bottom="0"
   inkscape:zoom="10.168196"
   inkscape:cx="13.91594"
   inkscape:cy="14.702707"
   inkscape:window-width="1536"
   inkscape:window-height="793"
   inkscape:window-x="-8"
   inkscape:window-y="-8"
   inkscape:window-maximized="1"
   inkscape:current-layer="Layer_1" />

<g
   id="g1091"
   transform="rotate(-90,22.309241,93.356812)"
   style="fill:#17083a;fill-opacity:1"><path
     fill="#282828"
     d="m 81.532,99.998 5.2,9.1 c 1.1,1.8 3.7,1.8 4.7,0 l 5.2,-9.1 c 1.1,-1.8 -0.3,-4.1 -2.4,-4.1 h -10.4 c -2.1,0 -3.4,2.3 -2.3,4.1 z"
     id="path2"
     style="fill:#17083a;fill-opacity:1" /><path
     fill="#282828"
     d="m 89.432,98.998 c -1,0 -1.8,-0.7 -2,-1.7 -1.2,-7.2 1.1,-14.5 6.3,-19.7 5.3,-5.3 12.9,-7.6 20.3,-6.1 1.1,0.2 1.8,1.3 1.6,2.4 -0.2,1.1 -1.3,1.8 -2.4,1.6 -6.1,-1.2 -12.3,0.7 -16.7,5 -4.2,4.2 -6.2,10.2 -5.2,16.1 0.2,1.1 -0.5,2.1 -1.6,2.3 -0.1,0.1 -0.2,0.1 -0.3,0.1 z"
     id="path4"
     style="fill:#17083a;fill-opacity:1" /></g>


</svg>
