<svg width="128" height="128" viewBox="0 0 128 128" fill="none" xmlns="http://www.w3.org/2000/svg">
<path d="M114 15.25H14C11.415 15.2529 8.93677 16.2811 7.10892 18.1089C5.28108 19.9368 4.25291 22.415 4.25 25V102C4.25318 104.85 5.38678 107.583 7.40211 109.598C9.41744 111.613 12.1499 112.747 15 112.75H113C115.85 112.747 118.583 111.613 120.598 109.598C122.613 107.583 123.747 104.85 123.75 102V25C123.747 22.415 122.719 19.9368 120.891 18.1089C119.063 16.2811 116.585 15.2529 114 15.25ZM120.25 25V36.683H52.888L61.37 18.75H114C115.657 18.7519 117.246 19.4109 118.417 20.5826C119.589 21.7543 120.248 23.343 120.25 25ZM14 18.75H57.5L49.016 36.683H7.75V25C7.75185 23.343 8.41093 21.7543 9.58263 20.5826C10.7543 19.4109 12.343 18.7519 14 18.75ZM46.771 109.25C47.48 102.5 52.447 102.224 53.045 102.215H74.96C76.501 102.316 77.9552 102.964 79.06 104.043C80.3644 105.475 81.1301 107.316 81.226 109.25H46.771ZM64 82.454C64.5048 82.454 64.9982 82.6037 65.4179 82.8842C65.8376 83.1646 66.1647 83.5632 66.3578 84.0296C66.551 84.496 66.6014 85.0092 66.5029 85.5042C66.4043 85.9993 66.1612 86.454 65.8042 86.8109C65.4472 87.1678 64.9924 87.4107 64.4973 87.5091C64.0021 87.6074 63.489 87.5568 63.0227 87.3635C62.5564 87.1702 62.1579 86.8429 61.8776 86.4231C61.5973 86.0033 61.4478 85.5098 61.448 85.005C61.4491 84.3286 61.7183 83.6802 62.1967 83.202C62.6751 82.7238 63.3236 82.4548 64 82.454ZM66.423 55.6H61.577V50.75H66.423V55.6ZM62.25 79.214C60.8602 79.6338 59.6676 80.5393 58.8898 81.7652C58.112 82.9911 57.8008 84.4557 58.013 85.892C58.2252 87.3282 58.9466 88.6403 60.0457 89.5889C61.1447 90.5376 62.5482 91.0595 64 91.0595C65.4518 91.0595 66.8553 90.5376 67.9543 89.5889C69.0534 88.6403 69.7748 87.3282 69.987 85.892C70.1992 84.4557 69.888 82.9911 69.1102 81.7652C68.3324 80.5393 67.1398 79.6338 65.75 79.214V63.925C68.95 69 74.213 76.119 80.53 79.908C78.388 83.22 73.9 90.985 73.276 98.715H54.724C54.104 90.985 49.612 83.215 47.47 79.908C53.787 76.119 59.053 69 62.25 63.925V79.214ZM113 109.25H84.737C84.6296 106.388 83.4934 103.66 81.537 101.568C80.2225 100.271 78.5713 99.3674 76.77 98.96C77.504 89.993 84.402 80.422 84.47 80.321C84.6212 80.1137 84.7249 79.8757 84.7739 79.6238C84.8229 79.372 84.8158 79.1124 84.7533 78.8636C84.6908 78.6147 84.5744 78.3827 84.4122 78.1839C84.2501 77.985 84.0462 77.8243 83.815 77.713C76.178 74.036 69.674 63.863 66.944 59.1H68.173C68.6371 59.1 69.0823 58.9156 69.4104 58.5874C69.7386 58.2592 69.923 57.8141 69.923 57.35V52.4C83.591 54.542 94.352 63.947 97.062 76.084H95.3C94.8359 76.084 94.3907 76.2684 94.0626 76.5966C93.7344 76.9248 93.55 77.3699 93.55 77.834V86.18C93.5503 86.6441 93.7347 87.089 94.0629 87.4171C94.391 87.7453 94.836 87.9297 95.3 87.93H103.646C104.11 87.9297 104.555 87.7453 104.883 87.4171C105.211 87.089 105.396 86.6441 105.396 86.18V77.833C105.396 77.3689 105.212 76.9238 104.883 76.5956C104.555 76.2674 104.11 76.083 103.646 76.083H100.646C98.579 65.583 91.192 56.843 81.082 52.15H99.472C99.9361 52.15 100.381 51.9656 100.709 51.6374C101.038 51.3092 101.222 50.8641 101.222 50.4C101.222 49.9359 101.038 49.4908 100.709 49.1626C100.381 48.8344 99.9361 48.65 99.472 48.65H69.888C69.807 48.2549 69.5921 47.8998 69.2796 47.6448C68.9672 47.3897 68.5763 47.2503 68.173 47.25H59.827C59.4236 47.2499 59.0325 47.3892 58.72 47.6443C58.4075 47.8995 58.1927 48.2547 58.112 48.65H28.528C28.0639 48.65 27.6188 48.8344 27.2906 49.1626C26.9624 49.4908 26.778 49.9359 26.778 50.4C26.778 50.8641 26.9624 51.3092 27.2906 51.6374C27.6188 51.9656 28.0639 52.15 28.528 52.15H46.921C36.811 56.843 29.421 65.584 27.357 76.083H24.357C23.8929 76.083 23.4478 76.2674 23.1196 76.5956C22.7914 76.9238 22.607 77.3689 22.607 77.833V86.179C22.6073 86.6431 22.7917 87.088 23.1199 87.4161C23.448 87.7443 23.893 87.9287 24.357 87.929H32.7C33.164 87.9287 33.609 87.7443 33.9371 87.4161C34.2653 87.088 34.4497 86.6431 34.45 86.179V77.833C34.45 77.3689 34.2656 76.9238 33.9374 76.5956C33.6092 76.2674 33.1641 76.083 32.7 76.083H30.938C33.648 63.947 44.409 54.541 58.077 52.4V57.347C58.0769 57.5769 58.122 57.8045 58.2099 58.0169C58.2978 58.2292 58.4267 58.4222 58.5893 58.5847C58.7518 58.7473 58.9448 58.8762 59.1572 58.9641C59.3695 59.052 59.5971 59.0971 59.827 59.097H61.057C58.331 63.862 51.833 74.031 44.178 77.714C43.9469 77.8255 43.7431 77.9864 43.5811 78.1854C43.419 78.3843 43.3027 78.6164 43.2402 78.8653C43.1777 79.1141 43.1706 79.3737 43.2195 79.6256C43.2684 79.8775 43.372 80.1156 43.523 80.323C43.597 80.423 50.503 89.988 51.229 98.977C49.4275 99.3753 47.7749 100.274 46.461 101.569C44.5046 103.661 43.3684 106.389 43.261 109.251H15C13.0777 109.249 11.2347 108.484 9.87546 107.125C8.51625 105.765 7.75185 103.922 7.75 102V40.183H120.25V102C120.248 103.922 119.483 105.765 118.124 107.124C116.765 108.483 114.922 109.248 113 109.25ZM101.9 79.583V84.429H97.049V79.583H101.9ZM30.956 79.583V84.429H26.105V79.583H30.956Z" fill="url(#paint0_linear_210_460)"/>
<path d="M21.57 33.4659C22.7072 33.4659 23.819 33.1287 24.7645 32.4969C25.7101 31.8651 26.4471 30.967 26.8823 29.9164C27.3175 28.8657 27.4314 27.7096 27.2095 26.5942C26.9877 25.4788 26.44 24.4542 25.6359 23.6501C24.8317 22.8459 23.8072 22.2983 22.6918 22.0764C21.5764 21.8546 20.4203 21.9684 19.3696 22.4036C18.3189 22.8388 17.4209 23.5758 16.7891 24.5214C16.1572 25.467 15.82 26.5787 15.82 27.7159C15.8216 29.2405 16.4279 30.7021 17.5059 31.7801C18.5839 32.858 20.0455 33.4644 21.57 33.4659ZM21.57 25.4659C22.015 25.4659 22.45 25.5979 22.82 25.8451C23.1901 26.0924 23.4784 26.4438 23.6487 26.8549C23.819 27.266 23.8636 27.7184 23.7768 28.1549C23.69 28.5914 23.4757 28.9923 23.161 29.3069C22.8463 29.6216 22.4454 29.8359 22.009 29.9227C21.5725 30.0095 21.1201 29.965 20.709 29.7947C20.2978 29.6244 19.9464 29.336 19.6992 28.966C19.452 28.596 19.32 28.161 19.32 27.7159C19.3208 27.1195 19.5581 26.5476 19.9799 26.1258C20.4017 25.704 20.9735 25.4667 21.57 25.4659Z" fill="url(#paint1_linear_210_460)"/>
<path d="M37.626 33.4659C38.7632 33.4659 39.875 33.1287 40.8205 32.4969C41.7661 31.8651 42.5031 30.967 42.9383 29.9164C43.3735 28.8657 43.4874 27.7096 43.2655 26.5942C43.0437 25.4788 42.496 24.4542 41.6919 23.6501C40.8877 22.8459 39.8632 22.2983 38.7478 22.0764C37.6324 21.8546 36.4763 21.9684 35.4256 22.4036C34.3749 22.8388 33.4769 23.5758 32.8451 24.5214C32.2132 25.467 31.876 26.5787 31.876 27.7159C31.8776 29.2405 32.4839 30.7021 33.5619 31.7801C34.6399 32.858 36.1015 33.4644 37.626 33.4659ZM37.626 25.4659C38.071 25.4659 38.506 25.5979 38.876 25.8451C39.2461 26.0924 39.5344 26.4438 39.7047 26.8549C39.875 27.266 39.9196 27.7184 39.8328 28.1549C39.746 28.5914 39.5317 28.9923 39.217 29.3069C38.9023 29.6216 38.5014 29.8359 38.065 29.9227C37.6285 30.0095 37.1761 29.965 36.765 29.7947C36.3538 29.6244 36.0024 29.336 35.7552 28.966C35.508 28.596 35.376 28.161 35.376 27.7159C35.3768 27.1195 35.6141 26.5476 36.0359 26.1258C36.4577 25.704 37.0295 25.4667 37.626 25.4659Z" fill="url(#paint2_linear_210_460)"/>
<path d="M67.522 29.4659H112.267C112.731 29.4659 113.176 29.2816 113.504 28.9534C113.833 28.6252 114.017 28.1801 114.017 27.7159C114.017 27.2518 113.833 26.8067 113.504 26.4785C113.176 26.1503 112.731 25.9659 112.267 25.9659H67.522C67.0579 25.9659 66.6127 26.1503 66.2846 26.4785C65.9564 26.8067 65.772 27.2518 65.772 27.7159C65.772 28.1801 65.9564 28.6252 66.2846 28.9534C66.6127 29.2816 67.0579 29.4659 67.522 29.4659Z" fill="url(#paint3_linear_210_460)"/>
<defs>
<linearGradient id="paint0_linear_210_460" x1="64" y1="15.25" x2="64" y2="112.75" gradientUnits="userSpaceOnUse">
<stop offset="0.494792" stop-color="#5D139D"/>
<stop offset="1" stop-color="#8C5FD4"/>
</linearGradient>
<linearGradient id="paint1_linear_210_460" x1="21.57" y1="21.9659" x2="21.57" y2="33.4659" gradientUnits="userSpaceOnUse">
<stop offset="0.494792" stop-color="#5D139D"/>
<stop offset="1" stop-color="#8C5FD4"/>
</linearGradient>
<linearGradient id="paint2_linear_210_460" x1="37.626" y1="21.9659" x2="37.626" y2="33.4659" gradientUnits="userSpaceOnUse">
<stop offset="0.494792" stop-color="#5D139D"/>
<stop offset="1" stop-color="#8C5FD4"/>
</linearGradient>
<linearGradient id="paint3_linear_210_460" x1="89.8945" y1="25.9659" x2="89.8945" y2="29.4659" gradientUnits="userSpaceOnUse">
<stop offset="0.494792" stop-color="#5D139D"/>
<stop offset="1" stop-color="#8C5FD4"/>
</linearGradient>
</defs>
</svg>
