<svg width="128" height="128" viewBox="0 0 128 128" fill="none" xmlns="http://www.w3.org/2000/svg">
<path d="M114 15.25H14C11.415 15.2529 8.93677 16.2811 7.10892 18.1089C5.28108 19.9368 4.25291 22.415 4.25 25V102C4.25318 104.85 5.38678 107.583 7.40211 109.598C9.41744 111.613 12.1499 112.747 15 112.75H113C115.85 112.747 118.583 111.613 120.598 109.598C122.613 107.583 123.747 104.85 123.75 102V25C123.747 22.415 122.719 19.9368 120.891 18.1089C119.063 16.2811 116.585 15.2529 114 15.25ZM120.25 25V36.683H52.888L61.37 18.75H114C115.657 18.7519 117.246 19.4109 118.417 20.5826C119.589 21.7543 120.248 23.343 120.25 25ZM14 18.75H57.5L49.016 36.683H7.75V25C7.75185 23.343 8.41093 21.7543 9.58263 20.5826C10.7543 19.4109 12.343 18.7519 14 18.75ZM113 109.25H15C13.0778 109.248 11.235 108.483 9.87581 107.124C8.51663 105.765 7.75212 103.922 7.75 102V40.183H120.25V102C120.248 103.922 119.483 105.765 118.124 107.124C116.765 108.483 114.922 109.248 113 109.25Z" fill="url(#paint0_linear_210_450)"/>
<path d="M21.57 33.4661C22.7072 33.4661 23.819 33.1288 24.7645 32.497C25.7101 31.8652 26.4471 30.9672 26.8823 29.9165C27.3175 28.8658 27.4314 27.7097 27.2095 26.5943C26.9877 25.4789 26.44 24.4544 25.6359 23.6502C24.8317 22.8461 23.8072 22.2984 22.6918 22.0766C21.5764 21.8547 20.4203 21.9686 19.3696 22.4038C18.3189 22.839 17.4209 23.576 16.7891 24.5215C16.1572 25.4671 15.82 26.5788 15.82 27.7161C15.8216 29.2406 16.4279 30.7022 17.5059 31.7802C18.5839 32.8582 20.0455 33.4645 21.57 33.4661ZM21.57 25.4661C22.015 25.4661 22.45 25.598 22.82 25.8453C23.1901 26.0925 23.4784 26.4439 23.6487 26.855C23.819 27.2662 23.8636 27.7186 23.7768 28.155C23.69 28.5915 23.4757 28.9924 23.161 29.3071C22.8463 29.6217 22.4454 29.836 22.009 29.9228C21.5725 30.0097 21.1201 29.9651 20.709 29.7948C20.2978 29.6245 19.9464 29.3361 19.6992 28.9661C19.452 28.5961 19.32 28.1611 19.32 27.7161C19.3208 27.1196 19.5581 26.5477 19.9799 26.126C20.4017 25.7042 20.9735 25.4669 21.57 25.4661Z" fill="url(#paint1_linear_210_450)"/>
<path d="M37.626 33.4661C38.7632 33.4661 39.875 33.1288 40.8205 32.497C41.7661 31.8652 42.5031 30.9672 42.9383 29.9165C43.3735 28.8658 43.4874 27.7097 43.2655 26.5943C43.0437 25.4789 42.496 24.4544 41.6919 23.6502C40.8877 22.8461 39.8632 22.2984 38.7478 22.0766C37.6324 21.8547 36.4763 21.9686 35.4256 22.4038C34.3749 22.839 33.4769 23.576 32.8451 24.5215C32.2132 25.4671 31.876 26.5788 31.876 27.7161C31.8776 29.2406 32.4839 30.7022 33.5619 31.7802C34.6399 32.8582 36.1015 33.4645 37.626 33.4661ZM37.626 25.4661C38.071 25.4661 38.506 25.598 38.876 25.8453C39.2461 26.0925 39.5344 26.4439 39.7047 26.855C39.875 27.2662 39.9196 27.7186 39.8328 28.155C39.746 28.5915 39.5317 28.9924 39.217 29.3071C38.9023 29.6217 38.5014 29.836 38.065 29.9228C37.6285 30.0097 37.1761 29.9651 36.765 29.7948C36.3538 29.6245 36.0024 29.3361 35.7552 28.9661C35.508 28.5961 35.376 28.1611 35.376 27.7161C35.3768 27.1196 35.6141 26.5477 36.0359 26.126C36.4577 25.7042 37.0295 25.4669 37.626 25.4661Z" fill="url(#paint2_linear_210_450)"/>
<path d="M67.522 29.4661H112.267C112.731 29.4661 113.176 29.2817 113.504 28.9535C113.833 28.6253 114.017 28.1802 114.017 27.7161C114.017 27.2519 113.833 26.8068 113.504 26.4786C113.176 26.1504 112.731 25.9661 112.267 25.9661H67.522C67.0579 25.9661 66.6127 26.1504 66.2846 26.4786C65.9564 26.8068 65.772 27.2519 65.772 27.7161C65.772 28.1802 65.9564 28.6253 66.2846 28.9535C66.6127 29.2817 67.0579 29.4661 67.522 29.4661Z" fill="url(#paint3_linear_210_450)"/>
<path d="M110.067 50.9661H62.067C61.603 50.9663 61.158 51.1508 60.8299 51.4789C60.5017 51.8071 60.3173 52.252 60.317 52.7161V63.7161C60.317 64.1802 60.5014 64.6253 60.8296 64.9535C61.1578 65.2817 61.6029 65.4661 62.067 65.4661H110.067C110.297 65.4662 110.524 65.421 110.737 65.3331C110.949 65.2452 111.142 65.1163 111.305 64.9538C111.467 64.7913 111.596 64.5983 111.684 64.3859C111.772 64.1735 111.817 63.9459 111.817 63.7161V52.7161C111.817 52.4863 111.772 52.2587 111.684 52.0464C111.596 51.834 111.467 51.6411 111.304 51.4786C111.142 51.3161 110.949 51.1872 110.737 51.0993C110.524 51.0113 110.297 50.9661 110.067 50.9661ZM108.317 61.9661H63.817V54.4661H108.317V61.9661Z" fill="url(#paint4_linear_210_450)"/>
<path d="M51.651 52.3999C51.641 52.3449 51.625 52.2939 51.61 52.2409C51.5955 52.1844 51.5782 52.1286 51.558 52.0739C51.537 52.023 51.5133 51.9733 51.487 51.9249C51.461 51.8729 51.435 51.8249 51.404 51.7709C51.3729 51.7252 51.3396 51.6812 51.304 51.6389C51.268 51.5929 51.234 51.5469 51.194 51.5049C51.15 51.461 51.1036 51.4196 51.055 51.3809C51.023 51.3539 50.996 51.3219 50.961 51.2969L50.934 51.2809C50.8799 51.2445 50.8238 51.2111 50.766 51.1809C50.721 51.1569 50.679 51.1289 50.633 51.1089C50.587 51.0889 50.525 51.0719 50.47 51.0539C50.4163 51.0339 50.3616 51.0169 50.306 51.0029C50.258 50.9919 50.206 50.9899 50.158 50.9829C50.093 50.9749 50.028 50.9649 49.958 50.9629C49.947 50.9629 49.937 50.9629 49.927 50.9629H17.927C17.917 50.9629 17.908 50.9629 17.898 50.9629C17.8269 50.9658 17.7561 50.9731 17.686 50.9849C17.642 50.9909 17.597 50.9929 17.554 51.0019C17.4927 51.0172 17.4322 51.0359 17.373 51.0579C17.324 51.0749 17.273 51.0879 17.227 51.1079C17.181 51.1279 17.134 51.1579 17.087 51.1839C17.031 51.2126 16.9766 51.2444 16.924 51.2789C16.916 51.2849 16.906 51.2879 16.897 51.2949C16.862 51.3199 16.835 51.3519 16.803 51.3789C16.7547 51.4176 16.7086 51.459 16.665 51.5029C16.6256 51.5455 16.5885 51.5902 16.554 51.6369C16.5181 51.6789 16.4847 51.723 16.454 51.7689C16.4233 51.8187 16.3952 51.8701 16.37 51.9229C16.3437 51.9713 16.32 52.021 16.299 52.0719C16.278 52.1269 16.263 52.1829 16.247 52.2389C16.231 52.2949 16.216 52.3389 16.206 52.3979C16.1957 52.4641 16.189 52.5309 16.186 52.5979C16.186 52.6369 16.175 52.6749 16.175 52.7139V96.7139C16.175 96.7539 16.184 96.7909 16.186 96.8299C16.189 96.8969 16.1957 96.9636 16.206 97.0299C16.216 97.0839 16.232 97.1359 16.247 97.1889C16.262 97.2419 16.278 97.3009 16.299 97.3559C16.32 97.4068 16.3437 97.4565 16.37 97.5049C16.396 97.5569 16.422 97.6049 16.453 97.6589C16.484 97.7129 16.518 97.7479 16.553 97.7909C16.5875 97.8376 16.6246 97.8823 16.664 97.9249C16.7076 97.9685 16.7537 98.0096 16.802 98.0479C16.834 98.0759 16.861 98.1069 16.896 98.1329L16.917 98.1429C17.0498 98.2355 17.1949 98.3092 17.348 98.3619C17.382 98.3739 17.415 98.3839 17.448 98.3939C17.601 98.4391 17.7594 98.4637 17.919 98.4669H49.937C50.0965 98.4637 50.2549 98.4391 50.408 98.3939C50.443 98.3839 50.476 98.3739 50.508 98.3619C50.6611 98.3092 50.8062 98.2355 50.939 98.1429C50.946 98.1429 50.954 98.1369 50.96 98.1329C50.995 98.1069 51.022 98.0759 51.054 98.0479C51.1026 98.0096 51.149 97.9685 51.193 97.9249C51.233 97.8829 51.267 97.8369 51.303 97.7909C51.339 97.7449 51.372 97.7049 51.403 97.6589C51.434 97.6129 51.46 97.5589 51.486 97.5049C51.5123 97.4565 51.536 97.4068 51.557 97.3559C51.5772 97.3012 51.5945 97.2454 51.609 97.1889C51.624 97.1359 51.64 97.0839 51.65 97.0299C51.6608 96.9637 51.6675 96.8969 51.67 96.8299C51.67 96.7909 51.682 96.7539 51.682 96.7139V52.7139C51.682 52.6749 51.673 52.6369 51.67 52.5979C51.6677 52.5316 51.6614 52.4654 51.651 52.3999ZM19.683 58.0999L31.768 74.7159L19.683 91.3339V58.0999ZM21.369 54.4679H46.5L33.933 71.7409L21.369 54.4679ZM33.933 77.6919L46.5 94.9659H21.369L33.933 77.6919ZM36.1 74.7159L48.183 58.0999V91.3339L36.1 74.7159Z" fill="url(#paint5_linear_210_450)"/>
<path d="M110.067 72.9661H62.067C61.6029 72.9661 61.1578 73.1504 60.8296 73.4786C60.5014 73.8068 60.317 74.2519 60.317 74.7161C60.317 75.1802 60.5014 75.6253 60.8296 75.9535C61.1578 76.2817 61.6029 76.4661 62.067 76.4661H110.067C110.531 76.4661 110.976 76.2817 111.304 75.9535C111.633 75.6253 111.817 75.1802 111.817 74.7161C111.817 74.2519 111.633 73.8068 111.304 73.4786C110.976 73.1504 110.531 72.9661 110.067 72.9661Z" fill="url(#paint6_linear_210_450)"/>
<path d="M110.067 83.9661H62.067C61.6029 83.9661 61.1578 84.1504 60.8296 84.4786C60.5014 84.8068 60.317 85.2519 60.317 85.7161C60.317 86.1802 60.5014 86.6253 60.8296 86.9535C61.1578 87.2817 61.6029 87.4661 62.067 87.4661H110.067C110.531 87.4661 110.976 87.2817 111.304 86.9535C111.633 86.6253 111.817 86.1802 111.817 85.7161C111.817 85.2519 111.633 84.8068 111.304 84.4786C110.976 84.1504 110.531 83.9661 110.067 83.9661Z" fill="url(#paint7_linear_210_450)"/>
<path d="M110.067 94.9661H62.067C61.6029 94.9661 61.1578 95.1504 60.8296 95.4786C60.5014 95.8068 60.317 96.2519 60.317 96.7161C60.317 97.1802 60.5014 97.6253 60.8296 97.9535C61.1578 98.2817 61.6029 98.4661 62.067 98.4661H110.067C110.531 98.4661 110.976 98.2817 111.304 97.9535C111.633 97.6253 111.817 97.1802 111.817 96.7161C111.817 96.2519 111.633 95.8068 111.304 95.4786C110.976 95.1504 110.531 94.9661 110.067 94.9661Z" fill="url(#paint8_linear_210_450)"/>
<defs>
<linearGradient id="paint0_linear_210_450" x1="64" y1="15.25" x2="64" y2="112.75" gradientUnits="userSpaceOnUse">
<stop offset="0.534375" stop-color="#5D139D"/>
<stop offset="1" stop-color="#8C5FD4"/>
</linearGradient>
<linearGradient id="paint1_linear_210_450" x1="21.57" y1="21.9661" x2="21.57" y2="33.4661" gradientUnits="userSpaceOnUse">
<stop offset="0.534375" stop-color="#5D139D"/>
<stop offset="1" stop-color="#8C5FD4"/>
</linearGradient>
<linearGradient id="paint2_linear_210_450" x1="37.626" y1="21.9661" x2="37.626" y2="33.4661" gradientUnits="userSpaceOnUse">
<stop offset="0.534375" stop-color="#5D139D"/>
<stop offset="1" stop-color="#8C5FD4"/>
</linearGradient>
<linearGradient id="paint3_linear_210_450" x1="89.8945" y1="25.9661" x2="89.8945" y2="29.4661" gradientUnits="userSpaceOnUse">
<stop offset="0.534375" stop-color="#5D139D"/>
<stop offset="1" stop-color="#8C5FD4"/>
</linearGradient>
<linearGradient id="paint4_linear_210_450" x1="86.067" y1="50.9661" x2="86.067" y2="65.4661" gradientUnits="userSpaceOnUse">
<stop offset="0.534375" stop-color="#5D139D"/>
<stop offset="1" stop-color="#8C5FD4"/>
</linearGradient>
<linearGradient id="paint5_linear_210_450" x1="33.9285" y1="50.9629" x2="33.9285" y2="98.4669" gradientUnits="userSpaceOnUse">
<stop offset="0.534375" stop-color="#5D139D"/>
<stop offset="1" stop-color="#8C5FD4"/>
</linearGradient>
<linearGradient id="paint6_linear_210_450" x1="86.067" y1="72.9661" x2="86.067" y2="76.4661" gradientUnits="userSpaceOnUse">
<stop offset="0.534375" stop-color="#5D139D"/>
<stop offset="1" stop-color="#8C5FD4"/>
</linearGradient>
<linearGradient id="paint7_linear_210_450" x1="86.067" y1="83.9661" x2="86.067" y2="87.4661" gradientUnits="userSpaceOnUse">
<stop offset="0.534375" stop-color="#5D139D"/>
<stop offset="1" stop-color="#8C5FD4"/>
</linearGradient>
<linearGradient id="paint8_linear_210_450" x1="86.067" y1="94.9661" x2="86.067" y2="98.4661" gradientUnits="userSpaceOnUse">
<stop offset="0.534375" stop-color="#5D139D"/>
<stop offset="1" stop-color="#8C5FD4"/>
</linearGradient>
</defs>
</svg>
