<?xml version="1.0" encoding="UTF-8" standalone="no"?>
<svg
   id="visual"
   viewBox="0 0 599.04315 459.35214"
   width="599.04315"
   height="459.35214"
   version="1.1"
   sodipodi:docname="blob1.svg"
   inkscape:version="1.1.1 (3bf5ae0d25, 2021-09-20)"
   xmlns:inkscape="http://www.inkscape.org/namespaces/inkscape"
   xmlns:sodipodi="http://sodipodi.sourceforge.net/DTD/sodipodi-0.dtd"
   xmlns="http://www.w3.org/2000/svg"
   xmlns:svg="http://www.w3.org/2000/svg">
  <defs
     id="defs11" />
  <sodipodi:namedview
     id="namedview9"
     pagecolor="#505050"
     bordercolor="#eeeeee"
     borderopacity="1"
     inkscape:pageshadow="0"
     inkscape:pageopacity="0"
     inkscape:pagecheckerboard="0"
     showgrid="false"
     inkscape:zoom="1.1983333"
     inkscape:cx="300.00001"
     inkscape:cy="229.90265"
     inkscape:window-width="1920"
     inkscape:window-height="991"
     inkscape:window-x="-9"
     inkscape:window-y="-9"
     inkscape:window-maximized="1"
     inkscape:current-layer="visual"
     fit-margin-top="0"
     fit-margin-left="0"
     fit-margin-right="0"
     fit-margin-bottom="0" />
  <g
     transform="translate(308.17674,200.21577)"
     id="g6"
     style="fill:#cf056f;fill-opacity:1">
    <path
       d="m 89.1,-132.7 c 28.4,30.7 54.8,54 99,94.2 44.3,40.3 106.4,97.3 102.6,140.4 -3.8,43 -73.5,72.1 -132.9,103.5 -59.4,31.3 -108.6,65 -147,50.1 -38.4,-14.9 -65.9,-78.3 -121.9,-110.8 -55.9,-32.5 -140.3,-34.1 -176.1,-69.1 -35.8,-35.1 -23.2,-103.7 18.3,-141.9 41.4,-38.1 111.7,-45.8 161.3,-69.5 49.6,-23.7 78.6,-63.4 108.3,-64.4 29.7,-0.9 60,36.9 88.4,67.5"
       fill="#BB004B"
       id="path4"
       style="fill:#cf056f;fill-opacity:1" />
  </g>
</svg>
